G04*
G04 #@! TF.GenerationSoftware,Altium Limited,Altium Designer,20.0.2 (26)*
G04*
G04 Layer_Color=2752767*
%FSLAX25Y25*%
%MOIN*%
G70*
G01*
G75*
%ADD10C,0.00050*%
%ADD11C,0.00200*%
%ADD12C,0.00267*%
D10*
X1318449Y558971D02*
G03*
X1317552Y560970I-113149J-49580D01*
G01*
D02*
G03*
X1316537Y563125I-111077J-51039D01*
G01*
D02*
G03*
X1315393Y565428I-108934J-52649D01*
G01*
D02*
G03*
X1314017Y568046I-106711J-54401D01*
G01*
Y568046D02*
G03*
X1312189Y571301I-104276J-56445D01*
G01*
Y571301D02*
G03*
X1308998Y576465I-101376J-59073D01*
G01*
D02*
G03*
X1299963Y588502I-97764J-63972D01*
G01*
X1299963Y588502D02*
G03*
X1297490Y591300I-90079J-77143D01*
G01*
X1297490D02*
G03*
X1295332Y593602I-88532J-80784D01*
G01*
D02*
G03*
X1293529Y595437I-87292J-83968D01*
G01*
D02*
G03*
X1291825Y597103I-86385J-86703D01*
G01*
D02*
G03*
X1290229Y598605I-85588J-89314D01*
G01*
X1293639Y414027D02*
G03*
X1294867Y415128I-61998J70392D01*
G01*
Y415128D02*
G03*
X1296546Y416698I-62527J68527D01*
G01*
X1296546Y416698D02*
G03*
X1299092Y419238I-63537J66261D01*
G01*
D02*
G03*
X1306269Y427646I-65710J63354D01*
G01*
X1306269D02*
G03*
X1307809Y429748I-74128J55900D01*
G01*
D02*
G03*
X1308928Y431357I-76523J54406D01*
G01*
X334381Y463325D02*
G03*
X334481Y461423I90535J3798D01*
G01*
X334674Y458919D02*
G03*
X334864Y457065I87056J7961D01*
G01*
Y457065D02*
G03*
X335091Y455231I85738J9687D01*
G01*
X335091D02*
G03*
X335355Y453418I84518J11388D01*
G01*
X335355Y453418D02*
G03*
X335765Y451030I83266J13046D01*
G01*
Y451030D02*
G03*
X336366Y448096I81845J15244D01*
G01*
D02*
G03*
X337531Y443512I80282J17962D01*
G01*
X337531D02*
G03*
X340794Y434221I78841J22474D01*
G01*
Y434221D02*
G03*
X341948Y431602I76756J32249D01*
G01*
X341948Y431602D02*
G03*
X342932Y429542I76491J35278D01*
G01*
X342932D02*
G03*
X343705Y428018I76344J37750D01*
G01*
X343705D02*
G03*
X344780Y426014I76415J39713D01*
G01*
X344780D02*
G03*
X345620Y424531I76198J42192D01*
G01*
X345620D02*
G03*
X346488Y423066I76183J44153D01*
G01*
Y423066D02*
G03*
X347385Y421618I76221J46167D01*
G01*
D02*
G03*
X348308Y420187I76307J48236D01*
G01*
Y420187D02*
G03*
X349259Y418773I76441J50364D01*
G01*
X839521Y651096D02*
G03*
X817494Y653743I-106053J-789840D01*
G01*
D02*
G03*
X781203Y656757I-84227J-794029D01*
G01*
Y656757D02*
G03*
X765330Y657551I-47289J-786836D01*
G01*
X346582Y494505D02*
G03*
X345344Y492130I133187J-70924D01*
G01*
X342048Y485232D02*
G03*
X340963Y482735I130423J-58158D01*
G01*
D02*
G03*
X339751Y479779I130014J-55029D01*
G01*
X339751D02*
G03*
X338124Y475472I129784J-51502D01*
G01*
D02*
G03*
X334381Y463325I130341J-46811D01*
G01*
X1060505Y645711D02*
G03*
X1068572Y637839I7874J0D01*
G01*
X971682Y637936D02*
G03*
X979796Y645806I241J7870D01*
G01*
X915372Y647995D02*
G03*
X922792Y640134I7874J0D01*
G01*
X839521Y651096D02*
G03*
X848443Y658900I1048J7804D01*
G01*
D11*
X929909Y470854D02*
Y472453D01*
X931509D01*
Y470854D01*
X929909D01*
X1241720Y506287D02*
Y507887D01*
X1243320D01*
Y506287D01*
X1241720D01*
X1183846Y577153D02*
Y578753D01*
X1185446D01*
Y577153D01*
X1183846D01*
X1181090Y541720D02*
Y543320D01*
X1182690D01*
Y541720D01*
X1181090D01*
X1176759Y506287D02*
Y507887D01*
X1178359D01*
Y506287D01*
X1176759D01*
X1172428Y470854D02*
Y472453D01*
X1174028D01*
Y470854D01*
X1172428D01*
X1168885Y435421D02*
Y437020D01*
X1170485D01*
Y435421D01*
X1168885D01*
X1108255D02*
Y437020D01*
X1109855D01*
Y435421D01*
X1108255D01*
X1112980Y470854D02*
Y472453D01*
X1114579D01*
Y470854D01*
X1112980D01*
X1122035Y506287D02*
Y507887D01*
X1123635D01*
Y506287D01*
X1122035D01*
X1124003Y541720D02*
Y543320D01*
X1125603D01*
Y541720D01*
X1124003D01*
X1127153Y577153D02*
Y578753D01*
X1128753D01*
Y577153D01*
X1127153D01*
X1075578D02*
Y578753D01*
X1077178D01*
Y577153D01*
X1075578D01*
X1070460Y541720D02*
Y543320D01*
X1072060D01*
Y541720D01*
X1070460D01*
X1069279Y506287D02*
Y507887D01*
X1070879D01*
Y506287D01*
X1069279D01*
X1065735Y470854D02*
Y472453D01*
X1067335D01*
Y470854D01*
X1065735D01*
X1070066Y435421D02*
Y437020D01*
X1071666D01*
Y435421D01*
X1070066D01*
X1049987D02*
Y437020D01*
X1051587D01*
Y435421D01*
X1049987D01*
X1050381Y470854D02*
Y472453D01*
X1051981D01*
Y470854D01*
X1050381D01*
Y506287D02*
Y507887D01*
X1051981D01*
Y506287D01*
X1050381D01*
X1049200Y541720D02*
Y543320D01*
X1050800D01*
Y541720D01*
X1049200D01*
X1046444Y577153D02*
Y578753D01*
X1048044D01*
Y577153D01*
X1046444D01*
X994869Y586995D02*
Y588595D01*
X996469D01*
Y586995D01*
X994869D01*
X999594Y556287D02*
Y557887D01*
X1001194D01*
Y556287D01*
X999594D01*
X1003924Y525184D02*
Y526784D01*
X1005524D01*
Y525184D01*
X1003924D01*
X1007468Y493294D02*
Y494895D01*
X1009068D01*
Y493294D01*
X1007468D01*
X1012980Y463373D02*
Y464973D01*
X1014579D01*
Y463373D01*
X1012980D01*
X952350Y435421D02*
Y437020D01*
X953950D01*
Y435421D01*
X952350D01*
X939751Y520066D02*
Y521666D01*
X941351D01*
Y520066D01*
X939751D01*
X936208Y551956D02*
Y553556D01*
X937808D01*
Y551956D01*
X936208D01*
X932271Y583452D02*
Y585052D01*
X933871D01*
Y583452D01*
X932271D01*
X872428Y582271D02*
Y583871D01*
X874028D01*
Y582271D01*
X872428D01*
X880302Y555105D02*
Y556706D01*
X881902D01*
Y555105D01*
X880302D01*
X882665Y522035D02*
Y523635D01*
X884265D01*
Y522035D01*
X882665D01*
X875578Y470854D02*
Y472453D01*
X877178D01*
Y470854D01*
X875578D01*
X888176Y435421D02*
Y437020D01*
X889776D01*
Y435421D01*
X888176D01*
X834633Y462192D02*
Y463792D01*
X836233D01*
Y462192D01*
X834633D01*
X825972Y490145D02*
Y491745D01*
X827572D01*
Y490145D01*
X825972D01*
X817310Y506287D02*
Y507887D01*
X818910D01*
Y506287D01*
X817310D01*
X815342Y549200D02*
Y550800D01*
X816942D01*
Y549200D01*
X815342D01*
X813767Y577153D02*
Y578753D01*
X815367D01*
Y577153D01*
X813767D01*
X753924D02*
Y578753D01*
X755524D01*
Y577153D01*
X753924D01*
X755893Y541720D02*
Y543320D01*
X757493D01*
Y541720D01*
X755893D01*
X752350Y506287D02*
Y507887D01*
X753950D01*
Y506287D01*
X752350D01*
X760617Y470854D02*
Y472453D01*
X762217D01*
Y470854D01*
X760617D01*
X768885Y435814D02*
Y437414D01*
X770485D01*
Y435814D01*
X768885D01*
X718885Y429121D02*
Y430721D01*
X720485D01*
Y429121D01*
X718885D01*
X711405Y457074D02*
Y458674D01*
X713005D01*
Y457074D01*
X711405D01*
X707074Y488176D02*
Y489776D01*
X708674D01*
Y488176D01*
X707074D01*
X696444Y506287D02*
Y507887D01*
X698044D01*
Y506287D01*
X696444D01*
X696050Y541720D02*
Y543320D01*
X697650D01*
Y541720D01*
X696050D01*
X693688Y577153D02*
Y578753D01*
X695288D01*
Y577153D01*
X693688D01*
X636995Y579515D02*
Y581115D01*
X638595D01*
Y579515D01*
X636995D01*
X640342Y541917D02*
Y543516D01*
X641942D01*
Y541917D01*
X640342D01*
X643294Y506287D02*
Y507887D01*
X644895D01*
Y506287D01*
X643294D01*
X647625Y470854D02*
Y472453D01*
X649225D01*
Y470854D01*
X647625D01*
X649987Y435421D02*
Y437020D01*
X651587D01*
Y435421D01*
X649987D01*
X652350Y399987D02*
Y401587D01*
X653950D01*
Y399987D01*
X652350D01*
X587389D02*
Y401587D01*
X588989D01*
Y399987D01*
X587389D01*
X585027Y435421D02*
Y437020D01*
X586627D01*
Y435421D01*
X585027D01*
X574397Y470854D02*
Y472453D01*
X575997D01*
Y470854D01*
X574397D01*
X575184Y506287D02*
Y507887D01*
X576784D01*
Y506287D01*
X575184D01*
X573609Y541720D02*
Y543320D01*
X575209D01*
Y541720D01*
X573609D01*
Y577153D02*
Y578753D01*
X575209D01*
Y577153D01*
X573609D01*
X515342Y544869D02*
Y546469D01*
X516942D01*
Y544869D01*
X515342D01*
X517704Y511405D02*
Y513005D01*
X519304D01*
Y511405D01*
X517704D01*
X514948Y470854D02*
Y472453D01*
X516548D01*
Y470854D01*
X514948D01*
X517310Y435421D02*
Y437020D01*
X518910D01*
Y435421D01*
X517310D01*
X516129Y399987D02*
Y401587D01*
X517729D01*
Y399987D01*
X516129D01*
X462192Y444082D02*
Y445682D01*
X463792D01*
Y444082D01*
X462192D01*
X457468Y470854D02*
Y472453D01*
X459068D01*
Y470854D01*
X457468D01*
X458255Y511011D02*
Y512611D01*
X459855D01*
Y511011D01*
X458255D01*
D12*
X388989Y447244D02*
G03*
X388989Y447244I-800J0D01*
G01*
X364186Y456693D02*
G03*
X364186Y456693I-800J0D01*
G01*
X1293320Y559055D02*
G03*
X1293320Y559055I-800J0D01*
G01*
X1295682Y463386D02*
G03*
X1295682Y463386I-800J0D01*
G01*
X1268027Y486221D02*
G03*
X1268027Y486221I-800J0D01*
G01*
X1237808Y465748D02*
G03*
X1237808Y465748I-800J0D01*
G01*
M02*
