M48
;Layer_Color=9474304
;FILE_FORMAT=2:5
INCH,LZ
;TYPE=PLATED
T1F00S00C0.00591
T2F00S00C0.01181
%
T01
X0462992Y0444882
X051811Y0436221
X0516929Y0400787
X0588189
X0585827Y0436221
X0650787
X065315Y0400787
X0719685Y0429921
X0712205Y0457874
X0769685Y0436614
X0835433Y0462992
X0888976Y0436221
X095315
X101378Y0464173
X1050787Y0436221
X1070866
X1109055
X1169685
X1173228Y0471654
X1177559Y0507087
X118189Y054252
X1184646Y0577953
X1127953
X1124803Y054252
X1122835Y0507087
X111378Y0471654
X124252Y0507087
X1070079
X1051181
Y0471654
X1066535
X107126Y054252
X105
X1047244Y0577953
X1076378
X0995669Y0587795
X1000394Y0557087
X1004724Y0525984
X1008268Y0494095
X0940551Y0520866
X0937008Y0552756
X0933071Y0584252
X0873228Y0583071
X0881102Y0555905
X0883465Y0522835
X0876378Y0471654
X0930709Y0471654
X0826772Y0490945
X081811Y0507087
X0816142Y055
X0814567Y0577953
X0754724
X0756693Y054252
X075315Y0507087
X0761417Y0471654
X0707874Y0488976
X0697244Y0507087
X069685Y054252
X0694488Y0577953
X0637795Y0580315
X0641142Y0542717
X0644095Y0507087
X0648425Y0471654
X0575197
X0575984Y0507087
X0574409Y054252
Y0577953
X0516142Y0545669
X0518504Y0512205
X0515748Y0471654
X0458268
X0459055Y0511811
T02
X0363386Y0456693
X0388189Y0447244
X1237008Y0465748
X1294882Y0463386
X1267227Y0486221
X129252Y0559055
M30
