G04*
G04 #@! TF.GenerationSoftware,Altium Limited,Altium Designer,20.0.2 (26)*
G04*
G04 Layer_Color=16711935*
%FSLAX25Y25*%
%MOIN*%
G70*
G01*
G75*
%ADD14C,0.00050*%
D14*
X1318449Y558971D02*
G03*
X1317552Y560970I-113149J-49580D01*
G01*
D02*
G03*
X1316537Y563125I-111077J-51039D01*
G01*
D02*
G03*
X1315393Y565428I-108934J-52649D01*
G01*
D02*
G03*
X1314017Y568046I-106711J-54401D01*
G01*
Y568046D02*
G03*
X1312189Y571301I-104276J-56445D01*
G01*
Y571301D02*
G03*
X1308998Y576465I-101376J-59073D01*
G01*
D02*
G03*
X1299963Y588502I-97764J-63972D01*
G01*
X1299963Y588502D02*
G03*
X1297490Y591300I-90079J-77143D01*
G01*
X1297490D02*
G03*
X1295332Y593602I-88532J-80784D01*
G01*
D02*
G03*
X1293529Y595437I-87292J-83968D01*
G01*
D02*
G03*
X1291825Y597103I-86385J-86703D01*
G01*
D02*
G03*
X1290229Y598605I-85588J-89314D01*
G01*
X1293639Y414027D02*
G03*
X1294867Y415128I-61998J70392D01*
G01*
Y415128D02*
G03*
X1296546Y416698I-62527J68527D01*
G01*
X1296546Y416698D02*
G03*
X1299092Y419238I-63537J66261D01*
G01*
D02*
G03*
X1306269Y427646I-65710J63354D01*
G01*
X1306269D02*
G03*
X1307809Y429748I-74128J55900D01*
G01*
D02*
G03*
X1308928Y431357I-76523J54406D01*
G01*
X334381Y463325D02*
G03*
X334481Y461423I90535J3798D01*
G01*
X334674Y458919D02*
G03*
X334864Y457065I87056J7961D01*
G01*
Y457065D02*
G03*
X335091Y455231I85738J9687D01*
G01*
X335091D02*
G03*
X335355Y453418I84518J11388D01*
G01*
X335355Y453418D02*
G03*
X335765Y451030I83266J13046D01*
G01*
Y451030D02*
G03*
X336366Y448096I81845J15244D01*
G01*
D02*
G03*
X337531Y443512I80282J17962D01*
G01*
X337531D02*
G03*
X340794Y434221I78841J22474D01*
G01*
Y434221D02*
G03*
X341948Y431602I76756J32249D01*
G01*
X341948Y431602D02*
G03*
X342932Y429542I76491J35278D01*
G01*
X342932D02*
G03*
X343705Y428018I76344J37750D01*
G01*
X343705D02*
G03*
X344780Y426014I76415J39713D01*
G01*
X344780D02*
G03*
X345620Y424531I76198J42192D01*
G01*
X345620D02*
G03*
X346488Y423066I76183J44153D01*
G01*
Y423066D02*
G03*
X347385Y421618I76221J46167D01*
G01*
D02*
G03*
X348308Y420187I76307J48236D01*
G01*
Y420187D02*
G03*
X349259Y418773I76441J50364D01*
G01*
X839521Y651096D02*
G03*
X817494Y653743I-106053J-789840D01*
G01*
D02*
G03*
X781203Y656757I-84227J-794029D01*
G01*
Y656757D02*
G03*
X765330Y657551I-47289J-786836D01*
G01*
X346582Y494505D02*
G03*
X345344Y492130I133187J-70924D01*
G01*
X342048Y485232D02*
G03*
X340963Y482735I130423J-58158D01*
G01*
D02*
G03*
X339751Y479779I130014J-55029D01*
G01*
X339751D02*
G03*
X338124Y475472I129784J-51502D01*
G01*
D02*
G03*
X334381Y463325I130341J-46811D01*
G01*
X1060505Y645711D02*
G03*
X1068572Y637839I7874J0D01*
G01*
X971682Y637936D02*
G03*
X979796Y645806I241J7870D01*
G01*
X915372Y647995D02*
G03*
X922792Y640134I7874J0D01*
G01*
X839521Y651096D02*
G03*
X848443Y658900I1048J7804D01*
G01*
M02*
