G04*
G04 #@! TF.GenerationSoftware,Altium Limited,Altium Designer,20.0.2 (26)*
G04*
G04 Layer_Color=8388736*
%FSLAX25Y25*%
%MOIN*%
G70*
G01*
G75*
%ADD10C,0.01181*%
G36*
X1222047Y566142D02*
X1198425D01*
Y589764D01*
X1222047D01*
Y566142D01*
D02*
G37*
G36*
X1162992D02*
X1139370D01*
Y589764D01*
X1162992D01*
Y566142D01*
D02*
G37*
G36*
X1103937D02*
X1080315D01*
Y589764D01*
X1103937D01*
Y566142D01*
D02*
G37*
G36*
X1044882D02*
X1021260D01*
Y589764D01*
X1044882D01*
Y566142D01*
D02*
G37*
G36*
X985827D02*
X962205D01*
Y589764D01*
X985827D01*
Y566142D01*
D02*
G37*
G36*
X926772D02*
X903150D01*
Y589764D01*
X926772D01*
Y566142D01*
D02*
G37*
G36*
X867717D02*
X844094D01*
Y589764D01*
X867717D01*
Y566142D01*
D02*
G37*
G36*
X808661D02*
X785039D01*
Y589764D01*
X808661D01*
Y566142D01*
D02*
G37*
G36*
X749606D02*
X725984D01*
Y589764D01*
X749606D01*
Y566142D01*
D02*
G37*
G36*
X690551D02*
X666929D01*
Y589764D01*
X690551D01*
Y566142D01*
D02*
G37*
G36*
X631496D02*
X607874D01*
Y589764D01*
X631496D01*
Y566142D01*
D02*
G37*
G36*
X572441D02*
X548819D01*
Y589764D01*
X572441D01*
Y566142D01*
D02*
G37*
G36*
X1285039Y542126D02*
X1249606D01*
Y575197D01*
X1285039D01*
Y542126D01*
D02*
G37*
G36*
X1222047Y530709D02*
X1198425D01*
Y554331D01*
X1222047D01*
Y530709D01*
D02*
G37*
G36*
X1162992D02*
X1139370D01*
Y554331D01*
X1162992D01*
Y530709D01*
D02*
G37*
G36*
X1103937D02*
X1080315D01*
Y554331D01*
X1103937D01*
Y530709D01*
D02*
G37*
G36*
X1044882D02*
X1021260D01*
Y554331D01*
X1044882D01*
Y530709D01*
D02*
G37*
G36*
X985827D02*
X962205D01*
Y554331D01*
X985827D01*
Y530709D01*
D02*
G37*
G36*
X926772D02*
X903150D01*
Y554331D01*
X926772D01*
Y530709D01*
D02*
G37*
G36*
X867717D02*
X844094D01*
Y554331D01*
X867717D01*
Y530709D01*
D02*
G37*
G36*
X808661D02*
X785039D01*
Y554331D01*
X808661D01*
Y530709D01*
D02*
G37*
G36*
X749606D02*
X725984D01*
Y554331D01*
X749606D01*
Y530709D01*
D02*
G37*
G36*
X690551D02*
X666929D01*
Y554331D01*
X690551D01*
Y530709D01*
D02*
G37*
G36*
X631496D02*
X607874D01*
Y554331D01*
X631496D01*
Y530709D01*
D02*
G37*
G36*
X572441D02*
X548819D01*
Y554331D01*
X572441D01*
Y530709D01*
D02*
G37*
G36*
X513386D02*
X489764D01*
Y554331D01*
X513386D01*
Y530709D01*
D02*
G37*
G36*
X1281102Y495276D02*
X1257480D01*
Y518898D01*
X1281102D01*
Y495276D01*
D02*
G37*
G36*
X1222047D02*
X1198425D01*
Y518898D01*
X1222047D01*
Y495276D01*
D02*
G37*
G36*
X1162992D02*
X1139370D01*
Y518898D01*
X1162992D01*
Y495276D01*
D02*
G37*
G36*
X1103937D02*
X1080315D01*
Y518898D01*
X1103937D01*
Y495276D01*
D02*
G37*
G36*
X1044882D02*
X1021260D01*
Y518898D01*
X1044882D01*
Y495276D01*
D02*
G37*
G36*
X985827D02*
X962205D01*
Y518898D01*
X985827D01*
Y495276D01*
D02*
G37*
G36*
X926772D02*
X903150D01*
Y518898D01*
X926772D01*
Y495276D01*
D02*
G37*
G36*
X867717D02*
X844094D01*
Y518898D01*
X867717D01*
Y495276D01*
D02*
G37*
G36*
X808661D02*
X785039D01*
Y518898D01*
X808661D01*
Y495276D01*
D02*
G37*
G36*
X749606D02*
X725984D01*
Y518898D01*
X749606D01*
Y495276D01*
D02*
G37*
G36*
X690551D02*
X666929D01*
Y518898D01*
X690551D01*
Y495276D01*
D02*
G37*
G36*
X631496D02*
X607874D01*
Y518898D01*
X631496D01*
Y495276D01*
D02*
G37*
G36*
X572441D02*
X548819D01*
Y518898D01*
X572441D01*
Y495276D01*
D02*
G37*
G36*
X513386D02*
X489764D01*
Y518898D01*
X513386D01*
Y495276D01*
D02*
G37*
G36*
X454331D02*
X430709D01*
Y518898D01*
X454331D01*
Y495276D01*
D02*
G37*
G36*
X1222047Y459842D02*
X1198425D01*
Y483465D01*
X1222047D01*
Y459842D01*
D02*
G37*
G36*
X1162992D02*
X1139370D01*
Y483465D01*
X1162992D01*
Y459842D01*
D02*
G37*
G36*
X1103937D02*
X1080315D01*
Y483465D01*
X1103937D01*
Y459842D01*
D02*
G37*
G36*
X1044882D02*
X1021260D01*
Y483465D01*
X1044882D01*
Y459842D01*
D02*
G37*
G36*
X985827D02*
X962205D01*
Y483465D01*
X985827D01*
Y459842D01*
D02*
G37*
G36*
X926772D02*
X903150D01*
Y483465D01*
X926772D01*
Y459842D01*
D02*
G37*
G36*
X867717D02*
X844094D01*
Y483465D01*
X867717D01*
Y459842D01*
D02*
G37*
G36*
X808661D02*
X785039D01*
Y483465D01*
X808661D01*
Y459842D01*
D02*
G37*
G36*
X749606D02*
X725984D01*
Y483465D01*
X749606D01*
Y459842D01*
D02*
G37*
G36*
X690551D02*
X666929D01*
Y483465D01*
X690551D01*
Y459842D01*
D02*
G37*
G36*
X631496D02*
X607874D01*
Y483465D01*
X631496D01*
Y459842D01*
D02*
G37*
G36*
X572441D02*
X548819D01*
Y483465D01*
X572441D01*
Y459842D01*
D02*
G37*
G36*
X513386D02*
X489764D01*
Y483465D01*
X513386D01*
Y459842D01*
D02*
G37*
G36*
X454331D02*
X430709D01*
Y483465D01*
X454331D01*
Y459842D01*
D02*
G37*
G36*
X1284252Y449213D02*
X1248819D01*
Y482283D01*
X1284252D01*
Y449213D01*
D02*
G37*
G36*
X407087Y448425D02*
X371654D01*
Y481496D01*
X407087D01*
Y448425D01*
D02*
G37*
G36*
X1222047Y424409D02*
X1198425D01*
Y448032D01*
X1222047D01*
Y424409D01*
D02*
G37*
G36*
X1162992D02*
X1139370D01*
Y448032D01*
X1162992D01*
Y424409D01*
D02*
G37*
G36*
X1103937D02*
X1080315D01*
Y448032D01*
X1103937D01*
Y424409D01*
D02*
G37*
G36*
X1044882D02*
X1021260D01*
Y448032D01*
X1044882D01*
Y424409D01*
D02*
G37*
G36*
X985827D02*
X962205D01*
Y448032D01*
X985827D01*
Y424409D01*
D02*
G37*
G36*
X926772D02*
X903150D01*
Y448032D01*
X926772D01*
Y424409D01*
D02*
G37*
G36*
X867717D02*
X844094D01*
Y448032D01*
X867717D01*
Y424409D01*
D02*
G37*
G36*
X808661D02*
X785039D01*
Y448032D01*
X808661D01*
Y424409D01*
D02*
G37*
G36*
X749606D02*
X725984D01*
Y448032D01*
X749606D01*
Y424409D01*
D02*
G37*
G36*
X690551D02*
X666929D01*
Y448032D01*
X690551D01*
Y424409D01*
D02*
G37*
G36*
X631496D02*
X607874D01*
Y448032D01*
X631496D01*
Y424409D01*
D02*
G37*
G36*
X572441D02*
X548819D01*
Y448032D01*
X572441D01*
Y424409D01*
D02*
G37*
G36*
X513386D02*
X489764D01*
Y448032D01*
X513386D01*
Y424409D01*
D02*
G37*
G36*
X454331D02*
X430709D01*
Y448032D01*
X454331D01*
Y424409D01*
D02*
G37*
G36*
X690551Y388976D02*
X666929D01*
Y412598D01*
X690551D01*
Y388976D01*
D02*
G37*
G36*
X631496D02*
X607874D01*
Y412598D01*
X631496D01*
Y388976D01*
D02*
G37*
G36*
X572441D02*
X548819D01*
Y412598D01*
X572441D01*
Y388976D01*
D02*
G37*
G36*
X513386D02*
X489764D01*
Y412598D01*
X513386D01*
Y388976D01*
D02*
G37*
D10*
X1058535Y858661D02*
Y874016D01*
X1056567Y858661D02*
Y874016D01*
X1054598Y858661D02*
Y874016D01*
X1052630Y858661D02*
Y874016D01*
X1050661Y858661D02*
Y874016D01*
X1048693Y858661D02*
Y874016D01*
X1046724Y858661D02*
Y874016D01*
X1044756Y858661D02*
Y874016D01*
X1042787Y858661D02*
Y874016D01*
X1040819Y858661D02*
Y874016D01*
X1038850Y858661D02*
Y874016D01*
X1036882Y858661D02*
Y874016D01*
X1034913Y858661D02*
Y874016D01*
X1032945Y858661D02*
Y874016D01*
X1030976Y858661D02*
Y874016D01*
X1029008Y858661D02*
Y874016D01*
X1027039Y858661D02*
Y874016D01*
X1025071Y858661D02*
Y874016D01*
X1023102Y858661D02*
Y874016D01*
X1021134Y858661D02*
Y874016D01*
X1019165Y858661D02*
Y874016D01*
X1017197Y858661D02*
Y874016D01*
X1015228Y858661D02*
Y874016D01*
X1013260Y858661D02*
Y874016D01*
X1011291Y858661D02*
Y874016D01*
X1009323Y858661D02*
Y874016D01*
X1007354Y858661D02*
Y874016D01*
X1005386Y858661D02*
Y874016D01*
X1003417Y858661D02*
Y874016D01*
X1001449Y858661D02*
Y874016D01*
X999480Y858661D02*
Y874016D01*
X997512Y858661D02*
Y874016D01*
X995543Y858661D02*
Y874016D01*
X993575Y858661D02*
Y874016D01*
X991606Y858661D02*
Y874016D01*
X989638Y858661D02*
Y874016D01*
X987669Y858661D02*
Y874016D01*
X985701Y858661D02*
Y874016D01*
X983732Y858661D02*
Y874016D01*
X981764Y858661D02*
Y874016D01*
Y858661D02*
Y874016D01*
X913406Y858661D02*
Y874016D01*
X911437Y858661D02*
Y874016D01*
X909469Y858661D02*
Y874016D01*
X907500Y858661D02*
Y874016D01*
X905532Y858661D02*
Y874016D01*
X903563Y858661D02*
Y874016D01*
X901594Y858661D02*
Y874016D01*
X899626Y858661D02*
Y874016D01*
X897657Y858661D02*
Y874016D01*
X895689Y858661D02*
Y874016D01*
X893720Y858661D02*
Y874016D01*
X891752Y858661D02*
Y874016D01*
X889783Y858661D02*
Y874016D01*
X887815Y858661D02*
Y874016D01*
X885846Y858661D02*
Y874016D01*
X883878Y858661D02*
Y874016D01*
X881909Y858661D02*
Y874016D01*
X879941Y858661D02*
Y874016D01*
X877972Y858661D02*
Y874016D01*
X876004Y858661D02*
Y874016D01*
X874035Y858661D02*
Y874016D01*
X872067Y858661D02*
Y874016D01*
X870098Y858661D02*
Y874016D01*
X868130Y858661D02*
Y874016D01*
X866161Y858661D02*
Y874016D01*
X864193Y858661D02*
Y874016D01*
X862224Y858661D02*
Y874016D01*
X860256Y858661D02*
Y874016D01*
X858287Y858661D02*
Y874016D01*
X856319Y858661D02*
Y874016D01*
X854350Y858661D02*
Y874016D01*
X852382Y858661D02*
Y874016D01*
X850413Y858661D02*
Y874016D01*
Y858661D02*
Y874016D01*
M02*
