G04*
G04 #@! TF.GenerationSoftware,Altium Limited,Altium Designer,20.0.2 (26)*
G04*
G04 Layer_Physical_Order=1*
G04 Layer_Color=255*
%FSLAX25Y25*%
%MOIN*%
G70*
G01*
G75*
%ADD10C,0.01181*%
%ADD11C,0.00394*%
G36*
X808661Y566142D02*
X785039D01*
Y589764D01*
X808661D01*
Y566142D01*
D02*
G37*
G36*
X749606D02*
X725984D01*
Y589764D01*
X749606D01*
Y566142D01*
D02*
G37*
G36*
X690551D02*
X666929D01*
Y589764D01*
X690551D01*
Y566142D01*
D02*
G37*
G36*
X631496D02*
X607874D01*
Y589764D01*
X631496D01*
Y566142D01*
D02*
G37*
G36*
X572441D02*
X548819D01*
Y589764D01*
X572441D01*
Y566142D01*
D02*
G37*
G36*
X808661Y530709D02*
X785039D01*
Y554331D01*
X808661D01*
Y530709D01*
D02*
G37*
G36*
X749606D02*
X725984D01*
Y554331D01*
X749606D01*
Y530709D01*
D02*
G37*
G36*
X690551D02*
X666929D01*
Y554331D01*
X690551D01*
Y530709D01*
D02*
G37*
G36*
X631496D02*
X607874D01*
Y554331D01*
X631496D01*
Y530709D01*
D02*
G37*
G36*
X572441D02*
X548819D01*
Y554331D01*
X572441D01*
Y530709D01*
D02*
G37*
G36*
X513386D02*
X489764D01*
Y554331D01*
X513386D01*
Y530709D01*
D02*
G37*
G36*
X808661Y495276D02*
X785039D01*
Y518898D01*
X808661D01*
Y495276D01*
D02*
G37*
G36*
X749606D02*
X725984D01*
Y518898D01*
X749606D01*
Y495276D01*
D02*
G37*
G36*
X690551D02*
X666929D01*
Y518898D01*
X690551D01*
Y495276D01*
D02*
G37*
G36*
X631496D02*
X607874D01*
Y518898D01*
X631496D01*
Y495276D01*
D02*
G37*
G36*
X572441D02*
X548819D01*
Y518898D01*
X572441D01*
Y495276D01*
D02*
G37*
G36*
X513386D02*
X489764D01*
Y518898D01*
X513386D01*
Y495276D01*
D02*
G37*
G36*
X454331D02*
X430709D01*
Y518898D01*
X454331D01*
Y495276D01*
D02*
G37*
G36*
X808661Y459842D02*
X785039D01*
Y483465D01*
X808661D01*
Y459842D01*
D02*
G37*
G36*
X749606D02*
X725984D01*
Y483465D01*
X749606D01*
Y459842D01*
D02*
G37*
G36*
X690551D02*
X666929D01*
Y483465D01*
X690551D01*
Y459842D01*
D02*
G37*
G36*
X631496D02*
X607874D01*
Y483465D01*
X631496D01*
Y459842D01*
D02*
G37*
G36*
X572441D02*
X548819D01*
Y483465D01*
X572441D01*
Y459842D01*
D02*
G37*
G36*
X513386D02*
X489764D01*
Y483465D01*
X513386D01*
Y459842D01*
D02*
G37*
G36*
X454331D02*
X430709D01*
Y483465D01*
X454331D01*
Y459842D01*
D02*
G37*
G36*
X407087Y448425D02*
X371654D01*
Y481496D01*
X407087D01*
Y448425D01*
D02*
G37*
G36*
X808661Y424409D02*
X785039D01*
Y448032D01*
X808661D01*
Y424409D01*
D02*
G37*
G36*
X749606D02*
X725984D01*
Y448032D01*
X749606D01*
Y424409D01*
D02*
G37*
G36*
X690551D02*
X666929D01*
Y448032D01*
X690551D01*
Y424409D01*
D02*
G37*
G36*
X631496D02*
X607874D01*
Y448032D01*
X631496D01*
Y424409D01*
D02*
G37*
G36*
X572441D02*
X548819D01*
Y448032D01*
X572441D01*
Y424409D01*
D02*
G37*
G36*
X513386D02*
X489764D01*
Y448032D01*
X513386D01*
Y424409D01*
D02*
G37*
G36*
X454331D02*
X430709D01*
Y448032D01*
X454331D01*
Y424409D01*
D02*
G37*
G36*
X690551Y388976D02*
X666929D01*
Y412598D01*
X690551D01*
Y388976D01*
D02*
G37*
G36*
X631496D02*
X607874D01*
Y412598D01*
X631496D01*
Y388976D01*
D02*
G37*
G36*
X572441D02*
X548819D01*
Y412598D01*
X572441D01*
Y388976D01*
D02*
G37*
G36*
X513386D02*
X489764D01*
Y412598D01*
X513386D01*
Y388976D01*
D02*
G37*
G36*
X1222047Y566142D02*
X1198425D01*
Y589764D01*
X1222047D01*
Y566142D01*
D02*
G37*
G36*
X1162992D02*
X1139370D01*
Y589764D01*
X1162992D01*
Y566142D01*
D02*
G37*
G36*
X1103937D02*
X1080315D01*
Y589764D01*
X1103937D01*
Y566142D01*
D02*
G37*
G36*
X1044882D02*
X1021260D01*
Y589764D01*
X1044882D01*
Y566142D01*
D02*
G37*
G36*
X985827D02*
X962205D01*
Y589764D01*
X985827D01*
Y566142D01*
D02*
G37*
G36*
X926772D02*
X903150D01*
Y589764D01*
X926772D01*
Y566142D01*
D02*
G37*
G36*
X867717D02*
X844094D01*
Y589764D01*
X867717D01*
Y566142D01*
D02*
G37*
G36*
X1285039Y542126D02*
X1249606D01*
Y575197D01*
X1285039D01*
Y542126D01*
D02*
G37*
G36*
X1222047Y530709D02*
X1198425D01*
Y554331D01*
X1222047D01*
Y530709D01*
D02*
G37*
G36*
X1162992D02*
X1139370D01*
Y554331D01*
X1162992D01*
Y530709D01*
D02*
G37*
G36*
X1103937D02*
X1080315D01*
Y554331D01*
X1103937D01*
Y530709D01*
D02*
G37*
G36*
X1044882D02*
X1021260D01*
Y554331D01*
X1044882D01*
Y530709D01*
D02*
G37*
G36*
X985827D02*
X962205D01*
Y554331D01*
X985827D01*
Y530709D01*
D02*
G37*
G36*
X926772D02*
X903150D01*
Y554331D01*
X926772D01*
Y530709D01*
D02*
G37*
G36*
X867717D02*
X844094D01*
Y554331D01*
X867717D01*
Y530709D01*
D02*
G37*
G36*
X1281102Y495276D02*
X1257480D01*
Y518898D01*
X1281102D01*
Y495276D01*
D02*
G37*
G36*
X1222047D02*
X1198425D01*
Y518898D01*
X1222047D01*
Y495276D01*
D02*
G37*
G36*
X1162992D02*
X1139370D01*
Y518898D01*
X1162992D01*
Y495276D01*
D02*
G37*
G36*
X1103937D02*
X1080315D01*
Y518898D01*
X1103937D01*
Y495276D01*
D02*
G37*
G36*
X1044882D02*
X1021260D01*
Y518898D01*
X1044882D01*
Y495276D01*
D02*
G37*
G36*
X985827D02*
X962205D01*
Y518898D01*
X985827D01*
Y495276D01*
D02*
G37*
G36*
X926772D02*
X903150D01*
Y518898D01*
X926772D01*
Y495276D01*
D02*
G37*
G36*
X867717D02*
X844094D01*
Y518898D01*
X867717D01*
Y495276D01*
D02*
G37*
G36*
X1222047Y459842D02*
X1198425D01*
Y483465D01*
X1222047D01*
Y459842D01*
D02*
G37*
G36*
X1162992D02*
X1139370D01*
Y483465D01*
X1162992D01*
Y459842D01*
D02*
G37*
G36*
X1103937D02*
X1080315D01*
Y483465D01*
X1103937D01*
Y459842D01*
D02*
G37*
G36*
X1044882D02*
X1021260D01*
Y483465D01*
X1044882D01*
Y459842D01*
D02*
G37*
G36*
X985827D02*
X962205D01*
Y483465D01*
X985827D01*
Y459842D01*
D02*
G37*
G36*
X926772D02*
X903150D01*
Y483465D01*
X926772D01*
Y459842D01*
D02*
G37*
G36*
X867717D02*
X844094D01*
Y483465D01*
X867717D01*
Y459842D01*
D02*
G37*
G36*
X1284252Y449213D02*
X1248819D01*
Y482283D01*
X1284252D01*
Y449213D01*
D02*
G37*
G36*
X1222047Y424409D02*
X1198425D01*
Y448032D01*
X1222047D01*
Y424409D01*
D02*
G37*
G36*
X1162992D02*
X1139370D01*
Y448032D01*
X1162992D01*
Y424409D01*
D02*
G37*
G36*
X1103937D02*
X1080315D01*
Y448032D01*
X1103937D01*
Y424409D01*
D02*
G37*
G36*
X1044882D02*
X1021260D01*
Y448032D01*
X1044882D01*
Y424409D01*
D02*
G37*
G36*
X985827D02*
X962205D01*
Y448032D01*
X985827D01*
Y424409D01*
D02*
G37*
G36*
X926772D02*
X903150D01*
Y448032D01*
X926772D01*
Y424409D01*
D02*
G37*
G36*
X867717D02*
X844094D01*
Y448032D01*
X867717D01*
Y424409D01*
D02*
G37*
D10*
X1292913Y573622D02*
X1310236Y556299D01*
Y465748D02*
Y556299D01*
Y463386D02*
Y465748D01*
X1283071Y436221D02*
X1310236Y463386D01*
X1259449Y436221D02*
X1283071D01*
X1220866Y397638D02*
X1259449Y436221D01*
X1218504Y395276D02*
X1220866Y397638D01*
X1204331Y395276D02*
X1218504D01*
X1202362Y393307D02*
X1204331Y395276D01*
X937008Y393307D02*
X1202362D01*
X758268D02*
X937008D01*
X750787Y385827D02*
X758268Y393307D01*
X733465Y368504D02*
X750787Y385827D01*
X454331Y368504D02*
X733465D01*
X443701D02*
X454331D01*
X363386Y448819D02*
X443701Y368504D01*
X363386Y448819D02*
Y456693D01*
X371654Y464961D01*
X1238976Y600000D02*
X1258661D01*
X1292520Y559055D02*
Y577953D01*
X1289370Y581102D02*
X1292520Y577953D01*
X1270472Y600000D02*
X1289370Y581102D01*
X1258661Y600000D02*
X1270472D01*
X1238386Y544685D02*
Y607283D01*
X1285039Y558661D02*
X1296063D01*
X1298032Y556693D01*
Y466535D02*
Y556693D01*
X1294882Y463386D02*
X1298032Y466535D01*
X1286614Y463386D02*
X1294882D01*
X1284252Y465748D02*
X1286614Y463386D01*
X1217323Y628346D02*
X1238386Y607283D01*
X1069685Y628346D02*
X1217323D01*
X1059055Y638976D02*
X1069685Y628346D01*
X1059055Y638976D02*
Y642126D01*
X1058535Y642646D02*
X1059055Y642126D01*
X1058535Y858661D02*
X1058535Y642646D01*
X1058535Y858661D02*
Y874016D01*
X1238386Y544685D02*
X1254724Y528346D01*
X1287402D01*
X1288976Y526772D01*
Y495669D02*
Y526772D01*
X1279527Y486221D02*
X1288976Y495669D01*
X1267227Y486221D02*
X1279527D01*
X1266535Y485529D02*
X1267227Y486221D01*
X1266535Y482283D02*
Y485529D01*
X388189Y447244D02*
Y448819D01*
Y447244D02*
X462598Y372835D01*
X695669D01*
X727559Y404724D01*
X1220866D01*
X1235433Y419291D01*
Y464173D01*
X1237008Y465748D01*
X1248819D01*
X850413Y858661D02*
Y874016D01*
X981764Y858661D02*
Y874016D01*
X1056567Y858661D02*
Y874016D01*
X1054598Y858661D02*
Y874016D01*
X1052630Y858661D02*
Y874016D01*
X1050661Y858661D02*
Y874016D01*
X1048693Y858661D02*
Y874016D01*
X1046724Y858661D02*
Y874016D01*
X1044756Y858661D02*
Y874016D01*
X1042787Y858661D02*
Y874016D01*
X1040819Y858661D02*
Y874016D01*
X1038850Y858661D02*
Y874016D01*
X1036882Y858661D02*
Y874016D01*
X1034913Y858661D02*
Y874016D01*
X1032945Y858661D02*
Y874016D01*
X1030976Y858661D02*
Y874016D01*
X1029008Y858661D02*
Y874016D01*
X1027039Y858661D02*
Y874016D01*
X1025071Y858661D02*
Y874016D01*
X1023102Y858661D02*
Y874016D01*
X1021134Y858661D02*
Y874016D01*
X1019165Y858661D02*
Y874016D01*
X1017197Y858661D02*
Y874016D01*
X1015228Y858661D02*
Y874016D01*
X1013260Y858661D02*
Y874016D01*
X1011291Y858661D02*
Y874016D01*
X1009323Y858661D02*
Y874016D01*
X1007354Y858661D02*
Y874016D01*
X1005386Y858661D02*
Y874016D01*
X1003417Y858661D02*
Y874016D01*
X1001449Y858661D02*
Y874016D01*
X999480Y858661D02*
Y874016D01*
X997512Y858661D02*
Y874016D01*
X995543Y858661D02*
Y874016D01*
X993575Y858661D02*
Y874016D01*
X991606Y858661D02*
Y874016D01*
X989638Y858661D02*
Y874016D01*
X987669Y858661D02*
Y874016D01*
X985701Y858661D02*
Y874016D01*
X983732Y858661D02*
Y874016D01*
X981764Y858661D02*
Y874016D01*
Y858661D02*
Y874016D01*
X913406Y858661D02*
Y874016D01*
X911437Y858661D02*
Y874016D01*
X909469Y858661D02*
Y874016D01*
X907500Y858661D02*
Y874016D01*
X905532Y858661D02*
Y874016D01*
X903563Y858661D02*
Y874016D01*
X901594Y858661D02*
Y874016D01*
X899626Y858661D02*
Y874016D01*
X897657Y858661D02*
Y874016D01*
X895689Y858661D02*
Y874016D01*
X893720Y858661D02*
Y874016D01*
X891752Y858661D02*
Y874016D01*
X889783Y858661D02*
Y874016D01*
X887815Y858661D02*
Y874016D01*
X885846Y858661D02*
Y874016D01*
X883878Y858661D02*
Y874016D01*
X881909Y858661D02*
Y874016D01*
X879941Y858661D02*
Y874016D01*
X877972Y858661D02*
Y874016D01*
X876004Y858661D02*
Y874016D01*
X874035Y858661D02*
Y874016D01*
X872067Y858661D02*
Y874016D01*
X870098Y858661D02*
Y874016D01*
X868130Y858661D02*
Y874016D01*
X866161Y858661D02*
Y874016D01*
X864193Y858661D02*
Y874016D01*
X862224Y858661D02*
Y874016D01*
X860256Y858661D02*
Y874016D01*
X858287Y858661D02*
Y874016D01*
X856319Y858661D02*
Y874016D01*
X854350Y858661D02*
Y874016D01*
X852382Y858661D02*
Y874016D01*
D11*
X850413Y858661D02*
X850413Y651594D01*
X1070472Y623622D02*
X1193307D01*
X1057874Y636221D02*
X1070472Y623622D01*
X1057874Y636221D02*
Y640551D01*
X1056567Y641858D02*
Y858661D01*
Y641858D02*
X1057874Y640551D01*
X1193307Y623622D02*
X1202362D01*
X1232677Y593307D01*
Y516929D02*
Y593307D01*
Y516929D02*
X1236220Y513386D01*
X1242520Y507087D01*
X1257480D01*
X1054724Y858661D02*
X1054724Y640945D01*
X1056299Y639370D01*
Y635039D02*
Y639370D01*
Y635039D02*
X1075984Y615354D01*
X1076772Y614567D01*
X1167092D01*
X1167323Y614336D01*
Y613779D02*
Y614336D01*
Y613779D02*
X1180315Y600787D01*
Y582283D02*
Y600787D01*
Y582283D02*
X1182283Y580315D01*
X1184646Y577953D01*
X1198425D01*
X1052630Y858661D02*
X1052630Y637921D01*
X1054724Y635827D01*
Y632677D02*
Y635827D01*
Y632677D02*
X1075197Y612205D01*
X1076378D01*
X1157087D01*
X1164173D01*
X1177165Y599213D01*
Y547244D02*
Y599213D01*
Y547244D02*
X1178347Y546063D01*
X1181890Y542520D01*
X1198425D01*
X1075197Y608661D02*
X1160630D01*
X1162992Y606299D01*
X1174016Y595276D01*
X1050394Y637402D02*
Y859449D01*
Y637402D02*
X1052362Y635433D01*
Y631496D02*
Y635433D01*
Y631496D02*
X1074016Y609842D01*
X1075197Y608661D01*
X1174016Y510630D02*
Y595276D01*
X1048425Y859449D02*
X1048425Y635433D01*
X1049213Y634646D01*
X1051181Y632677D01*
Y626215D02*
Y632677D01*
Y626215D02*
X1051412Y625984D01*
X1053937D01*
X1073228Y606693D01*
X1075197Y604724D01*
X1159842D01*
X1161024D01*
X1167717Y598032D01*
X1170866Y594882D01*
Y474016D02*
Y594882D01*
X1046724Y633591D02*
Y636057D01*
Y633591D02*
X1050394Y629921D01*
Y625197D02*
Y629921D01*
Y625197D02*
X1050787Y624803D01*
X1072047Y603543D01*
X1072835Y602756D01*
X1158661D01*
X1165748Y595669D01*
Y440158D02*
Y595669D01*
X1108661Y600000D02*
X1108858Y599803D01*
X1072047Y600000D02*
X1108661D01*
X1072047Y600000D02*
X1072047Y600000D01*
X1048819Y623228D02*
X1072047Y600000D01*
X1048819Y623228D02*
Y628346D01*
X1044882Y632283D02*
X1048819Y628346D01*
X1044756Y632409D02*
X1044882Y632283D01*
X1044756Y632409D02*
Y634520D01*
X1107874Y598425D02*
X1108268D01*
X1071653D02*
X1107874D01*
X1047244Y622835D02*
X1071653Y598425D01*
X1047244Y622835D02*
Y628346D01*
X1046457Y629134D02*
X1047244Y628346D01*
X1042913Y632677D02*
X1046457Y629134D01*
X1042126Y631102D02*
X1045276Y627953D01*
Y622835D02*
Y627953D01*
Y622835D02*
Y622835D01*
Y622835D02*
X1070866Y597244D01*
X1071260Y596850D01*
X1081102D01*
X1107480D01*
X1117717Y586614D01*
X1106299Y595276D02*
X1106693Y594882D01*
X1070866Y595276D02*
X1106299D01*
X1044094Y622047D02*
X1070866Y595276D01*
X1044094Y622047D02*
Y627165D01*
X1041732Y629528D02*
X1044094Y627165D01*
X1040158Y629528D02*
X1041732D01*
X1108858Y599803D02*
X1127953Y580709D01*
X1122835Y544488D02*
Y583858D01*
X1108268Y598425D02*
X1122835Y583858D01*
X1117717Y512205D02*
Y586614D01*
X1112205Y473228D02*
Y589370D01*
X1106299Y595276D02*
X1112205Y589370D01*
X1040158Y627953D02*
X1040945Y627165D01*
X1042520D01*
X1042913Y626772D01*
Y621654D02*
Y626772D01*
Y621654D02*
X1070079Y594488D01*
X1072047Y592520D01*
X1106299D01*
X1107480Y591339D01*
Y590945D02*
Y591339D01*
X1037795Y626378D02*
X1041339D01*
Y620866D02*
Y626378D01*
Y620866D02*
X1071260Y590945D01*
Y583071D02*
Y590945D01*
X1040158Y620472D02*
Y622047D01*
Y620472D02*
X1068898Y591732D01*
X1040158Y622047D02*
Y624016D01*
X1039370Y624803D02*
X1040158Y624016D01*
X1035827Y624803D02*
X1039370D01*
X1068898Y544882D02*
Y591732D01*
X1038189Y623622D02*
X1038976Y622835D01*
Y618898D02*
Y622835D01*
Y618898D02*
X1066142Y591732D01*
X1032283Y623622D02*
X1038189D01*
X1066142Y511024D02*
Y591732D01*
X1037402Y618110D02*
X1062205Y593307D01*
Y475984D02*
Y593307D01*
Y475984D02*
X1066535Y471654D01*
X1030709Y621260D02*
X1037402D01*
Y618110D02*
Y621260D01*
X1027165Y619685D02*
X1035827D01*
Y617717D02*
Y619685D01*
Y617717D02*
X1060236Y593307D01*
X1060236Y446850D01*
X1062205Y444882D01*
X1053937Y597244D02*
X1058268Y592913D01*
X1058268Y443701D01*
X1050787Y436221D02*
X1058268Y443701D01*
X1033858Y617323D02*
X1039370Y611811D01*
X1033858Y617323D02*
Y617717D01*
X1027559D02*
X1033858D01*
X1025034Y620242D02*
X1027559Y617717D01*
X1032677Y616142D02*
X1038189Y610630D01*
X1025197Y616142D02*
X1032677D01*
X1055906Y592913D02*
X1056299Y592520D01*
Y592126D02*
Y592520D01*
X1051181Y471654D02*
X1056299Y475984D01*
X1056299Y592126D02*
X1056299Y475984D01*
X1056299Y592126D02*
X1056299Y476772D01*
X1052362Y596457D02*
X1055906Y592913D01*
X1033071Y613386D02*
X1044094Y602362D01*
X1023065Y613386D02*
X1033071D01*
X1054331Y510236D02*
Y592126D01*
X1044094Y602362D02*
X1054331Y592126D01*
X1051181Y543701D02*
Y592913D01*
X1033465Y610630D02*
X1051181Y592913D01*
X1021260Y610630D02*
X1033465D01*
X1048819Y579528D02*
Y592126D01*
X1032283Y608661D02*
X1048819Y592126D01*
X1019685Y608661D02*
X1032283D01*
X1174016Y510630D02*
X1177559Y507087D01*
X1198425D01*
X1170866Y474016D02*
X1173228Y471654D01*
X1198425D01*
X1046724Y636057D02*
Y858661D01*
X1165748Y440158D02*
X1167717Y438189D01*
X1169685Y436221D01*
X1198425D01*
X1042520Y633071D02*
X1042913Y632677D01*
X1042913D01*
X1042520Y633071D02*
Y858661D01*
X1044756Y634520D02*
Y635307D01*
Y858661D01*
X1127953Y580709D02*
X1127953Y577953D01*
X1139370D01*
X1122835Y544488D02*
X1124803Y542520D01*
X1139370D01*
X1040945Y632283D02*
X1042126Y631102D01*
X1040945Y858661D02*
X1040945Y632283D01*
X1040819Y858661D02*
X1040945D01*
X1117717Y512205D02*
X1122835Y507087D01*
X1139370D01*
X1038850Y630835D02*
X1040158Y629528D01*
X1038850Y857517D02*
X1038850Y630835D01*
X1038850Y860504D02*
Y860756D01*
Y858661D02*
Y860504D01*
Y857517D02*
Y858661D01*
X1112205Y473228D02*
X1113780Y471654D01*
X1139370D01*
X1036882Y858661D02*
X1036882Y631228D01*
X1040158Y627953D01*
X1107480Y590945D02*
X1107480Y437795D01*
X1109055Y436221D01*
X1139370D01*
X1035039Y629134D02*
X1037795Y626378D01*
X1035039Y858268D02*
X1035039Y629134D01*
X1071260Y583071D02*
X1076378Y577953D01*
X1080315D01*
X1032945Y858661D02*
X1032945Y627685D01*
X1035827Y624803D01*
X1030939Y858661D02*
X1030939Y624966D01*
X1032283Y623622D01*
X1068898Y544882D02*
X1071260Y542520D01*
X1080315D01*
X1030939Y858661D02*
X1030976D01*
X1066142Y511024D02*
X1066929Y510236D01*
X1070079Y507087D01*
X1080315D01*
X1029008Y858661D02*
X1029134Y858535D01*
Y622835D02*
Y858535D01*
Y622835D02*
X1030709Y621260D01*
X1066535Y471654D02*
X1080315D01*
X1027165Y859449D02*
X1027165Y619685D01*
X1027165Y619685D02*
X1027165Y619685D01*
X1062205Y444882D02*
X1070866Y436221D01*
X1080315D01*
X1025034Y858661D02*
X1025034Y620242D01*
X1025034Y858661D02*
X1025071D01*
X1039370Y611811D02*
X1053937Y597244D01*
X1044882Y436221D02*
X1050787D01*
X1023228Y618110D02*
Y861024D01*
Y618110D02*
X1025197Y616142D01*
X1038189Y610630D02*
X1052362Y596457D01*
X1044882Y471654D02*
X1051181D01*
X1021134Y858661D02*
X1021134Y615317D01*
X1023065Y613386D01*
X1051181Y507087D02*
X1054331Y510236D01*
X1044882Y507087D02*
X1051181D01*
X1019165Y612724D02*
X1021260Y610630D01*
X1019165Y858661D02*
X1019165Y612724D01*
X1050000Y542520D02*
X1051181Y543701D01*
X1044882Y542520D02*
X1050000D01*
X1017197Y611150D02*
Y858661D01*
Y611150D02*
X1019685Y608661D01*
X1047244Y577953D02*
X1048819Y579528D01*
X1044882Y577953D02*
X1047244D01*
X1015228Y858661D02*
X1015228Y617984D01*
X1013780Y616535D02*
X1015228Y617984D01*
X1011024Y860630D02*
X1011417Y860236D01*
X1011417Y622835D01*
X1007087Y859842D02*
X1007087Y624803D01*
X995669Y613386D02*
X1007087Y624803D01*
X1013780Y495276D02*
Y616535D01*
Y464173D02*
Y495276D01*
X985827Y436221D02*
X1013780Y464173D01*
X1013386Y619685D02*
Y861024D01*
Y618898D02*
Y619685D01*
X1008268Y613779D02*
X1013386Y618898D01*
X1008268Y494095D02*
Y613779D01*
X985827Y471654D02*
X1008268Y494095D01*
X1011417Y621260D02*
Y622835D01*
X1004724Y614567D02*
X1011417Y621260D01*
X1004724Y525984D02*
Y614567D01*
X985827Y507087D02*
X1004724Y525984D01*
X1009323Y858661D02*
X1009449Y858535D01*
Y624016D02*
Y858535D01*
X1000394Y614961D02*
X1009449Y624016D01*
X1000394Y614173D02*
Y614961D01*
Y588583D02*
Y614173D01*
Y557087D02*
Y588583D01*
X985827Y542520D02*
X1000394Y557087D01*
X995669Y605512D02*
Y613386D01*
Y587795D02*
Y605512D01*
X985827Y577953D02*
X995669Y587795D01*
X1005386Y626646D02*
Y629134D01*
X994488Y615748D02*
X1005386Y626646D01*
X999480Y632551D02*
Y633590D01*
X987795Y620866D02*
X999480Y632551D01*
X999480Y858661D02*
X999480Y633590D01*
X1005386Y858661D02*
X1005386Y629134D01*
X954331Y615748D02*
X994488D01*
X953937Y615354D02*
X954331Y615748D01*
X953937Y437008D02*
Y615354D01*
X953150Y436221D02*
X953937Y437008D01*
X926772Y436221D02*
X953150D01*
X1003150Y859449D02*
X1003543Y859055D01*
X1003543Y632677D01*
Y629134D02*
Y632677D01*
X992913Y618504D02*
X1003543Y629134D01*
X950394Y618504D02*
X992913D01*
X948425Y616535D02*
X950394Y618504D01*
X948425Y491732D02*
Y616535D01*
X928347Y471654D02*
X948425Y491732D01*
X926772Y471654D02*
X928347D01*
X1001449Y632158D02*
Y858661D01*
X988583Y619291D02*
X1001449Y632158D01*
X942126Y619291D02*
X988583D01*
X940551Y617717D02*
X942126Y619291D01*
X940551Y520866D02*
Y617717D01*
X926772Y507087D02*
X940551Y520866D01*
X937795Y620866D02*
X987795D01*
X937008Y620079D02*
X937795Y620866D01*
X937008Y564567D02*
Y620079D01*
Y552756D02*
Y564567D01*
X926772Y542520D02*
X937008Y552756D01*
X997512Y633339D02*
Y858661D01*
X996457Y632283D02*
X997512Y633339D01*
X987008Y622835D02*
X996457Y632283D01*
X986220Y622835D02*
X987008D01*
X985433D02*
X986220D01*
X936057D02*
X985433D01*
X935827Y622604D02*
X936057Y622835D01*
X935827Y621654D02*
Y622604D01*
X933071Y618898D02*
X935827Y621654D01*
X933071Y584252D02*
Y618898D01*
X926772Y577953D02*
X933071Y584252D01*
X995543Y858661D02*
X995543Y632551D01*
X987008Y624016D02*
X995543Y632551D01*
X938583Y624016D02*
X987008D01*
X935433D02*
X938583D01*
X902756Y591339D02*
X935433Y624016D01*
X896457Y585039D02*
X902756Y591339D01*
X896457Y443701D02*
Y585039D01*
X888976Y436221D02*
X896457Y443701D01*
X867717Y436221D02*
X888976D01*
X993575Y858661D02*
X993575Y632158D01*
X993307Y631890D02*
X993575Y632158D01*
X986614Y625197D02*
X993307Y631890D01*
X934646Y625197D02*
X986614D01*
X897638Y588189D02*
X934646Y625197D01*
X888189Y586221D02*
X889764Y587795D01*
X888189Y483465D02*
Y586221D01*
X897244Y587795D02*
X897638Y588189D01*
X889764Y587795D02*
X897244D01*
X876378Y471654D02*
X888189Y483465D01*
X867717Y471654D02*
X876378D01*
X991606Y858661D02*
X991732Y858535D01*
Y632283D02*
Y858535D01*
Y631890D02*
Y632283D01*
X986220Y626378D02*
X991732Y631890D01*
X934252Y626378D02*
X986220D01*
X933858Y625984D02*
X934252Y626378D01*
X933858Y625591D02*
Y625984D01*
X896850Y588583D02*
X933858Y625591D01*
X884252Y588583D02*
X896850D01*
X883465Y587795D02*
X884252Y588583D01*
X883465Y522835D02*
Y587795D01*
X867717Y507087D02*
X883465Y522835D01*
X987402Y629528D02*
X989370Y631496D01*
X989370Y859842D02*
X989370Y631496D01*
X987669Y858661D02*
X987669Y631764D01*
X984646Y628740D02*
X987669Y631764D01*
X985433Y627559D02*
X987402Y629528D01*
X933071Y627559D02*
X985433D01*
X981081Y633071D02*
X981764Y633754D01*
X919291Y633071D02*
X981081D01*
X895276Y589764D02*
X933071Y627559D01*
X881496Y589764D02*
X895276D01*
X881102Y589370D02*
X881496Y589764D01*
X881102Y555905D02*
Y589370D01*
X867717Y542520D02*
X881102Y555905D01*
X932283Y628740D02*
X984646D01*
X931890Y628346D02*
X932283Y628740D01*
X894488Y590945D02*
X931890Y628346D01*
X893701Y590945D02*
X894488D01*
X880709D02*
X893701D01*
X867717Y577953D02*
X880709Y590945D01*
X985701Y858661D02*
X985701Y631764D01*
X983858Y629921D02*
X985701Y631764D01*
X929758Y629921D02*
X983858D01*
X929528Y629691D02*
X929758Y629921D01*
X929528Y628346D02*
Y629691D01*
X902362Y601181D02*
X929528Y628346D01*
X893701Y592520D02*
X902362Y601181D01*
X836220Y592520D02*
X893701D01*
X835433Y591732D02*
X836220Y592520D01*
X835433Y464961D02*
Y591732D01*
Y462992D02*
Y464961D01*
X808661Y436221D02*
X835433Y462992D01*
X983695Y858661D02*
X983695Y631957D01*
X983234Y631496D02*
X983695Y631957D01*
X983695Y858661D02*
X983732D01*
X926609Y631496D02*
X983234D01*
X926378Y631265D02*
X926609Y631496D01*
X926378Y628740D02*
Y631265D01*
X892913Y595276D02*
X926378Y628740D01*
X891732Y594095D02*
X892913Y595276D01*
X827002Y594095D02*
X891732D01*
X826772Y593864D02*
X827002Y594095D01*
X826772Y527165D02*
Y593864D01*
Y490945D02*
Y527165D01*
X808268Y472441D02*
X826772Y490945D01*
X769291Y436221D02*
X770079Y437008D01*
X770079D02*
X770079D01*
X770079D02*
Y600950D01*
X749606Y436221D02*
X769291D01*
X981764Y858661D02*
X981764Y633754D01*
X919128Y633071D02*
X919291D01*
X918898Y632840D02*
X919128Y633071D01*
X918898Y625197D02*
Y632840D01*
X890158Y596457D02*
X918898Y625197D01*
X823228Y596457D02*
X890158D01*
X822998Y596226D02*
X823228Y596457D01*
X822998Y595900D02*
Y596226D01*
Y595900D02*
X823228Y595669D01*
Y512205D02*
Y595669D01*
X818110Y507087D02*
X823228Y512205D01*
X808661Y507087D02*
X818110D01*
X907480Y626378D02*
Y628740D01*
X884646Y603543D02*
X907480Y626378D01*
X907480Y858661D02*
X907480Y628740D01*
X805512Y635433D02*
X857480D01*
X802756Y638189D02*
X805512Y635433D01*
X857480D02*
X857874Y635827D01*
X660236Y634252D02*
X857480D01*
X654331Y628346D02*
X660236Y634252D01*
X855906Y637402D02*
X868110Y649606D01*
X855512Y637402D02*
X855906D01*
X868110Y649606D02*
Y858642D01*
X856693Y636614D02*
X870079Y650000D01*
X813386Y636614D02*
X856693D01*
X857480Y634252D02*
X858661D01*
X874035Y649626D01*
X874035Y858661D02*
X874035Y649626D01*
X661024Y633071D02*
X859449D01*
X655512Y627559D02*
X661024Y633071D01*
X859449D02*
X876004Y649626D01*
X661417Y631496D02*
X859842D01*
X655905Y625984D02*
X661417Y631496D01*
X860236D02*
X877953Y649213D01*
X859842Y631496D02*
X860236D01*
X662598Y629528D02*
X861417D01*
X862205Y630315D01*
X879941Y648051D01*
X662598Y627953D02*
X863780D01*
X864173Y628346D01*
X881890Y646063D01*
Y648425D01*
X913406Y622854D02*
Y627933D01*
X888976Y598425D02*
X913406Y622854D01*
X913406Y858661D02*
X913406Y627933D01*
X819291Y598425D02*
X888976D01*
X818110Y597244D02*
X819291Y598425D01*
X818110Y553150D02*
Y597244D01*
X816142Y551181D02*
X818110Y553150D01*
X816142Y550000D02*
Y551181D01*
X808661Y542520D02*
X816142Y550000D01*
X885433Y599606D02*
X911417Y625591D01*
X911437Y625571D01*
Y858661D01*
X816372Y599606D02*
X885433D01*
X816142Y599376D02*
X816372Y599606D01*
X816142Y579528D02*
Y599376D01*
X815354Y578740D02*
X816142Y579528D01*
X814567Y577953D02*
X815354Y578740D01*
X808661Y577953D02*
X814567D01*
X909469Y858661D02*
X909469Y625610D01*
X885039Y601181D02*
X909469Y625610D01*
X770309Y601181D02*
X885039D01*
X770079Y600950D02*
X770309Y601181D01*
X884252Y603150D02*
X884646Y603543D01*
X767160Y603150D02*
X884252D01*
X766929Y602919D02*
X767160Y603150D01*
X766929Y477165D02*
Y602919D01*
X764961Y475197D02*
X766929Y477165D01*
X761417Y471654D02*
X764961Y475197D01*
X749606Y471654D02*
X761417D01*
X905532Y858661D02*
X905532Y628366D01*
X883465Y606299D02*
X905532Y628366D01*
X764404Y606299D02*
X883465D01*
X764173Y606069D02*
X764404Y606299D01*
X764173Y518110D02*
Y606069D01*
X753150Y507087D02*
X764173Y518110D01*
X749606Y507087D02*
X753150D01*
X903563Y858661D02*
X903563Y629154D01*
X883071Y608661D02*
X903563Y629154D01*
X759842Y608661D02*
X883071D01*
X759449Y608268D02*
X759842Y608661D01*
X759449Y545276D02*
Y608268D01*
X756693Y542520D02*
X759449Y545276D01*
X749606Y542520D02*
X756693D01*
X901575Y858268D02*
X901575Y631890D01*
X881102Y611417D02*
X901575Y631890D01*
X755349Y611417D02*
X881102D01*
X755118Y611187D02*
X755349Y611417D01*
X755118Y578346D02*
Y611187D01*
X754724Y577953D02*
X755118Y578346D01*
X749606Y577953D02*
X754724D01*
X899626Y633091D02*
Y866339D01*
X879134Y612598D02*
X899626Y633091D01*
X721490Y612598D02*
X879134D01*
X721260Y612368D02*
X721490Y612598D01*
X721260Y611417D02*
Y612368D01*
X719685Y609842D02*
X721260Y611417D01*
X719685Y429921D02*
Y609842D01*
X690551Y400787D02*
X719685Y429921D01*
X897657Y858661D02*
X897657Y634665D01*
X876772Y613779D02*
X897657Y634665D01*
X712435Y613779D02*
X876772D01*
X712205Y613549D02*
X712435Y613779D01*
X712205Y506299D02*
Y613549D01*
Y457874D02*
Y506299D01*
X708661Y454331D02*
X712205Y457874D01*
X708661Y454331D02*
X708661D01*
X690551Y436221D02*
X708661Y454331D01*
X895689Y636240D02*
Y858661D01*
X877559Y618110D02*
X895689Y636240D01*
X875591Y616142D02*
X877559Y618110D01*
X708105Y616142D02*
X875591D01*
X707874Y615911D02*
X708105Y616142D01*
X707874Y492913D02*
Y615911D01*
Y488976D02*
Y492913D01*
X690551Y471654D02*
X707874Y488976D01*
X893720Y637421D02*
Y858661D01*
X874016Y617717D02*
X893720Y637421D01*
X704331Y617717D02*
X874016D01*
X702362Y615748D02*
X704331Y617717D01*
X702362Y512205D02*
Y615748D01*
X701575Y511417D02*
X702362Y512205D01*
X697244Y507087D02*
X701575Y511417D01*
X690551Y507087D02*
X697244D01*
X891339Y859449D02*
X891732Y859055D01*
Y642520D02*
Y859055D01*
Y642520D02*
Y642520D01*
X868504Y619291D02*
X891732Y642520D01*
X699213Y619291D02*
X868504D01*
X698425Y618504D02*
X699213Y619291D01*
X698425Y544095D02*
Y618504D01*
X696850Y542520D02*
X698425Y544095D01*
X690551Y542520D02*
X696850D01*
X889927Y858661D02*
X889927Y643077D01*
X867717Y620866D02*
X889927Y643077D01*
X889783Y858661D02*
X889927D01*
X695900Y620866D02*
X867717D01*
X695669Y620636D02*
X695900Y620866D01*
X695669Y579134D02*
Y620636D01*
X694882Y578346D02*
X695669Y579134D01*
X694488Y577953D02*
X694882Y578346D01*
X690551Y577953D02*
X694488D01*
X651575Y474803D02*
Y617717D01*
X648425Y471654D02*
X651575Y474803D01*
X631496Y471654D02*
X648425D01*
X887795Y866319D02*
X887815Y866339D01*
X887795Y646850D02*
Y866319D01*
Y644095D02*
Y646850D01*
X866142Y622441D02*
X887795Y644095D01*
X666372Y622441D02*
X866142D01*
X666142Y622210D02*
X666372Y622441D01*
X666142Y621260D02*
Y622210D01*
X660630Y615748D02*
X666142Y621260D01*
X660236Y615354D02*
X660630Y615748D01*
X660236Y407874D02*
Y615354D01*
X653150Y400787D02*
X660236Y407874D01*
X631496Y400787D02*
X653150D01*
X885846Y858661D02*
X885846Y644902D01*
X864567Y623622D02*
X885846Y644902D01*
X663386Y623622D02*
X864567D01*
X655512Y615748D02*
X663386Y623622D01*
X655512Y440945D02*
Y615748D01*
X652756Y438189D02*
X655512Y440945D01*
X650787Y436221D02*
X652756Y438189D01*
X631496Y436221D02*
X650787D01*
X883858Y859449D02*
X883858Y645832D01*
X884021Y645669D01*
X883465D02*
X884021D01*
X864567Y626772D02*
X883465Y645669D01*
X864173Y626378D02*
X864567Y626772D01*
X662829Y626378D02*
X864173D01*
X662598Y626147D02*
X662829Y626378D01*
X662598Y625197D02*
Y626147D01*
X656299Y618898D02*
X662598Y625197D01*
X652756Y618898D02*
X656299D01*
X651575Y617717D02*
X652756Y618898D01*
X881890Y858642D02*
X881909Y858661D01*
X881890Y648425D02*
Y858642D01*
X661811Y627953D02*
X662598D01*
X656299Y622441D02*
X661811Y627953D01*
X655118Y621260D02*
X656299Y622441D01*
X645900Y621260D02*
X655118D01*
X645669Y621029D02*
X645900Y621260D01*
X645669Y508661D02*
Y621029D01*
X644095Y507087D02*
X645669Y508661D01*
X631496Y507087D02*
X644095D01*
X879941Y858661D02*
X879941Y648051D01*
X661811Y629528D02*
X662598D01*
X656299Y624016D02*
X661811Y629528D01*
X642913Y624016D02*
X656299D01*
X641339Y622441D02*
X642913Y624016D01*
X641339Y542913D02*
Y622441D01*
X640945Y542520D02*
X641339Y542913D01*
X631496Y542520D02*
X640945D01*
X877953Y860630D02*
X878347Y861024D01*
X877953Y649213D02*
Y860630D01*
X655512Y625591D02*
X655905Y625984D01*
X638026Y625591D02*
X655512D01*
X637795Y625360D02*
X638026Y625591D01*
X637795Y580315D02*
Y625360D01*
X637008Y579528D02*
X637795Y580315D01*
X635433Y577953D02*
X637008Y579528D01*
X631496Y577953D02*
X635433D01*
X876004Y858661D02*
X876004Y649626D01*
X635039Y627559D02*
X655512D01*
X634646Y627165D02*
X635039Y627559D01*
X634646Y626772D02*
Y627165D01*
X631496Y623622D02*
X634646Y626772D01*
X625591Y617717D02*
X631496Y623622D01*
X595669Y617717D02*
X625591D01*
X595276Y617323D02*
X595669Y617717D01*
X595276Y407874D02*
Y617323D01*
X588189Y400787D02*
X595276Y407874D01*
X572441Y400787D02*
X588189D01*
X653150Y628346D02*
X654331D01*
X652756Y628740D02*
X653150Y628346D01*
X632908Y628740D02*
X652756D01*
X632677Y628510D02*
X632908Y628740D01*
X632677Y626772D02*
Y628510D01*
X627165Y621260D02*
X632677Y626772D01*
X590551Y621260D02*
X627165D01*
X589764Y620472D02*
X590551Y621260D01*
X587402Y618110D02*
X589764Y620472D01*
X587402Y437795D02*
Y618110D01*
X585827Y436221D02*
X587402Y437795D01*
X572441Y436221D02*
X585827D01*
X872047Y650000D02*
Y859842D01*
Y650000D02*
Y650000D01*
X857874Y635827D02*
X872047Y650000D01*
X763779Y638189D02*
X802756D01*
X763779D02*
X763779D01*
X760630Y641339D02*
X763779Y638189D01*
X697638Y641339D02*
X760630D01*
X696850D02*
X697638D01*
X694095Y638583D02*
X696850Y641339D01*
X693701Y638189D02*
X694095Y638583D01*
X657874Y638189D02*
X693701D01*
X651575Y631890D02*
X657874Y638189D01*
X650787Y631890D02*
X651575D01*
X618110D02*
X650787D01*
X617323Y631102D02*
X618110Y631890D01*
X616535Y631102D02*
X617323D01*
X609449Y624016D02*
X616535Y631102D01*
X609055Y623622D02*
X609449Y624016D01*
X584876Y623622D02*
X609055D01*
X584646Y623391D02*
X584876Y623622D01*
X584646Y481102D02*
Y623391D01*
X575197Y471654D02*
X584646Y481102D01*
X572441Y471654D02*
X575197D01*
X870098Y650020D02*
Y858661D01*
X870079Y650000D02*
X870098Y650020D01*
X805512Y636614D02*
X807250D01*
X802756Y639370D02*
X805512Y636614D01*
X764173Y639370D02*
X802756D01*
X807250Y636614D02*
X813386D01*
X761417Y642126D02*
X764173Y639370D01*
X760630Y642913D02*
X761417Y642126D01*
X696850Y642913D02*
X760630D01*
X693701Y639764D02*
X696850Y642913D01*
X657480Y639764D02*
X693701D01*
X656693Y638976D02*
X657480Y639764D01*
X650787Y633071D02*
X656693Y638976D01*
X616142Y633071D02*
X650787D01*
X615354Y632283D02*
X616142Y633071D01*
X608661Y625591D02*
X615354Y632283D01*
X581496Y625591D02*
X608661D01*
X580315Y624409D02*
X581496Y625591D01*
X580315Y511417D02*
Y624409D01*
X575984Y507087D02*
X580315Y511417D01*
X572441Y507087D02*
X575984D01*
X868110Y858642D02*
X868130Y858661D01*
X806693Y637402D02*
X855512D01*
X803150Y640945D02*
X806693Y637402D01*
X765354Y640945D02*
X803150D01*
X761811Y644488D02*
X765354Y640945D01*
X761417Y644488D02*
X761811D01*
X696457D02*
X761417D01*
X696063D02*
X696457D01*
X692126Y640551D02*
X696063Y644488D01*
X656693Y640551D02*
X692126D01*
X650000Y633858D02*
X656693Y640551D01*
X614567Y633858D02*
X650000D01*
X614567Y633858D02*
X614567Y633858D01*
X607874Y627165D02*
X614567Y633858D01*
X580315Y627165D02*
X607874D01*
X578740Y625591D02*
X580315Y627165D01*
X578740Y622441D02*
Y625591D01*
Y546850D02*
Y622441D01*
X574409Y542520D02*
X578740Y546850D01*
X572441Y542520D02*
X574409D01*
X866161Y650020D02*
Y858661D01*
X864567Y648425D02*
X866161Y650020D01*
X854331Y638189D02*
X864567Y648425D01*
X807874Y638189D02*
X854331D01*
X807480D02*
X807874D01*
X803937Y641732D02*
X807480Y638189D01*
X765748Y641732D02*
X803937D01*
X764567Y642913D02*
X765748Y641732D01*
X761811Y645669D02*
X764567Y642913D01*
X695669Y645669D02*
X761811D01*
X691732Y641732D02*
X695669Y645669D01*
X656299Y641732D02*
X691732D01*
X649606Y635039D02*
X656299Y641732D01*
X614173Y635039D02*
X649606D01*
X614173D02*
X614173D01*
X607480Y628346D02*
X614173Y635039D01*
X580315Y628346D02*
X607480D01*
X576378Y624409D02*
X580315Y628346D01*
X576378Y624016D02*
Y624409D01*
Y579921D02*
Y624016D01*
X574409Y577953D02*
X576378Y579921D01*
X572441Y577953D02*
X574409D01*
X864193Y858661D02*
X864193Y649232D01*
X853937Y638976D02*
X864193Y649232D01*
X852362Y638976D02*
X853937D01*
X808268D02*
X852362D01*
X804331Y642913D02*
X808268Y638976D01*
X766535Y642913D02*
X804331D01*
X765748Y643701D02*
X766535Y642913D01*
X765748Y643701D02*
X765748D01*
X762205Y647244D02*
X765748Y643701D01*
X695669Y647244D02*
X762205D01*
X695276D02*
X695669D01*
X690945Y642913D02*
X695276Y647244D01*
X655905Y642913D02*
X690945D01*
X655118Y642126D02*
X655905Y642913D01*
X649606Y636614D02*
X655118Y642126D01*
X649213Y636221D02*
X649606Y636614D01*
X613779Y636221D02*
X649213D01*
X607087Y629528D02*
X613779Y636221D01*
X605905Y629528D02*
X607087D01*
X579921D02*
X605905D01*
X570472Y620079D02*
X579921Y629528D01*
X553543Y620079D02*
X570472D01*
X552756Y619291D02*
X553543Y620079D01*
X543701Y610236D02*
X552756Y619291D01*
X529758Y610236D02*
X543701D01*
X529528Y610006D02*
X529758Y610236D01*
X529528Y609449D02*
Y610006D01*
X527328Y607250D02*
X529528Y609449D01*
X527328Y606923D02*
Y607250D01*
Y606923D02*
X527559Y606693D01*
Y602362D02*
Y606693D01*
Y411417D02*
Y602362D01*
X527165Y411024D02*
X527559Y411417D01*
X516929Y400787D02*
X527165Y411024D01*
X513386Y400787D02*
X516929D01*
X862224Y649626D02*
Y651161D01*
X852362Y639764D02*
X862224Y649626D01*
X862224Y858661D02*
X862224Y651161D01*
X809055Y639764D02*
X852362D01*
X804724Y644095D02*
X809055Y639764D01*
X766929Y644095D02*
X804724D01*
X765748Y645276D02*
X766929Y644095D01*
X762598Y648425D02*
X765748Y645276D01*
X694882Y648425D02*
X762598D01*
X690158Y643701D02*
X694882Y648425D01*
X655118Y643701D02*
X690158D01*
X648819Y637402D02*
X655118Y643701D01*
X613779Y637402D02*
X648819D01*
X613386D02*
X613779D01*
X606299Y630315D02*
X613386Y637402D01*
X604724Y630315D02*
X606299D01*
X579528D02*
X604724D01*
X579134Y629921D02*
X579528Y630315D01*
X570079Y620866D02*
X579134Y629921D01*
X552756Y620866D02*
X570079D01*
X552362Y620472D02*
X552756Y620866D01*
X543307Y611417D02*
X552362Y620472D01*
X542913Y611417D02*
X543307D01*
X529134D02*
X542913D01*
X524803Y607087D02*
X529134Y611417D01*
X524803Y605905D02*
Y607087D01*
Y442913D02*
Y605905D01*
X518110Y436221D02*
X524803Y442913D01*
X513386Y436221D02*
X518110D01*
X645900Y642520D02*
X652362Y648982D01*
X609842Y642520D02*
X645900D01*
X654724Y644882D02*
X689764D01*
X648425Y638583D02*
X654724Y644882D01*
X612598Y638583D02*
X648425D01*
X647868Y639370D02*
X653937Y645439D01*
X615354Y639370D02*
X647868D01*
X576772Y633465D02*
X604331D01*
X549606Y626772D02*
X566929D01*
X548032Y627559D02*
X564173D01*
X550787Y624409D02*
X567717D01*
X542126Y615748D02*
X550787Y624409D01*
X540945Y615748D02*
X542126D01*
X542520Y612598D02*
X543701Y613779D01*
X528346Y612598D02*
X542520D01*
X543701Y613779D02*
X551378Y621457D01*
X551575Y621654D01*
X860236Y650000D02*
Y859055D01*
Y649606D02*
Y650000D01*
X852362Y641732D02*
X860236Y649606D01*
X851575Y640945D02*
X852362Y641732D01*
X810236Y640945D02*
X851575D01*
X809449D02*
X810236D01*
X806299Y644095D02*
X809449Y640945D01*
X805118Y645276D02*
X806299Y644095D01*
X768504Y645276D02*
X805118D01*
X767717D02*
X768504D01*
X764173Y648819D02*
X767717Y645276D01*
X763779Y649213D02*
X764173Y648819D01*
X706299Y649213D02*
X763779D01*
X694095D02*
X706299D01*
X689764Y644882D02*
X694095Y649213D01*
X612205Y638189D02*
X612598Y638583D01*
X605118Y631102D02*
X612205Y638189D01*
X604331Y631102D02*
X605118D01*
X603543D02*
X604331D01*
X578183D02*
X603543D01*
X577953Y630872D02*
X578183Y631102D01*
X577953Y630315D02*
Y630872D01*
X569685Y622047D02*
X577953Y630315D01*
X551968Y622047D02*
X569685D01*
X551575Y621654D02*
X551968Y622047D01*
X521260Y605512D02*
X528346Y612598D01*
X521260Y477165D02*
Y605512D01*
X515748Y471654D02*
X521260Y477165D01*
X513386Y471654D02*
X515748D01*
X858268Y859842D02*
X858287Y859823D01*
Y858661D02*
Y859823D01*
Y650413D02*
Y858661D01*
X851968Y644095D02*
X858287Y650413D01*
X850000Y642126D02*
X851968Y644095D01*
X810630Y642126D02*
X850000D01*
X809842D02*
X810630D01*
X808661Y643307D02*
X809842Y642126D01*
X805906Y646063D02*
X808661Y643307D01*
X768898Y646063D02*
X805906D01*
X768504D02*
X768898D01*
X765354Y649213D02*
X768504Y646063D01*
X764567Y650000D02*
X765354Y649213D01*
X693701Y650000D02*
X764567D01*
X689370Y645669D02*
X693701Y650000D01*
X687795Y645669D02*
X689370D01*
X654168D02*
X687795D01*
X653937Y645439D02*
X654168Y645669D01*
X611811Y639370D02*
X615354D01*
X605118Y632677D02*
X611811Y639370D01*
X604331Y631890D02*
X605118Y632677D01*
X578346Y631890D02*
X604331D01*
X577559D02*
X578346D01*
X568898Y623228D02*
X577559Y631890D01*
X553543Y623228D02*
X568898D01*
X550787D02*
X553543D01*
X542126Y614567D02*
X550787Y623228D01*
X541732Y614173D02*
X542126Y614567D01*
X528346Y614173D02*
X541732D01*
X527953D02*
X528346D01*
X518504Y604724D02*
X527953Y614173D01*
X518504Y514961D02*
Y604724D01*
Y512205D02*
Y514961D01*
X513386Y507087D02*
X518504Y512205D01*
X856319Y858661D02*
X856319Y651201D01*
X848819Y643701D02*
X856319Y651201D01*
X848032Y643701D02*
X848819D01*
X811024D02*
X848032D01*
X809842D02*
X811024D01*
X806693Y646850D02*
X809842Y643701D01*
X769685Y646850D02*
X806693D01*
X768898Y647638D02*
X769685Y646850D01*
X765748Y650787D02*
X768898Y647638D01*
X724409Y650787D02*
X765748D01*
X724016Y651181D02*
X724409Y650787D01*
X723622Y651575D02*
X724016Y651181D01*
X691569Y651575D02*
X723622D01*
X691339Y651344D02*
X691569Y651575D01*
X691339Y650394D02*
Y651344D01*
X687795Y646850D02*
X691339Y650394D01*
X653937Y646850D02*
X687795D01*
X647638Y640551D02*
X653937Y646850D01*
X643307Y640551D02*
X647638D01*
X611417D02*
X643307D01*
X604331Y633465D02*
X611417Y640551D01*
X576378Y633071D02*
X576772Y633465D01*
X567717Y624409D02*
X576378Y633071D01*
X527165Y615748D02*
X540945D01*
X516142Y604724D02*
X527165Y615748D01*
X516142Y545669D02*
Y604724D01*
Y545276D02*
Y545669D01*
X513386Y542520D02*
X516142Y545276D01*
X854350Y858661D02*
X854350Y651594D01*
X847638Y644882D02*
X854350Y651594D01*
X846850Y644882D02*
X847638D01*
X811024D02*
X846850D01*
X810236D02*
X811024D01*
X807087Y648032D02*
X810236Y644882D01*
X769685Y648032D02*
X807087D01*
X768504Y649213D02*
X769685Y648032D01*
X766929Y650787D02*
X768504Y649213D01*
X766929Y650787D02*
X766929D01*
X766142Y651575D02*
X766929Y650787D01*
X724803Y651575D02*
X766142D01*
X724016Y652362D02*
X724803Y651575D01*
X690945Y652362D02*
X724016D01*
X686614Y648032D02*
X690945Y652362D01*
X653150Y648032D02*
X686614D01*
X646850Y641732D02*
X653150Y648032D01*
X610467Y641732D02*
X646850D01*
X610236Y641502D02*
X610467Y641732D01*
X610236Y640945D02*
Y641502D01*
X603543Y634252D02*
X610236Y640945D01*
X577165Y634252D02*
X603543D01*
X575984D02*
X577165D01*
X567717Y625984D02*
X575984Y634252D01*
X566929Y625197D02*
X567717Y625984D01*
X550000Y625197D02*
X566929D01*
X541339Y616535D02*
X550000Y625197D01*
X540945Y616535D02*
X541339D01*
X526378D02*
X540945D01*
X516142Y606299D02*
X526378Y616535D01*
X514961Y606299D02*
X516142D01*
X497244D02*
X514961D01*
X496457Y605512D02*
X497244Y606299D01*
X496457Y605118D02*
Y605512D01*
X486221Y594882D02*
X496457Y605118D01*
X485827Y594488D02*
X486221Y594882D01*
X475197Y594488D02*
X485827D01*
X462992Y582283D02*
X475197Y594488D01*
X462992Y477559D02*
Y582283D01*
Y444882D02*
Y477559D01*
X454331Y436221D02*
X462992Y444882D01*
X852382Y858661D02*
X852382Y651594D01*
X851968Y651181D02*
X852382Y651594D01*
X847638Y646850D02*
X851968Y651181D01*
X846457Y645669D02*
X847638Y646850D01*
X812205Y645669D02*
X846457D01*
X811417D02*
X812205D01*
X810630Y646457D02*
X811417Y645669D01*
X807480Y649606D02*
X810630Y646457D01*
X807087Y649606D02*
X807480D01*
X769685D02*
X807087D01*
X766929Y652362D02*
X769685Y649606D01*
X725197Y652362D02*
X766929D01*
X725197Y652362D02*
X725197Y652362D01*
X724409Y653150D02*
X725197Y652362D01*
X690551Y653150D02*
X724409D01*
X686614Y649213D02*
X690551Y653150D01*
X668898Y649213D02*
X686614D01*
X652593D02*
X668898D01*
X652362Y648982D02*
X652593Y649213D01*
X602756Y635433D02*
X609842Y642520D01*
X601968Y635433D02*
X602756D01*
X575591D02*
X601968D01*
X566929Y626772D02*
X575591Y635433D01*
X549213Y626772D02*
X549606D01*
X540158Y617717D02*
X549213Y626772D01*
X525034Y617717D02*
X540158D01*
X524803Y617486D02*
X525034Y617717D01*
X524803Y616535D02*
Y617486D01*
X515354Y607087D02*
X524803Y616535D01*
X497638Y607087D02*
X515354D01*
X496063D02*
X497638D01*
X485039Y596063D02*
X496063Y607087D01*
X475591Y596063D02*
X485039D01*
X474409Y594882D02*
X475591Y596063D01*
X460630Y581102D02*
X474409Y594882D01*
X460630Y474409D02*
Y581102D01*
Y474016D02*
Y474409D01*
X458268Y471654D02*
X460630Y474016D01*
X454331Y471654D02*
X458268D01*
X473459Y596850D02*
X484252D01*
X473228Y596620D02*
X473459Y596850D01*
X473228Y595276D02*
Y596620D01*
X459055Y581102D02*
X473228Y595276D01*
X459055Y511811D02*
Y581102D01*
X454331Y507087D02*
X459055Y511811D01*
X845669Y646850D02*
X850413Y651594D01*
X835433Y646850D02*
X845669D01*
X811811D02*
X835433D01*
X807874Y650787D02*
X811811Y646850D01*
X769685Y650787D02*
X807874D01*
X767323Y653150D02*
X769685Y650787D01*
X725984Y653150D02*
X767323D01*
X725197Y653937D02*
X725984Y653150D01*
X690158Y653937D02*
X725197D01*
X686221Y650000D02*
X690158Y653937D01*
X678740Y650000D02*
X686221D01*
X651575D02*
X678740D01*
X651181Y649606D02*
X651575Y650000D01*
X644882Y643307D02*
X651181Y649606D01*
X637795Y643307D02*
X644882D01*
X609055D02*
X637795D01*
X608661Y642913D02*
X609055Y643307D01*
X601968Y636221D02*
X608661Y642913D01*
X589764Y636221D02*
X601968D01*
X574803D02*
X589764D01*
X573228Y634646D02*
X574803Y636221D01*
X566142Y627559D02*
X573228Y634646D01*
X564173Y627559D02*
X566142D01*
X539764Y619291D02*
X548032Y627559D01*
X524803Y619291D02*
X539764D01*
X513386Y607874D02*
X524803Y619291D01*
X511417Y607874D02*
X513386D01*
X495276D02*
X511417D01*
X488583Y601181D02*
X495276Y607874D01*
X484252Y596850D02*
X488583Y601181D01*
M02*
