G04*
G04 #@! TF.GenerationSoftware,Altium Limited,Altium Designer,20.0.2 (26)*
G04*
G04 Layer_Color=16711935*
%FSLAX25Y25*%
%MOIN*%
G70*
G01*
G75*
%ADD12C,0.00050*%
D12*
X1318449Y558971D02*
G03*
X1317552Y560970I-113149J-49580D01*
G01*
D02*
G03*
X1316537Y563125I-111077J-51039D01*
G01*
D02*
G03*
X1315393Y565428I-108934J-52649D01*
G01*
D02*
G03*
X1314017Y568046I-106711J-54401D01*
G01*
Y568046D02*
G03*
X1312189Y571301I-104276J-56445D01*
G01*
Y571301D02*
G03*
X1308998Y576465I-101376J-59073D01*
G01*
D02*
G03*
X1299963Y588502I-97764J-63972D01*
G01*
X1299963Y588502D02*
G03*
X1297490Y591300I-90079J-77143D01*
G01*
X1297490D02*
G03*
X1295332Y593602I-88532J-80784D01*
G01*
D02*
G03*
X1293529Y595437I-87292J-83968D01*
G01*
D02*
G03*
X1291825Y597103I-86385J-86703D01*
G01*
D02*
G03*
X1290229Y598605I-85588J-89314D01*
G01*
X1293639Y414027D02*
G03*
X1294867Y415128I-61998J70392D01*
G01*
Y415128D02*
G03*
X1296546Y416698I-62527J68527D01*
G01*
X1296546Y416698D02*
G03*
X1299092Y419238I-63537J66261D01*
G01*
D02*
G03*
X1306269Y427646I-65710J63354D01*
G01*
X1306269D02*
G03*
X1307809Y429748I-74128J55900D01*
G01*
D02*
G03*
X1308928Y431357I-76523J54406D01*
G01*
X334381Y463325D02*
G03*
X334481Y461423I90535J3798D01*
G01*
X334674Y458919D02*
G03*
X334864Y457065I87056J7961D01*
G01*
Y457065D02*
G03*
X335091Y455231I85738J9687D01*
G01*
X335091D02*
G03*
X335355Y453418I84518J11388D01*
G01*
X335355Y453418D02*
G03*
X335765Y451030I83266J13046D01*
G01*
Y451030D02*
G03*
X336366Y448096I81845J15244D01*
G01*
D02*
G03*
X337531Y443512I80282J17962D01*
G01*
X337531D02*
G03*
X340794Y434221I78841J22474D01*
G01*
Y434221D02*
G03*
X341948Y431602I76756J32249D01*
G01*
X341948Y431602D02*
G03*
X342932Y429542I76491J35278D01*
G01*
X342932D02*
G03*
X343705Y428018I76344J37750D01*
G01*
X343705D02*
G03*
X344780Y426014I76415J39713D01*
G01*
X344780D02*
G03*
X345620Y424531I76198J42192D01*
G01*
X345620D02*
G03*
X346488Y423066I76183J44153D01*
G01*
Y423066D02*
G03*
X347385Y421618I76221J46167D01*
G01*
D02*
G03*
X348308Y420187I76307J48236D01*
G01*
Y420187D02*
G03*
X349259Y418773I76441J50364D01*
G01*
X839521Y651096D02*
G03*
X817494Y653743I-106053J-789840D01*
G01*
D02*
G03*
X781203Y656757I-84227J-794029D01*
G01*
Y656757D02*
G03*
X765330Y657551I-47289J-786836D01*
G01*
X346582Y494505D02*
G03*
X345344Y492130I133187J-70924D01*
G01*
X342048Y485232D02*
G03*
X340963Y482735I130423J-58158D01*
G01*
D02*
G03*
X339751Y479779I130014J-55029D01*
G01*
X339751D02*
G03*
X338124Y475472I129784J-51502D01*
G01*
D02*
G03*
X334381Y463325I130341J-46811D01*
G01*
X1060505Y645711D02*
G03*
X1068572Y637839I7874J0D01*
G01*
X971682Y637936D02*
G03*
X979796Y645806I241J7870D01*
G01*
X915372Y647995D02*
G03*
X922792Y640134I7874J0D01*
G01*
X839521Y651096D02*
G03*
X848443Y658900I1048J7804D01*
G01*
X1330459Y497038D02*
X1330464Y495603D01*
X1330448Y498228D02*
X1330459Y497038D01*
X1330430Y499414D02*
X1330448Y498228D01*
X1330405Y500594D02*
X1330430Y499414D01*
X1330373Y501770D02*
X1330405Y500594D01*
X1330335Y502942D02*
X1330373Y501770D01*
X1330291Y504108D02*
X1330335Y502942D01*
X1330239Y505270D02*
X1330291Y504108D01*
X1330181Y506427D02*
X1330239Y505270D01*
X1330117Y507580D02*
X1330181Y506427D01*
X1330045Y508727D02*
X1330117Y507580D01*
X1329967Y509870D02*
X1330045Y508727D01*
X1329882Y511008D02*
X1329967Y509870D01*
X1329791Y512142D02*
X1329882Y511008D01*
X1329693Y513271D02*
X1329791Y512142D01*
X1329588Y514394D02*
X1329693Y513271D01*
X1329476Y515514D02*
X1329588Y514394D01*
X1329358Y516628D02*
X1329476Y515514D01*
X1329233Y517738D02*
X1329358Y516628D01*
X1329102Y518843D02*
X1329233Y517738D01*
X1328964Y519943D02*
X1329102Y518843D01*
X1328819Y521038D02*
X1328964Y519943D01*
X1328667Y522129D02*
X1328819Y521038D01*
X1328509Y523215D02*
X1328667Y522129D01*
X1328344Y524296D02*
X1328509Y523215D01*
X1328173Y525373D02*
X1328344Y524296D01*
X1327958Y526659D02*
X1328173Y525373D01*
X1327734Y527937D02*
X1327958Y526659D01*
X1327500Y529209D02*
X1327734Y527937D01*
X1327257Y530474D02*
X1327500Y529209D01*
X1327003Y531733D02*
X1327257Y530474D01*
X1326741Y532984D02*
X1327003Y531733D01*
X1326468Y534229D02*
X1326741Y532984D01*
X1326186Y535466D02*
X1326468Y534229D01*
X1325895Y536697D02*
X1326186Y535466D01*
X1325594Y537921D02*
X1325895Y536697D01*
X1325283Y539139D02*
X1325594Y537921D01*
X1324908Y540550D02*
X1325283Y539139D01*
X1324520Y541953D02*
X1324908Y540550D01*
X1324120Y543345D02*
X1324520Y541953D01*
X1323706Y544729D02*
X1324120Y543345D01*
X1323279Y546104D02*
X1323706Y544729D01*
X1322838Y547469D02*
X1323279Y546104D01*
X1322319Y549017D02*
X1322838Y547469D01*
X1321783Y550554D02*
X1322319Y549017D01*
X1321230Y552078D02*
X1321783Y550554D01*
X1320587Y553779D02*
X1321230Y552078D01*
X1319923Y555464D02*
X1320587Y553779D01*
X1319237Y557134D02*
X1319923Y555464D01*
X1318449Y558971D02*
X1319237Y557134D01*
X1288750Y599951D02*
X1290229Y598605D01*
X1287244Y601279D02*
X1288750Y599951D01*
X1285866Y602457D02*
X1287244Y601279D01*
X1284466Y603620D02*
X1285866Y602457D01*
X1283204Y604641D02*
X1284466Y603620D01*
X1281924Y605649D02*
X1283204Y604641D01*
X1280628Y606646D02*
X1281924Y605649D01*
X1279479Y607508D02*
X1280628Y606646D01*
X1278318Y608361D02*
X1279479Y607508D01*
X1277143Y609204D02*
X1278318Y608361D01*
X1275956Y610038D02*
X1277143Y609204D01*
X1274755Y610863D02*
X1275956Y610038D01*
X1273541Y611678D02*
X1274755Y610863D01*
X1272490Y612370D02*
X1273541Y611678D01*
X1271430Y613055D02*
X1272490Y612370D01*
X1270360Y613733D02*
X1271430Y613055D01*
X1269280Y614404D02*
X1270360Y613733D01*
X1268191Y615068D02*
X1269280Y614404D01*
X1267092Y615726D02*
X1268191Y615068D01*
X1265983Y616377D02*
X1267092Y615726D01*
X1264865Y617020D02*
X1265983Y616377D01*
X1263737Y617657D02*
X1264865Y617020D01*
X1262600Y618288D02*
X1263737Y617657D01*
X1261453Y618911D02*
X1262600Y618288D01*
X1260296Y619528D02*
X1261453Y618911D01*
X1259325Y620036D02*
X1260296Y619528D01*
X1258347Y620540D02*
X1259325Y620036D01*
X1257363Y621039D02*
X1258347Y620540D01*
X1256372Y621533D02*
X1257363Y621039D01*
X1255374Y622023D02*
X1256372Y621533D01*
X1254369Y622508D02*
X1255374Y622023D01*
X1253358Y622988D02*
X1254369Y622508D01*
X1252340Y623463D02*
X1253358Y622988D01*
X1251316Y623934D02*
X1252340Y623463D01*
X1250284Y624400D02*
X1251316Y623934D01*
X1249246Y624861D02*
X1250284Y624400D01*
X1248202Y625318D02*
X1249246Y624861D01*
X1247151Y625769D02*
X1248202Y625318D01*
X1246093Y626216D02*
X1247151Y625769D01*
X1245028Y626658D02*
X1246093Y626216D01*
X1243957Y627096D02*
X1245028Y626658D01*
X1242879Y627529D02*
X1243957Y627096D01*
X1241794Y627957D02*
X1242879Y627529D01*
X1240703Y628380D02*
X1241794Y627957D01*
X1239605Y628798D02*
X1240703Y628380D01*
X1238500Y629212D02*
X1239605Y628798D01*
X1237389Y629621D02*
X1238500Y629212D01*
X1236271Y630025D02*
X1237389Y629621D01*
X1235146Y630425D02*
X1236271Y630025D01*
X1234015Y630820D02*
X1235146Y630425D01*
X1232877Y631210D02*
X1234015Y630820D01*
X1231732Y631595D02*
X1232877Y631210D01*
X1230581Y631976D02*
X1231732Y631595D01*
X1229423Y632352D02*
X1230581Y631976D01*
X1228258Y632723D02*
X1229423Y632352D01*
X1227086Y633089D02*
X1228258Y632723D01*
X1225908Y633451D02*
X1227086Y633089D01*
X1224724Y633807D02*
X1225908Y633451D01*
X1223532Y634160D02*
X1224724Y633807D01*
X1222334Y634507D02*
X1223532Y634160D01*
X1221129Y634850D02*
X1222334Y634507D01*
X1219918Y635188D02*
X1221129Y634850D01*
X1218700Y635521D02*
X1219918Y635188D01*
X1217475Y635849D02*
X1218700Y635521D01*
X1216244Y636173D02*
X1217475Y635849D01*
X1215005Y636492D02*
X1216244Y636173D01*
X1213761Y636806D02*
X1215005Y636492D01*
X1212509Y637115D02*
X1213761Y636806D01*
X1211251Y637420D02*
X1212509Y637115D01*
X1209986Y637720D02*
X1211251Y637420D01*
X1208714Y638015D02*
X1209986Y637720D01*
X1207436Y638306D02*
X1208714Y638015D01*
X1206151Y638592D02*
X1207436Y638306D01*
X1204860Y638873D02*
X1206151Y638592D01*
X1203562Y639149D02*
X1204860Y638873D01*
X1202257Y639420D02*
X1203562Y639149D01*
X1200945Y639687D02*
X1202257Y639420D01*
X1199627Y639949D02*
X1200945Y639687D01*
X1198302Y640207D02*
X1199627Y639949D01*
X1196970Y640459D02*
X1198302Y640207D01*
X884962Y377835D02*
X886981Y377850D01*
X888329Y377859D01*
X889680Y377867D01*
X891032Y377873D01*
X892386Y377879D01*
X893742Y377883D01*
X895100Y377886D01*
X896460Y377888D01*
X897822Y377888D01*
X899185Y377888D01*
X900550Y377887D01*
X901917Y377884D01*
X903286Y377881D01*
X904655Y377876D01*
X906027Y377871D01*
X907400Y377864D01*
X908775Y377857D01*
X910150Y377848D01*
X910839Y377844D01*
X911528Y377839D01*
X912217Y377834D01*
X912907Y377829D01*
X913596Y377823D01*
X914287Y377817D01*
X914977Y377811D01*
X915668Y377805D01*
X916359Y377799D01*
X917051Y377792D01*
X917742Y377786D01*
X918434Y377778D01*
X919127Y377771D01*
X919819Y377764D01*
X920512Y377756D01*
X921205Y377748D01*
X921899Y377740D01*
X922593Y377732D01*
X923287Y377723D01*
X923981Y377715D01*
X924676Y377706D01*
X925370Y377697D01*
X926065Y377688D01*
X926761Y377678D01*
X927456Y377669D01*
X928152Y377659D01*
X928848Y377649D01*
X929544Y377639D01*
X930241Y377628D01*
X930937Y377618D01*
X931634Y377607D01*
X932331Y377596D01*
X933028Y377585D01*
X933726Y377574D01*
X934424Y377562D01*
X935121Y377551D01*
X935819Y377539D01*
X936518Y377527D01*
X937216Y377515D01*
X937915Y377503D01*
X938613Y377491D01*
X939312Y377478D01*
X940011Y377465D01*
X940711Y377453D01*
X941410Y377440D01*
X942110Y377427D01*
X942809Y377413D01*
X943509Y377400D01*
X944209Y377386D01*
X944909Y377373D01*
X945610Y377359D01*
X946310Y377345D01*
X947010Y377331D01*
X947711Y377316D01*
X948412Y377302D01*
X949112Y377288D01*
X949813Y377273D01*
X950514Y377258D01*
X951216Y377243D01*
X951917Y377228D01*
X952618Y377213D01*
X953319Y377198D01*
X954021Y377183D01*
X954722Y377167D01*
X955424Y377152D01*
X956126Y377136D01*
X956828Y377120D01*
X957529Y377105D01*
X958231Y377089D01*
X958933Y377072D01*
X959635Y377056D01*
X960337Y377040D01*
X961039Y377024D01*
X961741Y377007D01*
X962443Y376991D01*
X963145Y376974D01*
X963847Y376957D01*
X964550Y376940D01*
X965252Y376924D01*
X965954Y376907D01*
X966656Y376889D01*
X967358Y376872D01*
X968060Y376855D01*
X968763Y376838D01*
X969465Y376820D01*
X970167Y376803D01*
X970869Y376785D01*
X971571Y376768D01*
X972273Y376750D01*
X972975Y376732D01*
X973677Y376715D01*
X974379Y376697D01*
X975081Y376679D01*
X975783Y376661D01*
X976485Y376643D01*
X977186Y376625D01*
X977888Y376607D01*
X978590Y376589D01*
X979291Y376570D01*
X979993Y376552D01*
X980694Y376534D01*
X981395Y376516D01*
X982097Y376497D01*
X982798Y376479D01*
X983499Y376460D01*
X984200Y376442D01*
X984901Y376423D01*
X985602Y376405D01*
X986302Y376386D01*
X987003Y376368D01*
X987703Y376349D01*
X988404Y376330D01*
X989104Y376312D01*
X989804Y376293D01*
X990504Y376274D01*
X991204Y376255D01*
X991904Y376237D01*
X992603Y376218D01*
X993303Y376199D01*
X994002Y376180D01*
X994701Y376162D01*
X995400Y376143D01*
X996099Y376124D01*
X996798Y376105D01*
X997496Y376086D01*
X998195Y376067D01*
X998893Y376049D01*
X999591Y376030D01*
X1000289Y376011D01*
X1000986Y375992D01*
X1001684Y375973D01*
X1002381Y375955D01*
X1003078Y375936D01*
X1003775Y375917D01*
X1004472Y375898D01*
X1005168Y375880D01*
X1005865Y375861D01*
X1006561Y375842D01*
X1007257Y375824D01*
X1007952Y375805D01*
X1008648Y375786D01*
X1009343Y375768D01*
X1010038Y375749D01*
X1010733Y375731D01*
X1011427Y375712D01*
X1012122Y375694D01*
X1012816Y375676D01*
X1013509Y375657D01*
X1014203Y375639D01*
X1014896Y375621D01*
X1015589Y375602D01*
X1016282Y375584D01*
X1016974Y375566D01*
X1017667Y375548D01*
X1018359Y375530D01*
X1019050Y375512D01*
X1019742Y375494D01*
X1020433Y375476D01*
X1021124Y375458D01*
X1021814Y375441D01*
X1022505Y375423D01*
X1023195Y375405D01*
X1023884Y375388D01*
X1024574Y375370D01*
X1025263Y375353D01*
X1025951Y375336D01*
X1026640Y375318D01*
X1027328Y375301D01*
X1028016Y375284D01*
X1028703Y375267D01*
X1029391Y375250D01*
X1030077Y375233D01*
X1030764Y375216D01*
X1031450Y375200D01*
X1032136Y375183D01*
X1032822Y375166D01*
X1033507Y375150D01*
X1034192Y375133D01*
X1034876Y375117D01*
X1035560Y375101D01*
X1036244Y375085D01*
X1036928Y375069D01*
X1037611Y375053D01*
X1038293Y375037D01*
X1038976Y375022D01*
X1039658Y375006D01*
X1040339Y374990D01*
X1041021Y374975D01*
X1041701Y374960D01*
X1042382Y374945D01*
X1043062Y374930D01*
X1043742Y374915D01*
X1044421Y374900D01*
X1045100Y374885D01*
X1045778Y374870D01*
X1046457Y374856D01*
X1047134Y374842D01*
X1047812Y374827D01*
X1048488Y374813D01*
X1049165Y374799D01*
X1049841Y374785D01*
X1050517Y374772D01*
X1051192Y374758D01*
X1051867Y374745D01*
X1052541Y374731D01*
X1053215Y374718D01*
X1053888Y374705D01*
X1054561Y374692D01*
X1055234Y374680D01*
X1055906Y374667D01*
X1056578Y374654D01*
X1057249Y374642D01*
X1057920Y374630D01*
X1058590Y374618D01*
X1059260Y374606D01*
X1059930Y374594D01*
X1060598Y374583D01*
X1061267Y374571D01*
X1061935Y374560D01*
X1062602Y374549D01*
X1063269Y374538D01*
X1063936Y374527D01*
X1064602Y374517D01*
X1065268Y374506D01*
X1065933Y374496D01*
X1066597Y374486D01*
X1067262Y374476D01*
X1067925Y374466D01*
X1068588Y374457D01*
X1069251Y374447D01*
X1069913Y374438D01*
X1070575Y374429D01*
X1071236Y374420D01*
X1071896Y374411D01*
X1072557Y374403D01*
X1073216Y374394D01*
X1073875Y374386D01*
X1074534Y374378D01*
X1075192Y374371D01*
X1075849Y374363D01*
X1076506Y374356D01*
X1077162Y374348D01*
X1077818Y374341D01*
X1078474Y374335D01*
X1079128Y374328D01*
X1079783Y374322D01*
X1080436Y374315D01*
X1081089Y374309D01*
X1081742Y374304D01*
X1082394Y374298D01*
X1083045Y374293D01*
X1083696Y374287D01*
X1084347Y374282D01*
X1084996Y374278D01*
X1086294Y374269D01*
X1087590Y374261D01*
X1088883Y374254D01*
X1090174Y374247D01*
X1091462Y374242D01*
X1092749Y374238D01*
X1094032Y374234D01*
X1095314Y374232D01*
X1096592Y374230D01*
X1097869Y374229D01*
X1099143Y374230D01*
X1100414Y374231D01*
X1101683Y374234D01*
X1102949Y374237D01*
X1104213Y374241D01*
X1105474Y374247D01*
X1106732Y374253D01*
X1107988Y374261D01*
X1109242Y374269D01*
X1110492Y374279D01*
X1111740Y374290D01*
X1112986Y374302D01*
X1114228Y374314D01*
X1115468Y374329D01*
X1116705Y374344D01*
X1117939Y374360D01*
X1119171Y374378D01*
X1120400Y374397D01*
X1121626Y374416D01*
X1122849Y374438D01*
X1124069Y374460D01*
X1125286Y374483D01*
X1126501Y374508D01*
X1127713Y374534D01*
X1128921Y374561D01*
X1130127Y374590D01*
X1131330Y374620D01*
X1132530Y374651D01*
X1133727Y374683D01*
X1134921Y374717D01*
X1136111Y374752D01*
X1137299Y374788D01*
X1138484Y374826D01*
X1139666Y374865D01*
X1140844Y374905D01*
X1142020Y374947D01*
X1143192Y374990D01*
X1144361Y375035D01*
X1145528Y375081D01*
X1146690Y375128D01*
X1147850Y375177D01*
X1149007Y375227D01*
X1150160Y375279D01*
X1151311Y375332D01*
X1152458Y375387D01*
X1153601Y375443D01*
X1154742Y375501D01*
X1155879Y375560D01*
X1157013Y375620D01*
X1158144Y375682D01*
X1159271Y375746D01*
X1160395Y375811D01*
X1161516Y375878D01*
X1162633Y375946D01*
X1163747Y376016D01*
X1164858Y376088D01*
X1165965Y376161D01*
X1167069Y376236D01*
X1168170Y376312D01*
X1169267Y376390D01*
X1170360Y376470D01*
X1171451Y376551D01*
X1172537Y376634D01*
X1173621Y376718D01*
X1174700Y376804D01*
X1175777Y376892D01*
X1176849Y376982D01*
X1177919Y377073D01*
X1178984Y377166D01*
X1180046Y377261D01*
X1181105Y377358D01*
X1182160Y377456D01*
X1183211Y377556D01*
X1184259Y377658D01*
X1185304Y377761D01*
X1186344Y377867D01*
X1187382Y377974D01*
X1188415Y378083D01*
X1189445Y378193D01*
X1190471Y378306D01*
X1191494Y378420D01*
X1192513Y378537D01*
X1193528Y378655D01*
X1194540Y378775D01*
X1195548Y378896D01*
X1196552Y379020D01*
X1197552Y379146D01*
X1198549Y379273D01*
X1199542Y379403D01*
X1200532Y379534D01*
X1201517Y379667D01*
X1202499Y379802D01*
X1203477Y379939D01*
X1204452Y380078D01*
X1205422Y380220D01*
X1206389Y380363D01*
X1207352Y380508D01*
X1208311Y380655D01*
X1209267Y380804D01*
X1210218Y380955D01*
X1211166Y381108D01*
X1212110Y381263D01*
X1213050Y381420D01*
X1213986Y381579D01*
X1214919Y381740D01*
X1215848Y381903D01*
X1216772Y382069D01*
X1217693Y382236D01*
X1218610Y382405D01*
X1219524Y382577D01*
X1220433Y382751D01*
X1221338Y382926D01*
X1222240Y383104D01*
X1223138Y383284D01*
X1224031Y383466D01*
X1224921Y383651D01*
X1225807Y383837D01*
X1226689Y384026D01*
X1227568Y384217D01*
X1228442Y384410D01*
X1229312Y384605D01*
X1230178Y384802D01*
X1231041Y385002D01*
X1231899Y385204D01*
X1232754Y385408D01*
X1233605Y385614D01*
X1234451Y385822D01*
X1235294Y386033D01*
X1236133Y386246D01*
X1236967Y386461D01*
X1237798Y386679D01*
X1238625Y386899D01*
X1239448Y387121D01*
X1240267Y387345D01*
X1241082Y387572D01*
X1241892Y387801D01*
X1242699Y388032D01*
X1243502Y388266D01*
X1244301Y388502D01*
X1245096Y388740D01*
X1245887Y388981D01*
X1246674Y389224D01*
X1247457Y389469D01*
X1248236Y389717D01*
X1249012Y389967D01*
X1249783Y390219D01*
X1250550Y390474D01*
X1251313Y390732D01*
X1252072Y390991D01*
X1252827Y391253D01*
X1253578Y391518D01*
X1254325Y391785D01*
X1255068Y392054D01*
X1255807Y392326D01*
X1256542Y392601D01*
X1257273Y392877D01*
X1258000Y393157D01*
X1258724Y393438D01*
X1259443Y393723D01*
X1260158Y394009D01*
X1260869Y394299D01*
X1261576Y394590D01*
X1262279Y394885D01*
X1262978Y395181D01*
X1263673Y395481D01*
X1264364Y395782D01*
X1265051Y396087D01*
X1265734Y396394D01*
X1266413Y396703D01*
X1267088Y397015D01*
X1267759Y397330D01*
X1268426Y397647D01*
X1269089Y397967D01*
X1269748Y398289D01*
X1270403Y398614D01*
X1271055Y398941D01*
X1271702Y399271D01*
X1272345Y399604D01*
X1272984Y399939D01*
X1273620Y400277D01*
X1274251Y400618D01*
X1274879Y400961D01*
X1275502Y401307D01*
X1276122Y401656D01*
X1276737Y402007D01*
X1277653Y402539D01*
X1278560Y403076D01*
X1279458Y403620D01*
X1280348Y404170D01*
X1281228Y404726D01*
X1282100Y405288D01*
X1282963Y405856D01*
X1283817Y406431D01*
X1284662Y407011D01*
X1285499Y407598D01*
X1286327Y408191D01*
X1287147Y408790D01*
X1288225Y409599D01*
X1289289Y410418D01*
X1290337Y411249D01*
X1291370Y412091D01*
X1292388Y412945D01*
X1293639Y414027D01*
X1308928Y431357D02*
X1309836Y432719D01*
X1310548Y433821D01*
X1311246Y434936D01*
X1311931Y436063D01*
X1312603Y437202D01*
X1313098Y438065D01*
X1313586Y438934D01*
X1314067Y439811D01*
X1314540Y440694D01*
X1315006Y441584D01*
X1315465Y442481D01*
X1315917Y443385D01*
X1316362Y444296D01*
X1316800Y445214D01*
X1317231Y446139D01*
X1317656Y447071D01*
X1318073Y448010D01*
X1318347Y448640D01*
X1318619Y449273D01*
X1318887Y449910D01*
X1319153Y450549D01*
X1319415Y451191D01*
X1319675Y451837D01*
X1319932Y452486D01*
X1320185Y453138D01*
X1320436Y453793D01*
X1320684Y454451D01*
X1320929Y455113D01*
X1321172Y455777D01*
X1321411Y456445D01*
X1321648Y457116D01*
X1321882Y457790D01*
X1322113Y458468D01*
X1322342Y459148D01*
X1322567Y459832D01*
X1322790Y460519D01*
X1323011Y461209D01*
X1323228Y461902D01*
X1323443Y462598D01*
X1323656Y463298D01*
X1323866Y464001D01*
X1324073Y464707D01*
X1324277Y465416D01*
X1324480Y466128D01*
X1324679Y466844D01*
X1324876Y467563D01*
X1325071Y468285D01*
X1325263Y469010D01*
X1325452Y469739D01*
X1325639Y470471D01*
X1325824Y471206D01*
X1326006Y471944D01*
X1326186Y472685D01*
X1326364Y473430D01*
X1326539Y474178D01*
X1326712Y474929D01*
X1326882Y475683D01*
X1327051Y476441D01*
X1327217Y477202D01*
X1327380Y477966D01*
X1327542Y478734D01*
X1327701Y479504D01*
X1327859Y480278D01*
X1328014Y481055D01*
X1328167Y481836D01*
X1328318Y482619D01*
X1328466Y483406D01*
X1328613Y484196D01*
X1328758Y484990D01*
X1328900Y485787D01*
X1329041Y486587D01*
X1329180Y487390D01*
X1329317Y488196D01*
X1329451Y489006D01*
X1329584Y489819D01*
X1329716Y490636D01*
X1329845Y491455D01*
X1329972Y492278D01*
X1330035Y492691D01*
X1330098Y493105D01*
X1330160Y493519D01*
X1330221Y493934D01*
X1330283Y494350D01*
X1330343Y494767D01*
X1330404Y495185D01*
X1330464Y495603D01*
X334481Y461423D02*
X334569Y460167D01*
X334674Y458919D01*
X349259Y418773D02*
X349907Y417840D01*
X350568Y416914D01*
X351239Y415996D01*
X351923Y415085D01*
X352617Y414181D01*
X353323Y413285D01*
X354040Y412396D01*
X354768Y411514D01*
X355507Y410639D01*
X356257Y409772D01*
X357017Y408912D01*
X357788Y408058D01*
X358569Y407212D01*
X359360Y406373D01*
X360162Y405541D01*
X360973Y404716D01*
X361795Y403897D01*
X362626Y403086D01*
X363467Y402281D01*
X364318Y401483D01*
X365178Y400692D01*
X366047Y399908D01*
X366925Y399130D01*
X367813Y398359D01*
X368710Y397594D01*
X369615Y396836D01*
X370529Y396085D01*
X371453Y395340D01*
X372384Y394601D01*
X373324Y393869D01*
X374273Y393144D01*
X375230Y392425D01*
X376195Y391712D01*
X377168Y391005D01*
X378150Y390305D01*
X379139Y389610D01*
X380136Y388923D01*
X381141Y388241D01*
X382153Y387565D01*
X383173Y386896D01*
X384201Y386232D01*
X385236Y385575D01*
X386278Y384924D01*
X387327Y384278D01*
X388383Y383639D01*
X389447Y383005D01*
X390517Y382378D01*
X391594Y381756D01*
X392677Y381140D01*
X393767Y380529D01*
X394864Y379925D01*
X395967Y379326D01*
X397076Y378733D01*
X398192Y378146D01*
X399313Y377564D01*
X400441Y376987D01*
X401574Y376417D01*
X402714Y375852D01*
X403859Y375292D01*
X405010Y374738D01*
X406167Y374189D01*
X407329Y373646D01*
X408496Y373108D01*
X409669Y372575D01*
X410848Y372048D01*
X412032Y371526D01*
X413220Y371009D01*
X414414Y370498D01*
X415613Y369992D01*
X416817Y369491D01*
X418026Y368995D01*
X419239Y368504D01*
X420458Y368018D01*
X421681Y367538D01*
X422908Y367062D01*
X424140Y366592D01*
X425376Y366126D01*
X426617Y365666D01*
X427862Y365210D01*
X429111Y364760D01*
X430364Y364314D01*
X431621Y363873D01*
X432883Y363437D01*
X434148Y363005D01*
X435416Y362579D01*
X436689Y362157D01*
X437965Y361740D01*
X439245Y361327D01*
X440528Y360920D01*
X441815Y360516D01*
X443105Y360118D01*
X444399Y359724D01*
X445696Y359335D01*
X446996Y358950D01*
X448299Y358569D01*
X449606Y358194D01*
X450915Y357822D01*
X452228Y357455D01*
X453543Y357093D01*
X454861Y356735D01*
X456182Y356381D01*
X457506Y356032D01*
X458833Y355687D01*
X460162Y355346D01*
X461494Y355010D01*
X462828Y354677D01*
X464165Y354349D01*
X465505Y354026D01*
X466846Y353706D01*
X468190Y353391D01*
X469536Y353079D01*
X470884Y352772D01*
X472235Y352469D01*
X473587Y352170D01*
X474941Y351875D01*
X476976Y351440D01*
X479016Y351014D01*
X481059Y350596D01*
X483106Y350188D01*
X485157Y349788D01*
X487212Y349397D01*
X489269Y349015D01*
X491331Y348641D01*
X493395Y348275D01*
X495462Y347918D01*
X497532Y347569D01*
X499604Y347228D01*
X501680Y346896D01*
X503757Y346572D01*
X505837Y346255D01*
X507918Y345947D01*
X510002Y345646D01*
X512087Y345354D01*
X514174Y345069D01*
X516263Y344792D01*
X518352Y344522D01*
X520443Y344260D01*
X523232Y343922D01*
X526023Y343597D01*
X528815Y343285D01*
X531608Y342986D01*
X534402Y342700D01*
X537197Y342426D01*
X539992Y342165D01*
X542786Y341916D01*
X545581Y341679D01*
X548375Y341454D01*
X551168Y341241D01*
X553961Y341040D01*
X556752Y340850D01*
X559541Y340672D01*
X562329Y340504D01*
X565810Y340311D01*
X569289Y340135D01*
X572763Y339976D01*
X576233Y339833D01*
X579699Y339707D01*
X583159Y339597D01*
X586615Y339503D01*
X590065Y339424D01*
X593509Y339361D01*
X596946Y339313D01*
X600377Y339280D01*
X603801Y339262D01*
X607901Y339259D01*
X611989Y339277D01*
X616744Y339323D01*
X621483Y339395D01*
X626206Y339494D01*
X630911Y339618D01*
X635599Y339767D01*
X640268Y339941D01*
X644918Y340138D01*
X649548Y340359D01*
X654815Y340638D01*
X660055Y340947D01*
X665268Y341283D01*
X670452Y341647D01*
X675608Y342037D01*
X680735Y342452D01*
X685833Y342892D01*
X690900Y343357D01*
X695936Y343844D01*
X700941Y344354D01*
X705915Y344886D01*
X710857Y345438D01*
X715766Y346011D01*
X720036Y346528D01*
X724280Y347060D01*
X728499Y347606D01*
X732693Y348165D01*
X736861Y348737D01*
X740412Y349237D01*
X743945Y349746D01*
X747458Y350264D01*
X750951Y350789D01*
X754425Y351323D01*
X757878Y351864D01*
X761312Y352413D01*
X764726Y352968D01*
X767555Y353437D01*
X770370Y353909D01*
X773171Y354386D01*
X775958Y354867D01*
X778729Y355351D01*
X781487Y355840D01*
X784229Y356332D01*
X786957Y356827D01*
X789129Y357226D01*
X791290Y357626D01*
X793442Y358028D01*
X795585Y358433D01*
X797717Y358838D01*
X799840Y359245D01*
X801953Y359654D01*
X804056Y360064D01*
X806148Y360475D01*
X808231Y360888D01*
X810303Y361301D01*
X811850Y361612D01*
X813392Y361923D01*
X814927Y362235D01*
X816457Y362547D01*
X817981Y362859D01*
X819498Y363172D01*
X821010Y363485D01*
X822515Y363798D01*
X824014Y364112D01*
X825507Y364425D01*
X826994Y364739D01*
X828474Y365053D01*
X829949Y365367D01*
X831417Y365680D01*
X832878Y365994D01*
X834333Y366308D01*
X835782Y366621D01*
X836744Y366830D01*
X837703Y367038D01*
X838659Y367247D01*
X839612Y367455D01*
X840562Y367664D01*
X841509Y367872D01*
X842453Y368080D01*
X843395Y368287D01*
X844333Y368495D01*
X845267Y368702D01*
X846199Y368909D01*
X847128Y369116D01*
X848053Y369323D01*
X848976Y369529D01*
X849895Y369735D01*
X850811Y369941D01*
X851724Y370146D01*
X852633Y370351D01*
X853540Y370556D01*
X854443Y370760D01*
X855342Y370964D01*
X856239Y371168D01*
X857132Y371371D01*
X858022Y371573D01*
X858908Y371776D01*
X859791Y371977D01*
X860231Y372078D01*
X860671Y372179D01*
X861109Y372279D01*
X861547Y372380D01*
X861984Y372480D01*
X862420Y372580D01*
X862855Y372680D01*
X863289Y372780D01*
X863722Y372880D01*
X864155Y372979D01*
X864586Y373079D01*
X865017Y373178D01*
X865447Y373277D01*
X865876Y373376D01*
X866304Y373475D01*
X866731Y373574D01*
X867157Y373673D01*
X867582Y373771D01*
X868007Y373869D01*
X868430Y373968D01*
X868853Y374066D01*
X869274Y374163D01*
X869695Y374261D01*
X870115Y374359D01*
X870533Y374456D01*
X870951Y374553D01*
X871368Y374650D01*
X871784Y374747D01*
X872199Y374844D01*
X872614Y374940D01*
X873027Y375037D01*
X873439Y375133D01*
X873850Y375229D01*
X874260Y375325D01*
X874670Y375420D01*
X875078Y375516D01*
X875485Y375611D01*
X875892Y375706D01*
X876297Y375801D01*
X876702Y375895D01*
X877105Y375990D01*
X877508Y376084D01*
X877909Y376178D01*
X878310Y376272D01*
X878709Y376366D01*
X879108Y376459D01*
X879505Y376552D01*
X879902Y376645D01*
X880297Y376738D01*
X880691Y376831D01*
X881085Y376923D01*
X881477Y377015D01*
X881869Y377107D01*
X882259Y377199D01*
X882648Y377291D01*
X883036Y377382D01*
X883424Y377473D01*
X883810Y377564D01*
X884195Y377654D01*
X884579Y377745D01*
X884962Y377835D01*
X754334Y657911D02*
X765330Y657551D01*
X744991Y658096D02*
X754334Y657911D01*
X737268Y658162D02*
X744991Y658096D01*
X729606Y658150D02*
X737268Y658162D01*
X721249Y658048D02*
X729606Y658150D01*
X713719Y657876D02*
X721249Y658048D01*
X706999Y657657D02*
X713719Y657876D01*
X700334Y657379D02*
X706999Y657657D01*
X694457Y657082D02*
X700334Y657379D01*
X688625Y656739D02*
X694457Y657082D01*
X683560Y656402D02*
X688625Y656739D01*
X677101Y655919D02*
X683560Y656402D01*
X671411Y655442D02*
X677101Y655919D01*
X665768Y654922D02*
X671411Y655442D01*
X660173Y654360D02*
X665768Y654922D01*
X654628Y653756D02*
X660173Y654360D01*
X649131Y653110D02*
X654628Y653756D01*
X643684Y652424D02*
X649131Y653110D01*
X638959Y651790D02*
X643684Y652424D01*
X633606Y651029D02*
X638959Y651790D01*
X628304Y650229D02*
X633606Y651029D01*
X623052Y649391D02*
X628304Y650229D01*
X617850Y648516D02*
X623052Y649391D01*
X612699Y647604D02*
X617850Y648516D01*
X607598Y646655D02*
X612699Y647604D01*
X602548Y645672D02*
X607598Y646655D01*
X597548Y644653D02*
X602548Y645672D01*
X591983Y643466D02*
X597548Y644653D01*
X587091Y642375D02*
X591983Y643466D01*
X581646Y641109D02*
X587091Y642375D01*
X576264Y639802D02*
X581646Y641109D01*
X570945Y638455D02*
X576264Y639802D01*
X565688Y637069D02*
X570945Y638455D01*
X559920Y635484D02*
X565688Y637069D01*
X553661Y633688D02*
X559920Y635484D01*
X548609Y632179D02*
X553661Y633688D01*
X543065Y630460D02*
X548609Y632179D01*
X537595Y628698D02*
X543065Y630460D01*
X531661Y626712D02*
X537595Y628698D01*
X525814Y624677D02*
X531661Y626712D01*
X519534Y622403D02*
X525814Y624677D01*
X513864Y620269D02*
X519534Y622403D01*
X509288Y618489D02*
X513864Y620269D01*
X504267Y616477D02*
X509288Y618489D01*
X499314Y614429D02*
X504267Y616477D01*
X493941Y612134D02*
X499314Y614429D01*
X488170Y609583D02*
X493941Y612134D01*
X482960Y607202D02*
X488170Y609583D01*
X479685Y605666D02*
X482960Y607202D01*
X476440Y604114D02*
X479685Y605666D01*
X472769Y602320D02*
X476440Y604114D01*
X469137Y600505D02*
X472769Y602320D01*
X465544Y598669D02*
X469137Y600505D01*
X461548Y596579D02*
X465544Y598669D01*
X457601Y594463D02*
X461548Y596579D01*
X454132Y592561D02*
X457601Y594463D01*
X451983Y591362D02*
X454132Y592561D01*
X449848Y590155D02*
X451983Y591362D01*
X447728Y588940D02*
X449848Y590155D01*
X445623Y587717D02*
X447728Y588940D01*
X443532Y586486D02*
X445623Y587717D01*
X441455Y585248D02*
X443532Y586486D01*
X439393Y584001D02*
X441455Y585248D01*
X437345Y582746D02*
X439393Y584001D01*
X434906Y581229D02*
X437345Y582746D01*
X432488Y579701D02*
X434906Y581229D01*
X430090Y578161D02*
X432488Y579701D01*
X427712Y576609D02*
X430090Y578161D01*
X426139Y575567D02*
X427712Y576609D01*
X424574Y574521D02*
X426139Y575567D01*
X423018Y573469D02*
X424574Y574521D01*
X421472Y572412D02*
X423018Y573469D01*
X419934Y571349D02*
X421472Y572412D01*
X418406Y570281D02*
X419934Y571349D01*
X416887Y569207D02*
X418406Y570281D01*
X415376Y568128D02*
X416887Y569207D01*
X413875Y567043D02*
X415376Y568128D01*
X412384Y565952D02*
X413875Y567043D01*
X410901Y564856D02*
X412384Y565952D01*
X409428Y563753D02*
X410901Y564856D01*
X407964Y562645D02*
X409428Y563753D01*
X406509Y561531D02*
X407964Y562645D01*
X405064Y560411D02*
X406509Y561531D01*
X403627Y559285D02*
X405064Y560411D01*
X402201Y558153D02*
X403627Y559285D01*
X401137Y557299D02*
X402201Y558153D01*
X400078Y556443D02*
X401137Y557299D01*
X399025Y555583D02*
X400078Y556443D01*
X397977Y554719D02*
X399025Y555583D01*
X396934Y553851D02*
X397977Y554719D01*
X395897Y552980D02*
X396934Y553851D01*
X394865Y552106D02*
X395897Y552980D01*
X393839Y551227D02*
X394865Y552106D01*
X392818Y550345D02*
X393839Y551227D01*
X391803Y549459D02*
X392818Y550345D01*
X390794Y548569D02*
X391803Y549459D01*
X389790Y547675D02*
X390794Y548569D01*
X388792Y546777D02*
X389790Y547675D01*
X387799Y545875D02*
X388792Y546777D01*
X386813Y544970D02*
X387799Y545875D01*
X385832Y544060D02*
X386813Y544970D01*
X384856Y543146D02*
X385832Y544060D01*
X383887Y542228D02*
X384856Y543146D01*
X382923Y541305D02*
X383887Y542228D01*
X381966Y540379D02*
X382923Y541305D01*
X381014Y539448D02*
X381966Y540379D01*
X379754Y538200D02*
X381014Y539448D01*
X378817Y537259D02*
X379754Y538200D01*
X377885Y536314D02*
X378817Y537259D01*
X376959Y535364D02*
X377885Y536314D01*
X376040Y534410D02*
X376959Y535364D01*
X375127Y533451D02*
X376040Y534410D01*
X374220Y532487D02*
X375127Y533451D01*
X373320Y531518D02*
X374220Y532487D01*
X372426Y530545D02*
X373320Y531518D01*
X371539Y529567D02*
X372426Y530545D01*
X370658Y528584D02*
X371539Y529567D01*
X369784Y527596D02*
X370658Y528584D01*
X368916Y526603D02*
X369784Y527596D01*
X368055Y525604D02*
X368916Y526603D01*
X367202Y524601D02*
X368055Y525604D01*
X366355Y523592D02*
X367202Y524601D01*
X365515Y522578D02*
X366355Y523592D01*
X364682Y521559D02*
X365515Y522578D01*
X363856Y520534D02*
X364682Y521559D01*
X363037Y519504D02*
X363856Y520534D01*
X361956Y518121D02*
X363037Y519504D01*
X360889Y516729D02*
X361956Y518121D01*
X360097Y515678D02*
X360889Y516729D01*
X359312Y514621D02*
X360097Y515678D01*
X358535Y513558D02*
X359312Y514621D01*
X357766Y512490D02*
X358535Y513558D01*
X357005Y511415D02*
X357766Y512490D01*
X356251Y510334D02*
X357005Y511415D01*
X355505Y509247D02*
X356251Y510334D01*
X354768Y508153D02*
X355505Y509247D01*
X354038Y507053D02*
X354768Y508153D01*
X353317Y505947D02*
X354038Y507053D01*
X352368Y504461D02*
X353317Y505947D01*
X351435Y502964D02*
X352368Y504461D01*
X350517Y501454D02*
X351435Y502964D01*
X349614Y499932D02*
X350517Y501454D01*
X348728Y498398D02*
X349614Y499932D01*
X347642Y496462D02*
X348728Y498398D01*
X346582Y494505D02*
X347642Y496462D01*
X344540Y490530D02*
X345344Y492130D01*
X343753Y488916D02*
X344540Y490530D01*
X342984Y487288D02*
X343753Y488916D01*
X342048Y485232D02*
X342984Y487288D01*
X1196284Y640477D02*
X1196970Y640459D01*
X1195711Y640491D02*
X1196284Y640477D01*
X1195137Y640505D02*
X1195711Y640491D01*
X1194563Y640518D02*
X1195137Y640505D01*
X1193987Y640531D02*
X1194563Y640518D01*
X1193411Y640543D02*
X1193987Y640531D01*
X1192833Y640554D02*
X1193411Y640543D01*
X1192255Y640565D02*
X1192833Y640554D01*
X1191676Y640576D02*
X1192255Y640565D01*
X1191096Y640586D02*
X1191676Y640576D01*
X1190516Y640595D02*
X1191096Y640586D01*
X1189934Y640604D02*
X1190516Y640595D01*
X1189352Y640613D02*
X1189934Y640604D01*
X1188768Y640621D02*
X1189352Y640613D01*
X1188184Y640629D02*
X1188768Y640621D01*
X1187599Y640636D02*
X1188184Y640629D01*
X1187013Y640642D02*
X1187599Y640636D01*
X1186427Y640649D02*
X1187013Y640642D01*
X1185839Y640654D02*
X1186427Y640649D01*
X1185369Y640658D02*
X1185839Y640654D01*
X1184898Y640662D02*
X1185369Y640658D01*
X1184426Y640666D02*
X1184898Y640662D01*
X1183954Y640669D02*
X1184426Y640666D01*
X1183481Y640672D02*
X1183954Y640669D01*
X1183008Y640675D02*
X1183481Y640672D01*
X1182534Y640678D02*
X1183008Y640675D01*
X1182060Y640680D02*
X1182534Y640678D01*
X1181585Y640682D02*
X1182060Y640680D01*
X1181110Y640683D02*
X1181585Y640682D01*
X1180634Y640685D02*
X1181110Y640683D01*
X1180158Y640686D02*
X1180634Y640685D01*
X1179681Y640687D02*
X1180158Y640686D01*
X1179204Y640687D02*
X1179681Y640687D01*
X1178726Y640687D02*
X1179204Y640687D01*
X1178248Y640687D02*
X1178726D01*
X1177769Y640687D02*
X1178248Y640687D01*
X1177289Y640686D02*
X1177769Y640687D01*
X1176810Y640686D02*
X1177289Y640686D01*
X1176329Y640685D02*
X1176810Y640686D01*
X1175848Y640683D02*
X1176329Y640685D01*
X1175367Y640682D02*
X1175848Y640683D01*
X1174885Y640680D02*
X1175367Y640682D01*
X1174403Y640678D02*
X1174885Y640680D01*
X1173920Y640675D02*
X1174403Y640678D01*
X1173436Y640673D02*
X1173920Y640675D01*
X1172952Y640670D02*
X1173436Y640673D01*
X1172468Y640667D02*
X1172952Y640670D01*
X1171983Y640664D02*
X1172468Y640667D01*
X1171498Y640660D02*
X1171983Y640664D01*
X1171012Y640656D02*
X1171498Y640660D01*
X1170526Y640652D02*
X1171012Y640656D01*
X1170039Y640648D02*
X1170526Y640652D01*
X1169551Y640644D02*
X1170039Y640648D01*
X1169064Y640639D02*
X1169551Y640644D01*
X1168575Y640634D02*
X1169064Y640639D01*
X1168087Y640629D02*
X1168575Y640634D01*
X1167597Y640623D02*
X1168087Y640629D01*
X1167108Y640618D02*
X1167597Y640623D01*
X1166617Y640612D02*
X1167108Y640618D01*
X1166127Y640606D02*
X1166617Y640612D01*
X1165635Y640600D02*
X1166127Y640606D01*
X1165144Y640593D02*
X1165635Y640600D01*
X1164652Y640586D02*
X1165144Y640593D01*
X1164159Y640580D02*
X1164652Y640586D01*
X1163666Y640572D02*
X1164159Y640580D01*
X1163172Y640565D02*
X1163666Y640572D01*
X1162678Y640558D02*
X1163172Y640565D01*
X1162184Y640550D02*
X1162678Y640558D01*
X1161689Y640542D02*
X1162184Y640550D01*
X1161318Y640536D02*
X1161689Y640542D01*
X1160946Y640530D02*
X1161318Y640536D01*
X1160574Y640524D02*
X1160946Y640530D01*
X1160202Y640517D02*
X1160574Y640524D01*
X1159829Y640511D02*
X1160202Y640517D01*
X1159456Y640504D02*
X1159829Y640511D01*
X1159083Y640497D02*
X1159456Y640504D01*
X1158710Y640491D02*
X1159083Y640497D01*
X1158336Y640484D02*
X1158710Y640491D01*
X1157962Y640477D02*
X1158336Y640484D01*
X1157588Y640469D02*
X1157962Y640477D01*
X1157214Y640462D02*
X1157588Y640469D01*
X1156839Y640455D02*
X1157214Y640462D01*
X1156465Y640448D02*
X1156839Y640455D01*
X1156089Y640440D02*
X1156465Y640448D01*
X1155714Y640432D02*
X1156089Y640440D01*
X1155338Y640425D02*
X1155714Y640432D01*
X1154963Y640417D02*
X1155338Y640425D01*
X1154587Y640409D02*
X1154963Y640417D01*
X1154210Y640401D02*
X1154587Y640409D01*
X1153834Y640393D02*
X1154210Y640401D01*
X1153457Y640385D02*
X1153834Y640393D01*
X1153080Y640376D02*
X1153457Y640385D01*
X1152702Y640368D02*
X1153080Y640376D01*
X1152325Y640360D02*
X1152702Y640368D01*
X1151947Y640351D02*
X1152325Y640360D01*
X1151569Y640342D02*
X1151947Y640351D01*
X1151190Y640334D02*
X1151569Y640342D01*
X1150812Y640325D02*
X1151190Y640334D01*
X1150433Y640316D02*
X1150812Y640325D01*
X1150054Y640307D02*
X1150433Y640316D01*
X1149675Y640298D02*
X1150054Y640307D01*
X1149295Y640289D02*
X1149675Y640298D01*
X1148915Y640279D02*
X1149295Y640289D01*
X1148535Y640270D02*
X1148915Y640279D01*
X1148155Y640261D02*
X1148535Y640270D01*
X1147774Y640251D02*
X1148155Y640261D01*
X1147394Y640242D02*
X1147774Y640251D01*
X1147013Y640232D02*
X1147394Y640242D01*
X1146631Y640222D02*
X1147013Y640232D01*
X1146250Y640213D02*
X1146631Y640222D01*
X1145868Y640203D02*
X1146250Y640213D01*
X1145486Y640193D02*
X1145868Y640203D01*
X1145104Y640183D02*
X1145486Y640193D01*
X1144722Y640173D02*
X1145104Y640183D01*
X1144339Y640162D02*
X1144722Y640173D01*
X1143956Y640152D02*
X1144339Y640162D01*
X1143573Y640142D02*
X1143956Y640152D01*
X1143190Y640132D02*
X1143573Y640142D01*
X1142934Y640125D02*
X1143190Y640132D01*
X1142678Y640118D02*
X1142934Y640125D01*
X1142422Y640111D02*
X1142678Y640118D01*
X1142166Y640104D02*
X1142422Y640111D01*
X1141910Y640096D02*
X1142166Y640104D01*
X1141654Y640089D02*
X1141910Y640096D01*
X1141397Y640082D02*
X1141654Y640089D01*
X1141141Y640075D02*
X1141397Y640082D01*
X1140885Y640068D02*
X1141141Y640075D01*
X1140628Y640061D02*
X1140885Y640068D01*
X1140371Y640053D02*
X1140628Y640061D01*
X1140114Y640046D02*
X1140371Y640053D01*
X1139857Y640039D02*
X1140114Y640046D01*
X1139600Y640031D02*
X1139857Y640039D01*
X1139343Y640024D02*
X1139600Y640031D01*
X1139086Y640017D02*
X1139343Y640024D01*
X1138829Y640009D02*
X1139086Y640017D01*
X1138571Y640002D02*
X1138829Y640009D01*
X1138314Y639994D02*
X1138571Y640002D01*
X1138056Y639987D02*
X1138314Y639994D01*
X1137798Y639979D02*
X1138056Y639987D01*
X1137540Y639972D02*
X1137798Y639979D01*
X1137282Y639964D02*
X1137540Y639972D01*
X1137024Y639957D02*
X1137282Y639964D01*
X1136766Y639949D02*
X1137024Y639957D01*
X1136508Y639941D02*
X1136766Y639949D01*
X1136250Y639934D02*
X1136508Y639941D01*
X1135991Y639926D02*
X1136250Y639934D01*
X1135733Y639918D02*
X1135991Y639926D01*
X1135474Y639911D02*
X1135733Y639918D01*
X1135215Y639903D02*
X1135474Y639911D01*
X1134956Y639895D02*
X1135215Y639903D01*
X1134698Y639887D02*
X1134956Y639895D01*
X1134438Y639879D02*
X1134698Y639887D01*
X1134179Y639872D02*
X1134438Y639879D01*
X1133920Y639864D02*
X1134179Y639872D01*
X1133661Y639856D02*
X1133920Y639864D01*
X1133401Y639848D02*
X1133661Y639856D01*
X1133142Y639840D02*
X1133401Y639848D01*
X1132882Y639832D02*
X1133142Y639840D01*
X1132622Y639824D02*
X1132882Y639832D01*
X1132363Y639816D02*
X1132622Y639824D01*
X1132103Y639808D02*
X1132363Y639816D01*
X1131843Y639800D02*
X1132103Y639808D01*
X1131583Y639792D02*
X1131843Y639800D01*
X1131322Y639784D02*
X1131583Y639792D01*
X1131062Y639776D02*
X1131322Y639784D01*
X1130802Y639768D02*
X1131062Y639776D01*
X1130541Y639759D02*
X1130802Y639768D01*
X1130281Y639751D02*
X1130541Y639759D01*
X1130020Y639743D02*
X1130281Y639751D01*
X1129759Y639735D02*
X1130020Y639743D01*
X1129498Y639727D02*
X1129759Y639735D01*
X1129237Y639719D02*
X1129498Y639727D01*
X1128976Y639710D02*
X1129237Y639719D01*
X1128715Y639702D02*
X1128976Y639710D01*
X1128193Y639685D02*
X1128715Y639702D01*
X1127931Y639677D02*
X1128193Y639685D01*
X1127670Y639669D02*
X1127931Y639677D01*
X1127408Y639661D02*
X1127670Y639669D01*
X1127146Y639652D02*
X1127408Y639661D01*
X1126885Y639644D02*
X1127146Y639652D01*
X1126623Y639635D02*
X1126885Y639644D01*
X1126361Y639627D02*
X1126623Y639635D01*
X1126099Y639619D02*
X1126361Y639627D01*
X1125836Y639610D02*
X1126099Y639619D01*
X1125574Y639602D02*
X1125836Y639610D01*
X1125312Y639593D02*
X1125574Y639602D01*
X1125180Y639589D02*
X1125312Y639593D01*
X1125049Y639585D02*
X1125180Y639589D01*
X1124918Y639581D02*
X1125049Y639585D01*
X1124787Y639576D02*
X1124918Y639581D01*
X1124655Y639572D02*
X1124787Y639576D01*
X1124524Y639568D02*
X1124655Y639572D01*
X1124393Y639564D02*
X1124524Y639568D01*
X1124261Y639559D02*
X1124393Y639564D01*
X1124130Y639555D02*
X1124261Y639559D01*
X1123999Y639551D02*
X1124130Y639555D01*
X1123867Y639546D02*
X1123999Y639551D01*
X1123736Y639542D02*
X1123867Y639546D01*
X1123604Y639538D02*
X1123736Y639542D01*
X1123473Y639534D02*
X1123604Y639538D01*
X1123341Y639529D02*
X1123473Y639534D01*
X1123209Y639525D02*
X1123341Y639529D01*
X1123078Y639521D02*
X1123209Y639525D01*
X1122946Y639517D02*
X1123078Y639521D01*
X1122815Y639512D02*
X1122946Y639517D01*
X1122683Y639508D02*
X1122815Y639512D01*
X1122551Y639504D02*
X1122683Y639508D01*
X1122420Y639499D02*
X1122551Y639504D01*
X1122288Y639495D02*
X1122420Y639499D01*
X1122156Y639491D02*
X1122288Y639495D01*
X1122024Y639486D02*
X1122156Y639491D01*
X1121893Y639482D02*
X1122024Y639486D01*
X1121761Y639478D02*
X1121893Y639482D01*
X1121629Y639473D02*
X1121761Y639478D01*
X1121497Y639469D02*
X1121629Y639473D01*
X1121365Y639465D02*
X1121497Y639469D01*
X1121233Y639460D02*
X1121365Y639465D01*
X1121101Y639456D02*
X1121233Y639460D01*
X1120970Y639452D02*
X1121101Y639456D01*
X1120838Y639447D02*
X1120970Y639452D01*
X1120706Y639443D02*
X1120838Y639447D01*
X1120574Y639439D02*
X1120706Y639443D01*
X1120442Y639434D02*
X1120574Y639439D01*
X1120309Y639430D02*
X1120442Y639434D01*
X1120177Y639426D02*
X1120309Y639430D01*
X1120045Y639421D02*
X1120177Y639426D01*
X1119913Y639417D02*
X1120045Y639421D01*
X1119781Y639413D02*
X1119913Y639417D01*
X1119649Y639408D02*
X1119781Y639413D01*
X1119517Y639404D02*
X1119649Y639408D01*
X1119384Y639400D02*
X1119517Y639404D01*
X1119252Y639395D02*
X1119384Y639400D01*
X1119120Y639391D02*
X1119252Y639395D01*
X1118988Y639387D02*
X1119120Y639391D01*
X1118855Y639382D02*
X1118988Y639387D01*
X1118723Y639378D02*
X1118855Y639382D01*
X1118591Y639373D02*
X1118723Y639378D01*
X1118458Y639369D02*
X1118591Y639373D01*
X1118326Y639365D02*
X1118458Y639369D01*
X1118194Y639360D02*
X1118326Y639365D01*
X1118061Y639356D02*
X1118194Y639360D01*
X1117929Y639352D02*
X1118061Y639356D01*
X1117796Y639347D02*
X1117929Y639352D01*
X1117664Y639343D02*
X1117796Y639347D01*
X1117531Y639338D02*
X1117664Y639343D01*
X1117399Y639334D02*
X1117531Y639338D01*
X1117266Y639330D02*
X1117399Y639334D01*
X1117134Y639325D02*
X1117266Y639330D01*
X1117001Y639321D02*
X1117134Y639325D01*
X1116868Y639316D02*
X1117001Y639321D01*
X1116736Y639312D02*
X1116868Y639316D01*
X1116603Y639308D02*
X1116736Y639312D01*
X1116470Y639303D02*
X1116603Y639308D01*
X1116338Y639299D02*
X1116470Y639303D01*
X1116205Y639294D02*
X1116338Y639299D01*
X1116072Y639290D02*
X1116205Y639294D01*
X1115939Y639286D02*
X1116072Y639290D01*
X1115807Y639281D02*
X1115939Y639286D01*
X1115674Y639277D02*
X1115807Y639281D01*
X1115541Y639272D02*
X1115674Y639277D01*
X1115408Y639268D02*
X1115541Y639272D01*
X1115275Y639263D02*
X1115408Y639268D01*
X1115142Y639259D02*
X1115275Y639263D01*
X1115009Y639255D02*
X1115142Y639259D01*
X1114876Y639250D02*
X1115009Y639255D01*
X1114743Y639246D02*
X1114876Y639250D01*
X1114610Y639241D02*
X1114743Y639246D01*
X1114477Y639237D02*
X1114610Y639241D01*
X1114344Y639232D02*
X1114477Y639237D01*
X1114211Y639228D02*
X1114344Y639232D01*
X1114078Y639224D02*
X1114211Y639228D01*
X1113945Y639219D02*
X1114078Y639224D01*
X1113812Y639215D02*
X1113945Y639219D01*
X1113679Y639210D02*
X1113812Y639215D01*
X1113546Y639206D02*
X1113679Y639210D01*
X1113413Y639201D02*
X1113546Y639206D01*
X1113279Y639197D02*
X1113413Y639201D01*
X1113146Y639193D02*
X1113279Y639197D01*
X1113013Y639188D02*
X1113146Y639193D01*
X1112880Y639184D02*
X1113013Y639188D01*
X1112746Y639179D02*
X1112880Y639184D01*
X1112613Y639175D02*
X1112746Y639179D01*
X1112480Y639170D02*
X1112613Y639175D01*
X1112346Y639166D02*
X1112480Y639170D01*
X1112213Y639161D02*
X1112346Y639166D01*
X1112080Y639157D02*
X1112213Y639161D01*
X1111946Y639153D02*
X1112080Y639157D01*
X1111813Y639148D02*
X1111946Y639153D01*
X1111679Y639144D02*
X1111813Y639148D01*
X1111546Y639139D02*
X1111679Y639144D01*
X1111412Y639135D02*
X1111546Y639139D01*
X1111279Y639130D02*
X1111412Y639135D01*
X1111145Y639126D02*
X1111279Y639130D01*
X1111012Y639121D02*
X1111145Y639126D01*
X1110878Y639117D02*
X1111012Y639121D01*
X1110745Y639112D02*
X1110878Y639117D01*
X1110611Y639108D02*
X1110745Y639112D01*
X1110477Y639104D02*
X1110611Y639108D01*
X1110344Y639099D02*
X1110477Y639104D01*
X1110210Y639095D02*
X1110344Y639099D01*
X1110076Y639090D02*
X1110210Y639095D01*
X1109943Y639086D02*
X1110076Y639090D01*
X1109809Y639081D02*
X1109943Y639086D01*
X1109675Y639077D02*
X1109809Y639081D01*
X1109541Y639072D02*
X1109675Y639077D01*
X1109407Y639068D02*
X1109541Y639072D01*
X1109274Y639063D02*
X1109407Y639068D01*
X1109140Y639059D02*
X1109274Y639063D01*
X1109006Y639054D02*
X1109140Y639059D01*
X1108872Y639050D02*
X1109006Y639054D01*
X1108738Y639046D02*
X1108872Y639050D01*
X1108604Y639041D02*
X1108738Y639046D01*
X1108470Y639037D02*
X1108604Y639041D01*
X1108336Y639032D02*
X1108470Y639037D01*
X1108202Y639028D02*
X1108336Y639032D01*
X1108068Y639023D02*
X1108202Y639028D01*
X1107934Y639019D02*
X1108068Y639023D01*
X1107800Y639014D02*
X1107934Y639019D01*
X1107666Y639010D02*
X1107800Y639014D01*
X1107532Y639005D02*
X1107666Y639010D01*
X1107398Y639001D02*
X1107532Y639005D01*
X1107264Y638997D02*
X1107398Y639001D01*
X1107130Y638992D02*
X1107264Y638997D01*
X1106995Y638988D02*
X1107130Y638992D01*
X1106861Y638983D02*
X1106995Y638988D01*
X1106727Y638979D02*
X1106861Y638983D01*
X1106593Y638974D02*
X1106727Y638979D01*
X1106459Y638970D02*
X1106593Y638974D01*
X1106324Y638965D02*
X1106459Y638970D01*
X1106190Y638961D02*
X1106324Y638965D01*
X1106056Y638956D02*
X1106190Y638961D01*
X1105921Y638952D02*
X1106056Y638956D01*
X1105787Y638947D02*
X1105921Y638952D01*
X1105653Y638943D02*
X1105787Y638947D01*
X1105518Y638939D02*
X1105653Y638943D01*
X1105384Y638934D02*
X1105518Y638939D01*
X1105249Y638930D02*
X1105384Y638934D01*
X1105115Y638925D02*
X1105249Y638930D01*
X1104980Y638921D02*
X1105115Y638925D01*
X1104846Y638916D02*
X1104980Y638921D01*
X1104711Y638912D02*
X1104846Y638916D01*
X1104577Y638907D02*
X1104711Y638912D01*
X1104442Y638903D02*
X1104577Y638907D01*
X1104308Y638898D02*
X1104442Y638903D01*
X1104173Y638894D02*
X1104308Y638898D01*
X1104039Y638890D02*
X1104173Y638894D01*
X1103904Y638885D02*
X1104039Y638890D01*
X1103769Y638881D02*
X1103904Y638885D01*
X1103635Y638876D02*
X1103769Y638881D01*
X1103500Y638872D02*
X1103635Y638876D01*
X1103365Y638867D02*
X1103500Y638872D01*
X1103231Y638863D02*
X1103365Y638867D01*
X1103096Y638858D02*
X1103231Y638863D01*
X1102961Y638854D02*
X1103096Y638858D01*
X1102826Y638850D02*
X1102961Y638854D01*
X1102691Y638845D02*
X1102826Y638850D01*
X1102557Y638841D02*
X1102691Y638845D01*
X1102422Y638836D02*
X1102557Y638841D01*
X1102287Y638832D02*
X1102422Y638836D01*
X1102152Y638827D02*
X1102287Y638832D01*
X1102017Y638823D02*
X1102152Y638827D01*
X1101882Y638819D02*
X1102017Y638823D01*
X1101747Y638814D02*
X1101882Y638819D01*
X1101612Y638810D02*
X1101747Y638814D01*
X1101477Y638805D02*
X1101612Y638810D01*
X1101342Y638801D02*
X1101477Y638805D01*
X1101207Y638796D02*
X1101342Y638801D01*
X1101072Y638792D02*
X1101207Y638796D01*
X1100937Y638788D02*
X1101072Y638792D01*
X1100802Y638783D02*
X1100937Y638788D01*
X1100667Y638779D02*
X1100802Y638783D01*
X1100532Y638774D02*
X1100667Y638779D01*
X1100397Y638770D02*
X1100532Y638774D01*
X1100262Y638765D02*
X1100397Y638770D01*
X1100126Y638761D02*
X1100262Y638765D01*
X1099991Y638757D02*
X1100126Y638761D01*
X1099856Y638752D02*
X1099991Y638757D01*
X1099721Y638748D02*
X1099856Y638752D01*
X1099586Y638743D02*
X1099721Y638748D01*
X1099450Y638739D02*
X1099586Y638743D01*
X1099315Y638735D02*
X1099450Y638739D01*
X1099180Y638730D02*
X1099315Y638735D01*
X1099044Y638726D02*
X1099180Y638730D01*
X1098909Y638721D02*
X1099044Y638726D01*
X1098774Y638717D02*
X1098909Y638721D01*
X1098638Y638713D02*
X1098774Y638717D01*
X1098503Y638708D02*
X1098638Y638713D01*
X1098232Y638699D02*
X1098503Y638708D01*
X1097961Y638691D02*
X1098232Y638699D01*
X1097690Y638682D02*
X1097961Y638691D01*
X1097419Y638673D02*
X1097690Y638682D01*
X1097148Y638664D02*
X1097419Y638673D01*
X1096877Y638656D02*
X1097148Y638664D01*
X1096605Y638647D02*
X1096877Y638656D01*
X1096334Y638638D02*
X1096605Y638647D01*
X1096062Y638630D02*
X1096334Y638638D01*
X1095791Y638621D02*
X1096062Y638630D01*
X1095519Y638612D02*
X1095791Y638621D01*
X1095248Y638603D02*
X1095519Y638612D01*
X1094976Y638595D02*
X1095248Y638603D01*
X1094704Y638586D02*
X1094976Y638595D01*
X1094432Y638577D02*
X1094704Y638586D01*
X1094160Y638569D02*
X1094432Y638577D01*
X1093888Y638560D02*
X1094160Y638569D01*
X1093616Y638552D02*
X1093888Y638560D01*
X1093344Y638543D02*
X1093616Y638552D01*
X1093072Y638534D02*
X1093344Y638543D01*
X1092799Y638526D02*
X1093072Y638534D01*
X1092527Y638517D02*
X1092799Y638526D01*
X1092254Y638509D02*
X1092527Y638517D01*
X1091982Y638500D02*
X1092254Y638509D01*
X1091709Y638492D02*
X1091982Y638500D01*
X1091437Y638483D02*
X1091709Y638492D01*
X1091300Y638479D02*
X1091437Y638483D01*
X1090891Y638466D02*
X1091300Y638479D01*
X1090482Y638453D02*
X1090891Y638466D01*
X1090072Y638441D02*
X1090482Y638453D01*
X1089662Y638428D02*
X1090072Y638441D01*
X1089253Y638416D02*
X1089662Y638428D01*
X1088843Y638403D02*
X1089253Y638416D01*
X1088432Y638390D02*
X1088843Y638403D01*
X1088022Y638378D02*
X1088432Y638390D01*
X1087612Y638365D02*
X1088022Y638378D01*
X1087201Y638353D02*
X1087612Y638365D01*
X1086790Y638341D02*
X1087201Y638353D01*
X1086379Y638328D02*
X1086790Y638341D01*
X1085968Y638316D02*
X1086379Y638328D01*
X1085557Y638304D02*
X1085968Y638316D01*
X1085146Y638291D02*
X1085557Y638304D01*
X1084734Y638279D02*
X1085146Y638291D01*
X1084322Y638267D02*
X1084734Y638279D01*
X1083911Y638255D02*
X1084322Y638267D01*
X1083499Y638243D02*
X1083911Y638255D01*
X1083086Y638231D02*
X1083499Y638243D01*
X1082674Y638219D02*
X1083086Y638231D01*
X1082262Y638207D02*
X1082674Y638219D01*
X1081849Y638195D02*
X1082262Y638207D01*
X1081436Y638183D02*
X1081849Y638195D01*
X1081024Y638171D02*
X1081436Y638183D01*
X1080611Y638159D02*
X1081024Y638171D01*
X1080197Y638148D02*
X1080611Y638159D01*
X1079784Y638136D02*
X1080197Y638148D01*
X1079233Y638120D02*
X1079784Y638136D01*
X1078681Y638105D02*
X1079233Y638120D01*
X1078129Y638090D02*
X1078681Y638105D01*
X1077577Y638074D02*
X1078129Y638090D01*
X1077025Y638059D02*
X1077577Y638074D01*
X1076472Y638044D02*
X1077025Y638059D01*
X1075920Y638029D02*
X1076472Y638044D01*
X1075367Y638014D02*
X1075920Y638029D01*
X1074813Y637999D02*
X1075367Y638014D01*
X1074260Y637985D02*
X1074813Y637999D01*
X1073706Y637970D02*
X1074260Y637985D01*
X1073152Y637955D02*
X1073706Y637970D01*
X1072598Y637941D02*
X1073152Y637955D01*
X1072043Y637927D02*
X1072598Y637941D01*
X1071488Y637912D02*
X1072043Y637927D01*
X1070933Y637898D02*
X1071488Y637912D01*
X1070378Y637884D02*
X1070933Y637898D01*
X1069822Y637870D02*
X1070378Y637884D01*
X1069267Y637857D02*
X1069822Y637870D01*
X1068711Y637843D02*
X1069267Y637857D01*
X1068572Y637839D02*
X1068711Y637843D01*
X848443Y658900D02*
Y873875D01*
X915373D01*
Y647995D02*
Y873875D01*
X979796Y645806D02*
Y873875D01*
X1060505D01*
Y645711D02*
Y873875D01*
X969776Y637995D02*
X971682Y637936D01*
X967920Y638055D02*
X969776Y637995D01*
X966062Y638118D02*
X967920Y638055D01*
X964254Y638181D02*
X966062Y638118D01*
X962445Y638245D02*
X964254Y638181D01*
X960636Y638312D02*
X962445Y638245D01*
X958827Y638381D02*
X960636Y638312D01*
X957018Y638452D02*
X958827Y638381D01*
X955208Y638525D02*
X957018Y638452D01*
X953399Y638599D02*
X955208Y638525D01*
X951638Y638674D02*
X953399Y638599D01*
X949877Y638750D02*
X951638Y638674D01*
X948116Y638828D02*
X949877Y638750D01*
X946356Y638908D02*
X948116Y638828D01*
X944595Y638989D02*
X946356Y638908D01*
X942834Y639072D02*
X944595Y638989D01*
X941073Y639157D02*
X942834Y639072D01*
X939362Y639242D02*
X941073Y639157D01*
X937650Y639327D02*
X939362Y639242D01*
X935939Y639415D02*
X937650Y639327D01*
X934227Y639503D02*
X935939Y639415D01*
X932614Y639588D02*
X934227Y639503D01*
X931979Y639622D02*
X932614Y639588D01*
X931343Y639656D02*
X931979Y639622D01*
X930708Y639691D02*
X931343Y639656D01*
X930072Y639725D02*
X930708Y639691D01*
X929437Y639760D02*
X930072Y639725D01*
X928801Y639795D02*
X929437Y639760D01*
X928166Y639830D02*
X928801Y639795D01*
X927531Y639865D02*
X928166Y639830D01*
X926944Y639898D02*
X927531Y639865D01*
X926358Y639931D02*
X926944Y639898D01*
X925772Y639964D02*
X926358Y639931D01*
X925185Y639997D02*
X925772Y639964D01*
X924599Y640031D02*
X925185Y639997D01*
X924013Y640064D02*
X924599Y640031D01*
X923427Y640098D02*
X924013Y640064D01*
X922841Y640132D02*
X923427Y640098D01*
X922792Y640134D02*
X922841Y640132D01*
M02*
