G04*
G04 #@! TF.GenerationSoftware,Altium Limited,Altium Designer,20.0.2 (26)*
G04*
G04 Layer_Physical_Order=2*
G04 Layer_Color=16711680*
%FSLAX25Y25*%
%MOIN*%
G70*
G01*
G75*
%ADD10C,0.03937*%
G36*
X808661Y566142D02*
X785039D01*
Y589764D01*
X808661D01*
Y566142D01*
D02*
G37*
G36*
X749606D02*
X725984D01*
Y589764D01*
X749606D01*
Y566142D01*
D02*
G37*
G36*
X690551D02*
X666929D01*
Y589764D01*
X690551D01*
Y566142D01*
D02*
G37*
G36*
X631496D02*
X607874D01*
Y589764D01*
X631496D01*
Y566142D01*
D02*
G37*
G36*
X572441D02*
X548819D01*
Y589764D01*
X572441D01*
Y566142D01*
D02*
G37*
G36*
X808661Y530709D02*
X785039D01*
Y554331D01*
X808661D01*
Y530709D01*
D02*
G37*
G36*
X749606D02*
X725984D01*
Y554331D01*
X749606D01*
Y530709D01*
D02*
G37*
G36*
X690551D02*
X666929D01*
Y554331D01*
X690551D01*
Y530709D01*
D02*
G37*
G36*
X631496D02*
X607874D01*
Y554331D01*
X631496D01*
Y530709D01*
D02*
G37*
G36*
X572441D02*
X548819D01*
Y554331D01*
X572441D01*
Y530709D01*
D02*
G37*
G36*
X513386D02*
X489764D01*
Y554331D01*
X513386D01*
Y530709D01*
D02*
G37*
G36*
X808661Y495276D02*
X785039D01*
Y518898D01*
X808661D01*
Y495276D01*
D02*
G37*
G36*
X749606D02*
X725984D01*
Y518898D01*
X749606D01*
Y495276D01*
D02*
G37*
G36*
X690551D02*
X666929D01*
Y518898D01*
X690551D01*
Y495276D01*
D02*
G37*
G36*
X631496D02*
X607874D01*
Y518898D01*
X631496D01*
Y495276D01*
D02*
G37*
G36*
X572441D02*
X548819D01*
Y518898D01*
X572441D01*
Y495276D01*
D02*
G37*
G36*
X513386D02*
X489764D01*
Y518898D01*
X513386D01*
Y495276D01*
D02*
G37*
G36*
X454331D02*
X430709D01*
Y518898D01*
X454331D01*
Y495276D01*
D02*
G37*
G36*
X808661Y459842D02*
X785039D01*
Y483465D01*
X808661D01*
Y459842D01*
D02*
G37*
G36*
X749606D02*
X725984D01*
Y483465D01*
X749606D01*
Y459842D01*
D02*
G37*
G36*
X690551D02*
X666929D01*
Y483465D01*
X690551D01*
Y459842D01*
D02*
G37*
G36*
X631496D02*
X607874D01*
Y483465D01*
X631496D01*
Y459842D01*
D02*
G37*
G36*
X572441D02*
X548819D01*
Y483465D01*
X572441D01*
Y459842D01*
D02*
G37*
G36*
X513386D02*
X489764D01*
Y483465D01*
X513386D01*
Y459842D01*
D02*
G37*
G36*
X454331D02*
X430709D01*
Y483465D01*
X454331D01*
Y459842D01*
D02*
G37*
G36*
X407087Y448425D02*
X371654D01*
Y481496D01*
X407087D01*
Y448425D01*
D02*
G37*
G36*
X808661Y424409D02*
X785039D01*
Y448032D01*
X808661D01*
Y424409D01*
D02*
G37*
G36*
X749606D02*
X725984D01*
Y448032D01*
X749606D01*
Y424409D01*
D02*
G37*
G36*
X690551D02*
X666929D01*
Y448032D01*
X690551D01*
Y424409D01*
D02*
G37*
G36*
X631496D02*
X607874D01*
Y448032D01*
X631496D01*
Y424409D01*
D02*
G37*
G36*
X572441D02*
X548819D01*
Y448032D01*
X572441D01*
Y424409D01*
D02*
G37*
G36*
X513386D02*
X489764D01*
Y448032D01*
X513386D01*
Y424409D01*
D02*
G37*
G36*
X454331D02*
X430709D01*
Y448032D01*
X454331D01*
Y424409D01*
D02*
G37*
G36*
X690551Y388976D02*
X666929D01*
Y412598D01*
X690551D01*
Y388976D01*
D02*
G37*
G36*
X631496D02*
X607874D01*
Y412598D01*
X631496D01*
Y388976D01*
D02*
G37*
G36*
X572441D02*
X548819D01*
Y412598D01*
X572441D01*
Y388976D01*
D02*
G37*
G36*
X513386D02*
X489764D01*
Y412598D01*
X513386D01*
Y388976D01*
D02*
G37*
G36*
X1222047Y566142D02*
X1198425D01*
Y589764D01*
X1222047D01*
Y566142D01*
D02*
G37*
G36*
X1162992D02*
X1139370D01*
Y589764D01*
X1162992D01*
Y566142D01*
D02*
G37*
G36*
X1103937D02*
X1080315D01*
Y589764D01*
X1103937D01*
Y566142D01*
D02*
G37*
G36*
X1044882D02*
X1021260D01*
Y589764D01*
X1044882D01*
Y566142D01*
D02*
G37*
G36*
X985827D02*
X962205D01*
Y589764D01*
X985827D01*
Y566142D01*
D02*
G37*
G36*
X926772D02*
X903150D01*
Y589764D01*
X926772D01*
Y566142D01*
D02*
G37*
G36*
X867717D02*
X844094D01*
Y589764D01*
X867717D01*
Y566142D01*
D02*
G37*
G36*
X1285039Y542126D02*
X1249606D01*
Y575197D01*
X1285039D01*
Y542126D01*
D02*
G37*
G36*
X1222047Y530709D02*
X1198425D01*
Y554331D01*
X1222047D01*
Y530709D01*
D02*
G37*
G36*
X1162992D02*
X1139370D01*
Y554331D01*
X1162992D01*
Y530709D01*
D02*
G37*
G36*
X1103937D02*
X1080315D01*
Y554331D01*
X1103937D01*
Y530709D01*
D02*
G37*
G36*
X1044882D02*
X1021260D01*
Y554331D01*
X1044882D01*
Y530709D01*
D02*
G37*
G36*
X985827D02*
X962205D01*
Y554331D01*
X985827D01*
Y530709D01*
D02*
G37*
G36*
X926772D02*
X903150D01*
Y554331D01*
X926772D01*
Y530709D01*
D02*
G37*
G36*
X867717D02*
X844094D01*
Y554331D01*
X867717D01*
Y530709D01*
D02*
G37*
G36*
X1281102Y495276D02*
X1257480D01*
Y518898D01*
X1281102D01*
Y495276D01*
D02*
G37*
G36*
X1222047D02*
X1198425D01*
Y518898D01*
X1222047D01*
Y495276D01*
D02*
G37*
G36*
X1162992D02*
X1139370D01*
Y518898D01*
X1162992D01*
Y495276D01*
D02*
G37*
G36*
X1103937D02*
X1080315D01*
Y518898D01*
X1103937D01*
Y495276D01*
D02*
G37*
G36*
X1044882D02*
X1021260D01*
Y518898D01*
X1044882D01*
Y495276D01*
D02*
G37*
G36*
X985827D02*
X962205D01*
Y518898D01*
X985827D01*
Y495276D01*
D02*
G37*
G36*
X926772D02*
X903150D01*
Y518898D01*
X926772D01*
Y495276D01*
D02*
G37*
G36*
X867717D02*
X844094D01*
Y518898D01*
X867717D01*
Y495276D01*
D02*
G37*
G36*
X1222047Y459842D02*
X1198425D01*
Y483465D01*
X1222047D01*
Y459842D01*
D02*
G37*
G36*
X1162992D02*
X1139370D01*
Y483465D01*
X1162992D01*
Y459842D01*
D02*
G37*
G36*
X1103937D02*
X1080315D01*
Y483465D01*
X1103937D01*
Y459842D01*
D02*
G37*
G36*
X1044882D02*
X1021260D01*
Y483465D01*
X1044882D01*
Y459842D01*
D02*
G37*
G36*
X985827D02*
X962205D01*
Y483465D01*
X985827D01*
Y459842D01*
D02*
G37*
G36*
X926772D02*
X903150D01*
Y483465D01*
X926772D01*
Y459842D01*
D02*
G37*
G36*
X867717D02*
X844094D01*
Y483465D01*
X867717D01*
Y459842D01*
D02*
G37*
G36*
X1284252Y449213D02*
X1248819D01*
Y482283D01*
X1284252D01*
Y449213D01*
D02*
G37*
G36*
X1222047Y424409D02*
X1198425D01*
Y448032D01*
X1222047D01*
Y424409D01*
D02*
G37*
G36*
X1162992D02*
X1139370D01*
Y448032D01*
X1162992D01*
Y424409D01*
D02*
G37*
G36*
X1103937D02*
X1080315D01*
Y448032D01*
X1103937D01*
Y424409D01*
D02*
G37*
G36*
X1044882D02*
X1021260D01*
Y448032D01*
X1044882D01*
Y424409D01*
D02*
G37*
G36*
X985827D02*
X962205D01*
Y448032D01*
X985827D01*
Y424409D01*
D02*
G37*
G36*
X926772D02*
X903150D01*
Y448032D01*
X926772D01*
Y424409D01*
D02*
G37*
G36*
X867717D02*
X844094D01*
Y448032D01*
X867717D01*
Y424409D01*
D02*
G37*
D10*
X1260236Y582283D02*
X1267323Y575197D01*
X1226378Y582283D02*
X1260236D01*
X1222047Y577953D02*
X1226378Y582283D01*
X1222047Y542520D02*
X1233465D01*
X1249606Y558661D01*
X1267323Y542126D02*
X1269291Y540158D01*
Y518898D02*
Y540158D01*
X501575Y566142D02*
X513386Y577953D01*
X1210236Y554331D02*
Y566142D01*
X1151181Y554331D02*
Y566142D01*
X1092126Y554331D02*
Y566142D01*
X1033071Y554331D02*
Y566142D01*
X974016Y554331D02*
Y566142D01*
X914961Y554331D02*
Y566142D01*
X855906Y554331D02*
Y566142D01*
X796850Y554331D02*
Y566142D01*
X737795Y554331D02*
Y566142D01*
X678740Y554331D02*
Y566142D01*
X619685Y554331D02*
Y566142D01*
X560630Y554331D02*
Y566142D01*
X501575Y554331D02*
Y566142D01*
X1162992Y577953D02*
X1198425D01*
X1103937D02*
X1139370D01*
X1044882D02*
X1080315D01*
X985827D02*
X1021260D01*
X926772D02*
X962205D01*
X867717D02*
X903150D01*
X808661D02*
X844094D01*
X749606D02*
X785039D01*
X690551D02*
X725984D01*
X631496D02*
X666929D01*
X572441D02*
X607874D01*
X513386D02*
X548819D01*
X1210236Y518898D02*
Y530709D01*
X1151181Y518898D02*
Y530709D01*
X1092126Y518898D02*
Y530709D01*
X1033071Y518898D02*
Y530709D01*
X974016Y518898D02*
Y530709D01*
X914961Y518898D02*
Y530709D01*
X855906Y518898D02*
Y530709D01*
X796850Y518898D02*
Y530709D01*
X737795Y518898D02*
Y530709D01*
X678740Y518898D02*
Y530709D01*
X619685Y518898D02*
Y530709D01*
X560630Y518898D02*
Y530709D01*
X501575Y518898D02*
Y530709D01*
X1162992Y542520D02*
X1198425D01*
X1103937D02*
X1139370D01*
X1044882D02*
X1080315D01*
X985827D02*
X1021260D01*
X926772D02*
X962205D01*
X867717D02*
X903150D01*
X808661D02*
X844094D01*
X749606D02*
X785039D01*
X690551D02*
X725984D01*
X631496D02*
X666929D01*
X572441D02*
X607874D01*
X513386D02*
X548819D01*
X1210236Y483465D02*
Y495276D01*
X1151181Y483465D02*
Y495276D01*
X1092126Y483465D02*
Y495276D01*
X1033071Y483465D02*
Y495276D01*
X974016Y483465D02*
Y495276D01*
X914961Y483465D02*
Y495276D01*
X855906Y483465D02*
Y495276D01*
X796850Y483465D02*
Y495276D01*
X737795Y483465D02*
Y495276D01*
X678740Y483465D02*
Y495276D01*
X619685Y483465D02*
Y495276D01*
X560630Y483465D02*
Y495276D01*
X501575Y483465D02*
Y495276D01*
X1162992Y507087D02*
X1198425D01*
X1103937D02*
X1139370D01*
X1044882D02*
X1080315D01*
X985827D02*
X1021260D01*
X926772D02*
X962205D01*
X867717D02*
X903150D01*
X808661D02*
X844094D01*
X749606D02*
X785039D01*
X690551D02*
X725984D01*
X631496D02*
X666929D01*
X572441D02*
X607874D01*
X513386D02*
X548819D01*
X401575Y436221D02*
X430709D01*
X389370Y448425D02*
X401575Y436221D01*
X414961Y507087D02*
X430709D01*
X389370Y481496D02*
X414961Y507087D01*
X426378Y471654D02*
X430709D01*
X420472Y465748D02*
X426378Y471654D01*
X419685Y464961D02*
X420472Y465748D01*
X407087Y464961D02*
X419685D01*
X690551Y400787D02*
X725984D01*
X737795Y412598D01*
X1269291Y480709D02*
Y483465D01*
Y448032D02*
X1270079Y447244D01*
Y436912D02*
Y447244D01*
X1269387Y436221D02*
X1270079Y436912D01*
X1257480Y436221D02*
X1269387D01*
X737795Y412598D02*
X1210236D01*
X501575Y377165D02*
X678740D01*
X442520Y412598D02*
X454331Y400787D01*
X442520Y412598D02*
Y412598D01*
X454331Y400787D02*
X489764D01*
X513386D02*
X548819D01*
X572441D02*
X607874D01*
X631496D02*
X666929D01*
X501575Y377165D02*
Y388976D01*
X560630Y377165D02*
Y388976D01*
X619685Y377165D02*
Y388976D01*
X678740Y377165D02*
Y388976D01*
X454331Y436221D02*
X489764D01*
X513386D02*
X548819D01*
X572441D02*
X607874D01*
X631496D02*
X666929D01*
X690551D02*
X725984D01*
X749606D02*
X785039D01*
X808661D02*
X844094D01*
X867717D02*
X903150D01*
X926772D02*
X962205D01*
X985827D02*
X1021260D01*
X1044882D02*
X1080315D01*
X1103937D02*
X1139370D01*
X1162992D02*
X1198425D01*
X1222047D02*
X1257480D01*
X442520Y412598D02*
Y424409D01*
X501575Y412598D02*
Y424409D01*
X560630Y412598D02*
Y424409D01*
X619685Y412598D02*
Y424409D01*
X678740Y412598D02*
Y424409D01*
X737795Y412598D02*
Y424409D01*
X796850Y412598D02*
Y424409D01*
X855906Y412598D02*
Y424409D01*
X914961Y412598D02*
Y424409D01*
X974016Y412598D02*
Y424409D01*
X1033071Y412598D02*
Y424409D01*
X1092126Y412598D02*
Y424409D01*
X1151181Y412598D02*
Y424409D01*
X1210236Y412598D02*
Y424409D01*
X454331Y471654D02*
X489764D01*
X513386D02*
X548819D01*
X572441D02*
X607874D01*
X631496D02*
X666929D01*
X690551D02*
X725984D01*
X749606D02*
X785039D01*
X808661D02*
X844094D01*
X867717D02*
X903150D01*
X926772D02*
X962205D01*
X985827D02*
X1021260D01*
X1044882D02*
X1080315D01*
X1103937D02*
X1139370D01*
X1162992D02*
X1198425D01*
X1222047D02*
X1257480D01*
X442520Y448032D02*
Y459842D01*
X501575Y448032D02*
Y459842D01*
X560630Y448032D02*
Y459842D01*
X619685Y448032D02*
Y459842D01*
X678740Y448032D02*
Y459842D01*
X737795Y448032D02*
Y459842D01*
X796850Y448032D02*
Y459842D01*
X855906Y448032D02*
Y459842D01*
X914961Y448032D02*
Y459842D01*
X974016Y448032D02*
Y459842D01*
X1033071Y448032D02*
Y459842D01*
X1092126Y448032D02*
Y459842D01*
X1151181Y448032D02*
Y459842D01*
X1210236Y448032D02*
Y459842D01*
X1269291Y448032D02*
Y459842D01*
X454331Y507087D02*
X489764D01*
X1222047D02*
X1257480D01*
X442520Y483465D02*
Y495276D01*
X1269291Y483465D02*
Y495276D01*
M02*
