G04*
G04 #@! TF.GenerationSoftware,Altium Limited,Altium Designer,20.0.2 (26)*
G04*
G04 Layer_Color=16711935*
%FSLAX25Y25*%
%MOIN*%
G70*
G01*
G75*
%ADD10C,0.03937*%
D10*
X348179Y419460D02*
G03*
X349130Y418046I76441J50364D01*
G01*
X347255Y420891D02*
G03*
X348179Y419460I76307J48236D01*
G01*
X346359Y422339D02*
G03*
X347255Y420891I76221J46167D01*
G01*
X345491Y423804D02*
G03*
X346359Y422339I76183J44153D01*
G01*
X344651Y425287D02*
G03*
X345491Y423804I76198J42192D01*
G01*
X343575Y427291D02*
G03*
X344651Y425287I76415J39713D01*
G01*
X342803Y428815D02*
G03*
X343575Y427291I76344J37750D01*
G01*
X341819Y430875D02*
G03*
X342803Y428815I76491J35278D01*
G01*
X340665Y433495D02*
G03*
X341819Y430875I76756J32249D01*
G01*
X337401Y442786D02*
G03*
X340665Y433495I78841J22474D01*
G01*
X336237Y447369D02*
G03*
X337401Y442786I80282J17962D01*
G01*
X335635Y450303D02*
G03*
X336237Y447369I81845J15244D01*
G01*
X335226Y452691D02*
G03*
X335635Y450303I83266J13046D01*
G01*
X334962Y454504D02*
G03*
X335226Y452691I84518J11388D01*
G01*
X334735Y456338D02*
G03*
X334962Y454504I85738J9687D01*
G01*
X334545Y458192D02*
G03*
X334735Y456338I87056J7961D01*
G01*
X334252Y462598D02*
G03*
X334352Y460696I90535J3798D01*
G01*
X338443Y475974D02*
G03*
X334252Y462598I129913J-48046D01*
G01*
X339852Y479627D02*
G03*
X338443Y475974I129853J-52192D01*
G01*
X340967Y482320D02*
G03*
X339852Y479627I130098J-55431D01*
G01*
X775924Y656323D02*
G03*
X761596Y656959I-42029J-784772D01*
G01*
X826644Y651977D02*
G03*
X775924Y656323I-93489J-792927D01*
G01*
X844056Y649729D02*
G03*
X826644Y651977I-110339J-786199D01*
G01*
X1291696Y596376D02*
G03*
X1290099Y597878I-85588J-89314D01*
G01*
X1293400Y594710D02*
G03*
X1291696Y596376I-86385J-86703D01*
G01*
X1295203Y592875D02*
G03*
X1293400Y594710I-87292J-83968D01*
G01*
X1297360Y590573D02*
G03*
X1295203Y592875I-88532J-80784D01*
G01*
X1299833Y587775D02*
G03*
X1297360Y590573I-90079J-77143D01*
G01*
X1308869Y575738D02*
G03*
X1299833Y587775I-97764J-63972D01*
G01*
X1312059Y570575D02*
G03*
X1308869Y575738I-101376J-59073D01*
G01*
X1313888Y567320D02*
G03*
X1312059Y570575I-104276J-56445D01*
G01*
X1315263Y564702D02*
G03*
X1313888Y567320I-106711J-54401D01*
G01*
X1316407Y562398D02*
G03*
X1315263Y564702I-108934J-52649D01*
G01*
X1317423Y560243D02*
G03*
X1316407Y562398I-111077J-51039D01*
G01*
X1318320Y558244D02*
G03*
X1317423Y560243I-113149J-49580D01*
G01*
X1307680Y429022D02*
G03*
X1308799Y430630I-76523J54406D01*
G01*
X1306140Y426919D02*
G03*
X1307680Y429022I-74128J55900D01*
G01*
X1298963Y418511D02*
G03*
X1306140Y426919I-65710J63354D01*
G01*
X1296417Y415971D02*
G03*
X1298963Y418511I-63537J66261D01*
G01*
X1294738Y414401D02*
G03*
X1296416Y415971I-62527J68527D01*
G01*
X1293510Y413300D02*
G03*
X1294738Y414401I-61998J70392D01*
G01*
X518223Y343795D02*
X520314Y343533D01*
X516133Y344065D02*
X518223Y343795D01*
X514045Y344342D02*
X516133Y344065D01*
X511958Y344627D02*
X514045Y344342D01*
X509873Y344920D02*
X511958Y344627D01*
X507789Y345220D02*
X509873Y344920D01*
X505707Y345528D02*
X507789Y345220D01*
X503628Y345845D02*
X505707Y345528D01*
X501550Y346169D02*
X503628Y345845D01*
X499475Y346501D02*
X501550Y346169D01*
X497402Y346842D02*
X499475Y346501D01*
X495333Y347191D02*
X497402Y346842D01*
X493265Y347548D02*
X495333Y347191D01*
X491201Y347914D02*
X493265Y347548D01*
X489140Y348288D02*
X491201Y347914D01*
X487082Y348670D02*
X489140Y348288D01*
X485028Y349061D02*
X487082Y348670D01*
X482977Y349461D02*
X485028Y349061D01*
X480930Y349869D02*
X482977Y349461D01*
X478887Y350287D02*
X480930Y349869D01*
X476847Y350713D02*
X478887Y350287D01*
X474812Y351148D02*
X476847Y350713D01*
X473458Y351443D02*
X474812Y351148D01*
X472105Y351742D02*
X473458Y351443D01*
X470755Y352045D02*
X472105Y351742D01*
X469407Y352352D02*
X470755Y352045D01*
X468061Y352664D02*
X469407Y352352D01*
X466717Y352979D02*
X468061Y352664D01*
X465375Y353299D02*
X466717Y352979D01*
X464036Y353623D02*
X465375Y353299D01*
X462699Y353951D02*
X464036Y353623D01*
X461365Y354283D02*
X462699Y353951D01*
X460033Y354619D02*
X461365Y354283D01*
X458704Y354960D02*
X460033Y354619D01*
X457377Y355305D02*
X458704Y354960D01*
X456053Y355654D02*
X457377Y355305D01*
X454732Y356008D02*
X456053Y355654D01*
X453414Y356366D02*
X454732Y356008D01*
X452098Y356729D02*
X453414Y356366D01*
X450786Y357095D02*
X452098Y356729D01*
X449476Y357467D02*
X450786Y357095D01*
X448170Y357843D02*
X449476Y357467D01*
X446867Y358223D02*
X448170Y357843D01*
X445566Y358608D02*
X446867Y358223D01*
X444270Y358997D02*
X445566Y358608D01*
X442976Y359391D02*
X444270Y358997D01*
X441686Y359789D02*
X442976Y359391D01*
X440399Y360193D02*
X441686Y359789D01*
X439116Y360600D02*
X440399Y360193D01*
X437836Y361013D02*
X439116Y360600D01*
X436560Y361430D02*
X437836Y361013D01*
X435287Y361852D02*
X436560Y361430D01*
X434018Y362279D02*
X435287Y361852D01*
X432753Y362710D02*
X434018Y362279D01*
X431492Y363146D02*
X432753Y362710D01*
X430235Y363587D02*
X431492Y363146D01*
X428982Y364033D02*
X430235Y363587D01*
X427733Y364483D02*
X428982Y364033D01*
X426488Y364939D02*
X427733Y364483D01*
X425247Y365400D02*
X426488Y364939D01*
X424011Y365865D02*
X425247Y365400D01*
X422779Y366336D02*
X424011Y365865D01*
X421551Y366811D02*
X422779Y366336D01*
X420328Y367291D02*
X421551Y366811D01*
X419110Y367777D02*
X420328Y367291D01*
X417897Y368268D02*
X419110Y367777D01*
X416688Y368764D02*
X417897Y368268D01*
X415484Y369265D02*
X416688Y368764D01*
X414285Y369771D02*
X415484Y369265D01*
X413091Y370282D02*
X414285Y369771D01*
X411902Y370799D02*
X413091Y370282D01*
X410718Y371321D02*
X411902Y370799D01*
X409540Y371848D02*
X410718Y371321D01*
X408367Y372381D02*
X409540Y371848D01*
X407199Y372919D02*
X408367Y372381D01*
X406037Y373462D02*
X407199Y372919D01*
X404881Y374011D02*
X406037Y373462D01*
X403730Y374565D02*
X404881Y374011D01*
X402585Y375125D02*
X403730Y374565D01*
X401445Y375690D02*
X402585Y375125D01*
X400312Y376261D02*
X401445Y375690D01*
X399184Y376837D02*
X400312Y376261D01*
X398062Y377419D02*
X399184Y376837D01*
X396947Y378006D02*
X398062Y377419D01*
X395838Y378599D02*
X396947Y378006D01*
X394735Y379198D02*
X395838Y378599D01*
X393638Y379803D02*
X394735Y379198D01*
X392548Y380413D02*
X393638Y379803D01*
X391464Y381029D02*
X392548Y380413D01*
X390387Y381651D02*
X391464Y381029D01*
X389317Y382278D02*
X390387Y381651D01*
X388254Y382912D02*
X389317Y382278D01*
X387198Y383551D02*
X388254Y382912D01*
X386148Y384197D02*
X387198Y383551D01*
X385106Y384848D02*
X386148Y384197D01*
X384071Y385506D02*
X385106Y384848D01*
X383044Y386169D02*
X384071Y385506D01*
X382024Y386838D02*
X383044Y386169D01*
X381012Y387514D02*
X382024Y386838D01*
X380007Y388196D02*
X381012Y387514D01*
X379010Y388884D02*
X380007Y388196D01*
X378020Y389578D02*
X379010Y388884D01*
X377039Y390278D02*
X378020Y389578D01*
X376066Y390985D02*
X377039Y390278D01*
X375101Y391698D02*
X376066Y390985D01*
X374144Y392417D02*
X375101Y391698D01*
X373195Y393143D02*
X374144Y392417D01*
X372255Y393875D02*
X373195Y393143D01*
X371323Y394613D02*
X372255Y393875D01*
X370400Y395358D02*
X371323Y394613D01*
X369486Y396109D02*
X370400Y395358D01*
X368580Y396867D02*
X369486Y396109D01*
X367684Y397632D02*
X368580Y396867D01*
X366796Y398403D02*
X367684Y397632D01*
X365918Y399181D02*
X366796Y398403D01*
X365048Y399965D02*
X365918Y399181D01*
X364188Y400757D02*
X365048Y399965D01*
X363338Y401554D02*
X364188Y400757D01*
X362497Y402359D02*
X363338Y401554D01*
X361666Y403170D02*
X362497Y402359D01*
X360844Y403989D02*
X361666Y403170D01*
X360032Y404814D02*
X360844Y403989D01*
X359231Y405646D02*
X360032Y404814D01*
X358439Y406486D02*
X359231Y405646D01*
X357658Y407332D02*
X358439Y406486D01*
X356888Y408185D02*
X357658Y407332D01*
X356127Y409045D02*
X356888Y408185D01*
X355378Y409912D02*
X356127Y409045D01*
X354639Y410787D02*
X355378Y409912D01*
X353911Y411669D02*
X354639Y410787D01*
X353194Y412558D02*
X353911Y411669D01*
X352488Y413454D02*
X353194Y412558D01*
X351793Y414358D02*
X352488Y413454D01*
X351110Y415269D02*
X351793Y414358D01*
X350438Y416187D02*
X351110Y415269D01*
X349778Y417113D02*
X350438Y416187D01*
X349130Y418046D02*
X349778Y417113D01*
X348179Y419460D02*
Y419460D01*
X346359Y422339D02*
Y422339D01*
X345491Y423804D02*
X345491D01*
X344651Y425287D02*
X344651D01*
X343575Y427291D02*
X343575D01*
X342803Y428815D02*
X342803D01*
X341819Y430875D02*
X341819Y430875D01*
X340665Y433495D02*
Y433495D01*
X337401Y442786D02*
X337401D01*
X335635Y450303D02*
Y450303D01*
X335226Y452691D02*
X335226Y452691D01*
X334962Y454504D02*
X334962D01*
X334735Y456338D02*
Y456338D01*
X334545Y458192D02*
Y458192D01*
X334440Y459440D02*
X334545Y458192D01*
X334352Y460696D02*
X334440Y459440D01*
X338443Y475974D02*
X338443D01*
X339852Y479627D02*
X339852D01*
X340967Y482320D02*
Y482320D01*
Y482320D02*
X341932Y484535D01*
X342931Y486724D01*
X343753Y488456D01*
X344594Y490173D01*
X345456Y491874D01*
X346559Y493979D01*
X347693Y496060D01*
X348620Y497709D01*
X349566Y499343D01*
X350529Y500962D01*
X351510Y502568D01*
X352257Y503764D01*
X353014Y504951D01*
X353781Y506132D01*
X354557Y507304D01*
X355342Y508470D01*
X356136Y509628D01*
X356940Y510779D01*
X357752Y511924D01*
X358573Y513061D01*
X359403Y514192D01*
X360241Y515316D01*
X361088Y516433D01*
X361943Y517544D01*
X362806Y518648D01*
X363678Y519747D01*
X364558Y520839D01*
X365445Y521924D01*
X366341Y523004D01*
X367245Y524078D01*
X368156Y525146D01*
X369075Y526207D01*
X370002Y527264D01*
X370936Y528314D01*
X371878Y529359D01*
X372828Y530398D01*
X373784Y531431D01*
X374748Y532460D01*
X375719Y533483D01*
X376698Y534500D01*
X377354Y535176D01*
X378013Y535849D01*
X378675Y536520D01*
X379341Y537189D01*
X380009Y537855D01*
X381017Y538851D01*
X382032Y539842D01*
X383054Y540828D01*
X384082Y541809D01*
X385117Y542786D01*
X386159Y543758D01*
X387207Y544725D01*
X388262Y545687D01*
X389323Y546645D01*
X390391Y547599D01*
X391465Y548548D01*
X392545Y549493D01*
X393632Y550433D01*
X394725Y551369D01*
X395824Y552301D01*
X396929Y553229D01*
X398041Y554152D01*
X399159Y555072D01*
X400282Y555987D01*
X401412Y556898D01*
X402548Y557806D01*
X404072Y559010D01*
X405606Y560207D01*
X407151Y561397D01*
X408707Y562580D01*
X410273Y563757D01*
X411849Y564927D01*
X413436Y566090D01*
X415033Y567247D01*
X416641Y568398D01*
X418259Y569542D01*
X419480Y570396D01*
X420706Y571246D01*
X421938Y572093D01*
X423176Y572937D01*
X424419Y573777D01*
X425669Y574614D01*
X426924Y575447D01*
X429029Y576828D01*
X431149Y578200D01*
X433286Y579563D01*
X435439Y580916D01*
X437608Y582261D01*
X439793Y583596D01*
X441995Y584922D01*
X444213Y586238D01*
X446447Y587546D01*
X448698Y588845D01*
X450965Y590135D01*
X453248Y591415D01*
X456473Y593193D01*
X460667Y595453D01*
X464441Y597438D01*
X468259Y599399D01*
X472121Y601336D01*
X475537Y603012D01*
X478987Y604669D01*
X482472Y606309D01*
X487511Y608618D01*
X493653Y611339D01*
X499378Y613783D01*
X504660Y615962D01*
X509479Y617889D01*
X514361Y619781D01*
X520414Y622048D01*
X526562Y624261D01*
X532808Y626419D01*
X538572Y628333D01*
X543829Y630015D01*
X549155Y631657D01*
X555152Y633434D01*
X560623Y634991D01*
X566163Y636504D01*
X571773Y637975D01*
X577454Y639401D01*
X582564Y640630D01*
X587730Y641822D01*
X592953Y642978D01*
X598233Y644095D01*
X603570Y645173D01*
X608964Y646211D01*
X614416Y647209D01*
X619925Y648166D01*
X625491Y649080D01*
X631114Y649952D01*
X636795Y650779D01*
X641813Y651467D01*
X646874Y652120D01*
X651978Y652739D01*
X657125Y653321D01*
X662315Y653867D01*
X668298Y654446D01*
X674335Y654977D01*
X680427Y655458D01*
X686572Y655889D01*
X691993Y656223D01*
X698237Y656558D01*
X704531Y656839D01*
X711672Y657093D01*
X718874Y657278D01*
X726946Y657402D01*
X735090Y657439D01*
X742479Y657397D01*
X750751Y657266D01*
X761596Y656959D01*
X761596D02*
X761596D01*
X844056Y649729D02*
X855395Y648053D01*
X864116Y646648D01*
X871088Y645452D01*
X877180Y644351D01*
X882394Y643369D01*
X887599Y642350D01*
X892793Y641294D01*
X893113Y641273D01*
X893433Y641251D01*
X893754Y641230D01*
X894074Y641208D01*
X894394Y641187D01*
X894714Y641165D01*
X895034Y641144D01*
X895354Y641122D01*
X895675Y641101D01*
X895995Y641080D01*
X896315Y641058D01*
X896636Y641037D01*
X896956Y641016D01*
X897276Y640995D01*
X897597Y640973D01*
X897917Y640952D01*
X898238Y640931D01*
X898558Y640910D01*
X898879Y640889D01*
X899199Y640868D01*
X899520Y640846D01*
X899840Y640825D01*
X900161Y640804D01*
X900481Y640783D01*
X901122Y640741D01*
X901764Y640699D01*
X902405Y640658D01*
X903046Y640616D01*
X903688Y640575D01*
X904329Y640533D01*
X904971Y640492D01*
X905613Y640451D01*
X906254Y640410D01*
X906896Y640369D01*
X907538Y640328D01*
X908180Y640287D01*
X908822Y640246D01*
X909464Y640206D01*
X910106Y640166D01*
X910749Y640125D01*
X911391Y640085D01*
X912033Y640045D01*
X912675Y640006D01*
X913318Y639966D01*
X913960Y639927D01*
X914603Y639887D01*
X915246Y639848D01*
X915888Y639809D01*
X916531Y639770D01*
X917174Y639731D01*
X917816Y639693D01*
X918459Y639654D01*
X919102Y639616D01*
X919745Y639578D01*
X920388Y639540D01*
X921031Y639502D01*
X921674Y639465D01*
X922317Y639428D01*
X922960Y639390D01*
X923604Y639353D01*
X924247Y639316D01*
X924890Y639280D01*
X925534Y639243D01*
X926177Y639207D01*
X926820Y639171D01*
X927464Y639135D01*
X928107Y639099D01*
X928751Y639064D01*
X929394Y639028D01*
X930038Y638993D01*
X930682Y638958D01*
X931325Y638924D01*
X931969Y638889D01*
X932613Y638855D01*
X934544Y638753D01*
X936475Y638654D01*
X938407Y638556D01*
X940339Y638460D01*
X942271Y638366D01*
X944203Y638275D01*
X946135Y638185D01*
X948067Y638097D01*
X949999Y638012D01*
X951931Y637929D01*
X953864Y637848D01*
X955795Y637769D01*
X957727Y637692D01*
X959659Y637617D01*
X961590Y637545D01*
X963521Y637475D01*
X965452Y637407D01*
X967383Y637342D01*
X969313Y637279D01*
X971243Y637219D01*
X973172Y637160D01*
X980565Y636959D01*
X993078Y636699D01*
X1013213Y636489D01*
X1015124Y636482D01*
X1017034Y636478D01*
X1018942Y636476D01*
X1020849Y636476D01*
X1022755Y636478D01*
X1024342Y636482D01*
X1025928Y636486D01*
X1027513Y636493D01*
X1029097Y636501D01*
X1030679Y636510D01*
X1032261Y636521D01*
X1033841Y636533D01*
X1035420Y636546D01*
X1036998Y636561D01*
X1038574Y636577D01*
X1040150Y636594D01*
X1041724Y636613D01*
X1043297Y636633D01*
X1044868Y636654D01*
X1046438Y636676D01*
X1048006Y636700D01*
X1049574Y636725D01*
X1051139Y636751D01*
X1052703Y636778D01*
X1053329Y636789D01*
X1054266Y636806D01*
X1055203Y636824D01*
X1056139Y636842D01*
X1057075Y636860D01*
X1058010Y636879D01*
X1058945Y636898D01*
X1059879Y636917D01*
X1060812Y636937D01*
X1061745Y636957D01*
X1062367Y636971D01*
X1062988Y636985D01*
X1063609Y636999D01*
X1064230Y637013D01*
X1064850Y637027D01*
X1065471Y637042D01*
X1066090Y637056D01*
X1066710Y637071D01*
X1067330Y637086D01*
X1067949Y637101D01*
X1068567Y637116D01*
X1069186Y637131D01*
X1069804Y637146D01*
X1070422Y637162D01*
X1071040Y637177D01*
X1071657Y637193D01*
X1072274Y637209D01*
X1072891Y637225D01*
X1073507Y637241D01*
X1074124Y637257D01*
X1074739Y637274D01*
X1075355Y637290D01*
X1075970Y637307D01*
X1076585Y637324D01*
X1077200Y637341D01*
X1077814Y637358D01*
X1078428Y637375D01*
X1079042Y637392D01*
X1079655Y637409D01*
X1080268Y637426D01*
X1080881Y637444D01*
X1081494Y637461D01*
X1082106Y637479D01*
X1082718Y637497D01*
X1083329Y637515D01*
X1083940Y637533D01*
X1084551Y637551D01*
X1085161Y637569D01*
X1085772Y637587D01*
X1086381Y637605D01*
X1086991Y637624D01*
X1087600Y637642D01*
X1088209Y637661D01*
X1088817Y637679D01*
X1089425Y637698D01*
X1089729Y637707D01*
X1090033Y637717D01*
X1090337Y637726D01*
X1090640Y637736D01*
X1090944Y637745D01*
X1091247Y637754D01*
X1091551Y637764D01*
X1091854Y637773D01*
X1092157Y637783D01*
X1092461Y637792D01*
X1092764Y637802D01*
X1093067Y637812D01*
X1093369Y637821D01*
X1093672Y637831D01*
X1093975Y637840D01*
X1094277Y637850D01*
X1094580Y637859D01*
X1094882Y637869D01*
X1095185Y637879D01*
X1095487Y637888D01*
X1095789Y637898D01*
X1096091Y637908D01*
X1096393Y637918D01*
X1096695Y637927D01*
X1096997Y637937D01*
X1097299Y637947D01*
X1097600Y637956D01*
X1097902Y637966D01*
X1098203Y637976D01*
X1098504Y637986D01*
X1098806Y637995D01*
X1099107Y638005D01*
X1099408Y638015D01*
X1099709Y638025D01*
X1100009Y638035D01*
X1100310Y638044D01*
X1100611Y638054D01*
X1100911Y638064D01*
X1101212Y638074D01*
X1101512Y638084D01*
X1101812Y638094D01*
X1102113Y638103D01*
X1102413Y638113D01*
X1102713Y638123D01*
X1103013Y638133D01*
X1103312Y638143D01*
X1103612Y638153D01*
X1103912Y638163D01*
X1104211Y638173D01*
X1104511Y638183D01*
X1104810Y638193D01*
X1105109Y638202D01*
X1105408Y638212D01*
X1105707Y638222D01*
X1106006Y638232D01*
X1106305Y638242D01*
X1106604Y638252D01*
X1106902Y638262D01*
X1107201Y638272D01*
X1107499Y638282D01*
X1107798Y638292D01*
X1108096Y638302D01*
X1108394Y638312D01*
X1108692Y638321D01*
X1108990Y638331D01*
X1109288Y638341D01*
X1109585Y638351D01*
X1109883Y638361D01*
X1110180Y638371D01*
X1110478Y638381D01*
X1110775Y638391D01*
X1111072Y638401D01*
X1111370Y638411D01*
X1111666Y638421D01*
X1111963Y638431D01*
X1112260Y638440D01*
X1112557Y638450D01*
X1112853Y638460D01*
X1113150Y638470D01*
X1113446Y638480D01*
X1113743Y638490D01*
X1114039Y638500D01*
X1114335Y638510D01*
X1114631Y638519D01*
X1114927Y638529D01*
X1115222Y638539D01*
X1115518Y638549D01*
X1115813Y638559D01*
X1116109Y638569D01*
X1116404Y638578D01*
X1116699Y638588D01*
X1116994Y638598D01*
X1117289Y638608D01*
X1117584Y638618D01*
X1117879Y638627D01*
X1118174Y638637D01*
X1118468Y638647D01*
X1118763Y638657D01*
X1119057Y638666D01*
X1119351Y638676D01*
X1119645Y638686D01*
X1119940Y638695D01*
X1120233Y638705D01*
X1120527Y638715D01*
X1120821Y638724D01*
X1121114Y638734D01*
X1121408Y638744D01*
X1121701Y638753D01*
X1121994Y638763D01*
X1122288Y638772D01*
X1122581Y638782D01*
X1122873Y638792D01*
X1123166Y638801D01*
X1123459Y638811D01*
X1123752Y638820D01*
X1124044Y638830D01*
X1124336Y638839D01*
X1124629Y638848D01*
X1124921Y638858D01*
X1125213Y638867D01*
X1125504Y638877D01*
X1125796Y638886D01*
X1126088Y638896D01*
X1126379Y638905D01*
X1126671Y638914D01*
X1126962Y638924D01*
X1127253Y638933D01*
X1127544Y638942D01*
X1127835Y638951D01*
X1128126Y638961D01*
X1128708Y638979D01*
X1128998Y638988D01*
X1129289Y638997D01*
X1129579Y639007D01*
X1129869Y639016D01*
X1130159Y639025D01*
X1130449Y639034D01*
X1130739Y639043D01*
X1131028Y639052D01*
X1131318Y639061D01*
X1131607Y639070D01*
X1131897Y639079D01*
X1132186Y639088D01*
X1132475Y639097D01*
X1132764Y639106D01*
X1133053Y639114D01*
X1133342Y639123D01*
X1133630Y639132D01*
X1133919Y639141D01*
X1134207Y639150D01*
X1134495Y639158D01*
X1134783Y639167D01*
X1135071Y639176D01*
X1135359Y639184D01*
X1135647Y639193D01*
X1135935Y639201D01*
X1136222Y639210D01*
X1136509Y639218D01*
X1136797Y639227D01*
X1137084Y639235D01*
X1137371Y639244D01*
X1137658Y639252D01*
X1137944Y639260D01*
X1138231Y639269D01*
X1138518Y639277D01*
X1138804Y639285D01*
X1139090Y639294D01*
X1139376Y639302D01*
X1139662Y639310D01*
X1139948Y639318D01*
X1140234Y639326D01*
X1140520Y639334D01*
X1140805Y639342D01*
X1141091Y639350D01*
X1141376Y639358D01*
X1141661Y639366D01*
X1141946Y639374D01*
X1142231Y639382D01*
X1142516Y639390D01*
X1142800Y639398D01*
X1143085Y639405D01*
X1143369Y639413D01*
X1143653Y639421D01*
X1143937Y639428D01*
X1144221Y639436D01*
X1144505Y639443D01*
X1144789Y639451D01*
X1145073Y639458D01*
X1145356Y639466D01*
X1145639Y639473D01*
X1145922Y639481D01*
X1146206Y639488D01*
X1146488Y639495D01*
X1146771Y639502D01*
X1147054Y639509D01*
X1147619Y639524D01*
X1148183Y639538D01*
X1148747Y639552D01*
X1149311Y639565D01*
X1149874Y639579D01*
X1150436Y639592D01*
X1150998Y639605D01*
X1151559Y639618D01*
X1152119Y639631D01*
X1152680Y639643D01*
X1153239Y639656D01*
X1153798Y639668D01*
X1154357Y639680D01*
X1154915Y639692D01*
X1155472Y639703D01*
X1156029Y639714D01*
X1156585Y639726D01*
X1157141Y639737D01*
X1157696Y639747D01*
X1158251Y639758D01*
X1158805Y639768D01*
X1159358Y639778D01*
X1159911Y639787D01*
X1160463Y639797D01*
X1161015Y639806D01*
X1161566Y639815D01*
X1162117Y639824D01*
X1162667Y639833D01*
X1163216Y639841D01*
X1163765Y639849D01*
X1164314Y639857D01*
X1164861Y639864D01*
X1165408Y639872D01*
X1165955Y639879D01*
X1166501Y639885D01*
X1167046Y639892D01*
X1167591Y639898D01*
X1168135Y639904D01*
X1168679Y639910D01*
X1169222Y639915D01*
X1169764Y639920D01*
X1170306Y639925D01*
X1170847Y639929D01*
X1171388Y639933D01*
X1171928Y639937D01*
X1172467Y639941D01*
X1173006Y639944D01*
X1173544Y639947D01*
X1174081Y639950D01*
X1174618Y639952D01*
X1175155Y639955D01*
X1175690Y639956D01*
X1176225Y639958D01*
X1176760Y639959D01*
X1177293Y639960D01*
X1177827Y639960D01*
X1178359Y639960D01*
X1178891Y639960D01*
X1179422Y639960D01*
X1179953Y639959D01*
X1180483Y639958D01*
X1181012Y639956D01*
X1181541Y639955D01*
X1182069Y639952D01*
X1182596Y639950D01*
X1183123Y639947D01*
X1183649Y639944D01*
X1184175Y639940D01*
X1184700Y639936D01*
X1185224Y639932D01*
X1185747Y639927D01*
X1186270Y639922D01*
X1186792Y639917D01*
X1187314Y639911D01*
X1187835Y639905D01*
X1188355Y639898D01*
X1188875Y639891D01*
X1189394Y639884D01*
X1189912Y639876D01*
X1190429Y639868D01*
X1190946Y639859D01*
X1191462Y639851D01*
X1191978Y639841D01*
X1192493Y639831D01*
X1193007Y639821D01*
X1193520Y639811D01*
X1194033Y639800D01*
X1194545Y639789D01*
X1195057Y639777D01*
X1195567Y639765D01*
X1196077Y639752D01*
X1196841Y639732D01*
X1198173Y639480D01*
X1199498Y639222D01*
X1200816Y638960D01*
X1202127Y638694D01*
X1203432Y638422D01*
X1204731Y638146D01*
X1206022Y637865D01*
X1207307Y637579D01*
X1208585Y637289D01*
X1209857Y636993D01*
X1211121Y636693D01*
X1212380Y636389D01*
X1213631Y636079D01*
X1214876Y635765D01*
X1216114Y635446D01*
X1217346Y635122D01*
X1218571Y634794D01*
X1219789Y634461D01*
X1221000Y634123D01*
X1222205Y633780D01*
X1223403Y633433D01*
X1224594Y633081D01*
X1225779Y632724D01*
X1226957Y632362D01*
X1228129Y631996D01*
X1229293Y631625D01*
X1230451Y631249D01*
X1231603Y630868D01*
X1232747Y630483D01*
X1233885Y630093D01*
X1235017Y629698D01*
X1236141Y629298D01*
X1237259Y628894D01*
X1238371Y628485D01*
X1239476Y628071D01*
X1240574Y627653D01*
X1241665Y627230D01*
X1242749Y626802D01*
X1243827Y626369D01*
X1244899Y625932D01*
X1245963Y625489D01*
X1247021Y625042D01*
X1248073Y624591D01*
X1249117Y624134D01*
X1250155Y623673D01*
X1251186Y623207D01*
X1252211Y622737D01*
X1253229Y622261D01*
X1254240Y621781D01*
X1255244Y621296D01*
X1256242Y620807D01*
X1257234Y620312D01*
X1258218Y619813D01*
X1259196Y619309D01*
X1260167Y618801D01*
X1261324Y618184D01*
X1262471Y617561D01*
X1263608Y616931D01*
X1264736Y616294D01*
X1265854Y615650D01*
X1266962Y614999D01*
X1268061Y614341D01*
X1269151Y613677D01*
X1270230Y613006D01*
X1271300Y612328D01*
X1272361Y611643D01*
X1273412Y610952D01*
X1274625Y610136D01*
X1275826Y609311D01*
X1277014Y608477D01*
X1278189Y607634D01*
X1279350Y606781D01*
X1280499Y605919D01*
X1281795Y604922D01*
X1283074Y603914D01*
X1284337Y602893D01*
X1285736Y601730D01*
X1287115Y600552D01*
X1288620Y599225D01*
X1290099Y597878D01*
X1290099D02*
X1290099D01*
X1297360Y590573D02*
X1297360D01*
X1299833Y587775D02*
X1299833Y587775D01*
X1312059Y570575D02*
Y570575D01*
X1313888Y567320D02*
Y567320D01*
X1318320Y558244D02*
X1318320D01*
X1318320D02*
X1319108Y556407D01*
X1319794Y554737D01*
X1320458Y553052D01*
X1321101Y551352D01*
X1321654Y549827D01*
X1322190Y548290D01*
X1322709Y546742D01*
X1323149Y545377D01*
X1323576Y544002D01*
X1323990Y542619D01*
X1324391Y541226D01*
X1324779Y539823D01*
X1325154Y538412D01*
X1325464Y537194D01*
X1325766Y535970D01*
X1326057Y534739D01*
X1326339Y533502D01*
X1326611Y532257D01*
X1326874Y531006D01*
X1327127Y529747D01*
X1327371Y528482D01*
X1327605Y527210D01*
X1327829Y525932D01*
X1328043Y524646D01*
X1328215Y523570D01*
X1328380Y522488D01*
X1328538Y521402D01*
X1328690Y520312D01*
X1328835Y519216D01*
X1328973Y518116D01*
X1329104Y517011D01*
X1329229Y515901D01*
X1329347Y514787D01*
X1329459Y513668D01*
X1329563Y512544D01*
X1329661Y511415D01*
X1329753Y510282D01*
X1329838Y509143D01*
X1329916Y508001D01*
X1329987Y506853D01*
X1330052Y505700D01*
X1330110Y504543D01*
X1330161Y503382D01*
X1330206Y502215D01*
X1330244Y501044D01*
X1330276Y499868D01*
X1330300Y498687D01*
X1330318Y497501D01*
X1330330Y496311D01*
X1330334Y494876D01*
X1330274Y494458D02*
X1330334Y494876D01*
X1330214Y494040D02*
X1330274Y494458D01*
X1330153Y493623D02*
X1330214Y494040D01*
X1330092Y493207D02*
X1330153Y493623D01*
X1330031Y492792D02*
X1330092Y493207D01*
X1329968Y492378D02*
X1330031Y492792D01*
X1329906Y491964D02*
X1329968Y492378D01*
X1329843Y491552D02*
X1329906Y491964D01*
X1329715Y490729D02*
X1329843Y491552D01*
X1329586Y489909D02*
X1329715Y490729D01*
X1329455Y489093D02*
X1329586Y489909D01*
X1329322Y488279D02*
X1329455Y489093D01*
X1329187Y487470D02*
X1329322Y488279D01*
X1329051Y486663D02*
X1329187Y487470D01*
X1328912Y485860D02*
X1329051Y486663D01*
X1328771Y485060D02*
X1328912Y485860D01*
X1328629Y484263D02*
X1328771Y485060D01*
X1328484Y483470D02*
X1328629Y484263D01*
X1328337Y482679D02*
X1328484Y483470D01*
X1328188Y481892D02*
X1328337Y482679D01*
X1328037Y481109D02*
X1328188Y481892D01*
X1327884Y480328D02*
X1328037Y481109D01*
X1327729Y479551D02*
X1327884Y480328D01*
X1327572Y478777D02*
X1327729Y479551D01*
X1327413Y478007D02*
X1327572Y478777D01*
X1327251Y477239D02*
X1327413Y478007D01*
X1327087Y476475D02*
X1327251Y477239D01*
X1326921Y475714D02*
X1327087Y476475D01*
X1326753Y474957D02*
X1326921Y475714D01*
X1326583Y474202D02*
X1326753Y474957D01*
X1326410Y473451D02*
X1326583Y474202D01*
X1326234Y472703D02*
X1326410Y473451D01*
X1326057Y471958D02*
X1326234Y472703D01*
X1325877Y471217D02*
X1326057Y471958D01*
X1325695Y470479D02*
X1325877Y471217D01*
X1325510Y469744D02*
X1325695Y470479D01*
X1325323Y469012D02*
X1325510Y469744D01*
X1325133Y468283D02*
X1325323Y469012D01*
X1324941Y467558D02*
X1325133Y468283D01*
X1324747Y466836D02*
X1324941Y467558D01*
X1324550Y466117D02*
X1324747Y466836D01*
X1324350Y465402D02*
X1324550Y466117D01*
X1324148Y464689D02*
X1324350Y465402D01*
X1323944Y463980D02*
X1324148Y464689D01*
X1323736Y463274D02*
X1323944Y463980D01*
X1323526Y462571D02*
X1323736Y463274D01*
X1323314Y461871D02*
X1323526Y462571D01*
X1323099Y461175D02*
X1323314Y461871D01*
X1322881Y460482D02*
X1323099Y461175D01*
X1322661Y459792D02*
X1322881Y460482D01*
X1322438Y459105D02*
X1322661Y459792D01*
X1322212Y458421D02*
X1322438Y459105D01*
X1321984Y457741D02*
X1322212Y458421D01*
X1321752Y457063D02*
X1321984Y457741D01*
X1321519Y456389D02*
X1321752Y457063D01*
X1321282Y455718D02*
X1321519Y456389D01*
X1321042Y455051D02*
X1321282Y455718D01*
X1320800Y454386D02*
X1321042Y455051D01*
X1320555Y453724D02*
X1320800Y454386D01*
X1320307Y453066D02*
X1320555Y453724D01*
X1320056Y452411D02*
X1320307Y453066D01*
X1319802Y451759D02*
X1320056Y452411D01*
X1319545Y451110D02*
X1319802Y451759D01*
X1319286Y450465D02*
X1319545Y451110D01*
X1319023Y449822D02*
X1319286Y450465D01*
X1318758Y449183D02*
X1319023Y449822D01*
X1318489Y448547D02*
X1318758Y449183D01*
X1318218Y447913D02*
X1318489Y448547D01*
X1317944Y447283D02*
X1318218Y447913D01*
X1317526Y446344D02*
X1317944Y447283D01*
X1317102Y445412D02*
X1317526Y446344D01*
X1316671Y444487D02*
X1317102Y445412D01*
X1316233Y443569D02*
X1316671Y444487D01*
X1315788Y442658D02*
X1316233Y443569D01*
X1315336Y441754D02*
X1315788Y442658D01*
X1314877Y440857D02*
X1315336Y441754D01*
X1314411Y439967D02*
X1314877Y440857D01*
X1313937Y439084D02*
X1314411Y439967D01*
X1313457Y438207D02*
X1313937Y439084D01*
X1312969Y437338D02*
X1313457Y438207D01*
X1312474Y436476D02*
X1312969Y437338D01*
X1311802Y435336D02*
X1312474Y436476D01*
X1311117Y434209D02*
X1311802Y435336D01*
X1310419Y433094D02*
X1311117Y434209D01*
X1309707Y431992D02*
X1310419Y433094D01*
X1308799Y430630D02*
X1309707Y431992D01*
X1306140Y426919D02*
X1306140D01*
X1296416Y415971D02*
X1296417Y415971D01*
X1294738Y414401D02*
Y414401D01*
X1292259Y412218D02*
X1293510Y413300D01*
X1291241Y411364D02*
X1292259Y412218D01*
X1290208Y410522D02*
X1291241Y411364D01*
X1289160Y409691D02*
X1290208Y410522D01*
X1288096Y408872D02*
X1289160Y409691D01*
X1287017Y408063D02*
X1288096Y408872D01*
X1286198Y407464D02*
X1287017Y408063D01*
X1285370Y406871D02*
X1286198Y407464D01*
X1284533Y406284D02*
X1285370Y406871D01*
X1283688Y405704D02*
X1284533Y406284D01*
X1282834Y405130D02*
X1283688Y405704D01*
X1281971Y404561D02*
X1282834Y405130D01*
X1281099Y403999D02*
X1281971Y404561D01*
X1280218Y403443D02*
X1281099Y403999D01*
X1279329Y402893D02*
X1280218Y403443D01*
X1278431Y402350D02*
X1279329Y402893D01*
X1277524Y401812D02*
X1278431Y402350D01*
X1276608Y401280D02*
X1277524Y401812D01*
X1275992Y400929D02*
X1276608Y401280D01*
X1275373Y400580D02*
X1275992Y400929D01*
X1274749Y400234D02*
X1275373Y400580D01*
X1274122Y399891D02*
X1274749Y400234D01*
X1273491Y399551D02*
X1274122Y399891D01*
X1272855Y399213D02*
X1273491Y399551D01*
X1272216Y398877D02*
X1272855Y399213D01*
X1271573Y398545D02*
X1272216Y398877D01*
X1270925Y398214D02*
X1271573Y398545D01*
X1270274Y397887D02*
X1270925Y398214D01*
X1269619Y397562D02*
X1270274Y397887D01*
X1268960Y397240D02*
X1269619Y397562D01*
X1268297Y396920D02*
X1268960Y397240D01*
X1267630Y396603D02*
X1268297Y396920D01*
X1266959Y396288D02*
X1267630Y396603D01*
X1266283Y395976D02*
X1266959Y396288D01*
X1265604Y395667D02*
X1266283Y395976D01*
X1264921Y395360D02*
X1265604Y395667D01*
X1264234Y395056D02*
X1264921Y395360D01*
X1263543Y394754D02*
X1264234Y395056D01*
X1262848Y394455D02*
X1263543Y394754D01*
X1262149Y394158D02*
X1262848Y394455D01*
X1261446Y393864D02*
X1262149Y394158D01*
X1260739Y393572D02*
X1261446Y393864D01*
X1260028Y393283D02*
X1260739Y393572D01*
X1259313Y392996D02*
X1260028Y393283D01*
X1258594Y392712D02*
X1259313Y392996D01*
X1257871Y392430D02*
X1258594Y392712D01*
X1257144Y392151D02*
X1257871Y392430D01*
X1256413Y391874D02*
X1257144Y392151D01*
X1255678Y391599D02*
X1256413Y391874D01*
X1254939Y391328D02*
X1255678Y391599D01*
X1254196Y391058D02*
X1254939Y391328D01*
X1253449Y390791D02*
X1254196Y391058D01*
X1252698Y390527D02*
X1253449Y390791D01*
X1251943Y390265D02*
X1252698Y390527D01*
X1251184Y390005D02*
X1251943Y390265D01*
X1250420Y389747D02*
X1251184Y390005D01*
X1249653Y389493D02*
X1250420Y389747D01*
X1248882Y389240D02*
X1249653Y389493D01*
X1248107Y388990D02*
X1248882Y389240D01*
X1247328Y388742D02*
X1248107Y388990D01*
X1246545Y388497D02*
X1247328Y388742D01*
X1245758Y388254D02*
X1246545Y388497D01*
X1244967Y388013D02*
X1245758Y388254D01*
X1244172Y387775D02*
X1244967Y388013D01*
X1243373Y387539D02*
X1244172Y387775D01*
X1242570Y387305D02*
X1243373Y387539D01*
X1241763Y387074D02*
X1242570Y387305D01*
X1240952Y386845D02*
X1241763Y387074D01*
X1240137Y386618D02*
X1240952Y386845D01*
X1239318Y386394D02*
X1240137Y386618D01*
X1238496Y386172D02*
X1239318Y386394D01*
X1237669Y385952D02*
X1238496Y386172D01*
X1236838Y385734D02*
X1237669Y385952D01*
X1236003Y385519D02*
X1236838Y385734D01*
X1235165Y385306D02*
X1236003Y385519D01*
X1234322Y385095D02*
X1235165Y385306D01*
X1233475Y384887D02*
X1234322Y385095D01*
X1232625Y384681D02*
X1233475Y384887D01*
X1231770Y384477D02*
X1232625Y384681D01*
X1230912Y384275D02*
X1231770Y384477D01*
X1230049Y384075D02*
X1230912Y384275D01*
X1229183Y383878D02*
X1230049Y384075D01*
X1228312Y383683D02*
X1229183Y383878D01*
X1227438Y383490D02*
X1228312Y383683D01*
X1226560Y383299D02*
X1227438Y383490D01*
X1225678Y383110D02*
X1226560Y383299D01*
X1224792Y382924D02*
X1225678Y383110D01*
X1223902Y382740D02*
X1224792Y382924D01*
X1223008Y382557D02*
X1223902Y382740D01*
X1222111Y382377D02*
X1223008Y382557D01*
X1221209Y382200D02*
X1222111Y382377D01*
X1220304Y382024D02*
X1221209Y382200D01*
X1219394Y381850D02*
X1220304Y382024D01*
X1218481Y381679D02*
X1219394Y381850D01*
X1217564Y381509D02*
X1218481Y381679D01*
X1216643Y381342D02*
X1217564Y381509D01*
X1215718Y381176D02*
X1216643Y381342D01*
X1214790Y381013D02*
X1215718Y381176D01*
X1213857Y380852D02*
X1214790Y381013D01*
X1212921Y380693D02*
X1213857Y380852D01*
X1211981Y380536D02*
X1212921Y380693D01*
X1211037Y380381D02*
X1211981Y380536D01*
X1210089Y380228D02*
X1211037Y380381D01*
X1209137Y380077D02*
X1210089Y380228D01*
X1208182Y379928D02*
X1209137Y380077D01*
X1207223Y379781D02*
X1208182Y379928D01*
X1206260Y379636D02*
X1207223Y379781D01*
X1205293Y379493D02*
X1206260Y379636D01*
X1204322Y379352D02*
X1205293Y379493D01*
X1203348Y379213D02*
X1204322Y379352D01*
X1202370Y379075D02*
X1203348Y379213D01*
X1201388Y378940D02*
X1202370Y379075D01*
X1200402Y378807D02*
X1201388Y378940D01*
X1199413Y378676D02*
X1200402Y378807D01*
X1198420Y378546D02*
X1199413Y378676D01*
X1197423Y378419D02*
X1198420Y378546D01*
X1196422Y378293D02*
X1197423Y378419D01*
X1195418Y378169D02*
X1196422Y378293D01*
X1194410Y378048D02*
X1195418Y378169D01*
X1193399Y377928D02*
X1194410Y378048D01*
X1192383Y377810D02*
X1193399Y377928D01*
X1191364Y377693D02*
X1192383Y377810D01*
X1190342Y377579D02*
X1191364Y377693D01*
X1189316Y377467D02*
X1190342Y377579D01*
X1188286Y377356D02*
X1189316Y377467D01*
X1187252Y377247D02*
X1188286Y377356D01*
X1186215Y377140D02*
X1187252Y377247D01*
X1185174Y377034D02*
X1186215Y377140D01*
X1184130Y376931D02*
X1185174Y377034D01*
X1183082Y376829D02*
X1184130Y376931D01*
X1182031Y376729D02*
X1183082Y376829D01*
X1180976Y376631D02*
X1182031Y376729D01*
X1179917Y376534D02*
X1180976Y376631D01*
X1178855Y376439D02*
X1179917Y376534D01*
X1177789Y376346D02*
X1178855Y376439D01*
X1176720Y376255D02*
X1177789Y376346D01*
X1175647Y376166D02*
X1176720Y376255D01*
X1174571Y376078D02*
X1175647Y376166D01*
X1173491Y375991D02*
X1174571Y376078D01*
X1172408Y375907D02*
X1173491Y375991D01*
X1171321Y375824D02*
X1172408Y375907D01*
X1170231Y375743D02*
X1171321Y375824D01*
X1169138Y375663D02*
X1170231Y375743D01*
X1168040Y375585D02*
X1169138Y375663D01*
X1166940Y375509D02*
X1168040Y375585D01*
X1165836Y375434D02*
X1166940Y375509D01*
X1164729Y375361D02*
X1165836Y375434D01*
X1163618Y375290D02*
X1164729Y375361D01*
X1162504Y375220D02*
X1163618Y375290D01*
X1161387Y375151D02*
X1162504Y375220D01*
X1160266Y375084D02*
X1161387Y375151D01*
X1159142Y375019D02*
X1160266Y375084D01*
X1158014Y374956D02*
X1159142Y375019D01*
X1156884Y374893D02*
X1158014Y374956D01*
X1155750Y374833D02*
X1156884Y374893D01*
X1154613Y374774D02*
X1155750Y374833D01*
X1153472Y374716D02*
X1154613Y374774D01*
X1152328Y374660D02*
X1153472Y374716D01*
X1151181Y374605D02*
X1152328Y374660D01*
X1150031Y374552D02*
X1151181Y374605D01*
X1148878Y374500D02*
X1150031Y374552D01*
X1147721Y374450D02*
X1148878Y374500D01*
X1146561Y374401D02*
X1147721Y374450D01*
X1145398Y374354D02*
X1146561Y374401D01*
X1144232Y374308D02*
X1145398Y374354D01*
X1143063Y374264D02*
X1144232Y374308D01*
X1141890Y374220D02*
X1143063Y374264D01*
X1140715Y374179D02*
X1141890Y374220D01*
X1139536Y374138D02*
X1140715Y374179D01*
X1138355Y374099D02*
X1139536Y374138D01*
X1137170Y374061D02*
X1138355Y374099D01*
X1135982Y374025D02*
X1137170Y374061D01*
X1134791Y373990D02*
X1135982Y374025D01*
X1133597Y373956D02*
X1134791Y373990D01*
X1132401Y373924D02*
X1133597Y373956D01*
X1131201Y373893D02*
X1132401Y373924D01*
X1129998Y373863D02*
X1131201Y373893D01*
X1128792Y373835D02*
X1129998Y373863D01*
X1127583Y373807D02*
X1128792Y373835D01*
X1126372Y373781D02*
X1127583Y373807D01*
X1125157Y373757D02*
X1126372Y373781D01*
X1123940Y373733D02*
X1125157Y373757D01*
X1122719Y373711D02*
X1123940Y373733D01*
X1121496Y373690D02*
X1122719Y373711D01*
X1120270Y373670D02*
X1121496Y373690D01*
X1119042Y373651D02*
X1120270Y373670D01*
X1117810Y373633D02*
X1119042Y373651D01*
X1116576Y373617D02*
X1117810Y373633D01*
X1115339Y373602D02*
X1116576Y373617D01*
X1114099Y373588D02*
X1115339Y373602D01*
X1112856Y373575D02*
X1114099Y373588D01*
X1111611Y373563D02*
X1112856Y373575D01*
X1110363Y373552D02*
X1111611Y373563D01*
X1109112Y373542D02*
X1110363Y373552D01*
X1107859Y373534D02*
X1109112Y373542D01*
X1106603Y373526D02*
X1107859Y373534D01*
X1105345Y373520D02*
X1106603Y373526D01*
X1104084Y373514D02*
X1105345Y373520D01*
X1102820Y373510D02*
X1104084Y373514D01*
X1101554Y373507D02*
X1102820Y373510D01*
X1100285Y373504D02*
X1101554Y373507D01*
X1099013Y373503D02*
X1100285Y373504D01*
X1097739Y373503D02*
X1099013Y373503D01*
X1096463Y373503D02*
X1097739Y373503D01*
X1095184Y373505D02*
X1096463Y373503D01*
X1093903Y373507D02*
X1095184Y373505D01*
X1092619Y373511D02*
X1093903Y373507D01*
X1091333Y373515D02*
X1092619Y373511D01*
X1090045Y373521D02*
X1091333Y373515D01*
X1088754Y373527D02*
X1090045Y373521D01*
X1087461Y373534D02*
X1088754Y373527D01*
X1086165Y373542D02*
X1087461Y373534D01*
X1084867Y373551D02*
X1086165Y373542D01*
X1084217Y373556D02*
X1084867Y373551D01*
X1083567Y373561D02*
X1084217Y373556D01*
X1082916Y373566D02*
X1083567Y373561D01*
X1082265Y373571D02*
X1082916Y373566D01*
X1081613Y373577D02*
X1082265Y373571D01*
X1080960Y373583D02*
X1081613Y373577D01*
X1080307Y373588D02*
X1080960Y373583D01*
X1079653Y373595D02*
X1080307Y373588D01*
X1078999Y373601D02*
X1079653Y373595D01*
X1078344Y373608D02*
X1078999Y373601D01*
X1077689Y373615D02*
X1078344Y373608D01*
X1077033Y373622D02*
X1077689Y373615D01*
X1076377Y373629D02*
X1077033Y373622D01*
X1075720Y373636D02*
X1076377Y373629D01*
X1075062Y373644D02*
X1075720Y373636D01*
X1074404Y373652D02*
X1075062Y373644D01*
X1073746Y373659D02*
X1074404Y373652D01*
X1073087Y373668D02*
X1073746Y373659D01*
X1072427Y373676D02*
X1073087Y373668D01*
X1071767Y373685D02*
X1072427Y373676D01*
X1071107Y373693D02*
X1071767Y373685D01*
X1070445Y373702D02*
X1071107Y373693D01*
X1069784Y373711D02*
X1070445Y373702D01*
X1069122Y373720D02*
X1069784Y373711D01*
X1068459Y373730D02*
X1069122Y373720D01*
X1067796Y373739D02*
X1068459Y373730D01*
X1067132Y373749D02*
X1067796Y373739D01*
X1066468Y373759D02*
X1067132Y373749D01*
X1065804Y373769D02*
X1066468Y373759D01*
X1065138Y373779D02*
X1065804Y373769D01*
X1064473Y373790D02*
X1065138Y373779D01*
X1063807Y373800D02*
X1064473Y373790D01*
X1063140Y373811D02*
X1063807Y373800D01*
X1062473Y373822D02*
X1063140Y373811D01*
X1061806Y373833D02*
X1062473Y373822D01*
X1061138Y373845D02*
X1061806Y373833D01*
X1060469Y373856D02*
X1061138Y373845D01*
X1059800Y373868D02*
X1060469Y373856D01*
X1059131Y373879D02*
X1059800Y373868D01*
X1058461Y373891D02*
X1059131Y373879D01*
X1057791Y373903D02*
X1058461Y373891D01*
X1057120Y373915D02*
X1057791Y373903D01*
X1056448Y373928D02*
X1057120Y373915D01*
X1055777Y373940D02*
X1056448Y373928D01*
X1055105Y373953D02*
X1055777Y373940D01*
X1054432Y373966D02*
X1055105Y373953D01*
X1053759Y373978D02*
X1054432Y373966D01*
X1053086Y373991D02*
X1053759Y373978D01*
X1052412Y374005D02*
X1053086Y373991D01*
X1051737Y374018D02*
X1052412Y374005D01*
X1051062Y374031D02*
X1051737Y374018D01*
X1050387Y374045D02*
X1051062Y374031D01*
X1049712Y374059D02*
X1050387Y374045D01*
X1049036Y374073D02*
X1049712Y374059D01*
X1048359Y374086D02*
X1049036Y374073D01*
X1047682Y374101D02*
X1048359Y374086D01*
X1047005Y374115D02*
X1047682Y374101D01*
X1046327Y374129D02*
X1047005Y374115D01*
X1045649Y374144D02*
X1046327Y374129D01*
X1044971Y374158D02*
X1045649Y374144D01*
X1044292Y374173D02*
X1044971Y374158D01*
X1043612Y374188D02*
X1044292Y374173D01*
X1042933Y374203D02*
X1043612Y374188D01*
X1042253Y374218D02*
X1042933Y374203D01*
X1041572Y374233D02*
X1042253Y374218D01*
X1040891Y374248D02*
X1041572Y374233D01*
X1040210Y374264D02*
X1040891Y374248D01*
X1039528Y374279D02*
X1040210Y374264D01*
X1038846Y374295D02*
X1039528Y374279D01*
X1038164Y374310D02*
X1038846Y374295D01*
X1037481Y374326D02*
X1038164Y374310D01*
X1036798Y374342D02*
X1037481Y374326D01*
X1036115Y374358D02*
X1036798Y374342D01*
X1035431Y374374D02*
X1036115Y374358D01*
X1034747Y374390D02*
X1035431Y374374D01*
X1034062Y374407D02*
X1034747Y374390D01*
X1033377Y374423D02*
X1034062Y374407D01*
X1032692Y374440D02*
X1033377Y374423D01*
X1032007Y374456D02*
X1032692Y374440D01*
X1031321Y374473D02*
X1032007Y374456D01*
X1030635Y374489D02*
X1031321Y374473D01*
X1029948Y374506D02*
X1030635Y374489D01*
X1029261Y374523D02*
X1029948Y374506D01*
X1028574Y374540D02*
X1029261Y374523D01*
X1027887Y374557D02*
X1028574Y374540D01*
X1027199Y374574D02*
X1027887Y374557D01*
X1026511Y374591D02*
X1027199Y374574D01*
X1025822Y374609D02*
X1026511Y374591D01*
X1025133Y374626D02*
X1025822Y374609D01*
X1024444Y374643D02*
X1025133Y374626D01*
X1023755Y374661D02*
X1024444Y374643D01*
X1023065Y374678D02*
X1023755Y374661D01*
X1022375Y374696D02*
X1023065Y374678D01*
X1021685Y374714D02*
X1022375Y374696D01*
X1020994Y374732D02*
X1021685Y374714D01*
X1020304Y374749D02*
X1020994Y374732D01*
X1019612Y374767D02*
X1020304Y374749D01*
X1018921Y374785D02*
X1019612Y374767D01*
X1018229Y374803D02*
X1018921Y374785D01*
X1017537Y374821D02*
X1018229Y374803D01*
X1016845Y374839D02*
X1017537Y374821D01*
X1016153Y374857D02*
X1016845Y374839D01*
X1015460Y374876D02*
X1016153Y374857D01*
X1014767Y374894D02*
X1015460Y374876D01*
X1014074Y374912D02*
X1014767Y374894D01*
X1013380Y374930D02*
X1014074Y374912D01*
X1012686Y374949D02*
X1013380Y374930D01*
X1011992Y374967D02*
X1012686Y374949D01*
X1011298Y374986D02*
X1011992Y374967D01*
X1010603Y375004D02*
X1011298Y374986D01*
X1009909Y375023D02*
X1010603Y375004D01*
X1009214Y375041D02*
X1009909Y375023D01*
X1008518Y375060D02*
X1009214Y375041D01*
X1007823Y375078D02*
X1008518Y375060D01*
X1007127Y375097D02*
X1007823Y375078D01*
X1006431Y375115D02*
X1007127Y375097D01*
X1005735Y375134D02*
X1006431Y375115D01*
X1005039Y375153D02*
X1005735Y375134D01*
X1004343Y375172D02*
X1005039Y375153D01*
X1003646Y375190D02*
X1004343Y375172D01*
X1002949Y375209D02*
X1003646Y375190D01*
X1002252Y375228D02*
X1002949Y375209D01*
X1001554Y375247D02*
X1002252Y375228D01*
X1000857Y375265D02*
X1001554Y375247D01*
X1000159Y375284D02*
X1000857Y375265D01*
X999461Y375303D02*
X1000159Y375284D01*
X998763Y375322D02*
X999461Y375303D01*
X998065Y375341D02*
X998763Y375322D01*
X997367Y375359D02*
X998065Y375341D01*
X996668Y375378D02*
X997367Y375359D01*
X995970Y375397D02*
X996668Y375378D01*
X995271Y375416D02*
X995970Y375397D01*
X994572Y375435D02*
X995271Y375416D01*
X993873Y375453D02*
X994572Y375435D01*
X993173Y375472D02*
X993873Y375453D01*
X992474Y375491D02*
X993173Y375472D01*
X991774Y375510D02*
X992474Y375491D01*
X991075Y375529D02*
X991774Y375510D01*
X990375Y375547D02*
X991075Y375529D01*
X989675Y375566D02*
X990375Y375547D01*
X988975Y375585D02*
X989675Y375566D01*
X988274Y375604D02*
X988975Y375585D01*
X987574Y375622D02*
X988274Y375604D01*
X986874Y375641D02*
X987574Y375622D01*
X986173Y375659D02*
X986874Y375641D01*
X985472Y375678D02*
X986173Y375659D01*
X984772Y375696D02*
X985472Y375678D01*
X984071Y375715D02*
X984772Y375696D01*
X983370Y375733D02*
X984071Y375715D01*
X982668Y375752D02*
X983370Y375733D01*
X981967Y375770D02*
X982668Y375752D01*
X981266Y375789D02*
X981967Y375770D01*
X980565Y375807D02*
X981266Y375789D01*
X979863Y375825D02*
X980565Y375807D01*
X979162Y375844D02*
X979863Y375825D01*
X978460Y375862D02*
X979162Y375844D01*
X977759Y375880D02*
X978460Y375862D01*
X977057Y375898D02*
X977759Y375880D01*
X976355Y375916D02*
X977057Y375898D01*
X975653Y375934D02*
X976355Y375916D01*
X974952Y375952D02*
X975653Y375934D01*
X974250Y375970D02*
X974952Y375952D01*
X973548Y375988D02*
X974250Y375970D01*
X972846Y376006D02*
X973548Y375988D01*
X972144Y376023D02*
X972846Y376006D01*
X971442Y376041D02*
X972144Y376023D01*
X970740Y376059D02*
X971442Y376041D01*
X970037Y376076D02*
X970740Y376059D01*
X969335Y376094D02*
X970037Y376076D01*
X968633Y376111D02*
X969335Y376094D01*
X967931Y376128D02*
X968633Y376111D01*
X967229Y376145D02*
X967931Y376128D01*
X966527Y376163D02*
X967229Y376145D01*
X965825Y376180D02*
X966527Y376163D01*
X965122Y376197D02*
X965825Y376180D01*
X964420Y376214D02*
X965122Y376197D01*
X963718Y376230D02*
X964420Y376214D01*
X963016Y376247D02*
X963718Y376230D01*
X962314Y376264D02*
X963016Y376247D01*
X961612Y376280D02*
X962314Y376264D01*
X960910Y376297D02*
X961612Y376280D01*
X960208Y376313D02*
X960910Y376297D01*
X959506Y376329D02*
X960208Y376313D01*
X958804Y376346D02*
X959506Y376329D01*
X958102Y376362D02*
X958804Y376346D01*
X957400Y376378D02*
X958102Y376362D01*
X956698Y376394D02*
X957400Y376378D01*
X955997Y376409D02*
X956698Y376394D01*
X955295Y376425D02*
X955997Y376409D01*
X954593Y376441D02*
X955295Y376425D01*
X953892Y376456D02*
X954593Y376441D01*
X953190Y376471D02*
X953892Y376456D01*
X952489Y376486D02*
X953190Y376471D01*
X951787Y376502D02*
X952489Y376486D01*
X951086Y376517D02*
X951787Y376502D01*
X950385Y376531D02*
X951086Y376517D01*
X949684Y376546D02*
X950385Y376531D01*
X948983Y376561D02*
X949684Y376546D01*
X948282Y376575D02*
X948983Y376561D01*
X947582Y376590D02*
X948282Y376575D01*
X946881Y376604D02*
X947582Y376590D01*
X946181Y376618D02*
X946881Y376604D01*
X945480Y376632D02*
X946181Y376618D01*
X944780Y376646D02*
X945480Y376632D01*
X944080Y376659D02*
X944780Y376646D01*
X943380Y376673D02*
X944080Y376659D01*
X942680Y376686D02*
X943380Y376673D01*
X941980Y376700D02*
X942680Y376686D01*
X941281Y376713D02*
X941980Y376700D01*
X940581Y376726D02*
X941281Y376713D01*
X939882Y376739D02*
X940581Y376726D01*
X939183Y376751D02*
X939882Y376739D01*
X938484Y376764D02*
X939183Y376751D01*
X937785Y376776D02*
X938484Y376764D01*
X937087Y376788D02*
X937785Y376776D01*
X936388Y376800D02*
X937087Y376788D01*
X935690Y376812D02*
X936388Y376800D01*
X934992Y376824D02*
X935690Y376812D01*
X934294Y376835D02*
X934992Y376824D01*
X933597Y376847D02*
X934294Y376835D01*
X932899Y376858D02*
X933597Y376847D01*
X932202Y376869D02*
X932899Y376858D01*
X931505Y376880D02*
X932202Y376869D01*
X930808Y376891D02*
X931505Y376880D01*
X930111Y376901D02*
X930808Y376891D01*
X929415Y376912D02*
X930111Y376901D01*
X928719Y376922D02*
X929415Y376912D01*
X928023Y376932D02*
X928719Y376922D01*
X927327Y376942D02*
X928023Y376932D01*
X926631Y376951D02*
X927327Y376942D01*
X925936Y376961D02*
X926631Y376951D01*
X925241Y376970D02*
X925936Y376961D01*
X924546Y376979D02*
X925241Y376970D01*
X923852Y376988D02*
X924546Y376979D01*
X923157Y376997D02*
X923852Y376988D01*
X922463Y377005D02*
X923157Y376997D01*
X921770Y377013D02*
X922463Y377005D01*
X921076Y377021D02*
X921770Y377013D01*
X920383Y377029D02*
X921076Y377021D01*
X919690Y377037D02*
X920383Y377029D01*
X918997Y377044D02*
X919690Y377037D01*
X918305Y377052D02*
X918997Y377044D01*
X917613Y377059D02*
X918305Y377052D01*
X916921Y377065D02*
X917613Y377059D01*
X916230Y377072D02*
X916921Y377065D01*
X915539Y377079D02*
X916230Y377072D01*
X914848Y377085D02*
X915539Y377079D01*
X914157Y377091D02*
X914848Y377085D01*
X913467Y377096D02*
X914157Y377091D01*
X912777Y377102D02*
X913467Y377096D01*
X912088Y377107D02*
X912777Y377102D01*
X911399Y377112D02*
X912088Y377107D01*
X910710Y377117D02*
X911399Y377112D01*
X910021Y377121D02*
X910710Y377117D01*
X908645Y377130D02*
X910021Y377121D01*
X907271Y377137D02*
X908645Y377130D01*
X905898Y377144D02*
X907271Y377137D01*
X904526Y377149D02*
X905898Y377144D01*
X903156Y377154D02*
X904526Y377149D01*
X901788Y377157D02*
X903156Y377154D01*
X900421Y377160D02*
X901788Y377157D01*
X899056Y377161D02*
X900421Y377160D01*
X897693Y377162D02*
X899056Y377161D01*
X896331Y377161D02*
X897693Y377162D01*
X894971Y377159D02*
X896331Y377161D01*
X893613Y377156D02*
X894971Y377159D01*
X892257Y377152D02*
X893613Y377156D01*
X890903Y377147D02*
X892257Y377152D01*
X889550Y377140D02*
X890903Y377147D01*
X888200Y377132D02*
X889550Y377140D01*
X886851Y377123D02*
X888200Y377132D01*
X884833Y377108D02*
X886851Y377123D01*
X884450Y377018D02*
X884833Y377108D01*
X884066Y376927D02*
X884450Y377018D01*
X883681Y376837D02*
X884066Y376927D01*
X883294Y376746D02*
X883681Y376837D01*
X882907Y376655D02*
X883294Y376746D01*
X882519Y376564D02*
X882907Y376655D01*
X882130Y376472D02*
X882519Y376564D01*
X881739Y376380D02*
X882130Y376472D01*
X881348Y376289D02*
X881739Y376380D01*
X880956Y376196D02*
X881348Y376289D01*
X880562Y376104D02*
X880956Y376196D01*
X880168Y376011D02*
X880562Y376104D01*
X879772Y375919D02*
X880168Y376011D01*
X879376Y375826D02*
X879772Y375919D01*
X878978Y375732D02*
X879376Y375826D01*
X878580Y375639D02*
X878978Y375732D01*
X878180Y375545D02*
X878580Y375639D01*
X877780Y375451D02*
X878180Y375545D01*
X877378Y375357D02*
X877780Y375451D01*
X876976Y375263D02*
X877378Y375357D01*
X876573Y375169D02*
X876976Y375263D01*
X876168Y375074D02*
X876573Y375169D01*
X875763Y374979D02*
X876168Y375074D01*
X875356Y374884D02*
X875763Y374979D01*
X874949Y374789D02*
X875356Y374884D01*
X874540Y374693D02*
X874949Y374789D01*
X874131Y374598D02*
X874540Y374693D01*
X873721Y374502D02*
X874131Y374598D01*
X873310Y374406D02*
X873721Y374502D01*
X872897Y374310D02*
X873310Y374406D01*
X872484Y374214D02*
X872897Y374310D01*
X872070Y374117D02*
X872484Y374214D01*
X871655Y374020D02*
X872070Y374117D01*
X871239Y373923D02*
X871655Y374020D01*
X870822Y373826D02*
X871239Y373923D01*
X870404Y373729D02*
X870822Y373826D01*
X869985Y373632D02*
X870404Y373729D01*
X869566Y373534D02*
X869985Y373632D01*
X869145Y373437D02*
X869566Y373534D01*
X868723Y373339D02*
X869145Y373437D01*
X868301Y373241D02*
X868723Y373339D01*
X867877Y373143D02*
X868301Y373241D01*
X867453Y373044D02*
X867877Y373143D01*
X867028Y372946D02*
X867453Y373044D01*
X866601Y372847D02*
X867028Y372946D01*
X866174Y372748D02*
X866601Y372847D01*
X865746Y372650D02*
X866174Y372748D01*
X865318Y372551D02*
X865746Y372650D01*
X864888Y372451D02*
X865318Y372551D01*
X864457Y372352D02*
X864888Y372451D01*
X864025Y372252D02*
X864457Y372352D01*
X863593Y372153D02*
X864025Y372252D01*
X863160Y372053D02*
X863593Y372153D01*
X862726Y371953D02*
X863160Y372053D01*
X862290Y371853D02*
X862726Y371953D01*
X861854Y371753D02*
X862290Y371853D01*
X861418Y371653D02*
X861854Y371753D01*
X860980Y371552D02*
X861418Y371653D01*
X860542Y371452D02*
X860980Y371552D01*
X860102Y371351D02*
X860542Y371452D01*
X859662Y371251D02*
X860102Y371351D01*
X858779Y371049D02*
X859662Y371251D01*
X857892Y370847D02*
X858779Y371049D01*
X857003Y370644D02*
X857892Y370847D01*
X856110Y370441D02*
X857003Y370644D01*
X855213Y370237D02*
X856110Y370441D01*
X854313Y370033D02*
X855213Y370237D01*
X853410Y369829D02*
X854313Y370033D01*
X852504Y369624D02*
X853410Y369829D01*
X851594Y369419D02*
X852504Y369624D01*
X850682Y369214D02*
X851594Y369419D01*
X849766Y369008D02*
X850682Y369214D01*
X848847Y368802D02*
X849766Y369008D01*
X847924Y368596D02*
X848847Y368802D01*
X846999Y368389D02*
X847924Y368596D01*
X846070Y368182D02*
X846999Y368389D01*
X845138Y367975D02*
X846070Y368182D01*
X844203Y367768D02*
X845138Y367975D01*
X843265Y367561D02*
X844203Y367768D01*
X842324Y367353D02*
X843265Y367561D01*
X841380Y367145D02*
X842324Y367353D01*
X840433Y366937D02*
X841380Y367145D01*
X839483Y366728D02*
X840433Y366937D01*
X838530Y366520D02*
X839483Y366728D01*
X837574Y366312D02*
X838530Y366520D01*
X836614Y366103D02*
X837574Y366312D01*
X835652Y365894D02*
X836614Y366103D01*
X834204Y365581D02*
X835652Y365894D01*
X832749Y365267D02*
X834204Y365581D01*
X831287Y364953D02*
X832749Y365267D01*
X829819Y364640D02*
X831287Y364953D01*
X828345Y364326D02*
X829819Y364640D01*
X826865Y364012D02*
X828345Y364326D01*
X825378Y363699D02*
X826865Y364012D01*
X823885Y363385D02*
X825378Y363699D01*
X822386Y363071D02*
X823885Y363385D01*
X820880Y362758D02*
X822386Y363071D01*
X819369Y362445D02*
X820880Y362758D01*
X817851Y362133D02*
X819369Y362445D01*
X816328Y361820D02*
X817851Y362133D01*
X814798Y361508D02*
X816328Y361820D01*
X813262Y361196D02*
X814798Y361508D01*
X811721Y360885D02*
X813262Y361196D01*
X810174Y360574D02*
X811721Y360885D01*
X808101Y360161D02*
X810174Y360574D01*
X806019Y359749D02*
X808101Y360161D01*
X803926Y359337D02*
X806019Y359749D01*
X801824Y358927D02*
X803926Y359337D01*
X799711Y358519D02*
X801824Y358927D01*
X797588Y358111D02*
X799711Y358519D01*
X795456Y357706D02*
X797588Y358111D01*
X793313Y357302D02*
X795456Y357706D01*
X791161Y356899D02*
X793313Y357302D01*
X788999Y356499D02*
X791161Y356899D01*
X786828Y356100D02*
X788999Y356499D01*
X784100Y355605D02*
X786828Y356100D01*
X781357Y355113D02*
X784100Y355605D01*
X778600Y354625D02*
X781357Y355113D01*
X775828Y354140D02*
X778600Y354625D01*
X773042Y353659D02*
X775828Y354140D01*
X770241Y353182D02*
X773042Y353659D01*
X767426Y352710D02*
X770241Y353182D01*
X764597Y352242D02*
X767426Y352710D01*
X761183Y351686D02*
X764597Y352242D01*
X757749Y351137D02*
X761183Y351686D01*
X754295Y350596D02*
X757749Y351137D01*
X750822Y350062D02*
X754295Y350596D01*
X747328Y349537D02*
X750822Y350062D01*
X743815Y349019D02*
X747328Y349537D01*
X740283Y348510D02*
X743815Y349019D01*
X736731Y348010D02*
X740283Y348510D01*
X732564Y347438D02*
X736731Y348010D01*
X728370Y346879D02*
X732564Y347438D01*
X724151Y346333D02*
X728370Y346879D01*
X719907Y345801D02*
X724151Y346333D01*
X715637Y345284D02*
X719907Y345801D01*
X710727Y344711D02*
X715637Y345284D01*
X705785Y344159D02*
X710727Y344711D01*
X700812Y343627D02*
X705785Y344159D01*
X695807Y343117D02*
X700812Y343627D01*
X690770Y342630D02*
X695807Y343117D01*
X685703Y342166D02*
X690770Y342630D01*
X680606Y341725D02*
X685703Y342166D01*
X675479Y341310D02*
X680606Y341725D01*
X670323Y340920D02*
X675479Y341310D01*
X665138Y340556D02*
X670323Y340920D01*
X659926Y340220D02*
X665138Y340556D01*
X654686Y339912D02*
X659926Y340220D01*
X649419Y339632D02*
X654686Y339912D01*
X644789Y339411D02*
X649419Y339632D01*
X640139Y339214D02*
X644789Y339411D01*
X635469Y339040D02*
X640139Y339214D01*
X630782Y338891D02*
X635469Y339040D01*
X626077Y338767D02*
X630782Y338891D01*
X621354Y338668D02*
X626077Y338767D01*
X616615Y338596D02*
X621354Y338668D01*
X611860Y338550D02*
X616615Y338596D01*
X607771Y338532D02*
X611860Y338550D01*
X603672Y338535D02*
X607771Y338532D01*
X600248Y338553D02*
X603672Y338535D01*
X596817Y338586D02*
X600248Y338553D01*
X593379Y338634D02*
X596817Y338586D01*
X589935Y338697D02*
X593379Y338634D01*
X586485Y338776D02*
X589935Y338697D01*
X583030Y338870D02*
X586485Y338776D01*
X579569Y338980D02*
X583030Y338870D01*
X576104Y339106D02*
X579569Y338980D01*
X572634Y339249D02*
X576104Y339106D01*
X569159Y339408D02*
X572634Y339249D01*
X565681Y339584D02*
X569159Y339408D01*
X562199Y339778D02*
X565681Y339584D01*
X559412Y339945D02*
X562199Y339778D01*
X556622Y340123D02*
X559412Y339945D01*
X553831Y340313D02*
X556622Y340123D01*
X551039Y340514D02*
X553831Y340313D01*
X548246Y340727D02*
X551039Y340514D01*
X545452Y340952D02*
X548246Y340727D01*
X542657Y341189D02*
X545452Y340952D01*
X539862Y341438D02*
X542657Y341189D01*
X537068Y341700D02*
X539862Y341438D01*
X534273Y341973D02*
X537068Y341700D01*
X531479Y342259D02*
X534273Y341973D01*
X528686Y342558D02*
X531479Y342259D01*
X525894Y342870D02*
X528686Y342558D01*
X523103Y343195D02*
X525894Y342870D01*
X520314Y343533D02*
X523103Y343195D01*
M02*
