G04*
G04 #@! TF.GenerationSoftware,Altium Limited,Altium Designer,20.0.2 (26)*
G04*
G04 Layer_Color=32768*
%FSLAX25Y25*%
%MOIN*%
G70*
G01*
G75*
%ADD33C,0.00394*%
D33*
X329500Y192032D02*
Y195969D01*
X327532Y194000D02*
X331469D01*
X323988Y191047D02*
X335012D01*
X323988Y196953D02*
X335012D01*
Y191047D02*
Y196953D01*
X323988Y191047D02*
Y196953D01*
X340532Y205500D02*
X344469D01*
X342500Y203531D02*
Y207469D01*
X339547Y199988D02*
Y211012D01*
X345453Y199988D02*
Y211012D01*
X339547Y199988D02*
X345453D01*
X339547Y211012D02*
X345453D01*
X432031Y160000D02*
X435969D01*
X434000Y158032D02*
Y161969D01*
X436953Y154488D02*
Y165512D01*
X431047Y154488D02*
Y165512D01*
X436953D01*
X431047Y154488D02*
X436953D01*
X459500Y207532D02*
Y211469D01*
X457532Y209500D02*
X461469D01*
X453988Y206547D02*
X465012D01*
X453988Y212453D02*
X465012D01*
Y206547D02*
Y212453D01*
X453988Y206547D02*
Y212453D01*
X345850Y224032D02*
Y227969D01*
X343882Y226000D02*
X347819D01*
X340339Y223047D02*
X351362D01*
X340339Y228953D02*
X351362D01*
Y223047D02*
Y228953D01*
X340339Y223047D02*
Y228953D01*
X365850Y205532D02*
Y209469D01*
X363882Y207500D02*
X367819D01*
X360339Y204547D02*
X371362D01*
X360339Y210453D02*
X371362D01*
Y204547D02*
Y210453D01*
X360339Y204547D02*
Y210453D01*
X460531Y172150D02*
X464469D01*
X462500Y170181D02*
Y174118D01*
X465453Y166638D02*
Y177661D01*
X459547Y166638D02*
Y177661D01*
X465453D01*
X459547Y166638D02*
X465453D01*
X439000Y207531D02*
Y211469D01*
X437031Y209500D02*
X440969D01*
X433488Y212453D02*
X444512D01*
X433488Y206547D02*
X444512D01*
X433488D02*
Y212453D01*
X444512Y206547D02*
Y212453D01*
X400350Y238532D02*
Y242469D01*
X398382Y240500D02*
X402319D01*
X394839Y237547D02*
X405862D01*
X394839Y243453D02*
X405862D01*
Y237547D02*
Y243453D01*
X394839Y237547D02*
Y243453D01*
X291031Y227500D02*
X294969D01*
X293000Y225531D02*
Y229469D01*
X295953Y221988D02*
Y233012D01*
X290047Y221988D02*
Y233012D01*
X295953D01*
X290047Y221988D02*
X295953D01*
X305031Y176000D02*
X308969D01*
X307000Y174032D02*
Y177969D01*
X309953Y170488D02*
Y181512D01*
X304047Y170488D02*
Y181512D01*
X309953D01*
X304047Y170488D02*
X309953D01*
X412532Y244150D02*
X416469D01*
X414500Y242181D02*
Y246118D01*
X411547Y238638D02*
Y249661D01*
X417453Y238638D02*
Y249661D01*
X411547Y238638D02*
X417453D01*
X411547Y249661D02*
X417453D01*
X416350Y264032D02*
Y267969D01*
X414382Y266000D02*
X418319D01*
X410839Y263047D02*
X421862D01*
X410839Y268953D02*
X421862D01*
Y263047D02*
Y268953D01*
X410839Y263047D02*
Y268953D01*
X314031Y233350D02*
X317969D01*
X316000Y231382D02*
Y235319D01*
X318953Y227839D02*
Y238862D01*
X313047Y227839D02*
Y238862D01*
X318953D01*
X313047Y227839D02*
X318953D01*
X324032Y170500D02*
X327969D01*
X326000Y168531D02*
Y172469D01*
X323047Y164988D02*
Y176012D01*
X328953Y164988D02*
Y176012D01*
X323047Y164988D02*
X328953D01*
X323047Y176012D02*
X328953D01*
X432000Y247032D02*
Y250969D01*
X430032Y249000D02*
X433969D01*
X426488Y246047D02*
X437512D01*
X426488Y251953D02*
X437512D01*
Y246047D02*
Y251953D01*
X426488Y246047D02*
Y251953D01*
X237079Y217902D02*
X246921D01*
X237079Y235224D02*
X246921D01*
X237079Y217902D02*
Y235224D01*
X246921Y217902D02*
Y235224D01*
X242000Y224594D02*
Y228532D01*
X240031Y226563D02*
X243969D01*
X261579Y218339D02*
X271421D01*
X261579Y235661D02*
X271421D01*
X261579Y218339D02*
Y235661D01*
X271421Y218339D02*
Y235661D01*
X266500Y225031D02*
Y228969D01*
X264531Y227000D02*
X268469D01*
X440079Y167098D02*
X449921D01*
X440079Y149776D02*
X449921D01*
Y167098D01*
X440079Y149776D02*
Y167098D01*
X445000Y156469D02*
Y160406D01*
X443032Y158437D02*
X446969D01*
X440276Y217579D02*
Y227421D01*
X457598Y217579D02*
Y227421D01*
X440276D02*
X457598D01*
X440276Y217579D02*
X457598D01*
X446969Y222500D02*
X450906D01*
X448937Y220532D02*
Y224469D01*
X361339Y192579D02*
Y202421D01*
X378661Y192579D02*
Y202421D01*
X361339D02*
X378661D01*
X361339Y192579D02*
X378661D01*
X368031Y197500D02*
X371969D01*
X370000Y195532D02*
Y199469D01*
X361339Y182079D02*
Y191921D01*
X378661Y182079D02*
Y191921D01*
X361339D02*
X378661D01*
X361339Y182079D02*
X378661D01*
X368031Y187000D02*
X371969D01*
X370000Y185032D02*
Y188969D01*
X391839Y147579D02*
Y157421D01*
X409161Y147579D02*
Y157421D01*
X391839D02*
X409161D01*
X391839Y147579D02*
X409161D01*
X398531Y152500D02*
X402469D01*
X400500Y150532D02*
Y154469D01*
X440402Y194579D02*
Y204421D01*
X457724Y194579D02*
Y204421D01*
X440402D02*
X457724D01*
X440402Y194579D02*
X457724D01*
X447094Y199500D02*
X451031D01*
X449063Y197532D02*
Y201469D01*
X340276Y187079D02*
Y196921D01*
X357598Y187079D02*
Y196921D01*
X340276D02*
X357598D01*
X340276Y187079D02*
X357598D01*
X346969Y192000D02*
X350906D01*
X348937Y190032D02*
Y193969D01*
X366839Y217579D02*
Y227421D01*
X384161Y217579D02*
Y227421D01*
X366839D02*
X384161D01*
X366839Y217579D02*
X384161D01*
X373531Y222500D02*
X377469D01*
X375500Y220532D02*
Y224469D01*
X429339Y173079D02*
Y182921D01*
X446661Y173079D02*
Y182921D01*
X429339D02*
X446661D01*
X429339Y173079D02*
X446661D01*
X436031Y178000D02*
X439969D01*
X438000Y176032D02*
Y179969D01*
X371339Y162579D02*
Y172421D01*
X388661Y162579D02*
Y172421D01*
X371339D02*
X388661D01*
X371339Y162579D02*
X388661D01*
X378031Y167500D02*
X381969D01*
X380000Y165532D02*
Y169469D01*
X377339Y250079D02*
Y259921D01*
X394661Y250079D02*
Y259921D01*
X377339D02*
X394661D01*
X377339Y250079D02*
X394661D01*
X384031Y255000D02*
X387968D01*
X386000Y253032D02*
Y256969D01*
X270339Y244079D02*
Y253921D01*
X287661Y244079D02*
Y253921D01*
X270339D02*
X287661D01*
X270339Y244079D02*
X287661D01*
X277031Y249000D02*
X280969D01*
X279000Y247032D02*
Y250969D01*
X302579Y216224D02*
X312421D01*
X302579Y198902D02*
X312421D01*
Y216224D01*
X302579Y198902D02*
Y216224D01*
X307500Y205594D02*
Y209532D01*
X305532Y207563D02*
X309469D01*
X350839Y258079D02*
Y267921D01*
X368161Y258079D02*
Y267921D01*
X350839D02*
X368161D01*
X350839Y258079D02*
X368161D01*
X357531Y263000D02*
X361469D01*
X359500Y261032D02*
Y264969D01*
X231276Y200079D02*
Y209921D01*
X248598Y200079D02*
Y209921D01*
X231276D02*
X248598D01*
X231276Y200079D02*
X248598D01*
X237968Y205000D02*
X241906D01*
X239937Y203032D02*
Y206969D01*
X229776Y182079D02*
Y191921D01*
X247098Y182079D02*
Y191921D01*
X229776D02*
X247098D01*
X229776Y182079D02*
X247098D01*
X236469Y187000D02*
X240406D01*
X238437Y185032D02*
Y188969D01*
X291224Y150079D02*
Y159921D01*
X273902Y150079D02*
Y159921D01*
Y150079D02*
X291224D01*
X273902Y159921D02*
X291224D01*
X280594Y155000D02*
X284532D01*
X282563Y153031D02*
Y156969D01*
X321839Y253579D02*
Y263421D01*
X339161Y253579D02*
Y263421D01*
X321839D02*
X339161D01*
X321839Y253579D02*
X339161D01*
X328531Y258500D02*
X332468D01*
X330500Y256532D02*
Y260469D01*
X445402Y241579D02*
Y251421D01*
X462724Y241579D02*
Y251421D01*
X445402D02*
X462724D01*
X445402Y241579D02*
X462724D01*
X452094Y246500D02*
X456032D01*
X454063Y244532D02*
Y248469D01*
X330402Y235579D02*
Y245421D01*
X347724Y235579D02*
Y245421D01*
X330402D02*
X347724D01*
X330402Y235579D02*
X347724D01*
X337094Y240500D02*
X341031D01*
X339063Y238532D02*
Y242469D01*
X301402Y150579D02*
Y160421D01*
X318724Y150579D02*
Y160421D01*
X301402D02*
X318724D01*
X301402Y150579D02*
X318724D01*
X308094Y155500D02*
X312031D01*
X310063Y153532D02*
Y157469D01*
X417339Y226579D02*
Y236421D01*
X434661Y226579D02*
Y236421D01*
X417339D02*
X434661D01*
X417339Y226579D02*
X434661D01*
X424031Y231500D02*
X427969D01*
X426000Y229532D02*
Y233469D01*
X389736Y174693D02*
Y211307D01*
X419264Y174693D02*
Y211307D01*
X389736D02*
X419264D01*
X389736Y174693D02*
X419264D01*
X402531Y193000D02*
X406469D01*
X404500Y191032D02*
Y194969D01*
X262185Y177193D02*
Y213807D01*
X291713Y177193D02*
Y213807D01*
X262185D02*
X291713D01*
X262185Y177193D02*
X291713D01*
X274980Y195500D02*
X278917D01*
X276949Y193532D02*
Y197469D01*
X363315Y182331D02*
Y223669D01*
X333787Y182331D02*
Y223669D01*
X363315D01*
X333787Y182331D02*
X363315D01*
X346583Y203000D02*
X350520D01*
X348551Y201032D02*
Y204969D01*
M02*
