G04*
G04 #@! TF.GenerationSoftware,Altium Limited,Altium Designer,20.0.2 (26)*
G04*
G04 Layer_Physical_Order=2*
G04 Layer_Color=16711680*
%FSLAX25Y25*%
%MOIN*%
G70*
G01*
G75*
%ADD14C,0.01000*%
%ADD19O,0.08661X0.02362*%
%ADD29R,0.05906X0.05906*%
%ADD30C,0.05906*%
%ADD31R,0.05906X0.05906*%
%ADD32C,0.05000*%
G36*
X504500Y311000D02*
Y134500D01*
X225500D01*
X225000Y135000D01*
X224501Y310646D01*
X224854Y311000D01*
X503500D01*
X504000Y311500D01*
X504500Y311000D01*
D02*
G37*
%LPC*%
G36*
X405900Y302029D02*
X238500D01*
X237915Y301913D01*
X237419Y301581D01*
X234819Y298981D01*
X234487Y298485D01*
X234371Y297900D01*
Y202355D01*
X234135Y202257D01*
X233404Y201696D01*
X232843Y200965D01*
X232490Y200114D01*
X232370Y199200D01*
X232490Y198286D01*
X232843Y197435D01*
X233404Y196704D01*
X234135Y196143D01*
X234986Y195790D01*
X235900Y195670D01*
X236814Y195790D01*
X237665Y196143D01*
X238396Y196704D01*
X238957Y197435D01*
X239310Y198286D01*
X239430Y199200D01*
X239310Y200114D01*
X238957Y200965D01*
X238396Y201696D01*
X237665Y202257D01*
X237429Y202355D01*
Y297267D01*
X239134Y298971D01*
X282654D01*
X282846Y298509D01*
X275819Y291481D01*
X275487Y290985D01*
X275371Y290400D01*
Y213655D01*
X275135Y213557D01*
X274404Y212996D01*
X273843Y212265D01*
X273490Y211414D01*
X273370Y210500D01*
X273490Y209586D01*
X273843Y208735D01*
X274040Y208478D01*
X273819Y208029D01*
X254534D01*
X252312Y210251D01*
X252410Y210486D01*
X252530Y211400D01*
X252410Y212314D01*
X252057Y213165D01*
X251496Y213896D01*
X250765Y214457D01*
X249914Y214810D01*
X249089Y214918D01*
X248824Y215361D01*
X257051Y223588D01*
X257286Y223490D01*
X258200Y223370D01*
X259114Y223490D01*
X259965Y223843D01*
X260696Y224404D01*
X261257Y225135D01*
X261610Y225986D01*
X261730Y226900D01*
X261610Y227814D01*
X261257Y228665D01*
X260696Y229396D01*
X259965Y229957D01*
X259114Y230310D01*
X258200Y230430D01*
X257286Y230310D01*
X256435Y229957D01*
X255704Y229396D01*
X255143Y228665D01*
X254790Y227814D01*
X254670Y226900D01*
X254790Y225986D01*
X254888Y225751D01*
X243919Y214781D01*
X243587Y214285D01*
X243471Y213700D01*
Y206100D01*
X243587Y205515D01*
X243919Y205019D01*
X249519Y199419D01*
X250015Y199087D01*
X250600Y198971D01*
X274893D01*
X275022Y198471D01*
X274404Y197996D01*
X273843Y197265D01*
X273490Y196414D01*
X273370Y195500D01*
X273490Y194586D01*
X273843Y193735D01*
X274404Y193004D01*
X275135Y192443D01*
X275986Y192090D01*
X276900Y191970D01*
X277814Y192090D01*
X278049Y192188D01*
X316019Y154219D01*
X316515Y153887D01*
X317100Y153771D01*
X474800D01*
X475385Y153887D01*
X475881Y154219D01*
X481509Y159846D01*
X481971Y159654D01*
Y153500D01*
X482012Y153293D01*
X482029Y153082D01*
X482070Y153002D01*
X482087Y152915D01*
X482204Y152739D01*
X482301Y152551D01*
X482369Y152493D01*
X482419Y152419D01*
X483419Y151419D01*
X483915Y151087D01*
X484500Y150971D01*
X492100D01*
X492307Y151012D01*
X492518Y151029D01*
X492598Y151070D01*
X492685Y151087D01*
X492861Y151205D01*
X493049Y151301D01*
X493107Y151369D01*
X493181Y151419D01*
X497581Y155819D01*
X497913Y156315D01*
X498029Y156900D01*
Y197000D01*
Y209100D01*
X497913Y209685D01*
X497581Y210181D01*
X471481Y236281D01*
X470985Y236613D01*
X470400Y236729D01*
X469193D01*
X468946Y237229D01*
X469257Y237635D01*
X469610Y238486D01*
X469730Y239400D01*
X469610Y240314D01*
X469257Y241165D01*
X468696Y241896D01*
X467965Y242457D01*
X467114Y242810D01*
X466200Y242930D01*
X465286Y242810D01*
X464737Y242582D01*
X464500Y242629D01*
X409678D01*
X409508Y243129D01*
X409996Y243504D01*
X410557Y244235D01*
X410910Y245086D01*
X411030Y246000D01*
X410910Y246914D01*
X410557Y247765D01*
X410000Y248492D01*
X410002Y248510D01*
X410200Y248969D01*
X410200Y248970D01*
X411114Y249090D01*
X411965Y249443D01*
X412696Y250004D01*
X413257Y250735D01*
X413610Y251586D01*
X413730Y252500D01*
X413610Y253414D01*
X413257Y254265D01*
X412696Y254996D01*
X411965Y255557D01*
X411114Y255910D01*
X410200Y256030D01*
X409286Y255910D01*
X409051Y255812D01*
X387481Y277381D01*
X386985Y277713D01*
X386400Y277829D01*
X364955D01*
X364857Y278065D01*
X364296Y278796D01*
X363565Y279357D01*
X362714Y279710D01*
X361800Y279830D01*
X360886Y279710D01*
X360035Y279357D01*
X359304Y278796D01*
X358743Y278065D01*
X358390Y277214D01*
X358270Y276300D01*
X358390Y275386D01*
X358743Y274535D01*
X359304Y273804D01*
X360035Y273243D01*
X360886Y272890D01*
X361800Y272770D01*
X362714Y272890D01*
X363565Y273243D01*
X364296Y273804D01*
X364857Y274535D01*
X364955Y274771D01*
X385767D01*
X406888Y253649D01*
X406790Y253414D01*
X406670Y252500D01*
X406790Y251586D01*
X407143Y250735D01*
X407700Y250008D01*
X407698Y249990D01*
X407500Y249531D01*
X407500Y249530D01*
X406586Y249410D01*
X406351Y249312D01*
X384981Y270681D01*
X384485Y271013D01*
X383900Y271129D01*
X334155D01*
X334057Y271365D01*
X333496Y272096D01*
X332765Y272657D01*
X331914Y273010D01*
X331000Y273130D01*
X330086Y273010D01*
X329235Y272657D01*
X328504Y272096D01*
X327943Y271365D01*
X327590Y270514D01*
X327470Y269600D01*
X327590Y268686D01*
X327943Y267835D01*
X328504Y267104D01*
X329235Y266543D01*
X330086Y266190D01*
X331000Y266070D01*
X331914Y266190D01*
X332765Y266543D01*
X333496Y267104D01*
X334057Y267835D01*
X334155Y268071D01*
X383266D01*
X404188Y247149D01*
X404090Y246914D01*
X403970Y246000D01*
X404090Y245086D01*
X404443Y244235D01*
X405004Y243504D01*
X405492Y243129D01*
X405322Y242629D01*
X385178D01*
X385008Y243129D01*
X385496Y243504D01*
X386057Y244235D01*
X386410Y245086D01*
X386530Y246000D01*
X386410Y246914D01*
X386057Y247765D01*
X385496Y248496D01*
X384765Y249057D01*
X383914Y249410D01*
X383000Y249530D01*
X382086Y249410D01*
X381235Y249057D01*
X380504Y248496D01*
X379943Y247765D01*
X379845Y247529D01*
X337600D01*
X337015Y247413D01*
X336519Y247081D01*
X322491Y233054D01*
X322029Y233246D01*
Y272867D01*
X334504Y285341D01*
X334968Y285149D01*
X336000Y285013D01*
X337032Y285149D01*
X337993Y285547D01*
X338819Y286181D01*
X339453Y287007D01*
X339851Y287968D01*
X339987Y289000D01*
X339851Y290032D01*
X339453Y290993D01*
X339087Y291471D01*
X339333Y291971D01*
X342667D01*
X342913Y291471D01*
X342547Y290993D01*
X342149Y290032D01*
X342013Y289000D01*
X342149Y287968D01*
X342547Y287007D01*
X343181Y286181D01*
X344007Y285547D01*
X344968Y285149D01*
X346000Y285013D01*
X347032Y285149D01*
X347993Y285547D01*
X348819Y286181D01*
X349453Y287007D01*
X349851Y287968D01*
X349987Y289000D01*
X349851Y290032D01*
X349453Y290993D01*
X349087Y291471D01*
X349333Y291971D01*
X352667D01*
X352913Y291471D01*
X352547Y290993D01*
X352149Y290032D01*
X352013Y289000D01*
X352149Y287968D01*
X352547Y287007D01*
X353181Y286181D01*
X354007Y285547D01*
X354968Y285149D01*
X356000Y285013D01*
X357032Y285149D01*
X357993Y285547D01*
X358819Y286181D01*
X359453Y287007D01*
X359851Y287968D01*
X359987Y289000D01*
X359851Y290032D01*
X359453Y290993D01*
X359087Y291471D01*
X359333Y291971D01*
X362667D01*
X362913Y291471D01*
X362547Y290993D01*
X362149Y290032D01*
X362013Y289000D01*
X362149Y287968D01*
X362547Y287007D01*
X363181Y286181D01*
X364007Y285547D01*
X364968Y285149D01*
X366000Y285013D01*
X367032Y285149D01*
X367496Y285341D01*
X371419Y281419D01*
X371915Y281087D01*
X372500Y280971D01*
X378500D01*
X379085Y281087D01*
X379581Y281419D01*
X381581Y283419D01*
X381913Y283915D01*
X382029Y284500D01*
Y286950D01*
X382529Y287050D01*
X382547Y287007D01*
X383181Y286181D01*
X384007Y285547D01*
X384968Y285149D01*
X386000Y285013D01*
X387032Y285149D01*
X387993Y285547D01*
X388819Y286181D01*
X389453Y287007D01*
X389851Y287968D01*
X389987Y289000D01*
X389851Y290032D01*
X389453Y290993D01*
X388819Y291819D01*
X387993Y292453D01*
X387032Y292851D01*
X386000Y292987D01*
X384968Y292851D01*
X384007Y292453D01*
X383181Y291819D01*
X382547Y290993D01*
X382529Y290950D01*
X382029Y291050D01*
Y292600D01*
X381913Y293185D01*
X381581Y293681D01*
X379254Y296009D01*
X379446Y296471D01*
X395866D01*
X416188Y276149D01*
X416090Y275914D01*
X415970Y275000D01*
X416090Y274086D01*
X416443Y273235D01*
X417004Y272504D01*
X417735Y271943D01*
X418586Y271590D01*
X419500Y271470D01*
X420414Y271590D01*
X421265Y271943D01*
X421996Y272504D01*
X422557Y273235D01*
X422910Y274086D01*
X423030Y275000D01*
X422910Y275914D01*
X422557Y276765D01*
X421996Y277496D01*
X421265Y278057D01*
X420414Y278410D01*
X419500Y278530D01*
X418586Y278410D01*
X418351Y278312D01*
X398154Y298509D01*
X398346Y298971D01*
X405267D01*
X420188Y284049D01*
X420090Y283814D01*
X419970Y282900D01*
X420090Y281986D01*
X420443Y281135D01*
X421004Y280404D01*
X421735Y279843D01*
X422586Y279490D01*
X423500Y279370D01*
X424414Y279490D01*
X425265Y279843D01*
X425996Y280404D01*
X426557Y281135D01*
X426910Y281986D01*
X427030Y282900D01*
X426910Y283814D01*
X426557Y284665D01*
X425996Y285396D01*
X425265Y285957D01*
X424414Y286310D01*
X423500Y286430D01*
X422586Y286310D01*
X422351Y286212D01*
X406981Y301581D01*
X406485Y301913D01*
X405900Y302029D01*
D02*
G37*
G36*
X394000Y283530D02*
X393086Y283410D01*
X392235Y283057D01*
X391504Y282496D01*
X390943Y281765D01*
X390590Y280914D01*
X390470Y280000D01*
X390590Y279086D01*
X390943Y278235D01*
X391504Y277504D01*
X392235Y276943D01*
X393086Y276590D01*
X394000Y276470D01*
X394914Y276590D01*
X395149Y276688D01*
X406419Y265419D01*
X406915Y265087D01*
X407500Y264971D01*
X437345D01*
X437443Y264735D01*
X438004Y264004D01*
X438735Y263443D01*
X439586Y263090D01*
X440500Y262970D01*
X441414Y263090D01*
X442265Y263443D01*
X442996Y264004D01*
X443557Y264735D01*
X443910Y265586D01*
X444030Y266500D01*
X443910Y267414D01*
X443557Y268265D01*
X442996Y268996D01*
X442265Y269557D01*
X441414Y269910D01*
X440500Y270030D01*
X439586Y269910D01*
X438735Y269557D01*
X438004Y268996D01*
X437443Y268265D01*
X437345Y268029D01*
X408134D01*
X397312Y278851D01*
X397410Y279086D01*
X397530Y280000D01*
X397410Y280914D01*
X397057Y281765D01*
X396496Y282496D01*
X395765Y283057D01*
X394914Y283410D01*
X394000Y283530D01*
D02*
G37*
%LPD*%
G36*
X331346Y293509D02*
X329539Y291702D01*
X328948Y291652D01*
X328819Y291819D01*
X327993Y292453D01*
X327032Y292851D01*
X326000Y292987D01*
X324968Y292851D01*
X324007Y292453D01*
X323181Y291819D01*
X322547Y290993D01*
X322149Y290032D01*
X322013Y289000D01*
X322149Y287968D01*
X322341Y287504D01*
X320415Y285578D01*
X319953Y285769D01*
Y292953D01*
X312323D01*
X312116Y293453D01*
X312633Y293971D01*
X331154D01*
X331346Y293509D01*
D02*
G37*
G36*
X310346Y296009D02*
X280119Y265781D01*
X279787Y265285D01*
X279671Y264700D01*
Y258779D01*
X279135Y258557D01*
X278878Y258360D01*
X278429Y258581D01*
Y289767D01*
X285134Y296471D01*
X310154D01*
X310346Y296009D01*
D02*
G37*
G36*
X312047Y292677D02*
Y287210D01*
X287119Y262281D01*
X286787Y261785D01*
X286671Y261200D01*
Y214434D01*
X280433Y208196D01*
X280196Y208225D01*
X279957Y208735D01*
X280310Y209586D01*
X280430Y210500D01*
X280310Y211414D01*
X279957Y212265D01*
X279396Y212996D01*
X278665Y213557D01*
X278429Y213655D01*
Y252419D01*
X278878Y252640D01*
X279135Y252443D01*
X279986Y252090D01*
X280900Y251970D01*
X281814Y252090D01*
X282665Y252443D01*
X283396Y253004D01*
X283957Y253735D01*
X284310Y254586D01*
X284430Y255500D01*
X284310Y256414D01*
X283957Y257265D01*
X283396Y257996D01*
X282729Y258508D01*
Y264067D01*
X311547Y292884D01*
X312047Y292677D01*
D02*
G37*
G36*
X379943Y244235D02*
X380504Y243504D01*
X380992Y243129D01*
X380822Y242629D01*
X337046D01*
X336854Y243091D01*
X338233Y244471D01*
X379845D01*
X379943Y244235D01*
D02*
G37*
G36*
X462670Y239400D02*
X462790Y238486D01*
X463143Y237635D01*
X463454Y237229D01*
X463207Y236729D01*
X392034D01*
X389654Y239109D01*
X389846Y239571D01*
X462520D01*
X462670Y239400D01*
D02*
G37*
G36*
X455140Y230622D02*
X454943Y230365D01*
X454845Y230129D01*
X392366D01*
X391780Y230013D01*
X391284Y229681D01*
X389428Y227826D01*
X388966Y228017D01*
Y230500D01*
X388940Y230632D01*
X389251Y231011D01*
X389363Y231071D01*
X454919D01*
X455140Y230622D01*
D02*
G37*
G36*
X382993Y232781D02*
X382814Y232253D01*
X382486Y232210D01*
X381635Y231857D01*
X380904Y231296D01*
X380343Y230565D01*
X379990Y229714D01*
X379870Y228800D01*
X379990Y227886D01*
X380088Y227651D01*
X379167Y226729D01*
X351000D01*
X350415Y226613D01*
X349919Y226281D01*
X349691Y226054D01*
X349229Y226246D01*
Y226945D01*
X351855Y229571D01*
X367645D01*
X367743Y229335D01*
X368304Y228604D01*
X369035Y228043D01*
X369886Y227690D01*
X370800Y227570D01*
X371714Y227690D01*
X372565Y228043D01*
X373296Y228604D01*
X373857Y229335D01*
X374210Y230186D01*
X374330Y231100D01*
X374210Y232014D01*
X373857Y232865D01*
X373660Y233122D01*
X373881Y233571D01*
X382204D01*
X382993Y232781D01*
D02*
G37*
G36*
X454943Y226835D02*
X455504Y226104D01*
X456235Y225543D01*
X456991Y225229D01*
X456892Y224729D01*
X391311D01*
X391120Y225191D01*
X392999Y227071D01*
X454845D01*
X454943Y226835D01*
D02*
G37*
G36*
X367940Y233122D02*
X367743Y232865D01*
X367645Y232629D01*
X351221D01*
X350636Y232513D01*
X350140Y232181D01*
X346619Y228660D01*
X346287Y228164D01*
X346171Y227579D01*
Y214833D01*
X343576Y212239D01*
X343103Y212555D01*
X342252Y212724D01*
X335953D01*
X335102Y212555D01*
X334380Y212072D01*
X333898Y211351D01*
X333787Y210790D01*
X333276Y210471D01*
X333252Y210470D01*
X332914Y210610D01*
X332000Y210730D01*
X331086Y210610D01*
X330235Y210257D01*
X329504Y209696D01*
X328943Y208965D01*
X328590Y208114D01*
X328470Y207200D01*
X328590Y206286D01*
X328943Y205435D01*
X329504Y204704D01*
X330235Y204143D01*
X331086Y203790D01*
X332000Y203670D01*
X332914Y203790D01*
X333463Y204018D01*
X333700Y203971D01*
X334351D01*
X334380Y203927D01*
X335102Y203446D01*
X335953Y203276D01*
X342252D01*
X343103Y203446D01*
X343825Y203927D01*
X343853Y203971D01*
X346900D01*
X347485Y204087D01*
X347981Y204419D01*
X350195Y206632D01*
X350661Y206391D01*
X350673Y206333D01*
X350678Y206162D01*
X350731Y206043D01*
X350756Y205915D01*
X350851Y205773D01*
X350921Y205617D01*
X351015Y205527D01*
X351088Y205419D01*
X351230Y205324D01*
X351354Y205206D01*
X351475Y205159D01*
X351584Y205087D01*
X351751Y205054D01*
X351911Y204993D01*
X352756Y204848D01*
X352796Y204649D01*
X353278Y203927D01*
X353999Y203446D01*
X354850Y203276D01*
X361150D01*
X362001Y203446D01*
X362722Y203927D01*
X362751Y203971D01*
X372100D01*
X372685Y204087D01*
X373181Y204419D01*
X375508Y206745D01*
X375981Y206584D01*
X376027Y206234D01*
X376380Y205383D01*
X376941Y204652D01*
X377672Y204091D01*
X378523Y203738D01*
X379437Y203618D01*
X380351Y203738D01*
X381202Y204091D01*
X381933Y204652D01*
X382097Y204865D01*
X382619Y204725D01*
X382690Y204186D01*
X383043Y203335D01*
X383604Y202604D01*
X383701Y202529D01*
X383531Y202029D01*
X362751D01*
X362722Y202073D01*
X362001Y202554D01*
X361150Y202724D01*
X354850D01*
X353999Y202554D01*
X353278Y202073D01*
X352796Y201351D01*
X352627Y200500D01*
X352796Y199649D01*
X353278Y198927D01*
X353999Y198445D01*
X354850Y198276D01*
X361150D01*
X362001Y198445D01*
X362722Y198927D01*
X362751Y198971D01*
X381893D01*
X382022Y198471D01*
X381404Y197996D01*
X380843Y197265D01*
X380745Y197029D01*
X362751D01*
X362722Y197073D01*
X362001Y197555D01*
X361150Y197724D01*
X354850D01*
X353999Y197555D01*
X353278Y197073D01*
X352796Y196351D01*
X352627Y195500D01*
X352796Y194649D01*
X353278Y193928D01*
X353999Y193446D01*
X354850Y193276D01*
X356471D01*
Y192724D01*
X354850D01*
X353999Y192554D01*
X353278Y192072D01*
X352796Y191351D01*
X352627Y190500D01*
X352796Y189649D01*
X353278Y188927D01*
X353999Y188445D01*
X354850Y188276D01*
X356471D01*
Y187724D01*
X354850D01*
X353999Y187555D01*
X353278Y187073D01*
X352796Y186351D01*
X352769Y186217D01*
X352291Y186072D01*
X349229Y189134D01*
Y192500D01*
X349113Y193085D01*
X348781Y193581D01*
X345781Y196581D01*
X345285Y196913D01*
X344700Y197029D01*
X343853D01*
X343825Y197073D01*
X343103Y197555D01*
X342252Y197724D01*
X335953D01*
X335102Y197555D01*
X334380Y197073D01*
X333898Y196351D01*
X333729Y195500D01*
X333898Y194649D01*
X334380Y193928D01*
X335102Y193446D01*
X335953Y193276D01*
X342252D01*
X343103Y193446D01*
X343825Y193928D01*
X344282Y193756D01*
X346171Y191867D01*
Y188500D01*
X346287Y187915D01*
X346619Y187419D01*
X358619Y175419D01*
X359115Y175087D01*
X359700Y174971D01*
X363367D01*
X364301Y174036D01*
X363982Y173648D01*
X363585Y173913D01*
X363000Y174029D01*
X352736D01*
X343512Y183254D01*
X343561Y183751D01*
X343825Y183928D01*
X344307Y184649D01*
X344476Y185500D01*
X344307Y186351D01*
X343825Y187073D01*
X343103Y187555D01*
X342252Y187724D01*
X335953D01*
X335456Y187625D01*
X334993Y187977D01*
Y188023D01*
X335456Y188375D01*
X335953Y188276D01*
X342252D01*
X343103Y188445D01*
X343825Y188927D01*
X344307Y189649D01*
X344476Y190500D01*
X344307Y191351D01*
X343825Y192072D01*
X343103Y192554D01*
X342252Y192724D01*
X335953D01*
X335102Y192554D01*
X334380Y192072D01*
X334351Y192029D01*
X334200D01*
X333615Y191913D01*
X333229Y191656D01*
X332729Y191831D01*
Y197866D01*
X333834Y198971D01*
X334351D01*
X334380Y198927D01*
X335102Y198445D01*
X335953Y198276D01*
X342252D01*
X343103Y198445D01*
X343825Y198927D01*
X344307Y199649D01*
X344476Y200500D01*
X344307Y201351D01*
X343825Y202073D01*
X343103Y202554D01*
X342252Y202724D01*
X335953D01*
X335102Y202554D01*
X334380Y202073D01*
X334351Y202029D01*
X329134D01*
X324029Y207134D01*
Y215513D01*
X324491Y215705D01*
X325778Y214419D01*
X326274Y214087D01*
X326859Y213971D01*
X334351D01*
X334380Y213928D01*
X335102Y213445D01*
X335953Y213276D01*
X342252D01*
X343103Y213445D01*
X343825Y213928D01*
X344307Y214649D01*
X344476Y215500D01*
X344307Y216351D01*
X343825Y217073D01*
X343103Y217555D01*
X342252Y217724D01*
X335953D01*
X335102Y217555D01*
X334380Y217073D01*
X334351Y217029D01*
X327492D01*
X326029Y218493D01*
Y219013D01*
X326491Y219205D01*
X326919Y218778D01*
X327415Y218446D01*
X328000Y218330D01*
X335684D01*
X335953Y218276D01*
X342252D01*
X343103Y218445D01*
X343825Y218928D01*
X344307Y219649D01*
X344476Y220500D01*
X344307Y221351D01*
X343825Y222073D01*
X343103Y222555D01*
X342252Y222724D01*
X339488D01*
X339242Y223224D01*
X339557Y223635D01*
X339910Y224486D01*
X340030Y225400D01*
X339910Y226314D01*
X339812Y226549D01*
X346833Y233571D01*
X367719D01*
X367940Y233122D01*
D02*
G37*
G36*
X318971Y272154D02*
Y214581D01*
X318522Y214360D01*
X318265Y214557D01*
X318029Y214655D01*
Y271866D01*
X318509Y272346D01*
X318971Y272154D01*
D02*
G37*
G36*
X413267Y215771D02*
X413235Y215757D01*
X412504Y215196D01*
X411943Y214465D01*
X411590Y213614D01*
X411470Y212700D01*
X411458Y212687D01*
X400603D01*
X400412Y213149D01*
X403534Y216271D01*
X413168D01*
X413267Y215771D01*
D02*
G37*
G36*
X484341Y209996D02*
X484149Y209532D01*
X484013Y208500D01*
X484149Y207468D01*
X484547Y206507D01*
X485181Y205681D01*
X485378Y205529D01*
X485209Y205029D01*
X421200D01*
X420615Y204913D01*
X420119Y204581D01*
X414575Y199038D01*
X414478Y199053D01*
X414293Y199217D01*
X414106Y199588D01*
X414125Y199656D01*
X414118Y199715D01*
X414129Y199773D01*
Y204500D01*
X414013Y205085D01*
X413681Y205581D01*
X410097Y209166D01*
X410288Y209628D01*
X413270D01*
X414086Y209290D01*
X415000Y209170D01*
X415914Y209290D01*
X416765Y209643D01*
X417496Y210204D01*
X418057Y210935D01*
X418410Y211786D01*
X418530Y212700D01*
X418410Y213614D01*
X418057Y214465D01*
X417496Y215196D01*
X416765Y215757D01*
X416733Y215771D01*
X416832Y216271D01*
X478066D01*
X484341Y209996D01*
D02*
G37*
G36*
X401907Y204771D02*
X401443Y204165D01*
X401090Y203314D01*
X400970Y202400D01*
X400645Y202029D01*
X388669D01*
X388499Y202529D01*
X388596Y202604D01*
X389157Y203335D01*
X389510Y204186D01*
X389630Y205100D01*
X389780Y205271D01*
X401728D01*
X401907Y204771D01*
D02*
G37*
G36*
X319422Y284585D02*
X305819Y270981D01*
X305487Y270485D01*
X305371Y269900D01*
Y205033D01*
X302366Y202029D01*
X300407D01*
X300278Y202529D01*
X300896Y203004D01*
X301457Y203735D01*
X301810Y204586D01*
X301930Y205500D01*
X301810Y206414D01*
X301457Y207265D01*
X300896Y207996D01*
X300165Y208557D01*
X299929Y208655D01*
Y259645D01*
X300165Y259743D01*
X300896Y260304D01*
X301457Y261035D01*
X301810Y261886D01*
X301930Y262800D01*
X301810Y263714D01*
X301457Y264565D01*
X300896Y265296D01*
X300165Y265857D01*
X299314Y266210D01*
X298400Y266330D01*
X297486Y266210D01*
X296635Y265857D01*
X295904Y265296D01*
X295343Y264565D01*
X294990Y263714D01*
X294870Y262800D01*
X294990Y261886D01*
X295343Y261035D01*
X295904Y260304D01*
X296635Y259743D01*
X296871Y259645D01*
Y208655D01*
X296635Y208557D01*
X295904Y207996D01*
X295343Y207265D01*
X294990Y206414D01*
X294870Y205500D01*
X294990Y204586D01*
X295343Y203735D01*
X295904Y203004D01*
X296522Y202529D01*
X296393Y202029D01*
X251234D01*
X246529Y206733D01*
Y208319D01*
X246978Y208540D01*
X247235Y208343D01*
X248086Y207990D01*
X249000Y207870D01*
X249914Y207990D01*
X250149Y208088D01*
X252819Y205419D01*
X253315Y205087D01*
X253900Y204971D01*
X280900D01*
X281485Y205087D01*
X281981Y205419D01*
X289281Y212719D01*
X289613Y213215D01*
X289729Y213800D01*
Y260566D01*
X314210Y285047D01*
X319231D01*
X319422Y284585D01*
D02*
G37*
G36*
X494971Y208467D02*
Y201346D01*
X494509Y201154D01*
X491081Y204581D01*
X490614Y204893D01*
X490584Y204924D01*
X490504Y205439D01*
X490819Y205681D01*
X491453Y206507D01*
X491851Y207468D01*
X491987Y208500D01*
X491851Y209532D01*
X491453Y210493D01*
X490819Y211319D01*
X489993Y211953D01*
X489032Y212351D01*
X488000Y212487D01*
X486968Y212351D01*
X486504Y212159D01*
X479781Y218881D01*
X479285Y219213D01*
X478700Y219329D01*
X402900D01*
X402315Y219213D01*
X401819Y218881D01*
X397624Y214687D01*
X397130D01*
X397030Y215187D01*
X397165Y215243D01*
X397896Y215804D01*
X398457Y216535D01*
X398810Y217386D01*
X398930Y218300D01*
X398810Y219214D01*
X398457Y220065D01*
X397896Y220796D01*
X397408Y221171D01*
X397578Y221671D01*
X460000D01*
X460585Y221787D01*
X461081Y222119D01*
X463081Y224119D01*
X463413Y224615D01*
X463529Y225200D01*
Y230600D01*
X463413Y231185D01*
X463081Y231681D01*
X461554Y233209D01*
X461746Y233671D01*
X469767D01*
X494971Y208467D01*
D02*
G37*
G36*
X403586Y198990D02*
X404500Y198870D01*
X404960Y198930D01*
X405194Y198457D01*
X402983Y196246D01*
X399791D01*
X399206Y196130D01*
X398710Y195798D01*
X385941Y183029D01*
X374053D01*
X373365Y183557D01*
X372514Y183910D01*
X371600Y184030D01*
X370686Y183910D01*
X369835Y183557D01*
X369104Y182996D01*
X368613Y182357D01*
X368050Y182212D01*
X363681Y186581D01*
X363185Y186913D01*
X362774Y186995D01*
X362722Y187073D01*
X362001Y187555D01*
X361150Y187724D01*
X359529D01*
Y188276D01*
X361150D01*
X362001Y188445D01*
X362722Y188927D01*
X363204Y189649D01*
X363373Y190500D01*
X363204Y191351D01*
X362722Y192072D01*
X362001Y192554D01*
X361150Y192724D01*
X359529D01*
Y193276D01*
X361150D01*
X362001Y193446D01*
X362722Y193928D01*
X362751Y193971D01*
X380745D01*
X380843Y193735D01*
X381404Y193004D01*
X382135Y192443D01*
X382986Y192090D01*
X383900Y191970D01*
X384814Y192090D01*
X385665Y192443D01*
X386396Y193004D01*
X386957Y193735D01*
X387310Y194586D01*
X387430Y195500D01*
X387310Y196414D01*
X386957Y197265D01*
X386396Y197996D01*
X385778Y198471D01*
X385907Y198971D01*
X402600D01*
X403185Y199087D01*
X403249Y199130D01*
X403586Y198990D01*
D02*
G37*
G36*
X485378Y201471D02*
X485181Y201319D01*
X484547Y200493D01*
X484355Y200029D01*
X433000D01*
X432415Y199913D01*
X431919Y199581D01*
X422367Y190029D01*
X414500D01*
X413915Y189913D01*
X413418Y189581D01*
X406873Y183036D01*
X406425Y183257D01*
X406430Y183300D01*
X406310Y184214D01*
X406239Y184384D01*
X406555Y184930D01*
X407014Y184990D01*
X407865Y185343D01*
X408596Y185904D01*
X409157Y186635D01*
X409510Y187486D01*
X409630Y188400D01*
X409510Y189314D01*
X409412Y189549D01*
X421834Y201971D01*
X485209D01*
X485378Y201471D01*
D02*
G37*
G36*
X484913Y190971D02*
X484547Y190493D01*
X484149Y189532D01*
X484013Y188500D01*
X484149Y187468D01*
X484547Y186507D01*
X485181Y185681D01*
X486007Y185047D01*
X486968Y184649D01*
X488000Y184513D01*
X489032Y184649D01*
X489496Y184841D01*
X490923Y183414D01*
Y181869D01*
X490423Y181623D01*
X489993Y181953D01*
X489032Y182351D01*
X488000Y182487D01*
X486968Y182351D01*
X486007Y181953D01*
X485181Y181319D01*
X484547Y180493D01*
X484355Y180029D01*
X432799D01*
X432592Y180529D01*
X443534Y191471D01*
X484667D01*
X484913Y190971D01*
D02*
G37*
G36*
X402163Y192726D02*
X401019Y191581D01*
X400687Y191085D01*
X400571Y190500D01*
Y185924D01*
X400404Y185796D01*
X399843Y185065D01*
X399490Y184214D01*
X399370Y183300D01*
X399490Y182386D01*
X399843Y181535D01*
X400040Y181278D01*
X399819Y180829D01*
X388720D01*
X388529Y181291D01*
X400425Y193187D01*
X401971D01*
X402163Y192726D01*
D02*
G37*
G36*
X484547Y196507D02*
X485181Y195681D01*
X486007Y195047D01*
X486050Y195029D01*
X485950Y194529D01*
X442900D01*
X442315Y194413D01*
X441819Y194081D01*
X430557Y182820D01*
X412890D01*
X412305Y182703D01*
X411809Y182372D01*
X408266Y178829D01*
X407646D01*
X407454Y179291D01*
X415133Y186971D01*
X423000D01*
X423585Y187087D01*
X424081Y187419D01*
X433634Y196971D01*
X484355D01*
X484547Y196507D01*
D02*
G37*
G36*
X366071Y179867D02*
Y178500D01*
X366187Y177915D01*
X366519Y177419D01*
X368582Y175355D01*
X368516Y174854D01*
X367988Y174674D01*
X365081Y177581D01*
X364585Y177913D01*
X364000Y178029D01*
X360333D01*
X355549Y182814D01*
X355740Y183276D01*
X361150D01*
X362001Y183446D01*
X362295Y183642D01*
X366071Y179867D01*
D02*
G37*
G36*
X484547Y176507D02*
X485181Y175681D01*
X486007Y175047D01*
X486968Y174649D01*
X488000Y174513D01*
X489032Y174649D01*
X489993Y175047D01*
X490423Y175377D01*
X490923Y175131D01*
Y171869D01*
X490423Y171623D01*
X489993Y171953D01*
X489032Y172351D01*
X488000Y172487D01*
X486968Y172351D01*
X486007Y171953D01*
X485181Y171319D01*
X484547Y170493D01*
X484355Y170029D01*
X457133D01*
X456181Y170981D01*
X455685Y171313D01*
X455100Y171429D01*
X382746D01*
X382554Y171891D01*
X384434Y173771D01*
X413000D01*
X413585Y173887D01*
X414081Y174219D01*
X416833Y176971D01*
X484355D01*
X484547Y176507D01*
D02*
G37*
G36*
X335953Y183276D02*
X339163D01*
X351021Y171419D01*
X351517Y171087D01*
X352102Y170971D01*
X362367D01*
X364846Y168491D01*
X364654Y168029D01*
X345133D01*
X334729Y178434D01*
Y183139D01*
X335229Y183420D01*
X335953Y183276D01*
D02*
G37*
G36*
X448740Y165922D02*
X448543Y165665D01*
X448445Y165429D01*
X389746D01*
X389554Y165891D01*
X390034Y166371D01*
X448519D01*
X448740Y165922D01*
D02*
G37*
G36*
X327419Y199419D02*
X327915Y199087D01*
X328500Y198971D01*
X329370D01*
X329687Y198584D01*
X329671Y198500D01*
Y174500D01*
X329787Y173915D01*
X330119Y173419D01*
X339046Y164491D01*
X338854Y164029D01*
X338222D01*
X322029Y180222D01*
Y204154D01*
X322491Y204346D01*
X327419Y199419D01*
D02*
G37*
G36*
X448543Y162135D02*
X448740Y161878D01*
X448519Y161429D01*
X390992D01*
X390894Y161665D01*
X390697Y161922D01*
X390918Y162371D01*
X448445D01*
X448543Y162135D01*
D02*
G37*
G36*
X484547Y166507D02*
X484913Y166029D01*
X484667Y165529D01*
X483500D01*
X482915Y165413D01*
X482419Y165081D01*
X474166Y156829D01*
X390406D01*
X390236Y157329D01*
X390333Y157404D01*
X390894Y158135D01*
X390992Y158371D01*
X454000D01*
X454585Y158487D01*
X455081Y158819D01*
X456681Y160419D01*
X457013Y160915D01*
X457129Y161500D01*
Y166500D01*
X457113Y166584D01*
X457430Y166971D01*
X484355D01*
X484547Y166507D01*
D02*
G37*
G36*
X324968Y285149D02*
X326000Y285013D01*
X326208Y285040D01*
X326429Y284592D01*
X315419Y273581D01*
X315087Y273085D01*
X314971Y272500D01*
Y214655D01*
X314735Y214557D01*
X314004Y213996D01*
X313443Y213265D01*
X313090Y212414D01*
X312970Y211500D01*
X313090Y210586D01*
X313443Y209735D01*
X314004Y209004D01*
X314735Y208443D01*
X315586Y208090D01*
X316500Y207970D01*
X317414Y208090D01*
X318265Y208443D01*
X318522Y208640D01*
X318971Y208419D01*
Y179588D01*
X319087Y179003D01*
X319419Y178507D01*
X336507Y161419D01*
X337003Y161087D01*
X337588Y160971D01*
X382600D01*
X383185Y161087D01*
X383681Y161419D01*
X384342Y162079D01*
X384453Y162061D01*
X384555Y161937D01*
X384716Y161511D01*
X384427Y160814D01*
X384307Y159900D01*
X384427Y158986D01*
X384780Y158135D01*
X385341Y157404D01*
X385438Y157329D01*
X385268Y156829D01*
X317734D01*
X280212Y194351D01*
X280310Y194586D01*
X280430Y195500D01*
X280310Y196414D01*
X279957Y197265D01*
X279396Y197996D01*
X278778Y198471D01*
X278907Y198971D01*
X303000D01*
X303585Y199087D01*
X304081Y199419D01*
X307981Y203319D01*
X308313Y203815D01*
X308429Y204400D01*
Y269267D01*
X324504Y285341D01*
X324968Y285149D01*
D02*
G37*
D14*
X358000Y190500D02*
Y195500D01*
Y185500D02*
Y190500D01*
X371600Y174500D02*
X372000D01*
X367600Y178500D02*
Y180500D01*
X362600Y185500D02*
X367600Y180500D01*
X358000Y195500D02*
X383900D01*
X358000Y220500D02*
X370700D01*
X371358Y221158D01*
X384923D01*
X392366Y228600D01*
X458000D01*
X478700Y217800D02*
X488000Y208500D01*
X402900Y217800D02*
X478700D01*
X398258Y213158D02*
X402900Y217800D01*
X374000Y213158D02*
X398258D01*
X369742Y208900D02*
X374000Y213158D01*
X364550Y208900D02*
X369742D01*
X362950Y210500D02*
X364550Y208900D01*
X358000Y210500D02*
X362950D01*
X413458Y211158D02*
X415000Y212700D01*
X377758Y211158D02*
X413458D01*
X372100Y205500D02*
X377758Y211158D01*
X358000Y205500D02*
X372100D01*
X402600Y200500D02*
X404500Y202400D01*
X358000Y200500D02*
X402600D01*
X339102Y185500D02*
X352102Y172500D01*
X363000D01*
X367000Y168500D01*
X377000D01*
X383800Y175300D01*
X413000D01*
X416200Y178500D01*
X488000D01*
X351221Y231100D02*
X370800D01*
X347700Y227579D02*
X351221Y231100D01*
X347700Y214200D02*
Y227579D01*
X344000Y210500D02*
X347700Y214200D01*
X339102Y210500D02*
X344000D01*
X464500Y241100D02*
X466200Y239400D01*
X335700Y241100D02*
X464500D01*
X324500Y229900D02*
X335700Y241100D01*
X324500Y217859D02*
Y229900D01*
Y217859D02*
X326859Y215500D01*
X339102D01*
X490000Y164000D02*
X492453Y166453D01*
X485000Y164000D02*
X490000D01*
X483500Y162500D02*
X485000Y164000D01*
X483500Y153500D02*
X484500Y152500D01*
X492100D01*
X470400Y235200D02*
X496500Y209100D01*
X391400Y235200D02*
X470400D01*
X387500Y239100D02*
X391400Y235200D01*
X339100Y239100D02*
X387500D01*
X326500Y226500D02*
X339100Y239100D01*
X326500Y221359D02*
Y226500D01*
Y221359D02*
X328000Y219859D01*
X338500D01*
Y220500D02*
X339102D01*
X488000Y158500D02*
X494453Y164953D01*
Y188547D01*
X490000Y193000D02*
X494453Y188547D01*
X442900Y193000D02*
X490000D01*
X431190Y181290D02*
X442900Y193000D01*
X412890Y181290D02*
X431190D01*
X408900Y177300D02*
X412890Y181290D01*
X380800Y177300D02*
X408900D01*
X374000Y170500D02*
X380800Y177300D01*
X370000Y170500D02*
X374000D01*
X364000Y176500D02*
X370000Y170500D01*
X359700Y176500D02*
X364000D01*
X347700Y188500D02*
X359700Y176500D01*
X347700Y188500D02*
Y192500D01*
X344700Y195500D02*
X347700Y192500D01*
X339102Y195500D02*
X344700D01*
X337600Y246000D02*
X383000D01*
X322500Y230900D02*
X337600Y246000D01*
X322500Y206500D02*
Y230900D01*
Y206500D02*
X328500Y200500D01*
X371600Y180500D02*
X372600Y181500D01*
X386575D01*
X399791Y194717D01*
X403617D01*
X409400Y200500D01*
Y204500D01*
X407100Y206800D02*
X409400Y204500D01*
X387800Y206800D02*
X407100D01*
X386100Y205100D02*
X387800Y206800D01*
X298400Y205500D02*
Y262800D01*
X288200Y261200D02*
X316000Y289000D01*
X288200Y213800D02*
Y261200D01*
X280900Y206500D02*
X288200Y213800D01*
X253900Y206500D02*
X280900D01*
X249000Y211400D02*
X253900Y206500D01*
X386400Y276300D02*
X410200Y252500D01*
X361800Y276300D02*
X386400D01*
X383900Y269600D02*
X407500Y246000D01*
X331000Y269600D02*
X383900D01*
X276900Y210500D02*
Y290400D01*
X366000Y289000D02*
X372500Y282500D01*
X378500D01*
X380500Y284500D01*
Y292600D01*
X377600Y295500D02*
X380500Y292600D01*
X312000Y295500D02*
X377600D01*
X281200Y264700D02*
X312000Y295500D01*
X281200Y255800D02*
Y264700D01*
X280900Y255500D02*
X281200Y255800D01*
X371500Y293500D02*
X376000Y289000D01*
X333500Y293500D02*
X371500D01*
X330500Y290500D02*
X333500Y293500D01*
X330500Y286500D02*
Y290500D01*
X316500Y272500D02*
X330500Y286500D01*
X316500Y211500D02*
Y272500D01*
X235900Y199200D02*
Y297900D01*
X320500Y273500D02*
X336000Y289000D01*
X320500Y179588D02*
Y273500D01*
Y179588D02*
X337588Y162500D01*
X382600D01*
X384000Y163900D01*
X451600D01*
X245000Y213700D02*
X258200Y226900D01*
X245000Y206100D02*
Y213700D01*
Y206100D02*
X250600Y200500D01*
X303000D01*
X306900Y204400D01*
Y269900D01*
X326000Y289000D01*
X358000Y185500D02*
X362600D01*
X373600Y176500D02*
X376400Y179300D01*
X405300D01*
X414500Y188500D01*
X423000D01*
X433000Y198500D01*
X488000D01*
X352169Y206500D02*
X358000Y205500D01*
X352169Y206500D02*
Y223181D01*
X384118D01*
X387437Y226500D01*
Y230500D01*
X382837Y235100D02*
X387437Y230500D01*
X346200Y235100D02*
X382837D01*
X336500Y225400D02*
X346200Y235100D01*
X330500Y223900D02*
Y225900D01*
X341700Y237100D01*
X384800D01*
X389300Y232600D01*
X460000D01*
X462000Y230600D01*
Y225200D02*
Y230600D01*
X460000Y223200D02*
X462000Y225200D01*
X389794Y223200D02*
X460000D01*
X385694Y219100D02*
X389794Y223200D01*
X372200Y219100D02*
X385694D01*
X370600Y217500D02*
X372200Y219100D01*
X361100Y217500D02*
X370600D01*
X358000Y215500D02*
X361100D01*
X331200Y198500D02*
X333200Y200500D01*
X331200Y174500D02*
Y198500D01*
Y174500D02*
X341200Y164500D01*
X381000D01*
X383000Y166500D01*
X388000D01*
X389400Y167900D01*
X454200D01*
X455600Y166500D01*
Y161500D02*
Y166500D01*
X454000Y159900D02*
X455600Y161500D01*
X387837Y159900D02*
X454000D01*
X367550Y213350D02*
X369400Y215200D01*
X375000D01*
X376879Y217079D01*
X395400D02*
Y218300D01*
X379437Y207148D02*
X381447Y209158D01*
X407942D01*
X412600Y204500D01*
Y199773D02*
Y204500D01*
X403990Y192390D02*
X412600Y199773D01*
X402100Y190500D02*
X403990Y192390D01*
X402100Y184100D02*
Y190500D01*
Y184100D02*
X402900Y183300D01*
X333700Y205500D02*
X339102D01*
X332000Y207200D02*
X333700Y205500D01*
X379800Y225200D02*
X383400Y228800D01*
X351000Y225200D02*
X379800D01*
X349900Y224100D02*
X351000Y225200D01*
X349900Y208500D02*
Y224100D01*
X346900Y205500D02*
X349900Y208500D01*
X339102Y205500D02*
X346900D01*
X456500Y168500D02*
X488000D01*
X455100Y169900D02*
X456500Y168500D01*
X381400Y169900D02*
X455100D01*
X378000Y166500D02*
X381400Y169900D01*
X344500Y166500D02*
X378000D01*
X333200Y177800D02*
X344500Y166500D01*
X333200Y177800D02*
Y189500D01*
X334200Y190500D01*
X339102D01*
X276900Y195500D02*
X317100Y155300D01*
X474800D01*
X483500Y164000D01*
X492453Y166453D02*
Y184047D01*
X406100Y188400D02*
X421200Y203500D01*
X490000D01*
X496500Y197000D01*
Y156900D02*
Y197000D01*
X492100Y152500D02*
X496500Y156900D01*
X483500Y153500D02*
X492100Y152500D01*
X483500Y153500D02*
Y162500D01*
X488000Y188500D02*
X492453Y184047D01*
X369600Y176500D02*
X373600D01*
X367600Y178500D02*
X369600Y176500D01*
X371600Y174500D01*
X361100Y215500D02*
Y217500D01*
X328500Y200500D02*
X333200D01*
X339102D01*
X376879Y217079D02*
X395400D01*
X338500Y219859D02*
Y220500D01*
X496500Y197000D02*
Y209100D01*
X483500Y164000D02*
X485000D01*
X394000Y280000D02*
X407500Y266500D01*
X440500D01*
X276900Y290400D02*
X284500Y298000D01*
X396500D01*
X419500Y275000D01*
X235900Y297900D02*
X238500Y300500D01*
X405900D01*
X423500Y282900D01*
D19*
X358000Y220500D02*
D03*
Y215500D02*
D03*
Y210500D02*
D03*
Y205500D02*
D03*
Y200500D02*
D03*
Y195500D02*
D03*
Y190500D02*
D03*
Y185500D02*
D03*
X339102Y220500D02*
D03*
Y215500D02*
D03*
Y210500D02*
D03*
Y205500D02*
D03*
Y200500D02*
D03*
Y195500D02*
D03*
Y190500D02*
D03*
Y185500D02*
D03*
D29*
X316000Y289000D02*
D03*
D30*
X326000D02*
D03*
X336000D02*
D03*
X346000D02*
D03*
X356000D02*
D03*
X366000D02*
D03*
X376000D02*
D03*
X386000D02*
D03*
X488000Y168500D02*
D03*
Y178500D02*
D03*
Y188500D02*
D03*
Y198500D02*
D03*
Y208500D02*
D03*
D31*
Y158500D02*
D03*
D32*
X372000Y174500D02*
D03*
X383900Y195500D02*
D03*
X458000Y228600D02*
D03*
X415000Y212700D02*
D03*
X404500Y202400D02*
D03*
X370800Y231100D02*
D03*
X466200Y239400D02*
D03*
X383000Y246000D02*
D03*
X371600Y180500D02*
D03*
X386100Y205100D02*
D03*
X298400Y262800D02*
D03*
Y205500D02*
D03*
X249000Y211400D02*
D03*
X410200Y252500D02*
D03*
X361800Y276300D02*
D03*
X407500Y246000D02*
D03*
X331000Y269600D02*
D03*
X276900Y210500D02*
D03*
X419500Y275000D02*
D03*
X280900Y255500D02*
D03*
X316500Y211500D02*
D03*
X423500Y282900D02*
D03*
X235900Y199200D02*
D03*
X451600Y163900D02*
D03*
X258200Y226900D02*
D03*
X336500Y225400D02*
D03*
X330500Y223900D02*
D03*
X387837Y159900D02*
D03*
X367550Y213350D02*
D03*
X395400Y218300D02*
D03*
X379437Y207148D02*
D03*
X402900Y183300D02*
D03*
X332000Y207200D02*
D03*
X383400Y228800D02*
D03*
X276900Y195500D02*
D03*
X406100Y188400D02*
D03*
X440500Y266500D02*
D03*
X394000Y280000D02*
D03*
M02*
