G04*
G04 #@! TF.GenerationSoftware,Altium Limited,Altium Designer,20.0.2 (26)*
G04*
G04 Layer_Color=16711935*
%FSLAX25Y25*%
%MOIN*%
G70*
G01*
G75*
%ADD33C,0.00394*%
D33*
X402138Y206681D02*
G03*
X402138Y206681I-1969J0D01*
G01*
X274587Y209181D02*
G03*
X274587Y209181I-1969J0D01*
G01*
X354850Y219142D02*
G03*
X354850Y219142I-1969J0D01*
G01*
X325268Y191244D02*
X333732D01*
X325268Y196756D02*
X333732D01*
Y191244D02*
Y196756D01*
X325268Y191244D02*
Y196756D01*
X339744Y201268D02*
Y209732D01*
X345256Y201268D02*
Y209732D01*
X339744Y201268D02*
X345256D01*
X339744Y209732D02*
X345256D01*
X436756Y155768D02*
Y164232D01*
X431244Y155768D02*
Y164232D01*
X436756D01*
X431244Y155768D02*
X436756D01*
X455268Y206744D02*
X463732D01*
X455268Y212256D02*
X463732D01*
Y206744D02*
Y212256D01*
X455268Y206744D02*
Y212256D01*
X341618Y223244D02*
X350083D01*
X341618Y228756D02*
X350083D01*
Y223244D02*
Y228756D01*
X341618Y223244D02*
Y228756D01*
X361618Y204744D02*
X370083D01*
X361618Y210256D02*
X370083D01*
Y204744D02*
Y210256D01*
X361618Y204744D02*
Y210256D01*
X465256Y167917D02*
Y176382D01*
X459744Y167917D02*
Y176382D01*
X465256D01*
X459744Y167917D02*
X465256D01*
X434768Y212256D02*
X443232D01*
X434768Y206744D02*
X443232D01*
X434768D02*
Y212256D01*
X443232Y206744D02*
Y212256D01*
X396118Y237744D02*
X404583D01*
X396118Y243256D02*
X404583D01*
Y237744D02*
Y243256D01*
X396118Y237744D02*
Y243256D01*
X295756Y223268D02*
Y231732D01*
X290244Y223268D02*
Y231732D01*
X295756D01*
X290244Y223268D02*
X295756D01*
X309756Y171768D02*
Y180232D01*
X304244Y171768D02*
Y180232D01*
X309756D01*
X304244Y171768D02*
X309756D01*
X411744Y239917D02*
Y248382D01*
X417256Y239917D02*
Y248382D01*
X411744Y239917D02*
X417256D01*
X411744Y248382D02*
X417256D01*
X412118Y263244D02*
X420583D01*
X412118Y268756D02*
X420583D01*
Y263244D02*
Y268756D01*
X412118Y263244D02*
Y268756D01*
X318756Y229118D02*
Y237583D01*
X313244Y229118D02*
Y237583D01*
X318756D01*
X313244Y229118D02*
X318756D01*
X323244Y166268D02*
Y174732D01*
X328756Y166268D02*
Y174732D01*
X323244Y166268D02*
X328756D01*
X323244Y174732D02*
X328756D01*
X427768Y246244D02*
X436232D01*
X427768Y251756D02*
X436232D01*
Y246244D02*
Y251756D01*
X427768Y246244D02*
Y251756D01*
X239244Y222331D02*
X244756D01*
X239244Y230795D02*
X244756D01*
X239244Y222331D02*
Y230795D01*
X244756Y222331D02*
Y230795D01*
X263744Y222768D02*
X269256D01*
X263744Y231232D02*
X269256D01*
X263744Y222768D02*
Y231232D01*
X269256Y222768D02*
Y231232D01*
X442244Y162669D02*
X447756D01*
X442244Y154205D02*
X447756D01*
Y162669D01*
X442244Y154205D02*
Y162669D01*
X444705Y219744D02*
Y225256D01*
X453169Y219744D02*
Y225256D01*
X444705D02*
X453169D01*
X444705Y219744D02*
X453169D01*
X365768Y194744D02*
Y200256D01*
X374232Y194744D02*
Y200256D01*
X365768D02*
X374232D01*
X365768Y194744D02*
X374232D01*
X365768Y184244D02*
Y189756D01*
X374232Y184244D02*
Y189756D01*
X365768D02*
X374232D01*
X365768Y184244D02*
X374232D01*
X396268Y149744D02*
Y155256D01*
X404732Y149744D02*
Y155256D01*
X396268D02*
X404732D01*
X396268Y149744D02*
X404732D01*
X444831Y196744D02*
Y202256D01*
X453295Y196744D02*
Y202256D01*
X444831D02*
X453295D01*
X444831Y196744D02*
X453295D01*
X344705Y189244D02*
Y194756D01*
X353169Y189244D02*
Y194756D01*
X344705D02*
X353169D01*
X344705Y189244D02*
X353169D01*
X371268Y219744D02*
Y225256D01*
X379732Y219744D02*
Y225256D01*
X371268D02*
X379732D01*
X371268Y219744D02*
X379732D01*
X433768Y175244D02*
Y180756D01*
X442232Y175244D02*
Y180756D01*
X433768D02*
X442232D01*
X433768Y175244D02*
X442232D01*
X375768Y164744D02*
Y170256D01*
X384232Y164744D02*
Y170256D01*
X375768D02*
X384232D01*
X375768Y164744D02*
X384232D01*
X381768Y252244D02*
Y257756D01*
X390232Y252244D02*
Y257756D01*
X381768D02*
X390232D01*
X381768Y252244D02*
X390232D01*
X274768Y246244D02*
Y251756D01*
X283232Y246244D02*
Y251756D01*
X274768D02*
X283232D01*
X274768Y246244D02*
X283232D01*
X304744Y211795D02*
X310256D01*
X304744Y203331D02*
X310256D01*
Y211795D01*
X304744Y203331D02*
Y211795D01*
X355268Y260244D02*
Y265756D01*
X363732Y260244D02*
Y265756D01*
X355268D02*
X363732D01*
X355268Y260244D02*
X363732D01*
X235705Y202244D02*
Y207756D01*
X244169Y202244D02*
Y207756D01*
X235705D02*
X244169D01*
X235705Y202244D02*
X244169D01*
X234205Y184244D02*
Y189756D01*
X242669Y184244D02*
Y189756D01*
X234205D02*
X242669D01*
X234205Y184244D02*
X242669D01*
X286795Y152244D02*
Y157756D01*
X278331Y152244D02*
Y157756D01*
Y152244D02*
X286795D01*
X278331Y157756D02*
X286795D01*
X326268Y255744D02*
Y261256D01*
X334732Y255744D02*
Y261256D01*
X326268D02*
X334732D01*
X326268Y255744D02*
X334732D01*
X449831Y243744D02*
Y249256D01*
X458295Y243744D02*
Y249256D01*
X449831D02*
X458295D01*
X449831Y243744D02*
X458295D01*
X334831Y237744D02*
Y243256D01*
X343295Y237744D02*
Y243256D01*
X334831D02*
X343295D01*
X334831Y237744D02*
X343295D01*
X305831Y152744D02*
Y158256D01*
X314295Y152744D02*
Y158256D01*
X305831D02*
X314295D01*
X305831Y152744D02*
X314295D01*
X421768Y228744D02*
Y234256D01*
X430232Y228744D02*
Y234256D01*
X421768D02*
X430232D01*
X421768Y228744D02*
X430232D01*
X396626Y175776D02*
Y210224D01*
X412374Y175776D02*
Y210224D01*
X396626D02*
X412374D01*
X396626Y175776D02*
X412374D01*
X269075Y178276D02*
Y212724D01*
X284823Y178276D02*
Y212724D01*
X269075D02*
X284823D01*
X269075Y178276D02*
X284823D01*
X356425Y183315D02*
Y222685D01*
X340677Y183315D02*
Y222685D01*
X356425D01*
X340677Y183315D02*
X356425D01*
M02*
