G04*
G04 #@! TF.GenerationSoftware,Altium Limited,Altium Designer,20.0.2 (26)*
G04*
G04 Layer_Color=16711935*
%FSLAX25Y25*%
%MOIN*%
G70*
G01*
G75*
%ADD24O,0.09461X0.03162*%
%ADD25R,0.06706X0.06706*%
%ADD26C,0.06706*%
%ADD27R,0.06706X0.06706*%
%ADD28C,0.05800*%
D24*
X358000Y220500D02*
D03*
Y215500D02*
D03*
Y210500D02*
D03*
Y205500D02*
D03*
Y200500D02*
D03*
Y195500D02*
D03*
Y190500D02*
D03*
Y185500D02*
D03*
X339102Y220500D02*
D03*
Y215500D02*
D03*
Y210500D02*
D03*
Y205500D02*
D03*
Y200500D02*
D03*
Y195500D02*
D03*
Y190500D02*
D03*
Y185500D02*
D03*
D25*
X316000Y289000D02*
D03*
D26*
X326000D02*
D03*
X336000D02*
D03*
X346000D02*
D03*
X356000D02*
D03*
X366000D02*
D03*
X376000D02*
D03*
X386000D02*
D03*
X488000Y168500D02*
D03*
Y178500D02*
D03*
Y188500D02*
D03*
Y198500D02*
D03*
Y208500D02*
D03*
D27*
Y158500D02*
D03*
D28*
X372000Y174500D02*
D03*
X383900Y195500D02*
D03*
X458000Y228600D02*
D03*
X415000Y212700D02*
D03*
X404500Y202400D02*
D03*
X370800Y231100D02*
D03*
X466200Y239400D02*
D03*
X383000Y246000D02*
D03*
X371600Y180500D02*
D03*
X386100Y205100D02*
D03*
X298400Y262800D02*
D03*
Y205500D02*
D03*
X249000Y211400D02*
D03*
X410200Y252500D02*
D03*
X361800Y276300D02*
D03*
X407500Y246000D02*
D03*
X331000Y269600D02*
D03*
X276900Y210500D02*
D03*
X419500Y275000D02*
D03*
X280900Y255500D02*
D03*
X316500Y211500D02*
D03*
X423500Y282900D02*
D03*
X235900Y199200D02*
D03*
X451600Y163900D02*
D03*
X258200Y226900D02*
D03*
X336500Y225400D02*
D03*
X330500Y223900D02*
D03*
X387837Y159900D02*
D03*
X367550Y213350D02*
D03*
X395400Y218300D02*
D03*
X379437Y207148D02*
D03*
X402900Y183300D02*
D03*
X332000Y207200D02*
D03*
X383400Y228800D02*
D03*
X276900Y195500D02*
D03*
X406100Y188400D02*
D03*
X440500Y266500D02*
D03*
X394000Y280000D02*
D03*
M02*
