G04*
G04 #@! TF.GenerationSoftware,Altium Limited,Altium Designer,20.0.2 (26)*
G04*
G04 Layer_Physical_Order=1*
G04 Layer_Color=255*
%FSLAX25Y25*%
%MOIN*%
G70*
G01*
G75*
%ADD14C,0.01000*%
%ADD15R,0.03937X0.05118*%
%ADD16R,0.05118X0.03937*%
%ADD17R,0.05906X0.05512*%
%ADD18R,0.05512X0.05906*%
%ADD19O,0.08661X0.02362*%
%ADD29R,0.05906X0.05906*%
%ADD30C,0.05906*%
%ADD31R,0.05906X0.05906*%
%ADD32C,0.05000*%
G36*
X504500Y134500D02*
X224355D01*
X224002Y134855D01*
X225000Y311000D01*
X504500D01*
Y134500D01*
D02*
G37*
%LPC*%
G36*
X379500Y299029D02*
X342133D01*
X341548Y298913D01*
X341052Y298581D01*
X340466Y297996D01*
X340134Y297499D01*
X340018Y296914D01*
Y290936D01*
X339518Y290836D01*
X339453Y290993D01*
X338819Y291819D01*
X337993Y292453D01*
X337032Y292851D01*
X336000Y292987D01*
X334968Y292851D01*
X334007Y292453D01*
X333181Y291819D01*
X332547Y290993D01*
X332149Y290032D01*
X332013Y289000D01*
X332149Y287968D01*
X332547Y287007D01*
X333067Y286329D01*
X332866Y285829D01*
X329134D01*
X328933Y286329D01*
X329453Y287007D01*
X329851Y287968D01*
X329987Y289000D01*
X329851Y290032D01*
X329453Y290993D01*
X328819Y291819D01*
X327993Y292453D01*
X327032Y292851D01*
X326000Y292987D01*
X324968Y292851D01*
X324007Y292453D01*
X323181Y291819D01*
X322547Y290993D01*
X322149Y290032D01*
X322013Y289000D01*
X322149Y287968D01*
X322547Y287007D01*
X323067Y286329D01*
X322866Y285829D01*
X319953D01*
Y292953D01*
X312047D01*
Y285829D01*
X260800D01*
X260215Y285713D01*
X259719Y285381D01*
X228619Y254281D01*
X228287Y253785D01*
X228171Y253200D01*
Y182500D01*
X228287Y181915D01*
X228619Y181419D01*
X230619Y179419D01*
X231115Y179087D01*
X231700Y178971D01*
X262749D01*
X262778Y178928D01*
X263499Y178445D01*
X264350Y178276D01*
X270650D01*
X271501Y178445D01*
X272222Y178928D01*
X272271Y179000D01*
X272771Y178848D01*
Y150400D01*
X272887Y149815D01*
X273219Y149319D01*
X276919Y145619D01*
X277415Y145287D01*
X278000Y145171D01*
X344200D01*
X344785Y145287D01*
X345281Y145619D01*
X370851Y171188D01*
X371086Y171090D01*
X372000Y170970D01*
X372307Y170701D01*
Y163547D01*
X374534D01*
Y146837D01*
X374650Y146252D01*
X374982Y145756D01*
X380919Y139819D01*
X381415Y139487D01*
X382000Y139371D01*
X485200D01*
X485785Y139487D01*
X486281Y139819D01*
X495581Y149119D01*
X495913Y149615D01*
X496029Y150200D01*
Y224900D01*
X495913Y225485D01*
X495581Y225981D01*
X474881Y246681D01*
X474385Y247013D01*
X473800Y247129D01*
X465300D01*
X464715Y247013D01*
X464219Y246681D01*
X462218Y244681D01*
X461756Y244872D01*
Y250453D01*
X459529D01*
Y286300D01*
X459413Y286885D01*
X459081Y287381D01*
X449881Y296581D01*
X449385Y296913D01*
X448800Y297029D01*
X425000D01*
X424415Y296913D01*
X423918Y296581D01*
X418419Y291081D01*
X418087Y290585D01*
X417971Y290000D01*
Y278155D01*
X417735Y278057D01*
X417004Y277496D01*
X416443Y276765D01*
X416090Y275914D01*
X415970Y275000D01*
X416090Y274086D01*
X416443Y273235D01*
X417004Y272504D01*
X417735Y271943D01*
X417971Y271845D01*
Y269559D01*
X416532D01*
Y269559D01*
X416169D01*
Y269559D01*
X410232D01*
Y265758D01*
X409819Y265481D01*
X400867Y256529D01*
X393693D01*
Y258953D01*
X386319D01*
X386181Y258953D01*
X385819D01*
X385681Y258953D01*
X383592D01*
Y262937D01*
X383476Y263522D01*
X383144Y264018D01*
X364607Y282556D01*
X364798Y283018D01*
X389819D01*
X390999Y281838D01*
X390943Y281765D01*
X390590Y280914D01*
X390470Y280000D01*
X390590Y279086D01*
X390943Y278235D01*
X391504Y277504D01*
X392235Y276943D01*
X393086Y276590D01*
X394000Y276470D01*
X394914Y276590D01*
X395765Y276943D01*
X396496Y277504D01*
X397057Y278235D01*
X397410Y279086D01*
X397530Y280000D01*
X397410Y280914D01*
X397057Y281765D01*
X396496Y282496D01*
X395765Y283057D01*
X394914Y283410D01*
X394000Y283530D01*
X393675Y283488D01*
X391534Y285629D01*
X391038Y285960D01*
X390453Y286077D01*
X389369D01*
X389123Y286577D01*
X389453Y287007D01*
X389851Y287968D01*
X389987Y289000D01*
X389851Y290032D01*
X389453Y290993D01*
X388819Y291819D01*
X387993Y292453D01*
X387032Y292851D01*
X386000Y292987D01*
X384968Y292851D01*
X384504Y292659D01*
X383029Y294133D01*
Y295500D01*
X382913Y296085D01*
X382581Y296581D01*
X380581Y298581D01*
X380085Y298913D01*
X379500Y299029D01*
D02*
G37*
%LPD*%
G36*
X379971Y294866D02*
Y293500D01*
X380087Y292915D01*
X380419Y292419D01*
X382341Y290496D01*
X382149Y290032D01*
X382013Y289000D01*
X382149Y287968D01*
X382547Y287007D01*
X382877Y286577D01*
X382631Y286077D01*
X379369D01*
X379123Y286577D01*
X379453Y287007D01*
X379851Y287968D01*
X379987Y289000D01*
X379851Y290032D01*
X379453Y290993D01*
X378819Y291819D01*
X377993Y292453D01*
X377032Y292851D01*
X376000Y292987D01*
X374968Y292851D01*
X374007Y292453D01*
X373181Y291819D01*
X372547Y290993D01*
X372149Y290032D01*
X372013Y289000D01*
X372149Y287968D01*
X372547Y287007D01*
X372877Y286577D01*
X372631Y286077D01*
X369369D01*
X369123Y286577D01*
X369453Y287007D01*
X369851Y287968D01*
X369987Y289000D01*
X369851Y290032D01*
X369453Y290993D01*
X368819Y291819D01*
X367993Y292453D01*
X367032Y292851D01*
X366000Y292987D01*
X364968Y292851D01*
X364007Y292453D01*
X363577Y292123D01*
X363077Y292369D01*
Y293453D01*
X362960Y294038D01*
X362629Y294534D01*
X361692Y295471D01*
X361829Y295908D01*
X361877Y295971D01*
X378867D01*
X379971Y294866D01*
D02*
G37*
G36*
X354050Y292471D02*
X354007Y292453D01*
X353181Y291819D01*
X352547Y290993D01*
X352149Y290032D01*
X352013Y289000D01*
X352149Y287968D01*
X352547Y287007D01*
X353181Y286181D01*
X354007Y285547D01*
X354968Y285149D01*
X356000Y285013D01*
X357032Y285149D01*
X357496Y285341D01*
X362609Y280228D01*
X362376Y279754D01*
X361800Y279830D01*
X360886Y279710D01*
X360035Y279357D01*
X359304Y278796D01*
X358743Y278065D01*
X358390Y277214D01*
X358270Y276300D01*
X358390Y275386D01*
X358743Y274535D01*
X359304Y273804D01*
X360035Y273243D01*
X360271Y273145D01*
Y266953D01*
X359681D01*
Y266953D01*
X359319D01*
Y266953D01*
X357092D01*
Y272484D01*
X356976Y273070D01*
X356644Y273566D01*
X345625Y284585D01*
X345846Y285033D01*
X346000Y285013D01*
X347032Y285149D01*
X347993Y285547D01*
X348819Y286181D01*
X349453Y287007D01*
X349851Y287968D01*
X349987Y289000D01*
X349851Y290032D01*
X349659Y290496D01*
X352133Y292971D01*
X353950D01*
X354050Y292471D01*
D02*
G37*
G36*
X421279Y261979D02*
X417367Y258067D01*
X407383D01*
X407191Y258528D01*
X411104Y262441D01*
X416169D01*
Y262441D01*
X416532D01*
Y262441D01*
X421088D01*
X421279Y261979D01*
D02*
G37*
G36*
X456471Y285666D02*
Y250453D01*
X454244D01*
Y250453D01*
X453882D01*
Y250453D01*
X451655D01*
Y278626D01*
X451539Y279211D01*
X451207Y279707D01*
X438833Y292081D01*
X438337Y292413D01*
X437752Y292529D01*
X428500D01*
X427915Y292413D01*
X427419Y292081D01*
X422419Y287081D01*
X422087Y286585D01*
X421982Y286060D01*
X421735Y285957D01*
X421478Y285760D01*
X421029Y285981D01*
Y289367D01*
X425633Y293971D01*
X448167D01*
X456471Y285666D01*
D02*
G37*
G36*
X341471Y279112D02*
Y244453D01*
X339244D01*
Y244453D01*
X338882D01*
Y244453D01*
X331370D01*
Y242029D01*
X309450D01*
X308865Y241913D01*
X308369Y241581D01*
X298967Y232179D01*
X296559D01*
Y233618D01*
X294529D01*
Y252500D01*
X294413Y253085D01*
X294081Y253581D01*
X287081Y260581D01*
X286585Y260913D01*
X286000Y261029D01*
X262200D01*
X261615Y260913D01*
X261119Y260581D01*
X231691Y231154D01*
X231229Y231346D01*
Y252567D01*
X261434Y282771D01*
X337812D01*
X341471Y279112D01*
D02*
G37*
G36*
X401971Y253170D02*
Y244059D01*
X400531D01*
Y244059D01*
X400169D01*
Y244059D01*
X398730D01*
Y252500D01*
X398637Y252971D01*
X398634Y252990D01*
X398912Y253471D01*
X401500D01*
X401584Y253487D01*
X401971Y253170D01*
D02*
G37*
G36*
X340018Y287064D02*
Y286500D01*
X340134Y285915D01*
X340466Y285419D01*
X354034Y271851D01*
Y266953D01*
X351807D01*
Y259047D01*
X359319D01*
Y259047D01*
X359681D01*
Y259047D01*
X367193D01*
Y266953D01*
X363329D01*
Y273145D01*
X363565Y273243D01*
X364296Y273804D01*
X364857Y274535D01*
X365210Y275386D01*
X365330Y276300D01*
X365254Y276876D01*
X365728Y277109D01*
X380534Y262303D01*
Y258953D01*
X378307D01*
Y251047D01*
X385681D01*
X385819Y251047D01*
X386181D01*
X386319Y251047D01*
X393693D01*
Y253167D01*
X394193Y253345D01*
X395671Y251867D01*
Y244059D01*
X394232D01*
Y237638D01*
X393732Y237431D01*
X386312Y244851D01*
X386410Y245086D01*
X386530Y246000D01*
X386410Y246914D01*
X386057Y247765D01*
X385496Y248496D01*
X384765Y249057D01*
X383914Y249410D01*
X383000Y249530D01*
X382086Y249410D01*
X381235Y249057D01*
X380504Y248496D01*
X379943Y247765D01*
X379590Y246914D01*
X379470Y246000D01*
X379590Y245086D01*
X379943Y244235D01*
X380504Y243504D01*
X381235Y242943D01*
X382086Y242590D01*
X383000Y242470D01*
X383914Y242590D01*
X384149Y242688D01*
X389895Y236942D01*
X389803Y236753D01*
X389600Y236530D01*
X389100Y236629D01*
X346756D01*
Y244453D01*
X344529D01*
Y279746D01*
X344413Y280331D01*
X344081Y280827D01*
X339527Y285381D01*
X339031Y285713D01*
X339031Y285713D01*
X338922Y285952D01*
X338875Y286254D01*
X339453Y287007D01*
X339518Y287164D01*
X340018Y287064D01*
D02*
G37*
G36*
X408919Y239919D02*
X409415Y239587D01*
X410000Y239471D01*
X410941D01*
Y238032D01*
X418059D01*
Y238125D01*
X418521Y238316D01*
X420534Y236303D01*
Y235453D01*
X418307D01*
Y227547D01*
X425681D01*
X425819Y227547D01*
X426181D01*
X426319Y227547D01*
X427031D01*
X427222Y227085D01*
X416149Y216012D01*
X415914Y216110D01*
X415000Y216230D01*
X414086Y216110D01*
X413235Y215757D01*
X412504Y215196D01*
X411943Y214465D01*
X411590Y213614D01*
X411470Y212700D01*
X411590Y211786D01*
X411943Y210935D01*
X412144Y210672D01*
X411923Y210224D01*
X410799D01*
X410229Y210110D01*
X409729Y210464D01*
Y220800D01*
X409613Y221385D01*
X409281Y221881D01*
X394722Y236441D01*
X394929Y236941D01*
X400169D01*
Y236941D01*
X400531D01*
Y236941D01*
X406468D01*
Y241715D01*
X406930Y241907D01*
X408919Y239919D01*
D02*
G37*
G36*
X425882Y245441D02*
X431681D01*
X431819Y245441D01*
X432181D01*
X432319Y245441D01*
X433620D01*
Y243446D01*
X428856Y238681D01*
X428524Y238185D01*
X428408Y237600D01*
Y235453D01*
X426319D01*
X426181Y235453D01*
X425819D01*
X425681Y235453D01*
X423592D01*
Y236937D01*
X423476Y237522D01*
X423144Y238018D01*
X419081Y242081D01*
X418585Y242413D01*
X418059Y242518D01*
Y243969D01*
X418059D01*
Y244331D01*
X418059D01*
Y245770D01*
X422490D01*
X423076Y245886D01*
X423572Y246218D01*
X424825Y247471D01*
X425882D01*
Y245441D01*
D02*
G37*
G36*
X312441Y233531D02*
X312441D01*
Y233169D01*
X312441D01*
Y231730D01*
X303497D01*
X303305Y232192D01*
X310084Y238971D01*
X312441D01*
Y233531D01*
D02*
G37*
G36*
X448597Y277993D02*
Y250453D01*
X446370D01*
Y242547D01*
X453882D01*
Y242547D01*
X454244D01*
Y242547D01*
X456471D01*
Y231755D01*
X456235Y231657D01*
X455504Y231096D01*
X454943Y230365D01*
X454590Y229514D01*
X454470Y228600D01*
X454590Y227686D01*
X454894Y226953D01*
X454672Y226453D01*
X449256D01*
X449118Y226453D01*
X448756D01*
X448618Y226453D01*
X443210D01*
X442081Y227581D01*
X441585Y227913D01*
X441000Y228029D01*
X440529D01*
Y232366D01*
X442581Y234419D01*
X442913Y234915D01*
X443029Y235500D01*
Y264047D01*
X443557Y264735D01*
X443910Y265586D01*
X444030Y266500D01*
X443910Y267414D01*
X443557Y268265D01*
X442996Y268996D01*
X442265Y269557D01*
X441414Y269910D01*
X440500Y270030D01*
X439586Y269910D01*
X438735Y269557D01*
X438004Y268996D01*
X437443Y268265D01*
X437090Y267414D01*
X436970Y266500D01*
X437090Y265586D01*
X437443Y264735D01*
X438004Y264004D01*
X438735Y263443D01*
X439586Y263090D01*
X439971Y263039D01*
Y236134D01*
X437919Y234081D01*
X437587Y233585D01*
X437471Y233000D01*
Y227086D01*
X437587Y226501D01*
X437919Y226004D01*
X438504Y225419D01*
X439001Y225087D01*
X439586Y224971D01*
X440367D01*
X441244Y224093D01*
Y218547D01*
X448618D01*
X448756Y218547D01*
X449118D01*
X449256Y218547D01*
X451345D01*
Y217676D01*
X451461Y217091D01*
X451793Y216595D01*
X454821Y213566D01*
Y213059D01*
X453382D01*
Y211029D01*
X445118D01*
Y213059D01*
X439319D01*
X439181Y213059D01*
X438819D01*
X438681Y213059D01*
X432882D01*
Y211029D01*
X425600D01*
X425015Y210913D01*
X424519Y210581D01*
X423466Y209529D01*
X418700D01*
X418671Y209573D01*
X417991Y210027D01*
X417941Y210086D01*
X417796Y210595D01*
X418057Y210935D01*
X418410Y211786D01*
X418530Y212700D01*
X418410Y213614D01*
X418312Y213849D01*
X431018Y226556D01*
X431350Y227052D01*
X431449Y227547D01*
X433693D01*
Y235453D01*
X431466D01*
Y236966D01*
X436231Y241731D01*
X436563Y242227D01*
X436679Y242813D01*
Y245441D01*
X438118D01*
Y252559D01*
X432319D01*
X432181Y252559D01*
X431819D01*
X431681Y252559D01*
X425882D01*
Y250529D01*
X424191D01*
X423606Y250413D01*
X423110Y250081D01*
X421857Y248829D01*
X418059D01*
Y250268D01*
X413464D01*
X413243Y250716D01*
X413257Y250735D01*
X413610Y251586D01*
X413730Y252500D01*
X413610Y253414D01*
X413257Y254265D01*
X413071Y254508D01*
X413318Y255008D01*
X418000D01*
X418585Y255124D01*
X419081Y255456D01*
X424581Y260956D01*
X424913Y261452D01*
X425029Y262037D01*
Y279745D01*
X425265Y279843D01*
X425996Y280404D01*
X426557Y281135D01*
X426910Y281986D01*
X427030Y282900D01*
X426910Y283814D01*
X426557Y284665D01*
X425996Y285396D01*
X425767Y285572D01*
X425734Y286071D01*
X429134Y289471D01*
X437118D01*
X448597Y277993D01*
D02*
G37*
G36*
X291471Y251867D02*
Y233618D01*
X289441D01*
Y227681D01*
X289441D01*
Y227319D01*
X289441D01*
Y225880D01*
X287720D01*
X284466Y229134D01*
Y245047D01*
X286693D01*
Y252953D01*
X283987D01*
X283741Y253453D01*
X283957Y253735D01*
X284310Y254586D01*
X284430Y255500D01*
X284310Y256414D01*
X283957Y257265D01*
X283760Y257522D01*
X283981Y257971D01*
X285367D01*
X291471Y251867D01*
D02*
G37*
G36*
X460671Y225607D02*
Y213059D01*
X459681D01*
Y213059D01*
X459319D01*
Y213059D01*
X457880D01*
Y214200D01*
X457763Y214785D01*
X457432Y215281D01*
X454666Y218047D01*
X454873Y218547D01*
X456630D01*
Y224929D01*
X456977Y225161D01*
X457130Y225184D01*
X458000Y225070D01*
X458914Y225190D01*
X459765Y225543D01*
X460171Y225854D01*
X460671Y225607D01*
D02*
G37*
G36*
X278040Y257522D02*
X277843Y257265D01*
X277490Y256414D01*
X277370Y255500D01*
X277490Y254586D01*
X277588Y254351D01*
X276219Y252981D01*
X276199Y252953D01*
X271307D01*
Y245047D01*
X278681D01*
X278819Y245047D01*
Y245047D01*
X279181D01*
Y245047D01*
X281408D01*
Y228500D01*
X281524Y227915D01*
X281856Y227419D01*
X286005Y223269D01*
X286501Y222937D01*
X287087Y222821D01*
X287066Y222329D01*
X285970D01*
X276281Y232018D01*
X275785Y232350D01*
X275200Y232466D01*
X270453D01*
Y234693D01*
X262547D01*
Y227181D01*
X262547D01*
Y226819D01*
X262547D01*
Y225369D01*
X262085Y225178D01*
X261512Y225751D01*
X261610Y225986D01*
X261730Y226900D01*
X261610Y227814D01*
X261257Y228665D01*
X260696Y229396D01*
X259965Y229957D01*
X259114Y230310D01*
X258200Y230430D01*
X257286Y230310D01*
X256435Y229957D01*
X255704Y229396D01*
X255143Y228665D01*
X254980Y228271D01*
X254489Y228174D01*
X251081Y231581D01*
X250585Y231913D01*
X250000Y232029D01*
X245953D01*
Y234256D01*
X239772D01*
X239581Y234718D01*
X262833Y257971D01*
X277819D01*
X278040Y257522D01*
D02*
G37*
G36*
X319776Y224671D02*
X316684Y221579D01*
X299896D01*
X299704Y222041D01*
X302834Y225171D01*
X319568D01*
X319776Y224671D01*
D02*
G37*
G36*
X283183Y220791D02*
X282991Y220329D01*
X270453D01*
Y226819D01*
X270453D01*
Y227181D01*
X270453D01*
Y229408D01*
X274567D01*
X283183Y220791D01*
D02*
G37*
G36*
X402971Y219067D02*
Y205555D01*
X402735Y205457D01*
X402004Y204896D01*
X401443Y204165D01*
X401090Y203314D01*
X400970Y202400D01*
X401090Y201486D01*
X401443Y200635D01*
X401907Y200029D01*
X401728Y199529D01*
X399802D01*
X399773Y199573D01*
X399052Y200055D01*
X398201Y200224D01*
X391902D01*
X391051Y200055D01*
X390329Y199573D01*
X390300Y199529D01*
X389548D01*
X389341Y200029D01*
X390575Y201263D01*
X391051Y200945D01*
X391902Y200776D01*
X398201D01*
X399052Y200945D01*
X399773Y201428D01*
X400255Y202149D01*
X400425Y203000D01*
X400255Y203851D01*
X399773Y204573D01*
X399052Y205055D01*
X398201Y205224D01*
X391902D01*
X391051Y205055D01*
X390329Y204573D01*
X389862Y204694D01*
X389608Y204932D01*
X389630Y205100D01*
X389516Y205971D01*
X389538Y206122D01*
X389771Y206471D01*
X390300D01*
X390329Y206428D01*
X391051Y205945D01*
X391902Y205776D01*
X398201D01*
X399052Y205945D01*
X399773Y206428D01*
X400255Y207149D01*
X400425Y208000D01*
X400255Y208851D01*
X399773Y209573D01*
X399052Y210055D01*
X398201Y210224D01*
X391902D01*
X391329Y210110D01*
X390829Y210462D01*
Y222600D01*
X390713Y223185D01*
X390381Y223681D01*
X386624Y227438D01*
X386810Y227886D01*
X386849Y228181D01*
X387377Y228361D01*
X393820Y221917D01*
X393764Y221411D01*
X393635Y221357D01*
X392904Y220796D01*
X392343Y220065D01*
X391990Y219214D01*
X391870Y218300D01*
X391990Y217386D01*
X392343Y216535D01*
X392904Y215804D01*
X393635Y215243D01*
X394486Y214890D01*
X395400Y214770D01*
X396314Y214890D01*
X397165Y215243D01*
X397896Y215804D01*
X398457Y216535D01*
X398810Y217386D01*
X398930Y218300D01*
X398810Y219214D01*
X398457Y220065D01*
X397896Y220796D01*
X397165Y221357D01*
X396929Y221455D01*
Y222500D01*
X396813Y223085D01*
X396481Y223581D01*
X386954Y233109D01*
X387146Y233571D01*
X388467D01*
X402971Y219067D01*
D02*
G37*
G36*
X342096Y219459D02*
X333149Y210512D01*
X332914Y210610D01*
X332000Y210730D01*
X331086Y210610D01*
X330235Y210257D01*
X329504Y209696D01*
X328943Y208965D01*
X328590Y208114D01*
X328470Y207200D01*
X328590Y206286D01*
X328943Y205435D01*
X329504Y204704D01*
X330235Y204143D01*
X330471Y204045D01*
Y201700D01*
X330587Y201115D01*
X330919Y200619D01*
X333516Y198021D01*
X333325Y197559D01*
X329681D01*
Y197559D01*
X329319D01*
Y197559D01*
X327880D01*
Y210718D01*
X337033Y219871D01*
X341601D01*
X341850Y219920D01*
X342096Y219459D01*
D02*
G37*
G36*
X238047Y232531D02*
Y226882D01*
X238047Y226744D01*
Y226382D01*
X238047Y226244D01*
Y218870D01*
X240471D01*
Y218400D01*
X240587Y217815D01*
X240919Y217319D01*
X245688Y212549D01*
X245590Y212314D01*
X245470Y211400D01*
X245590Y210486D01*
X245943Y209635D01*
X246122Y209401D01*
X245901Y208953D01*
X240256D01*
X240118Y208953D01*
X239756D01*
X239618Y208953D01*
X233229D01*
Y228366D01*
X237585Y232722D01*
X238047Y232531D01*
D02*
G37*
G36*
X387771Y221967D02*
Y208646D01*
X387355Y208369D01*
X387014Y208510D01*
X386100Y208630D01*
X385186Y208510D01*
X384335Y208157D01*
X383604Y207596D01*
X383440Y207383D01*
X382918Y207523D01*
X382847Y208062D01*
X382494Y208913D01*
X381933Y209644D01*
X381202Y210205D01*
X380966Y210303D01*
Y218547D01*
X383193D01*
Y225088D01*
X383400Y225270D01*
X384314Y225390D01*
X384337Y225400D01*
X387771Y221967D01*
D02*
G37*
G36*
X252671Y225666D02*
Y224500D01*
X252787Y223915D01*
X253119Y223419D01*
X258819Y217719D01*
X259315Y217387D01*
X259900Y217271D01*
X297114D01*
X297305Y216809D01*
X292526Y212029D01*
X291148D01*
X291120Y212072D01*
X290398Y212555D01*
X289547Y212724D01*
X283248D01*
X282397Y212555D01*
X281676Y212072D01*
X281193Y211351D01*
X281024Y210500D01*
X281193Y209649D01*
X281676Y208927D01*
X282397Y208445D01*
X283248Y208276D01*
X289547D01*
X290398Y208445D01*
X291120Y208927D01*
X291148Y208971D01*
X293160D01*
X293745Y209087D01*
X294241Y209419D01*
X300856Y216034D01*
X300882Y216029D01*
X301113Y215473D01*
X300987Y215285D01*
X300871Y214700D01*
Y208581D01*
X300422Y208360D01*
X300165Y208557D01*
X299314Y208910D01*
X298400Y209030D01*
X297486Y208910D01*
X296635Y208557D01*
X295904Y207996D01*
X295343Y207265D01*
X295245Y207029D01*
X291148D01*
X291120Y207072D01*
X290398Y207555D01*
X289547Y207724D01*
X283248D01*
X282397Y207555D01*
X281676Y207072D01*
X281193Y206351D01*
X281024Y205500D01*
X281193Y204649D01*
X281676Y203927D01*
X282397Y203446D01*
X283248Y203276D01*
X289547D01*
X290398Y203446D01*
X291120Y203927D01*
X291148Y203971D01*
X295245D01*
X295343Y203735D01*
X295904Y203004D01*
X296635Y202443D01*
X297486Y202090D01*
X298400Y201970D01*
X299314Y202090D01*
X300165Y202443D01*
X300422Y202640D01*
X300871Y202419D01*
Y191333D01*
X291611Y182074D01*
X291120Y182072D01*
X290398Y182554D01*
X289547Y182724D01*
X283248D01*
X282397Y182554D01*
X281676Y182072D01*
X281193Y181351D01*
X281024Y180500D01*
X281193Y179649D01*
X281676Y178928D01*
X282397Y178445D01*
X283248Y178276D01*
X289547D01*
X290398Y178445D01*
X291120Y178928D01*
X291148Y178971D01*
X293967D01*
X297071Y175866D01*
Y168500D01*
X297187Y167915D01*
X297519Y167419D01*
X303619Y161319D01*
X304115Y160987D01*
X304700Y160871D01*
X311367D01*
X312284Y159953D01*
X312077Y159453D01*
X310244D01*
Y159453D01*
X309882D01*
Y159453D01*
X302370D01*
Y157029D01*
X296800D01*
X296763Y157022D01*
X296726Y157028D01*
X290618Y156731D01*
X290256Y157076D01*
Y158953D01*
X282744D01*
Y158953D01*
X282382D01*
Y158953D01*
X280155D01*
Y181867D01*
X282000Y183711D01*
X282397Y183446D01*
X283248Y183276D01*
X289547D01*
X290398Y183446D01*
X291120Y183928D01*
X291602Y184649D01*
X291771Y185500D01*
X291602Y186351D01*
X291120Y187073D01*
X290398Y187555D01*
X289547Y187724D01*
X283248D01*
X282397Y187555D01*
X281676Y187073D01*
X281647Y187029D01*
X281626D01*
X281041Y186913D01*
X280545Y186581D01*
X277545Y183581D01*
X277213Y183085D01*
X277097Y182500D01*
Y158953D01*
X275829D01*
Y183867D01*
X280933Y188971D01*
X281647D01*
X281676Y188927D01*
X282397Y188445D01*
X283248Y188276D01*
X289547D01*
X290398Y188445D01*
X291120Y188927D01*
X291602Y189649D01*
X291771Y190500D01*
X291602Y191351D01*
X291120Y192072D01*
X290398Y192554D01*
X289547Y192724D01*
X287927D01*
Y193276D01*
X289547D01*
X290398Y193446D01*
X291120Y193928D01*
X291602Y194649D01*
X291771Y195500D01*
X291602Y196351D01*
X291120Y197073D01*
X290398Y197555D01*
X289547Y197724D01*
X287927D01*
Y198276D01*
X289547D01*
X290398Y198445D01*
X291120Y198927D01*
X291602Y199649D01*
X291771Y200500D01*
X291602Y201351D01*
X291120Y202073D01*
X290398Y202554D01*
X289547Y202724D01*
X283248D01*
X282397Y202554D01*
X281676Y202073D01*
X281193Y201351D01*
X281024Y200500D01*
X281193Y199649D01*
X281676Y198927D01*
X282397Y198445D01*
X283248Y198276D01*
X284868D01*
Y197724D01*
X283248D01*
X282397Y197555D01*
X281676Y197073D01*
X281193Y196351D01*
X281024Y195500D01*
X281193Y194649D01*
X281676Y193928D01*
X282397Y193446D01*
X283248Y193276D01*
X284868D01*
Y192724D01*
X283248D01*
X282397Y192554D01*
X281676Y192072D01*
X281647Y192029D01*
X278907D01*
X278778Y192529D01*
X279396Y193004D01*
X279957Y193735D01*
X280310Y194586D01*
X280430Y195500D01*
X280310Y196414D01*
X279957Y197265D01*
X279396Y197996D01*
X278665Y198557D01*
X277814Y198910D01*
X276900Y199030D01*
X275986Y198910D01*
X275135Y198557D01*
X274404Y197996D01*
X273843Y197265D01*
X273745Y197029D01*
X272251D01*
X272222Y197073D01*
X271501Y197555D01*
X270650Y197724D01*
X264350D01*
X263859Y197626D01*
X263395Y197979D01*
Y198021D01*
X263859Y198374D01*
X264350Y198276D01*
X270650D01*
X271501Y198445D01*
X272222Y198927D01*
X272704Y199649D01*
X272873Y200500D01*
X272704Y201351D01*
X272222Y202073D01*
X271501Y202554D01*
X270650Y202724D01*
X264350D01*
X263499Y202554D01*
X262778Y202073D01*
X262749Y202029D01*
X262600D01*
X262015Y201913D01*
X261519Y201581D01*
X260519Y200581D01*
X260187Y200085D01*
X260071Y199500D01*
Y191500D01*
X260187Y190915D01*
X260519Y190419D01*
X261519Y189419D01*
X262015Y189087D01*
X262600Y188971D01*
X262749D01*
X262778Y188927D01*
X263499Y188445D01*
X264350Y188276D01*
X270650D01*
X271501Y188445D01*
X272222Y188927D01*
X272251Y188971D01*
X275954D01*
X276146Y188509D01*
X273342Y185705D01*
X272905Y185790D01*
X272802Y185858D01*
X272704Y186351D01*
X272222Y187073D01*
X271501Y187555D01*
X270650Y187724D01*
X264350D01*
X263499Y187555D01*
X262778Y187073D01*
X262749Y187029D01*
X257134D01*
X256081Y188081D01*
X255585Y188413D01*
X255000Y188529D01*
X246130D01*
Y190953D01*
X238756D01*
X238618Y190953D01*
X238256D01*
X238118Y190953D01*
X233229D01*
Y196207D01*
X233729Y196454D01*
X234135Y196143D01*
X234986Y195790D01*
X235900Y195670D01*
X236814Y195790D01*
X237665Y196143D01*
X238396Y196704D01*
X238957Y197435D01*
X239310Y198286D01*
X239430Y199200D01*
X239310Y200114D01*
X239130Y200547D01*
X239464Y201047D01*
X239756Y201047D01*
X240118D01*
X240256Y201047D01*
X247630D01*
Y203471D01*
X255700D01*
X256285Y203587D01*
X256781Y203919D01*
X256834Y203971D01*
X262749D01*
X262778Y203927D01*
X263499Y203446D01*
X264350Y203276D01*
X270650D01*
X271501Y203446D01*
X272222Y203927D01*
X272704Y204649D01*
X272873Y205500D01*
X272704Y206351D01*
X272222Y207072D01*
X271501Y207555D01*
X270650Y207724D01*
X264350D01*
X263499Y207555D01*
X262778Y207072D01*
X262749Y207029D01*
X256200D01*
X255615Y206913D01*
X255119Y206581D01*
X255066Y206529D01*
X247630D01*
Y207729D01*
X247977Y207961D01*
X248130Y207984D01*
X249000Y207870D01*
X249914Y207990D01*
X250765Y208343D01*
X251496Y208904D01*
X252057Y209635D01*
X252410Y210486D01*
X252530Y211400D01*
X252410Y212314D01*
X252057Y213165D01*
X251496Y213896D01*
X250765Y214457D01*
X249914Y214810D01*
X249000Y214930D01*
X248086Y214810D01*
X247851Y214712D01*
X244155Y218408D01*
X244346Y218870D01*
X245953D01*
Y226244D01*
X245953Y226382D01*
Y226744D01*
X245953Y226882D01*
Y228971D01*
X249366D01*
X252671Y225666D01*
D02*
G37*
G36*
X326560Y214031D02*
X326622Y213785D01*
X325269Y212432D01*
X324937Y211936D01*
X324821Y211351D01*
Y197559D01*
X323382D01*
Y190441D01*
X329319D01*
Y190441D01*
X329681D01*
Y190441D01*
X335618D01*
Y190441D01*
X336115Y190587D01*
X336700Y190471D01*
X341244D01*
Y188047D01*
X343561D01*
X343587Y187915D01*
X343919Y187419D01*
X344919Y186419D01*
X345415Y186087D01*
X346000Y185971D01*
X356600D01*
X357185Y186087D01*
X357681Y186419D01*
X361807Y190544D01*
X362307Y190337D01*
Y183047D01*
X364534D01*
Y182500D01*
X364650Y181915D01*
X364982Y181419D01*
X366982Y179419D01*
X367478Y179087D01*
X368063Y178971D01*
X368445D01*
X368543Y178735D01*
X369104Y178004D01*
X369550Y177662D01*
X369559Y177039D01*
X369504Y176996D01*
X368943Y176265D01*
X368590Y175414D01*
X368470Y174500D01*
X368590Y173586D01*
X368688Y173351D01*
X343566Y148229D01*
X278633D01*
X276316Y150547D01*
X276523Y151047D01*
X282382D01*
Y151047D01*
X282744D01*
Y151047D01*
X290256D01*
Y153651D01*
X296837Y153971D01*
X302370D01*
Y151547D01*
X304959D01*
X305045Y151419D01*
X307245Y149219D01*
X307741Y148887D01*
X308326Y148771D01*
X321400D01*
X321985Y148887D01*
X322481Y149219D01*
X331181Y157919D01*
X331513Y158415D01*
X331629Y159000D01*
Y177050D01*
X331513Y177635D01*
X331181Y178131D01*
X329081Y180231D01*
X328585Y180563D01*
X328000Y180679D01*
X310559D01*
Y182118D01*
X304429D01*
Y184367D01*
X308581Y188519D01*
X308913Y189015D01*
X309029Y189600D01*
Y199870D01*
X311453D01*
Y207382D01*
X311453D01*
Y207744D01*
X311453D01*
Y209971D01*
X313345D01*
X313443Y209735D01*
X314004Y209004D01*
X314735Y208443D01*
X315586Y208090D01*
X316500Y207970D01*
X317414Y208090D01*
X318265Y208443D01*
X318996Y209004D01*
X319557Y209735D01*
X319910Y210586D01*
X320030Y211500D01*
X319910Y212414D01*
X319557Y213265D01*
X319169Y213771D01*
X319416Y214271D01*
X326400D01*
X326560Y214031D01*
D02*
G37*
G36*
X367940Y233122D02*
X367743Y232865D01*
X367390Y232014D01*
X367270Y231100D01*
X367390Y230186D01*
X367743Y229335D01*
X368304Y228604D01*
X369035Y228043D01*
X369886Y227690D01*
X370800Y227570D01*
X371714Y227690D01*
X371949Y227788D01*
X372822Y226915D01*
X372631Y226453D01*
X367807D01*
Y224029D01*
X366250D01*
X365664Y223913D01*
X365168Y223581D01*
X346521Y204934D01*
X346417Y204977D01*
X346059Y205319D01*
Y205681D01*
X346059D01*
Y211618D01*
X344688D01*
X344481Y212118D01*
X353581Y221219D01*
X353913Y221715D01*
X354029Y222300D01*
Y230500D01*
X353913Y231085D01*
X353581Y231581D01*
X352054Y233109D01*
X352246Y233571D01*
X367719D01*
X367940Y233122D01*
D02*
G37*
G36*
X367807Y218547D02*
X373171D01*
Y204111D01*
X373287Y203526D01*
X373619Y203030D01*
X374695Y201953D01*
X374488Y201453D01*
X370181D01*
Y201453D01*
X369819D01*
Y201453D01*
X362423D01*
X362152Y201889D01*
X363782Y203519D01*
X364065Y203941D01*
X365669D01*
X365669Y203941D01*
X366032D01*
Y203941D01*
X366169Y203941D01*
X371969D01*
Y211059D01*
X370769D01*
X370548Y211508D01*
X370607Y211585D01*
X370960Y212436D01*
X371080Y213350D01*
X370960Y214264D01*
X370607Y215115D01*
X370046Y215846D01*
X369315Y216407D01*
X368464Y216760D01*
X367550Y216880D01*
X366636Y216760D01*
X365785Y216407D01*
X365054Y215846D01*
X364493Y215115D01*
X364140Y214264D01*
X364020Y213350D01*
X364140Y212436D01*
X364493Y211585D01*
X364552Y211508D01*
X364331Y211059D01*
X359732D01*
Y203941D01*
X359732Y203941D01*
X359732D01*
X359487Y203549D01*
X356267Y200329D01*
X346120D01*
X346100Y200821D01*
X346685Y200937D01*
X347181Y201269D01*
X366883Y220971D01*
X367807D01*
Y218547D01*
D02*
G37*
G36*
X464671Y204934D02*
X457218Y197481D01*
X456756Y197672D01*
Y203453D01*
X456954Y203871D01*
X461550D01*
X462135Y203987D01*
X462631Y204319D01*
X463731Y205419D01*
X464063Y205915D01*
X464068Y205941D01*
X464671D01*
Y204934D01*
D02*
G37*
G36*
X406671Y220166D02*
Y208000D01*
X406787Y207415D01*
X407119Y206919D01*
X407615Y206587D01*
X408200Y206471D01*
X409198D01*
X409227Y206428D01*
X409948Y205945D01*
X410799Y205776D01*
X417098D01*
X417949Y205945D01*
X418671Y206428D01*
X418700Y206471D01*
X424100D01*
X424685Y206587D01*
X425181Y206919D01*
X426233Y207971D01*
X432882D01*
Y205941D01*
X438681D01*
X438819Y205941D01*
X439181D01*
X439319Y205941D01*
X445118D01*
Y207971D01*
X453382D01*
Y206929D01*
X448000D01*
X447415Y206813D01*
X446919Y206481D01*
X444045Y203607D01*
X443941Y203453D01*
X441370D01*
Y196529D01*
X440733D01*
X433181Y204081D01*
X432685Y204413D01*
X432100Y204529D01*
X418700D01*
X418671Y204573D01*
X417949Y205055D01*
X417098Y205224D01*
X410799D01*
X409948Y205055D01*
X409227Y204573D01*
X408745Y203851D01*
X408575Y203000D01*
X408745Y202149D01*
X409227Y201428D01*
X409948Y200945D01*
X410799Y200776D01*
X417098D01*
X417949Y200945D01*
X418671Y201428D01*
X418700Y201471D01*
X431466D01*
X437946Y194991D01*
X437754Y194529D01*
X434100D01*
X433515Y194413D01*
X433019Y194081D01*
X418574Y179637D01*
X417949Y180054D01*
X417098Y180224D01*
X410799D01*
X409948Y180054D01*
X409227Y179572D01*
X408745Y178851D01*
X408575Y178000D01*
X408745Y177149D01*
X409227Y176427D01*
X409948Y175945D01*
X410799Y175776D01*
X417098D01*
X417949Y175945D01*
X418671Y176427D01*
X418700Y176471D01*
X419100D01*
X419685Y176587D01*
X420181Y176919D01*
X434733Y191471D01*
X484667D01*
X484913Y190971D01*
X484547Y190493D01*
X484149Y189532D01*
X484013Y188500D01*
X484149Y187468D01*
X484547Y186507D01*
X484913Y186029D01*
X484667Y185529D01*
X471801D01*
X471215Y185413D01*
X470719Y185081D01*
X463906Y178268D01*
X458941D01*
Y176829D01*
X454134D01*
X451881Y179081D01*
X451385Y179413D01*
X450800Y179529D01*
X445693D01*
Y181953D01*
X438181D01*
Y181953D01*
X437819D01*
Y181953D01*
X430307D01*
Y174047D01*
X432534D01*
Y170817D01*
X432471Y170500D01*
Y166118D01*
X430441D01*
Y164679D01*
X402000D01*
X401415Y164563D01*
X400919Y164231D01*
X395482Y158794D01*
X395150Y158298D01*
X395034Y157713D01*
Y156453D01*
X393829D01*
Y165067D01*
X409804Y181042D01*
X409948Y180946D01*
X410799Y180776D01*
X417098D01*
X417949Y180946D01*
X418671Y181428D01*
X419153Y182149D01*
X419322Y183000D01*
X419153Y183851D01*
X418671Y184573D01*
X417949Y185055D01*
X417098Y185224D01*
X410799D01*
X409948Y185055D01*
X409227Y184573D01*
X409136Y184437D01*
X409015Y184413D01*
X408519Y184081D01*
X406813Y182376D01*
X406339Y182609D01*
X406430Y183300D01*
X406310Y184214D01*
X406239Y184384D01*
X406555Y184930D01*
X407014Y184990D01*
X407865Y185343D01*
X408596Y185904D01*
X409004Y186435D01*
X409227Y186427D01*
X409948Y185945D01*
X410799Y185776D01*
X417098D01*
X417949Y185945D01*
X418671Y186427D01*
X419153Y187149D01*
X419322Y188000D01*
X419153Y188851D01*
X418671Y189573D01*
X417949Y190055D01*
X417098Y190224D01*
X415478D01*
Y190776D01*
X417098D01*
X417949Y190945D01*
X418671Y191428D01*
X419153Y192149D01*
X419322Y193000D01*
X419153Y193851D01*
X418671Y194572D01*
X417949Y195054D01*
X417098Y195224D01*
X415478D01*
Y195776D01*
X417098D01*
X417949Y195946D01*
X418671Y196428D01*
X419153Y197149D01*
X419322Y198000D01*
X419153Y198851D01*
X418671Y199573D01*
X417949Y200055D01*
X417098Y200224D01*
X410799D01*
X409948Y200055D01*
X409227Y199573D01*
X409198Y199529D01*
X407272D01*
X407093Y200029D01*
X407557Y200635D01*
X407910Y201486D01*
X408030Y202400D01*
X407910Y203314D01*
X407557Y204165D01*
X406996Y204896D01*
X406265Y205457D01*
X406029Y205555D01*
Y219700D01*
X405930Y220200D01*
X406153Y220403D01*
X406342Y220495D01*
X406671Y220166D01*
D02*
G37*
G36*
X492971Y224267D02*
Y192846D01*
X492509Y192654D01*
X491081Y194081D01*
X490585Y194413D01*
X490034Y194523D01*
X490006Y194568D01*
X489993Y195047D01*
X490819Y195681D01*
X491453Y196507D01*
X491851Y197468D01*
X491921Y198000D01*
X488000D01*
X484079D01*
X484149Y197468D01*
X484547Y196507D01*
X485181Y195681D01*
X486007Y195047D01*
X486050Y195029D01*
X485950Y194529D01*
X459246D01*
X459054Y194991D01*
X467281Y203219D01*
X467613Y203715D01*
X467729Y204300D01*
Y236245D01*
X467965Y236343D01*
X468696Y236904D01*
X469257Y237635D01*
X469610Y238486D01*
X469730Y239400D01*
X469610Y240314D01*
X469257Y241165D01*
X468696Y241896D01*
X467965Y242457D01*
X467114Y242810D01*
X466200Y242930D01*
X465394Y242824D01*
X465189Y243107D01*
X465135Y243272D01*
X465934Y244071D01*
X473167D01*
X492971Y224267D01*
D02*
G37*
G36*
X362307Y201336D02*
Y195370D01*
X357092Y190155D01*
X356630Y190346D01*
Y195953D01*
X354313D01*
X354287Y196085D01*
X353955Y196581D01*
X353728Y196809D01*
X353920Y197271D01*
X356901D01*
X357486Y197387D01*
X357982Y197719D01*
X361871Y201607D01*
X362307Y201336D01*
D02*
G37*
G36*
X380662Y196829D02*
X380490Y196414D01*
X380370Y195500D01*
X380490Y194586D01*
X380843Y193735D01*
X381404Y193004D01*
X382135Y192443D01*
X382986Y192090D01*
X383900Y191970D01*
X384814Y192090D01*
X384955Y192149D01*
X385371Y191871D01*
Y190500D01*
X385487Y189915D01*
X385819Y189419D01*
X388319Y186919D01*
X388815Y186587D01*
X389400Y186471D01*
X390300D01*
X390329Y186427D01*
X391051Y185945D01*
X391902Y185776D01*
X398201D01*
X399052Y185945D01*
X399773Y186427D01*
X400255Y187149D01*
X400425Y188000D01*
X400255Y188851D01*
X399773Y189573D01*
X399052Y190055D01*
X398201Y190224D01*
X391902D01*
X391051Y190055D01*
X390329Y189573D01*
X389863Y189700D01*
X388429Y191133D01*
Y194266D01*
X390486Y196323D01*
X391051Y195946D01*
X391902Y195776D01*
X398201D01*
X399052Y195946D01*
X399773Y196428D01*
X399802Y196471D01*
X409198D01*
X409227Y196428D01*
X409948Y195946D01*
X410799Y195776D01*
X412419D01*
Y195224D01*
X410799D01*
X409948Y195054D01*
X409227Y194572D01*
X408745Y193851D01*
X408575Y193000D01*
X408745Y192149D01*
X409227Y191428D01*
X409948Y190945D01*
X410799Y190776D01*
X412419D01*
Y190224D01*
X410799D01*
X409948Y190055D01*
X409692Y189883D01*
X409214Y190029D01*
X409157Y190165D01*
X408596Y190896D01*
X407865Y191457D01*
X407014Y191810D01*
X406100Y191930D01*
X405186Y191810D01*
X404880Y191683D01*
X402481Y194081D01*
X401985Y194413D01*
X401400Y194529D01*
X399802D01*
X399773Y194572D01*
X399052Y195054D01*
X398201Y195224D01*
X391902D01*
X391051Y195054D01*
X390329Y194572D01*
X389847Y193851D01*
X389678Y193000D01*
X389847Y192149D01*
X390329Y191428D01*
X391051Y190945D01*
X391902Y190776D01*
X398201D01*
X399052Y190945D01*
X399773Y191428D01*
X399802Y191471D01*
X400767D01*
X402758Y189479D01*
X402690Y189314D01*
X402570Y188400D01*
X402690Y187486D01*
X402761Y187316D01*
X402445Y186770D01*
X401986Y186710D01*
X401135Y186357D01*
X400404Y185796D01*
X399843Y185065D01*
X399819Y185007D01*
X399340Y184862D01*
X399052Y185055D01*
X398201Y185224D01*
X391902D01*
X391051Y185055D01*
X390329Y184573D01*
X390300Y184529D01*
X387034D01*
X383481Y188081D01*
X382985Y188413D01*
X382400Y188529D01*
X377693D01*
Y190953D01*
X370319D01*
X370181Y190953D01*
Y190953D01*
X369819D01*
Y190953D01*
X362923D01*
X362716Y191453D01*
X364096Y192834D01*
X366063D01*
X366648Y192950D01*
X367144Y193282D01*
X367322Y193547D01*
X369819D01*
Y193547D01*
X370181D01*
Y193547D01*
X377693D01*
Y195971D01*
X378463D01*
X379048Y196087D01*
X379544Y196419D01*
X380238Y197112D01*
X380662Y196829D01*
D02*
G37*
G36*
X255419Y184419D02*
X255915Y184087D01*
X256500Y183971D01*
X262749D01*
X262778Y183928D01*
X263499Y183446D01*
X264350Y183276D01*
X270650D01*
X271501Y183446D01*
X272222Y183928D01*
X272271Y184000D01*
X272771Y183848D01*
Y182152D01*
X272271Y182000D01*
X272222Y182072D01*
X271501Y182554D01*
X270650Y182724D01*
X264350D01*
X263499Y182554D01*
X262778Y182072D01*
X262749Y182029D01*
X232333D01*
X231778Y182585D01*
X231969Y183047D01*
X238118D01*
X238256Y183047D01*
X238618D01*
X238756Y183047D01*
X246130D01*
Y185471D01*
X254366D01*
X255419Y184419D01*
D02*
G37*
G36*
X385319Y181919D02*
X385815Y181587D01*
X386400Y181471D01*
X390300D01*
X390329Y181428D01*
X391051Y180946D01*
X391902Y180776D01*
X398201D01*
X399052Y180946D01*
X399773Y181428D01*
X399921Y181432D01*
X400404Y180804D01*
X400463Y180758D01*
X400496Y180259D01*
X399806Y179569D01*
X399773Y179572D01*
X399052Y180054D01*
X398201Y180224D01*
X391902D01*
X391051Y180054D01*
X390329Y179572D01*
X389847Y178851D01*
X389678Y178000D01*
X389847Y177149D01*
X390329Y176427D01*
X391051Y175945D01*
X391902Y175776D01*
X398201D01*
X399052Y175945D01*
X399740Y176405D01*
X400109Y176350D01*
X400297Y175860D01*
X391219Y166781D01*
X390887Y166285D01*
X390771Y165700D01*
Y162563D01*
X390271Y162444D01*
X389602Y162957D01*
X388751Y163310D01*
X388128Y163392D01*
X387815Y163504D01*
X387693Y163916D01*
Y171453D01*
X380181D01*
Y171453D01*
X379819D01*
Y171453D01*
X374556D01*
X374395Y171926D01*
X374496Y172004D01*
X375057Y172735D01*
X375410Y173586D01*
X375530Y174500D01*
X375410Y175414D01*
X375057Y176265D01*
X374496Y176996D01*
X374050Y177338D01*
X374041Y177962D01*
X374096Y178004D01*
X374657Y178735D01*
X375010Y179586D01*
X375130Y180500D01*
X375010Y181414D01*
X374657Y182265D01*
X374441Y182547D01*
X374687Y183047D01*
X377693D01*
Y185471D01*
X381767D01*
X385319Y181919D01*
D02*
G37*
G36*
X492971Y184154D02*
Y150833D01*
X484566Y142429D01*
X382633D01*
X377592Y147470D01*
Y163547D01*
X379819D01*
Y163547D01*
X380181D01*
Y163547D01*
X382458D01*
X382524Y163215D01*
X382856Y162719D01*
X384525Y161049D01*
X384427Y160814D01*
X384307Y159900D01*
X384427Y158986D01*
X384780Y158135D01*
X385341Y157404D01*
X386072Y156843D01*
X386923Y156490D01*
X387837Y156370D01*
X388751Y156490D01*
X389602Y156843D01*
X390271Y157356D01*
X390771Y157237D01*
Y148000D01*
X390887Y147415D01*
X391219Y146919D01*
X391715Y146587D01*
X392300Y146471D01*
X403000D01*
X403585Y146587D01*
X404081Y146919D01*
X405518Y148355D01*
X405647Y148547D01*
X408193D01*
Y156453D01*
X400681D01*
Y156453D01*
X400319D01*
Y156453D01*
X398092D01*
Y157079D01*
X402633Y161620D01*
X430441D01*
Y160319D01*
X430441Y160181D01*
Y159819D01*
X430441Y159681D01*
Y153882D01*
X437559D01*
Y154721D01*
X438059Y154929D01*
X439569Y153419D01*
X440065Y153087D01*
X440650Y152971D01*
X441047D01*
Y150744D01*
X448953D01*
Y152971D01*
X458000D01*
X458585Y153087D01*
X459081Y153419D01*
X463581Y157919D01*
X463913Y158415D01*
X464029Y159000D01*
Y166032D01*
X466059D01*
Y171831D01*
X466059Y171968D01*
Y172331D01*
X466059Y172468D01*
Y176095D01*
X472434Y182471D01*
X485950D01*
X486050Y181971D01*
X486007Y181953D01*
X485181Y181319D01*
X484547Y180493D01*
X484149Y179532D01*
X484013Y178500D01*
X484149Y177468D01*
X484547Y176507D01*
X485181Y175681D01*
X486007Y175047D01*
X486968Y174649D01*
X488000Y174513D01*
X489032Y174649D01*
X489993Y175047D01*
X490819Y175681D01*
X491453Y176507D01*
X491851Y177468D01*
X491987Y178500D01*
X491851Y179532D01*
X491453Y180493D01*
X490819Y181319D01*
X489993Y181953D01*
X490006Y182432D01*
X490034Y182477D01*
X490585Y182587D01*
X491081Y182919D01*
X492509Y184346D01*
X492971Y184154D01*
D02*
G37*
G36*
X327907Y177080D02*
X327715Y176618D01*
X322441D01*
Y175179D01*
X316899D01*
X316314Y175063D01*
X315818Y174731D01*
X315466Y174380D01*
X310559D01*
Y175819D01*
X310559D01*
Y176181D01*
X310559D01*
Y177620D01*
X327366D01*
X327907Y177080D01*
D02*
G37*
G36*
X452419Y174218D02*
X452915Y173886D01*
X453501Y173770D01*
X458941D01*
Y172468D01*
X458941Y172331D01*
Y171968D01*
X458941Y171831D01*
Y166032D01*
X460971D01*
Y159634D01*
X457367Y156029D01*
X448953D01*
Y158118D01*
X448953Y158256D01*
Y158618D01*
X448953Y158756D01*
Y160845D01*
X449832D01*
X449835Y160843D01*
X450686Y160490D01*
X451600Y160370D01*
X452514Y160490D01*
X453365Y160843D01*
X454096Y161404D01*
X454657Y162135D01*
X455010Y162986D01*
X455130Y163900D01*
X455010Y164814D01*
X454657Y165665D01*
X454096Y166396D01*
X453365Y166957D01*
X452514Y167310D01*
X451600Y167430D01*
X450686Y167310D01*
X449835Y166957D01*
X449104Y166396D01*
X448899Y166130D01*
X441047D01*
Y158756D01*
X441047Y158618D01*
Y158256D01*
X441047Y158118D01*
Y156919D01*
X440585Y156728D01*
X439381Y157932D01*
X438885Y158263D01*
X438300Y158380D01*
X437559D01*
Y159681D01*
X437559Y159819D01*
Y160181D01*
X437559Y160319D01*
Y166118D01*
X435529D01*
Y170246D01*
X435592Y170563D01*
Y174047D01*
X437819D01*
Y174047D01*
X438181D01*
Y174047D01*
X445693D01*
Y176471D01*
X450167D01*
X452419Y174218D01*
D02*
G37*
G36*
X305971Y190234D02*
X301819Y186081D01*
X301487Y185585D01*
X301371Y185000D01*
Y173950D01*
X301487Y173365D01*
X301819Y172869D01*
X302919Y171769D01*
X303415Y171437D01*
X303441Y171432D01*
Y169882D01*
X310559D01*
Y171321D01*
X316100D01*
X316685Y171437D01*
X317181Y171769D01*
X317533Y172120D01*
X322441D01*
Y170681D01*
X322441D01*
Y170319D01*
X322441D01*
Y168880D01*
X318000D01*
X317415Y168763D01*
X316919Y168432D01*
X312919Y164432D01*
X312587Y163936D01*
X312563Y163817D01*
X312000Y163929D01*
X305333D01*
X300129Y169133D01*
Y176500D01*
X300013Y177085D01*
X299681Y177581D01*
X295916Y181346D01*
X295867Y182004D01*
X303481Y189619D01*
X303813Y190115D01*
X303929Y190700D01*
Y199870D01*
X305971D01*
Y190234D01*
D02*
G37*
G36*
X322441Y164382D02*
X328571D01*
Y159634D01*
X320766Y151829D01*
X317756D01*
Y159453D01*
X315529D01*
Y160400D01*
Y162717D01*
X318634Y165821D01*
X322441D01*
Y164382D01*
D02*
G37*
%LPC*%
G36*
X330000Y277929D02*
X312000D01*
X311415Y277813D01*
X310919Y277481D01*
X299549Y266112D01*
X299314Y266210D01*
X298400Y266330D01*
X297486Y266210D01*
X296635Y265857D01*
X295904Y265296D01*
X295343Y264565D01*
X294990Y263714D01*
X294870Y262800D01*
X294990Y261886D01*
X295343Y261035D01*
X295904Y260304D01*
X296635Y259743D01*
X297486Y259390D01*
X298400Y259270D01*
X299314Y259390D01*
X300165Y259743D01*
X300896Y260304D01*
X301457Y261035D01*
X301810Y261886D01*
X301930Y262800D01*
X301810Y263714D01*
X301712Y263949D01*
X312633Y274871D01*
X329366D01*
X330649Y273588D01*
X330470Y273060D01*
X330086Y273010D01*
X329235Y272657D01*
X328504Y272096D01*
X327943Y271365D01*
X327590Y270514D01*
X327470Y269600D01*
X327590Y268686D01*
X327688Y268451D01*
X325482Y266244D01*
X325150Y265748D01*
X325034Y265163D01*
Y262453D01*
X322807D01*
Y254547D01*
X330319D01*
Y254547D01*
X330681D01*
Y254547D01*
X338193D01*
Y262453D01*
X336529D01*
Y271400D01*
X336413Y271985D01*
X336081Y272481D01*
X331081Y277481D01*
X330585Y277813D01*
X330000Y277929D01*
D02*
G37*
G36*
X276900Y214030D02*
X275986Y213910D01*
X275135Y213557D01*
X274404Y212996D01*
X273843Y212265D01*
X273745Y212029D01*
X272251D01*
X272222Y212072D01*
X271501Y212555D01*
X270650Y212724D01*
X264350D01*
X263499Y212555D01*
X262778Y212072D01*
X262296Y211351D01*
X262127Y210500D01*
X262296Y209649D01*
X262778Y208927D01*
X263499Y208445D01*
X264350Y208276D01*
X270650D01*
X271501Y208445D01*
X272222Y208927D01*
X272251Y208971D01*
X273745D01*
X273843Y208735D01*
X274404Y208004D01*
X275135Y207443D01*
X275986Y207090D01*
X276900Y206970D01*
X277814Y207090D01*
X278665Y207443D01*
X279396Y208004D01*
X279957Y208735D01*
X280310Y209586D01*
X280430Y210500D01*
X280310Y211414D01*
X279957Y212265D01*
X279396Y212996D01*
X278665Y213557D01*
X277814Y213910D01*
X276900Y214030D01*
D02*
G37*
G36*
X488000Y212487D02*
X486968Y212351D01*
X486007Y211953D01*
X485181Y211319D01*
X484547Y210493D01*
X484149Y209532D01*
X484013Y208500D01*
X484149Y207468D01*
X484547Y206507D01*
X485181Y205681D01*
X486007Y205047D01*
X486968Y204649D01*
X488000Y204513D01*
X489032Y204649D01*
X489993Y205047D01*
X490819Y205681D01*
X491453Y206507D01*
X491851Y207468D01*
X491987Y208500D01*
X491851Y209532D01*
X491453Y210493D01*
X490819Y211319D01*
X489993Y211953D01*
X489032Y212351D01*
X488000Y212487D01*
D02*
G37*
G36*
X488500Y202421D02*
Y199000D01*
X491921D01*
X491851Y199532D01*
X491453Y200493D01*
X490819Y201319D01*
X489993Y201953D01*
X489032Y202351D01*
X488500Y202421D01*
D02*
G37*
G36*
X487500D02*
X486968Y202351D01*
X486007Y201953D01*
X485181Y201319D01*
X484547Y200493D01*
X484149Y199532D01*
X484079Y199000D01*
X487500D01*
Y202421D01*
D02*
G37*
G36*
X488000Y172487D02*
X486968Y172351D01*
X486007Y171953D01*
X485181Y171319D01*
X484547Y170493D01*
X484149Y169532D01*
X484013Y168500D01*
X484149Y167468D01*
X484547Y166507D01*
X485181Y165681D01*
X486007Y165047D01*
X486968Y164649D01*
X488000Y164513D01*
X489032Y164649D01*
X489993Y165047D01*
X490819Y165681D01*
X491453Y166507D01*
X491851Y167468D01*
X491987Y168500D01*
X491851Y169532D01*
X491453Y170493D01*
X490819Y171319D01*
X489993Y171953D01*
X489032Y172351D01*
X488000Y172487D01*
D02*
G37*
G36*
X491953Y162453D02*
X484047D01*
Y154547D01*
X491953D01*
Y162453D01*
D02*
G37*
%LPD*%
D14*
X373937Y187000D02*
X382400D01*
X386400Y183000D01*
X395051D01*
X307000Y172850D02*
X316100D01*
X316899Y173650D01*
X326000D01*
X442150Y209500D02*
X456350D01*
Y214200D01*
X452874Y217676D02*
X456350Y214200D01*
X452874Y217676D02*
Y222500D01*
X434000Y163150D02*
Y170500D01*
X434063Y170563D01*
Y178000D01*
X434000Y156850D02*
X438300D01*
X440650Y154500D01*
X445000D01*
X413949Y188000D02*
Y193000D01*
Y198000D01*
X395051D02*
X413949D01*
X286398Y195500D02*
Y200500D01*
Y190500D02*
Y195500D01*
X429937Y231500D02*
Y237600D01*
X435150Y242813D01*
Y249000D01*
X413949Y208000D02*
X424100D01*
X425600Y209500D01*
X435850D01*
X414500Y247299D02*
X422490D01*
X424191Y249000D01*
X428850D01*
X316000Y236500D02*
X331200D01*
X331700Y236000D01*
X342000D01*
X343000Y237000D01*
Y240500D01*
X278626Y155000D02*
Y182500D01*
X281626Y185500D01*
X286398D01*
X401500Y255000D02*
X410900Y264400D01*
X413201D02*
Y266000D01*
X394701Y255000D02*
X397201Y252500D01*
Y240500D02*
Y252500D01*
X445126Y199500D02*
Y202526D01*
X448000Y205400D01*
X461550D01*
X462650Y206500D01*
Y209500D01*
X441937Y178000D02*
X450800D01*
X453501Y175299D01*
X462500D01*
X422063Y231500D02*
Y236937D01*
X418000Y241000D02*
X422063Y236937D01*
X414500Y241000D02*
X418000D01*
X445000Y154500D02*
X458000D01*
X462500Y159000D01*
Y169000D01*
X262600Y190500D02*
X267500D01*
X261600Y191500D02*
X262600Y190500D01*
X261600Y191500D02*
Y199500D01*
X262600Y200500D01*
X267500D01*
X306126Y152500D02*
Y155500D01*
Y152500D02*
X308326Y150300D01*
X321400D01*
X330100Y159000D01*
Y177050D01*
X328000Y179150D02*
X330100Y177050D01*
X307000Y179150D02*
X328000D01*
X314000Y163350D02*
X318000Y167350D01*
X326000D01*
X293000Y230650D02*
X299600D01*
X309450Y240500D01*
X335126D01*
X302558Y230201D02*
X316000D01*
X296708Y224350D02*
X302558Y230201D01*
X293000Y224350D02*
X296708D01*
X287087D02*
X293000D01*
X282937Y228500D02*
X287087Y224350D01*
X282937Y228500D02*
Y249000D01*
X267500Y190500D02*
X280300D01*
X366250Y222500D02*
X371563D01*
X346100Y202350D02*
X366250Y222500D01*
X342500Y202350D02*
X346100D01*
X336700Y192000D02*
X345000D01*
X335300Y193400D02*
X336700Y192000D01*
X332650Y193400D02*
Y194000D01*
X366063Y194363D02*
Y197500D01*
X356600Y187500D02*
X363463Y194363D01*
X346000Y187500D02*
X356600D01*
X345000Y188500D02*
X346000Y187500D01*
X345000Y188500D02*
Y192000D01*
X280300Y190500D02*
X286398D01*
X274300Y184500D02*
X280300Y190500D01*
X274300Y150400D02*
Y184500D01*
Y150400D02*
X278000Y146700D01*
X344200D01*
X372000Y174500D01*
X383900Y195500D02*
X386400Y198000D01*
X390149Y203000D02*
X395051D01*
X387960Y200811D02*
X390149Y203000D01*
X381774Y200811D02*
X387960D01*
X378463Y197500D02*
X381774Y200811D01*
X373937Y197500D02*
X378463D01*
X458000Y228600D02*
Y246500D01*
X429937Y227637D02*
Y231500D01*
X415000Y212700D02*
X429937Y227637D01*
X307500Y189600D02*
Y203626D01*
X302900Y185000D02*
X307500Y189600D01*
X302900Y173950D02*
Y185000D01*
Y173950D02*
X304000Y172850D01*
X307000D01*
X343000Y236100D02*
X344000Y235100D01*
X389100D01*
X404500Y219700D01*
Y202400D02*
Y219700D01*
X462500Y175299D02*
X463100D01*
X471801Y184000D01*
X490000D01*
X492500Y186500D01*
Y190500D01*
X490000Y193000D02*
X492500Y190500D01*
X413949Y178000D02*
X419100D01*
X402000Y163150D02*
X434000D01*
X396563Y157713D02*
X402000Y163150D01*
X396563Y152500D02*
Y157713D01*
X413949Y203000D02*
X432100D01*
X440100Y195000D01*
X452000D01*
X453000Y196000D01*
Y199500D01*
X404437Y149437D02*
Y152500D01*
X403000Y148000D02*
X404437Y149437D01*
X392300Y148000D02*
X403000D01*
X392300D02*
Y165700D01*
X409600Y183000D01*
X413949D01*
X379400Y222500D02*
X379437D01*
X370800Y231100D02*
X379400Y222500D01*
X342701D02*
Y226000D01*
X341601Y221400D02*
X342701Y222500D01*
X336399Y221400D02*
X341601D01*
X326350Y211351D02*
X336399Y221400D01*
X326350Y194000D02*
Y211351D01*
X362701Y204600D02*
Y207500D01*
X356901Y198800D02*
X362701Y204600D01*
X338400Y198800D02*
X356901D01*
X338400D02*
Y207500D01*
X339550Y208650D01*
X342500D01*
X342701Y226000D02*
Y229500D01*
X341301Y230900D02*
X342701Y229500D01*
X336500Y230900D02*
X341301D01*
X335500Y231900D02*
X336500Y230900D01*
X325300Y231900D02*
X335500D01*
X323034Y229634D02*
X325300Y231900D01*
X323034Y225766D02*
Y229634D01*
X317318Y220050D02*
X323034Y225766D01*
X299207Y220050D02*
X317318D01*
X297957Y218800D02*
X299207Y220050D01*
X259900Y218800D02*
X297957D01*
X254200Y224500D02*
X259900Y218800D01*
X254200Y224500D02*
Y226300D01*
X250000Y230500D02*
X254200Y226300D01*
X242000Y230500D02*
X250000D01*
X294600Y180500D02*
X298600Y176500D01*
Y168500D02*
Y176500D01*
Y168500D02*
X304700Y162400D01*
X312000D01*
X314000Y160400D01*
Y155500D02*
Y160400D01*
X462650Y209500D02*
Y211800D01*
X462200Y212250D02*
X462650Y211800D01*
X462200Y212250D02*
Y242500D01*
X465300Y245600D01*
X473800D01*
X494500Y224900D01*
Y150200D02*
Y224900D01*
X485200Y140900D02*
X494500Y150200D01*
X382000Y140900D02*
X485200D01*
X376063Y146837D02*
X382000Y140900D01*
X376063Y146837D02*
Y167500D01*
X419100Y178000D02*
X434100Y193000D01*
X454900D01*
X466200Y204300D01*
Y239400D01*
X408200Y208000D02*
X413949D01*
X408200D02*
Y220800D01*
X383000Y246000D02*
X408200Y220800D01*
X366063Y182500D02*
Y187000D01*
Y182500D02*
X368063Y180500D01*
X371600D01*
X383811Y202811D02*
X386100Y205100D01*
X376000Y202811D02*
X383811D01*
X374700Y204111D02*
X376000Y202811D01*
X371563Y222500D02*
X374700D01*
X334437Y258500D02*
X335000D01*
X330000Y276400D02*
X335000Y271400D01*
X312000Y276400D02*
X330000D01*
X298400Y262800D02*
X312000Y276400D01*
X286398Y205500D02*
X298400D01*
X242000Y218400D02*
X249000Y211400D01*
X242000Y218400D02*
Y222626D01*
X343000Y240500D02*
Y279746D01*
X338446Y284300D02*
X343000Y279746D01*
X260800Y284300D02*
X338446D01*
X229700Y253200D02*
X260800Y284300D01*
X229700Y182500D02*
Y253200D01*
Y182500D02*
X231700Y180500D01*
X267500D01*
X361547Y287000D02*
X364000Y284547D01*
X390453D01*
X411900Y247299D02*
X414500D01*
X410200Y248999D02*
X411900Y247299D01*
X410200Y248999D02*
Y252500D01*
X361800Y263000D02*
X363437D01*
X410000Y241000D02*
X414500D01*
X407500Y243500D02*
X410000Y241000D01*
X407500Y243500D02*
Y246000D01*
X326563Y265163D02*
X331000Y269600D01*
X326563Y258500D02*
Y265163D01*
X403500Y253832D02*
X406205Y256537D01*
X356000Y289000D02*
X382063Y262937D01*
Y255000D02*
Y262937D01*
X267500Y210500D02*
X276900D01*
X419500Y266000D02*
Y275000D01*
X277300Y251900D02*
X280900Y255500D01*
X275063Y249000D02*
X277300D01*
X307500Y211500D02*
X316500D01*
X242374Y187000D02*
X255000D01*
X256500Y185500D01*
X267500D01*
X243874Y205000D02*
X255700D01*
X256200Y205500D01*
X267500D01*
X286500Y155000D02*
X296800Y155500D01*
X306126D01*
X231700Y187000D02*
X234500D01*
X231700Y229000D02*
X262200Y259500D01*
X286000D01*
X293000Y252500D01*
Y230650D02*
Y252500D01*
X403500Y240500D02*
Y253832D01*
X406205Y256537D02*
X418000D01*
X423500Y262037D01*
Y282900D01*
X235900Y199200D02*
X236000Y199300D01*
Y205000D01*
X266500Y230937D02*
X275200D01*
X285337Y220800D01*
X296300D01*
X302200Y226700D01*
X320000D01*
X321000Y227700D01*
Y230500D01*
X324400Y233900D01*
X338500D01*
X339300Y233100D01*
X349900D01*
X352500Y230500D01*
Y222300D02*
Y230500D01*
X342500Y212300D02*
X352500Y222300D01*
X342500Y208650D02*
Y212300D01*
X341547Y286500D02*
X355563Y272484D01*
Y263000D02*
Y272484D01*
X450074Y162374D02*
X451600Y163900D01*
X445000Y162374D02*
X450074D01*
X262037Y223063D02*
X266500D01*
X258200Y226900D02*
X262037Y223063D01*
X389400Y188000D02*
X395051D01*
X386900Y190500D02*
X389400Y188000D01*
X386900Y190500D02*
Y194900D01*
X390000Y198000D01*
X395051D01*
X332000Y229900D02*
X336500Y225400D01*
X328500Y229900D02*
X332000D01*
X325632Y227032D02*
X328500Y229900D01*
X325632Y222732D02*
Y227032D01*
X320803Y217903D02*
X325632Y222732D01*
X300562Y217903D02*
X320803D01*
X293160Y210500D02*
X300562Y217903D01*
X286398Y210500D02*
X293160D01*
X292200Y180500D02*
X302400Y190700D01*
Y214700D01*
X303500Y215800D01*
X326500D01*
X330500Y219800D01*
Y223900D01*
X383937Y163800D02*
X387837Y159900D01*
X383937Y163800D02*
Y167500D01*
X368000Y213350D02*
X369000Y207500D01*
X367550Y213350D02*
X368000D01*
X395400Y218300D02*
Y222500D01*
X385100Y232800D02*
X395400Y222500D01*
X381700Y232800D02*
X385100D01*
X379400Y230500D02*
X381700Y232800D01*
X379437Y207148D02*
Y222500D01*
X402900Y180500D02*
Y183300D01*
X400400Y178000D02*
X402900Y180500D01*
X395051Y178000D02*
X400400D01*
X348200Y223400D02*
X349000Y226000D01*
X332000Y207200D02*
X348200Y223400D01*
X332000Y201700D02*
Y207200D01*
Y201700D02*
X337200Y196500D01*
X351874D01*
X352874Y195500D01*
Y192000D02*
Y195500D01*
X389300Y208000D02*
X395051D01*
X389300D02*
Y222600D01*
X383400Y228500D02*
X389300Y222600D01*
X383400Y228500D02*
Y228800D01*
X267500Y195500D02*
X276900D01*
X395051Y193000D02*
X401400D01*
X406000Y188400D01*
X406100D01*
X335000Y258500D02*
Y271400D01*
X361800Y263000D02*
Y276300D01*
X231700Y187000D02*
Y229000D01*
X423500Y282900D02*
Y286000D01*
X389937Y255000D02*
X394701D01*
X401500D01*
X410900Y264400D02*
X413201D01*
X374700Y204111D02*
Y222500D01*
X332650Y193400D02*
X335300D01*
X363463Y194363D02*
X366063D01*
X277300Y249000D02*
Y251900D01*
X386400Y198000D02*
X390000D01*
X314000Y160400D02*
Y163350D01*
X286398Y180500D02*
X292200D01*
X294600D01*
X343000Y236100D02*
Y237000D01*
X454900Y193000D02*
X490000D01*
X379400Y222500D02*
Y230500D01*
X346000Y289000D02*
X351500Y294500D01*
X360500D02*
X361547Y293453D01*
X351500Y294500D02*
X360500D01*
X361547Y287000D02*
Y293453D01*
X379500Y297500D02*
X381500Y295500D01*
X342133Y297500D02*
X379500D01*
X341547Y296914D02*
X342133Y297500D01*
X341547Y286500D02*
Y296914D01*
X381500Y293500D02*
Y295500D01*
Y293500D02*
X386000Y289000D01*
X423500Y286000D02*
X428500Y291000D01*
X437752D01*
X450126Y278626D01*
Y246500D02*
Y278626D01*
X448800Y295500D02*
X458000Y286300D01*
Y246500D02*
Y286300D01*
X425000Y295500D02*
X448800D01*
X419500Y290000D02*
X425000Y295500D01*
X419500Y275000D02*
Y290000D01*
X441000Y226500D02*
X442547Y224953D01*
X442744D01*
X445000Y222697D01*
Y222500D02*
Y222697D01*
X439000Y233000D02*
X441500Y235500D01*
X439000Y227086D02*
Y233000D01*
Y227086D02*
X439586Y226500D01*
X441000D01*
X440500Y266500D02*
X440914D01*
X441500Y265914D01*
Y235500D02*
Y265914D01*
X390453Y284547D02*
X394000Y281000D01*
Y280000D02*
Y281000D01*
D15*
X332650Y194000D02*
D03*
X326350D02*
D03*
X462650Y209500D02*
D03*
X456350D02*
D03*
X349000Y226000D02*
D03*
X342701D02*
D03*
X369000Y207500D02*
D03*
X362701D02*
D03*
X435850Y209500D02*
D03*
X442150D02*
D03*
X403500Y240500D02*
D03*
X397201D02*
D03*
X419500Y266000D02*
D03*
X413201D02*
D03*
X435150Y249000D02*
D03*
X428850D02*
D03*
D16*
X342500Y202350D02*
D03*
Y208650D02*
D03*
X434000Y163150D02*
D03*
Y156850D02*
D03*
X462500Y175299D02*
D03*
Y169000D02*
D03*
X293000Y230650D02*
D03*
Y224350D02*
D03*
X307000Y179150D02*
D03*
Y172850D02*
D03*
X414500Y241000D02*
D03*
Y247299D02*
D03*
X316000Y236500D02*
D03*
Y230201D02*
D03*
X326000Y167350D02*
D03*
Y173650D02*
D03*
D17*
X242000Y222626D02*
D03*
Y230500D02*
D03*
X266500Y223063D02*
D03*
Y230937D02*
D03*
X445000Y162374D02*
D03*
Y154500D02*
D03*
X307500Y211500D02*
D03*
Y203626D02*
D03*
D18*
X445000Y222500D02*
D03*
X452874D02*
D03*
X366063Y197500D02*
D03*
X373937D02*
D03*
X366063Y187000D02*
D03*
X373937D02*
D03*
X396563Y152500D02*
D03*
X404437D02*
D03*
X445126Y199500D02*
D03*
X453000D02*
D03*
X345000Y192000D02*
D03*
X352874D02*
D03*
X371563Y222500D02*
D03*
X379437D02*
D03*
X434063Y178000D02*
D03*
X441937D02*
D03*
X376063Y167500D02*
D03*
X383937D02*
D03*
X382063Y255000D02*
D03*
X389937D02*
D03*
X275063Y249000D02*
D03*
X282937D02*
D03*
X355563Y263000D02*
D03*
X363437D02*
D03*
X236000Y205000D02*
D03*
X243874D02*
D03*
X234500Y187000D02*
D03*
X242374D02*
D03*
X286500Y155000D02*
D03*
X278626D02*
D03*
X326563Y258500D02*
D03*
X334437D02*
D03*
X450126Y246500D02*
D03*
X458000D02*
D03*
X335126Y240500D02*
D03*
X343000D02*
D03*
X306126Y155500D02*
D03*
X314000D02*
D03*
X422063Y231500D02*
D03*
X429937D02*
D03*
D19*
X395051Y208000D02*
D03*
Y203000D02*
D03*
Y198000D02*
D03*
Y193000D02*
D03*
Y188000D02*
D03*
Y183000D02*
D03*
Y178000D02*
D03*
X413949Y208000D02*
D03*
Y203000D02*
D03*
Y198000D02*
D03*
Y193000D02*
D03*
Y188000D02*
D03*
Y183000D02*
D03*
Y178000D02*
D03*
X267500Y210500D02*
D03*
Y205500D02*
D03*
Y200500D02*
D03*
Y195500D02*
D03*
Y190500D02*
D03*
Y185500D02*
D03*
Y180500D02*
D03*
X286398Y210500D02*
D03*
Y205500D02*
D03*
Y200500D02*
D03*
Y195500D02*
D03*
Y190500D02*
D03*
Y185500D02*
D03*
Y180500D02*
D03*
D29*
X316000Y289000D02*
D03*
D30*
X326000D02*
D03*
X336000D02*
D03*
X346000D02*
D03*
X356000D02*
D03*
X366000D02*
D03*
X376000D02*
D03*
X386000D02*
D03*
X488000Y168500D02*
D03*
Y178500D02*
D03*
Y188500D02*
D03*
Y198500D02*
D03*
Y208500D02*
D03*
D31*
Y158500D02*
D03*
D32*
X372000Y174500D02*
D03*
X383900Y195500D02*
D03*
X458000Y228600D02*
D03*
X415000Y212700D02*
D03*
X404500Y202400D02*
D03*
X370800Y231100D02*
D03*
X466200Y239400D02*
D03*
X383000Y246000D02*
D03*
X371600Y180500D02*
D03*
X386100Y205100D02*
D03*
X298400Y262800D02*
D03*
Y205500D02*
D03*
X249000Y211400D02*
D03*
X410200Y252500D02*
D03*
X361800Y276300D02*
D03*
X407500Y246000D02*
D03*
X331000Y269600D02*
D03*
X276900Y210500D02*
D03*
X419500Y275000D02*
D03*
X280900Y255500D02*
D03*
X316500Y211500D02*
D03*
X423500Y282900D02*
D03*
X235900Y199200D02*
D03*
X451600Y163900D02*
D03*
X258200Y226900D02*
D03*
X336500Y225400D02*
D03*
X330500Y223900D02*
D03*
X387837Y159900D02*
D03*
X367550Y213350D02*
D03*
X395400Y218300D02*
D03*
X379437Y207148D02*
D03*
X402900Y183300D02*
D03*
X332000Y207200D02*
D03*
X383400Y228800D02*
D03*
X276900Y195500D02*
D03*
X406100Y188400D02*
D03*
X440500Y266500D02*
D03*
X394000Y280000D02*
D03*
M02*
