G04*
G04 #@! TF.GenerationSoftware,Altium Limited,Altium Designer,20.0.2 (26)*
G04*
G04 Layer_Color=8388736*
%FSLAX25Y25*%
%MOIN*%
G70*
G01*
G75*
%ADD20R,0.04737X0.05918*%
%ADD21R,0.05918X0.04737*%
%ADD22R,0.06706X0.06312*%
%ADD23R,0.06312X0.06706*%
%ADD24O,0.09461X0.03162*%
%ADD25R,0.06706X0.06706*%
%ADD26C,0.06706*%
%ADD27R,0.06706X0.06706*%
%ADD28C,0.05800*%
D20*
X332650Y194000D02*
D03*
X326350D02*
D03*
X462650Y209500D02*
D03*
X456350D02*
D03*
X349000Y226000D02*
D03*
X342701D02*
D03*
X369000Y207500D02*
D03*
X362701D02*
D03*
X435850Y209500D02*
D03*
X442150D02*
D03*
X403500Y240500D02*
D03*
X397201D02*
D03*
X419500Y266000D02*
D03*
X413201D02*
D03*
X435150Y249000D02*
D03*
X428850D02*
D03*
D21*
X342500Y202350D02*
D03*
Y208650D02*
D03*
X434000Y163150D02*
D03*
Y156850D02*
D03*
X462500Y175299D02*
D03*
Y169000D02*
D03*
X293000Y230650D02*
D03*
Y224350D02*
D03*
X307000Y179150D02*
D03*
Y172850D02*
D03*
X414500Y241000D02*
D03*
Y247299D02*
D03*
X316000Y236500D02*
D03*
Y230201D02*
D03*
X326000Y167350D02*
D03*
Y173650D02*
D03*
D22*
X242000Y222626D02*
D03*
Y230500D02*
D03*
X266500Y223063D02*
D03*
Y230937D02*
D03*
X445000Y162374D02*
D03*
Y154500D02*
D03*
X307500Y211500D02*
D03*
Y203626D02*
D03*
D23*
X445000Y222500D02*
D03*
X452874D02*
D03*
X366063Y197500D02*
D03*
X373937D02*
D03*
X366063Y187000D02*
D03*
X373937D02*
D03*
X396563Y152500D02*
D03*
X404437D02*
D03*
X445126Y199500D02*
D03*
X453000D02*
D03*
X345000Y192000D02*
D03*
X352874D02*
D03*
X371563Y222500D02*
D03*
X379437D02*
D03*
X434063Y178000D02*
D03*
X441937D02*
D03*
X376063Y167500D02*
D03*
X383937D02*
D03*
X382063Y255000D02*
D03*
X389937D02*
D03*
X275063Y249000D02*
D03*
X282937D02*
D03*
X355563Y263000D02*
D03*
X363437D02*
D03*
X236000Y205000D02*
D03*
X243874D02*
D03*
X234500Y187000D02*
D03*
X242374D02*
D03*
X286500Y155000D02*
D03*
X278626D02*
D03*
X326563Y258500D02*
D03*
X334437D02*
D03*
X450126Y246500D02*
D03*
X458000D02*
D03*
X335126Y240500D02*
D03*
X343000D02*
D03*
X306126Y155500D02*
D03*
X314000D02*
D03*
X422063Y231500D02*
D03*
X429937D02*
D03*
D24*
X395051Y208000D02*
D03*
Y203000D02*
D03*
Y198000D02*
D03*
Y193000D02*
D03*
Y188000D02*
D03*
Y183000D02*
D03*
Y178000D02*
D03*
X413949Y208000D02*
D03*
Y203000D02*
D03*
Y198000D02*
D03*
Y193000D02*
D03*
Y188000D02*
D03*
Y183000D02*
D03*
Y178000D02*
D03*
X267500Y210500D02*
D03*
Y205500D02*
D03*
Y200500D02*
D03*
Y195500D02*
D03*
Y190500D02*
D03*
Y185500D02*
D03*
Y180500D02*
D03*
X286398Y210500D02*
D03*
Y205500D02*
D03*
Y200500D02*
D03*
Y195500D02*
D03*
Y190500D02*
D03*
Y185500D02*
D03*
Y180500D02*
D03*
D25*
X316000Y289000D02*
D03*
D26*
X326000D02*
D03*
X336000D02*
D03*
X346000D02*
D03*
X356000D02*
D03*
X366000D02*
D03*
X376000D02*
D03*
X386000D02*
D03*
X488000Y168500D02*
D03*
Y178500D02*
D03*
Y188500D02*
D03*
Y198500D02*
D03*
Y208500D02*
D03*
D27*
Y158500D02*
D03*
D28*
X372000Y174500D02*
D03*
X383900Y195500D02*
D03*
X458000Y228600D02*
D03*
X415000Y212700D02*
D03*
X404500Y202400D02*
D03*
X370800Y231100D02*
D03*
X466200Y239400D02*
D03*
X383000Y246000D02*
D03*
X371600Y180500D02*
D03*
X386100Y205100D02*
D03*
X298400Y262800D02*
D03*
Y205500D02*
D03*
X249000Y211400D02*
D03*
X410200Y252500D02*
D03*
X361800Y276300D02*
D03*
X407500Y246000D02*
D03*
X331000Y269600D02*
D03*
X276900Y210500D02*
D03*
X419500Y275000D02*
D03*
X280900Y255500D02*
D03*
X316500Y211500D02*
D03*
X423500Y282900D02*
D03*
X235900Y199200D02*
D03*
X451600Y163900D02*
D03*
X258200Y226900D02*
D03*
X336500Y225400D02*
D03*
X330500Y223900D02*
D03*
X387837Y159900D02*
D03*
X367550Y213350D02*
D03*
X395400Y218300D02*
D03*
X379437Y207148D02*
D03*
X402900Y183300D02*
D03*
X332000Y207200D02*
D03*
X383400Y228800D02*
D03*
X276900Y195500D02*
D03*
X406100Y188400D02*
D03*
X440500Y266500D02*
D03*
X394000Y280000D02*
D03*
M02*
