M48
;Layer_Color=9474304
;FILE_FORMAT=2:5
INCH,LZ
;TYPE=PLATED
T1F00S00C0.02800
T2F00S00C0.03543
%
T01
X03165Y02115
X0332Y02072
X03305Y02239
X03365Y02254
X03708Y02311
X03834Y02288
X0383Y0246
X04075
X04102Y02525
X04195Y0275
X04235Y02829
X0394Y028
X03618Y02763
X0331Y02696
X036755Y021335
X0379437Y0207148
X03861Y02051
X03839Y01955
X03716Y01805
X0372Y01745
X0387837Y01599
X04029Y01833
X04061Y01884
X04045Y02024
X0415Y02127
X03954Y02183
X0458Y02286
X04662Y02394
X04405Y02665
X04516Y01639
X02984Y02055
X02769Y02105
Y01955
X0249Y02114
X02582Y02269
X02359Y01992
X02809Y02555
X02984Y02628
T02
X0488Y01585
Y01685
Y01785
Y01885
Y01985
Y02085
X0386Y0289
X0376
X0366
X0356
X0346
X0336
X0326
X0316
M30
